G04 #@! TF.GenerationSoftware,KiCad,Pcbnew,(5.1.0-0)*
G04 #@! TF.CreationDate,2019-04-24T02:20:35-07:00*
G04 #@! TF.ProjectId,power board,706f7765-7220-4626-9f61-72642e6b6963,rev?*
G04 #@! TF.SameCoordinates,Original*
G04 #@! TF.FileFunction,Legend,Top*
G04 #@! TF.FilePolarity,Positive*
%FSLAX46Y46*%
G04 Gerber Fmt 4.6, Leading zero omitted, Abs format (unit mm)*
G04 Created by KiCad (PCBNEW (5.1.0-0)) date 2019-04-24 02:20:35*
%MOMM*%
%LPD*%
G04 APERTURE LIST*
%ADD10C,0.300000*%
%ADD11C,0.500000*%
%ADD12C,0.100000*%
%ADD13C,0.120000*%
%ADD14C,0.127000*%
%ADD15C,0.200000*%
%ADD16C,0.254000*%
%ADD17C,0.050000*%
%ADD18C,0.150000*%
G04 APERTURE END LIST*
D10*
X33135714Y-104588571D02*
X34135714Y-106088571D01*
X34135714Y-104588571D02*
X33135714Y-106088571D01*
X34492857Y-104588571D02*
X35350000Y-104588571D01*
X34921428Y-106088571D02*
X34921428Y-104588571D01*
X35707142Y-104588571D02*
X36635714Y-104588571D01*
X36135714Y-105160000D01*
X36350000Y-105160000D01*
X36492857Y-105231428D01*
X36564285Y-105302857D01*
X36635714Y-105445714D01*
X36635714Y-105802857D01*
X36564285Y-105945714D01*
X36492857Y-106017142D01*
X36350000Y-106088571D01*
X35921428Y-106088571D01*
X35778571Y-106017142D01*
X35707142Y-105945714D01*
X37564285Y-104588571D02*
X37707142Y-104588571D01*
X37850000Y-104660000D01*
X37921428Y-104731428D01*
X37992857Y-104874285D01*
X38064285Y-105160000D01*
X38064285Y-105517142D01*
X37992857Y-105802857D01*
X37921428Y-105945714D01*
X37850000Y-106017142D01*
X37707142Y-106088571D01*
X37564285Y-106088571D01*
X37421428Y-106017142D01*
X37350000Y-105945714D01*
X37278571Y-105802857D01*
X37207142Y-105517142D01*
X37207142Y-105160000D01*
X37278571Y-104874285D01*
X37350000Y-104731428D01*
X37421428Y-104660000D01*
X37564285Y-104588571D01*
X39707142Y-106088571D02*
X40492857Y-105088571D01*
X39707142Y-105088571D02*
X40492857Y-106088571D01*
X42064285Y-104588571D02*
X43064285Y-104588571D01*
X42421428Y-106088571D01*
X69723571Y-59959761D02*
X69723571Y-57959761D01*
X70580714Y-59864523D02*
X70866428Y-59959761D01*
X71342619Y-59959761D01*
X71533095Y-59864523D01*
X71628333Y-59769285D01*
X71723571Y-59578809D01*
X71723571Y-59388333D01*
X71628333Y-59197857D01*
X71533095Y-59102619D01*
X71342619Y-59007380D01*
X70961666Y-58912142D01*
X70771190Y-58816904D01*
X70675952Y-58721666D01*
X70580714Y-58531190D01*
X70580714Y-58340714D01*
X70675952Y-58150238D01*
X70771190Y-58055000D01*
X70961666Y-57959761D01*
X71437857Y-57959761D01*
X71723571Y-58055000D01*
X72961666Y-57959761D02*
X73342619Y-57959761D01*
X73533095Y-58055000D01*
X73723571Y-58245476D01*
X73818809Y-58626428D01*
X73818809Y-59293095D01*
X73723571Y-59674047D01*
X73533095Y-59864523D01*
X73342619Y-59959761D01*
X72961666Y-59959761D01*
X72771190Y-59864523D01*
X72580714Y-59674047D01*
X72485476Y-59293095D01*
X72485476Y-58626428D01*
X72580714Y-58245476D01*
X72771190Y-58055000D01*
X72961666Y-57959761D01*
X74199761Y-60150238D02*
X75723571Y-60150238D01*
X77152142Y-57959761D02*
X76199761Y-57959761D01*
X76104523Y-58912142D01*
X76199761Y-58816904D01*
X76390238Y-58721666D01*
X76866428Y-58721666D01*
X77056904Y-58816904D01*
X77152142Y-58912142D01*
X77247380Y-59102619D01*
X77247380Y-59578809D01*
X77152142Y-59769285D01*
X77056904Y-59864523D01*
X76866428Y-59959761D01*
X76390238Y-59959761D01*
X76199761Y-59864523D01*
X76104523Y-59769285D01*
X77818809Y-57959761D02*
X78485476Y-59959761D01*
X79152142Y-57959761D01*
X67850476Y-43449761D02*
X67850476Y-41449761D01*
X68707619Y-43354523D02*
X68993333Y-43449761D01*
X69469523Y-43449761D01*
X69660000Y-43354523D01*
X69755238Y-43259285D01*
X69850476Y-43068809D01*
X69850476Y-42878333D01*
X69755238Y-42687857D01*
X69660000Y-42592619D01*
X69469523Y-42497380D01*
X69088571Y-42402142D01*
X68898095Y-42306904D01*
X68802857Y-42211666D01*
X68707619Y-42021190D01*
X68707619Y-41830714D01*
X68802857Y-41640238D01*
X68898095Y-41545000D01*
X69088571Y-41449761D01*
X69564761Y-41449761D01*
X69850476Y-41545000D01*
X71088571Y-41449761D02*
X71469523Y-41449761D01*
X71660000Y-41545000D01*
X71850476Y-41735476D01*
X71945714Y-42116428D01*
X71945714Y-42783095D01*
X71850476Y-43164047D01*
X71660000Y-43354523D01*
X71469523Y-43449761D01*
X71088571Y-43449761D01*
X70898095Y-43354523D01*
X70707619Y-43164047D01*
X70612380Y-42783095D01*
X70612380Y-42116428D01*
X70707619Y-41735476D01*
X70898095Y-41545000D01*
X71088571Y-41449761D01*
X72326666Y-43640238D02*
X73850476Y-43640238D01*
X75374285Y-41545000D02*
X75183809Y-41449761D01*
X74898095Y-41449761D01*
X74612380Y-41545000D01*
X74421904Y-41735476D01*
X74326666Y-41925952D01*
X74231428Y-42306904D01*
X74231428Y-42592619D01*
X74326666Y-42973571D01*
X74421904Y-43164047D01*
X74612380Y-43354523D01*
X74898095Y-43449761D01*
X75088571Y-43449761D01*
X75374285Y-43354523D01*
X75469523Y-43259285D01*
X75469523Y-42592619D01*
X75088571Y-42592619D01*
X76326666Y-43449761D02*
X76326666Y-41449761D01*
X77469523Y-43449761D01*
X77469523Y-41449761D01*
X78421904Y-43449761D02*
X78421904Y-41449761D01*
X78898095Y-41449761D01*
X79183809Y-41545000D01*
X79374285Y-41735476D01*
X79469523Y-41925952D01*
X79564761Y-42306904D01*
X79564761Y-42592619D01*
X79469523Y-42973571D01*
X79374285Y-43164047D01*
X79183809Y-43354523D01*
X78898095Y-43449761D01*
X78421904Y-43449761D01*
D11*
X28829285Y-94385000D02*
X28543571Y-94242142D01*
X28115000Y-94242142D01*
X27686428Y-94385000D01*
X27400714Y-94670714D01*
X27257857Y-94956428D01*
X27115000Y-95527857D01*
X27115000Y-95956428D01*
X27257857Y-96527857D01*
X27400714Y-96813571D01*
X27686428Y-97099285D01*
X28115000Y-97242142D01*
X28400714Y-97242142D01*
X28829285Y-97099285D01*
X28972142Y-96956428D01*
X28972142Y-95956428D01*
X28400714Y-95956428D01*
X30257857Y-97242142D02*
X30257857Y-94242142D01*
X31972142Y-97242142D01*
X31972142Y-94242142D01*
X33400714Y-97242142D02*
X33400714Y-94242142D01*
X34115000Y-94242142D01*
X34543571Y-94385000D01*
X34829285Y-94670714D01*
X34972142Y-94956428D01*
X35115000Y-95527857D01*
X35115000Y-95956428D01*
X34972142Y-96527857D01*
X34829285Y-96813571D01*
X34543571Y-97099285D01*
X34115000Y-97242142D01*
X33400714Y-97242142D01*
X26464285Y-64349285D02*
X28750000Y-64349285D01*
X27607142Y-65492142D02*
X27607142Y-63206428D01*
X30035714Y-62777857D02*
X30178571Y-62635000D01*
X30464285Y-62492142D01*
X31178571Y-62492142D01*
X31464285Y-62635000D01*
X31607142Y-62777857D01*
X31750000Y-63063571D01*
X31750000Y-63349285D01*
X31607142Y-63777857D01*
X29892857Y-65492142D01*
X31750000Y-65492142D01*
X34321428Y-63492142D02*
X34321428Y-65492142D01*
X33607142Y-62349285D02*
X32892857Y-64492142D01*
X34750000Y-64492142D01*
X35464285Y-62492142D02*
X36464285Y-65492142D01*
X37464285Y-62492142D01*
D10*
X25034761Y-104819523D02*
X23034761Y-104819523D01*
X23034761Y-104057619D01*
X23130000Y-103867142D01*
X23225238Y-103771904D01*
X23415714Y-103676666D01*
X23701428Y-103676666D01*
X23891904Y-103771904D01*
X23987142Y-103867142D01*
X24082380Y-104057619D01*
X24082380Y-104819523D01*
X23987142Y-102152857D02*
X24082380Y-101867142D01*
X24177619Y-101771904D01*
X24368095Y-101676666D01*
X24653809Y-101676666D01*
X24844285Y-101771904D01*
X24939523Y-101867142D01*
X25034761Y-102057619D01*
X25034761Y-102819523D01*
X23034761Y-102819523D01*
X23034761Y-102152857D01*
X23130000Y-101962380D01*
X23225238Y-101867142D01*
X23415714Y-101771904D01*
X23606190Y-101771904D01*
X23796666Y-101867142D01*
X23891904Y-101962380D01*
X23987142Y-102152857D01*
X23987142Y-102819523D01*
X23034761Y-98724285D02*
X24463333Y-98724285D01*
X24749047Y-98819523D01*
X24939523Y-99010000D01*
X25034761Y-99295714D01*
X25034761Y-99486190D01*
X24939523Y-97010000D02*
X25034761Y-97200476D01*
X25034761Y-97581428D01*
X24939523Y-97771904D01*
X24749047Y-97867142D01*
X23987142Y-97867142D01*
X23796666Y-97771904D01*
X23701428Y-97581428D01*
X23701428Y-97200476D01*
X23796666Y-97010000D01*
X23987142Y-96914761D01*
X24177619Y-96914761D01*
X24368095Y-97867142D01*
X25034761Y-95771904D02*
X24939523Y-95962380D01*
X24749047Y-96057619D01*
X23034761Y-96057619D01*
X25034761Y-94724285D02*
X24939523Y-94914761D01*
X24749047Y-95010000D01*
X23034761Y-95010000D01*
X23701428Y-94152857D02*
X25034761Y-93676666D01*
X23701428Y-93200476D02*
X25034761Y-93676666D01*
X25510952Y-93867142D01*
X25606190Y-93962380D01*
X25701428Y-94152857D01*
X23034761Y-91200476D02*
X25034761Y-90533809D01*
X23034761Y-89867142D01*
X25034761Y-88152857D02*
X25034761Y-89295714D01*
X25034761Y-88724285D02*
X23034761Y-88724285D01*
X23320476Y-88914761D01*
X23510952Y-89105238D01*
X23606190Y-89295714D01*
X24844285Y-87295714D02*
X24939523Y-87200476D01*
X25034761Y-87295714D01*
X24939523Y-87390952D01*
X24844285Y-87295714D01*
X25034761Y-87295714D01*
X23225238Y-86438571D02*
X23130000Y-86343333D01*
X23034761Y-86152857D01*
X23034761Y-85676666D01*
X23130000Y-85486190D01*
X23225238Y-85390952D01*
X23415714Y-85295714D01*
X23606190Y-85295714D01*
X23891904Y-85390952D01*
X25034761Y-86533809D01*
X25034761Y-85295714D01*
X24272857Y-82914761D02*
X24272857Y-81390952D01*
X25034761Y-78914761D02*
X23034761Y-78914761D01*
X24463333Y-78248095D01*
X23034761Y-77581428D01*
X25034761Y-77581428D01*
X25034761Y-75771904D02*
X23987142Y-75771904D01*
X23796666Y-75867142D01*
X23701428Y-76057619D01*
X23701428Y-76438571D01*
X23796666Y-76629047D01*
X24939523Y-75771904D02*
X25034761Y-75962380D01*
X25034761Y-76438571D01*
X24939523Y-76629047D01*
X24749047Y-76724285D01*
X24558571Y-76724285D01*
X24368095Y-76629047D01*
X24272857Y-76438571D01*
X24272857Y-75962380D01*
X24177619Y-75771904D01*
X25034761Y-73962380D02*
X23034761Y-73962380D01*
X24939523Y-73962380D02*
X25034761Y-74152857D01*
X25034761Y-74533809D01*
X24939523Y-74724285D01*
X24844285Y-74819523D01*
X24653809Y-74914761D01*
X24082380Y-74914761D01*
X23891904Y-74819523D01*
X23796666Y-74724285D01*
X23701428Y-74533809D01*
X23701428Y-74152857D01*
X23796666Y-73962380D01*
X24939523Y-72248095D02*
X25034761Y-72438571D01*
X25034761Y-72819523D01*
X24939523Y-73010000D01*
X24749047Y-73105238D01*
X23987142Y-73105238D01*
X23796666Y-73010000D01*
X23701428Y-72819523D01*
X23701428Y-72438571D01*
X23796666Y-72248095D01*
X23987142Y-72152857D01*
X24177619Y-72152857D01*
X24368095Y-73105238D01*
X23701428Y-69962380D02*
X25034761Y-69581428D01*
X24082380Y-69200476D01*
X25034761Y-68819523D01*
X23701428Y-68438571D01*
X25034761Y-67676666D02*
X23701428Y-67676666D01*
X23034761Y-67676666D02*
X23130000Y-67771904D01*
X23225238Y-67676666D01*
X23130000Y-67581428D01*
X23034761Y-67676666D01*
X23225238Y-67676666D01*
X23701428Y-67010000D02*
X23701428Y-66248095D01*
X23034761Y-66724285D02*
X24749047Y-66724285D01*
X24939523Y-66629047D01*
X25034761Y-66438571D01*
X25034761Y-66248095D01*
X25034761Y-65581428D02*
X23034761Y-65581428D01*
X25034761Y-64724285D02*
X23987142Y-64724285D01*
X23796666Y-64819523D01*
X23701428Y-65010000D01*
X23701428Y-65295714D01*
X23796666Y-65486190D01*
X23891904Y-65581428D01*
X25034761Y-62248095D02*
X23034761Y-62248095D01*
X23034761Y-61486190D01*
X23130000Y-61295714D01*
X23225238Y-61200476D01*
X23415714Y-61105238D01*
X23701428Y-61105238D01*
X23891904Y-61200476D01*
X23987142Y-61295714D01*
X24082380Y-61486190D01*
X24082380Y-62248095D01*
X23987142Y-59581428D02*
X24082380Y-59295714D01*
X24177619Y-59200476D01*
X24368095Y-59105238D01*
X24653809Y-59105238D01*
X24844285Y-59200476D01*
X24939523Y-59295714D01*
X25034761Y-59486190D01*
X25034761Y-60248095D01*
X23034761Y-60248095D01*
X23034761Y-59581428D01*
X23130000Y-59390952D01*
X23225238Y-59295714D01*
X23415714Y-59200476D01*
X23606190Y-59200476D01*
X23796666Y-59295714D01*
X23891904Y-59390952D01*
X23987142Y-59581428D01*
X23987142Y-60248095D01*
X25034761Y-56629047D02*
X25034761Y-56724285D01*
X24939523Y-56914761D01*
X24653809Y-57200476D01*
X24082380Y-57676666D01*
X23796666Y-57867142D01*
X23510952Y-57962380D01*
X23320476Y-57962380D01*
X23130000Y-57867142D01*
X23034761Y-57676666D01*
X23034761Y-57581428D01*
X23130000Y-57390952D01*
X23320476Y-57295714D01*
X23415714Y-57295714D01*
X23606190Y-57390952D01*
X23701428Y-57486190D01*
X24082380Y-58057619D01*
X24177619Y-58152857D01*
X24368095Y-58248095D01*
X24653809Y-58248095D01*
X24844285Y-58152857D01*
X24939523Y-58057619D01*
X25034761Y-57867142D01*
X25034761Y-57581428D01*
X24939523Y-57390952D01*
X24844285Y-57295714D01*
X24463333Y-57010000D01*
X24177619Y-56914761D01*
X23987142Y-56914761D01*
X23034761Y-55200476D02*
X24463333Y-55200476D01*
X24749047Y-55295714D01*
X24939523Y-55486190D01*
X25034761Y-55771904D01*
X25034761Y-55962380D01*
D12*
X60430000Y-57155000D02*
X53870000Y-57155000D01*
X60430000Y-50795000D02*
X60430000Y-57155000D01*
X53870000Y-50795000D02*
X60430000Y-50795000D01*
X53870000Y-57155000D02*
X53870000Y-50795000D01*
D13*
X33750000Y-69000000D02*
G75*
G03X33750000Y-69000000I-650000J0D01*
G01*
X38750000Y-69000000D02*
G75*
G03X38750000Y-69000000I-650000J0D01*
G01*
D10*
X58830000Y-89535000D02*
G75*
G03X58830000Y-89535000I-150000J0D01*
G01*
D14*
X56680000Y-101085000D02*
X56680000Y-90685000D01*
X61280000Y-101085000D02*
X56680000Y-101085000D01*
X61280000Y-90685000D02*
X61280000Y-101085000D01*
X56680000Y-90685000D02*
X61280000Y-90685000D01*
D12*
X78150000Y-93785000D02*
X77650000Y-93785000D01*
X78150000Y-93785000D02*
X78150000Y-94285000D01*
X66250000Y-93785000D02*
X66250000Y-94285000D01*
X66250000Y-93785000D02*
X66750000Y-93785000D01*
X66250000Y-97985000D02*
X66250000Y-97485000D01*
X66250000Y-97985000D02*
X66750000Y-97985000D01*
X78150000Y-97985000D02*
X78150000Y-97485000D01*
X78150000Y-97985000D02*
X77650000Y-97985000D01*
D13*
X65778748Y-52145000D02*
X66301252Y-52145000D01*
X65778748Y-50725000D02*
X66301252Y-50725000D01*
D10*
X45840000Y-41595000D02*
X58340000Y-41595000D01*
X45840000Y-49845000D02*
X58340000Y-49845000D01*
X45840000Y-41595000D02*
X45840000Y-49845000D01*
X58340000Y-41595000D02*
X61440000Y-43970000D01*
X61440000Y-43970000D02*
X61440000Y-47470000D01*
X58340000Y-49845000D02*
X61440000Y-47470000D01*
D15*
X46640000Y-42320000D02*
X46640000Y-49120000D01*
X46640000Y-49120000D02*
X58140000Y-49120000D01*
X58140000Y-49120000D02*
X60640000Y-47220000D01*
X58140000Y-42320000D02*
X60640000Y-44220000D01*
X60640000Y-44220000D02*
X60640000Y-47220000D01*
X52740000Y-42320000D02*
X52740000Y-43570000D01*
X52740000Y-43570000D02*
X54540000Y-43570000D01*
X54540000Y-43570000D02*
X54540000Y-42320000D01*
X54540000Y-42320000D02*
X58140000Y-42320000D01*
X46640000Y-42320000D02*
X52740000Y-42320000D01*
D13*
X67700000Y-46890000D02*
X65240000Y-46890000D01*
X67700000Y-48360000D02*
X67700000Y-46890000D01*
X65240000Y-48360000D02*
X67700000Y-48360000D01*
X53880000Y-88725000D02*
X57880000Y-88725000D01*
X53387000Y-88319600D02*
X53387000Y-62719600D01*
X53387000Y-62719600D02*
X78595200Y-62795800D01*
X78595200Y-62795800D02*
X78595200Y-88395800D01*
X78595200Y-88395800D02*
X53387000Y-88319600D01*
X76680000Y-47625000D02*
G75*
G03X76680000Y-47625000I-1750000J0D01*
G01*
X76680000Y-53975000D02*
G75*
G03X76680000Y-53975000I-1750000J0D01*
G01*
X62790000Y-59673748D02*
X62790000Y-60196252D01*
X64210000Y-59673748D02*
X64210000Y-60196252D01*
X64263748Y-56590000D02*
X64786252Y-56590000D01*
X64263748Y-55170000D02*
X64786252Y-55170000D01*
X33025000Y-79475000D02*
X35485000Y-79475000D01*
X33025000Y-78005000D02*
X33025000Y-79475000D01*
X35485000Y-78005000D02*
X33025000Y-78005000D01*
X34418748Y-76910000D02*
X34941252Y-76910000D01*
X34418748Y-75490000D02*
X34941252Y-75490000D01*
X33750000Y-91000000D02*
G75*
G03X33750000Y-91000000I-650000J0D01*
G01*
X38750000Y-91000000D02*
G75*
G03X38750000Y-91000000I-650000J0D01*
G01*
X60400000Y-60196252D02*
X60400000Y-59673748D01*
X58980000Y-60196252D02*
X58980000Y-59673748D01*
X57710000Y-103633748D02*
X57710000Y-104156252D01*
X59130000Y-103633748D02*
X59130000Y-104156252D01*
X54685000Y-99566252D02*
X54685000Y-99043748D01*
X53265000Y-99566252D02*
X53265000Y-99043748D01*
D10*
X47745000Y-106365000D02*
X60245000Y-106365000D01*
X47745000Y-114615000D02*
X60245000Y-114615000D01*
X47745000Y-106365000D02*
X47745000Y-114615000D01*
X60245000Y-106365000D02*
X63345000Y-108740000D01*
X63345000Y-108740000D02*
X63345000Y-112240000D01*
X60245000Y-114615000D02*
X63345000Y-112240000D01*
D15*
X48545000Y-107090000D02*
X48545000Y-113890000D01*
X48545000Y-113890000D02*
X60045000Y-113890000D01*
X60045000Y-113890000D02*
X62545000Y-111990000D01*
X60045000Y-107090000D02*
X62545000Y-108990000D01*
X62545000Y-108990000D02*
X62545000Y-111990000D01*
X54645000Y-107090000D02*
X54645000Y-108340000D01*
X54645000Y-108340000D02*
X56445000Y-108340000D01*
X56445000Y-108340000D02*
X56445000Y-107090000D01*
X56445000Y-107090000D02*
X60045000Y-107090000D01*
X48545000Y-107090000D02*
X54645000Y-107090000D01*
D13*
X43270000Y-46495000D02*
X43270000Y-43675000D01*
X43270000Y-43675000D02*
X41570000Y-42375000D01*
X43270000Y-46495000D02*
X41570000Y-47795000D01*
X41570000Y-42375000D02*
X32850000Y-42375000D01*
X32850000Y-47795000D02*
X32850000Y-42375000D01*
X41570000Y-47795000D02*
X32850000Y-47795000D01*
X42715000Y-113170000D02*
X42715000Y-110350000D01*
X42715000Y-110350000D02*
X41015000Y-109050000D01*
X42715000Y-113170000D02*
X41015000Y-114470000D01*
X41015000Y-109050000D02*
X32295000Y-109050000D01*
X32295000Y-114470000D02*
X32295000Y-109050000D01*
X41015000Y-114470000D02*
X32295000Y-114470000D01*
X57320000Y-120155000D02*
X57320000Y-117335000D01*
X57320000Y-117335000D02*
X55620000Y-116035000D01*
X57320000Y-120155000D02*
X55620000Y-121455000D01*
X55620000Y-116035000D02*
X46900000Y-116035000D01*
X46900000Y-121455000D02*
X46900000Y-116035000D01*
X55620000Y-121455000D02*
X46900000Y-121455000D01*
X43270000Y-39510000D02*
X43270000Y-36690000D01*
X43270000Y-36690000D02*
X41570000Y-35390000D01*
X43270000Y-39510000D02*
X41570000Y-40810000D01*
X41570000Y-35390000D02*
X32850000Y-35390000D01*
X32850000Y-40810000D02*
X32850000Y-35390000D01*
X41570000Y-40810000D02*
X32850000Y-40810000D01*
X71925000Y-120155000D02*
X71925000Y-117335000D01*
X71925000Y-117335000D02*
X70225000Y-116035000D01*
X71925000Y-120155000D02*
X70225000Y-121455000D01*
X70225000Y-116035000D02*
X61505000Y-116035000D01*
X61505000Y-121455000D02*
X61505000Y-116035000D01*
X70225000Y-121455000D02*
X61505000Y-121455000D01*
X42715000Y-120155000D02*
X42715000Y-117335000D01*
X42715000Y-117335000D02*
X41015000Y-116035000D01*
X42715000Y-120155000D02*
X41015000Y-121455000D01*
X41015000Y-116035000D02*
X32295000Y-116035000D01*
X32295000Y-121455000D02*
X32295000Y-116035000D01*
X41015000Y-121455000D02*
X32295000Y-121455000D01*
X58510000Y-39510000D02*
X58510000Y-36690000D01*
X58510000Y-36690000D02*
X56810000Y-35390000D01*
X58510000Y-39510000D02*
X56810000Y-40810000D01*
X56810000Y-35390000D02*
X48090000Y-35390000D01*
X48090000Y-40810000D02*
X48090000Y-35390000D01*
X56810000Y-40810000D02*
X48090000Y-40810000D01*
X41335354Y-55680000D02*
X41335354Y-56680000D01*
X40835354Y-56180000D02*
X41835354Y-56180000D01*
X51396000Y-58456000D02*
X51396000Y-59654000D01*
X51356000Y-58193000D02*
X51356000Y-59917000D01*
X51316000Y-57993000D02*
X51316000Y-60117000D01*
X51276000Y-57825000D02*
X51276000Y-60285000D01*
X51236000Y-57677000D02*
X51236000Y-60433000D01*
X51196000Y-57545000D02*
X51196000Y-60565000D01*
X51156000Y-57425000D02*
X51156000Y-60685000D01*
X51116000Y-57313000D02*
X51116000Y-60797000D01*
X51076000Y-57209000D02*
X51076000Y-60901000D01*
X51036000Y-57111000D02*
X51036000Y-60999000D01*
X50996000Y-57018000D02*
X50996000Y-61092000D01*
X50956000Y-56930000D02*
X50956000Y-61180000D01*
X50916000Y-56846000D02*
X50916000Y-61264000D01*
X50876000Y-56766000D02*
X50876000Y-61344000D01*
X50836000Y-56690000D02*
X50836000Y-61420000D01*
X50796000Y-56616000D02*
X50796000Y-61494000D01*
X50756000Y-56545000D02*
X50756000Y-61565000D01*
X50716000Y-56476000D02*
X50716000Y-61634000D01*
X50676000Y-56410000D02*
X50676000Y-61700000D01*
X50636000Y-56346000D02*
X50636000Y-61764000D01*
X50596000Y-56285000D02*
X50596000Y-61825000D01*
X50556000Y-56225000D02*
X50556000Y-61885000D01*
X50516000Y-56166000D02*
X50516000Y-61944000D01*
X50476000Y-56110000D02*
X50476000Y-62000000D01*
X50436000Y-56055000D02*
X50436000Y-62055000D01*
X50396000Y-56001000D02*
X50396000Y-62109000D01*
X50356000Y-55949000D02*
X50356000Y-62161000D01*
X50316000Y-55899000D02*
X50316000Y-62211000D01*
X50276000Y-55849000D02*
X50276000Y-62261000D01*
X50236000Y-55801000D02*
X50236000Y-62309000D01*
X50196000Y-55754000D02*
X50196000Y-62356000D01*
X50156000Y-55708000D02*
X50156000Y-62402000D01*
X50116000Y-55663000D02*
X50116000Y-62447000D01*
X50076000Y-55619000D02*
X50076000Y-62491000D01*
X50036000Y-60296000D02*
X50036000Y-62533000D01*
X50036000Y-55577000D02*
X50036000Y-57814000D01*
X49996000Y-60296000D02*
X49996000Y-62575000D01*
X49996000Y-55535000D02*
X49996000Y-57814000D01*
X49956000Y-60296000D02*
X49956000Y-62616000D01*
X49956000Y-55494000D02*
X49956000Y-57814000D01*
X49916000Y-60296000D02*
X49916000Y-62656000D01*
X49916000Y-55454000D02*
X49916000Y-57814000D01*
X49876000Y-60296000D02*
X49876000Y-62695000D01*
X49876000Y-55415000D02*
X49876000Y-57814000D01*
X49836000Y-60296000D02*
X49836000Y-62734000D01*
X49836000Y-55376000D02*
X49836000Y-57814000D01*
X49796000Y-60296000D02*
X49796000Y-62771000D01*
X49796000Y-55339000D02*
X49796000Y-57814000D01*
X49756000Y-60296000D02*
X49756000Y-62808000D01*
X49756000Y-55302000D02*
X49756000Y-57814000D01*
X49716000Y-60296000D02*
X49716000Y-62844000D01*
X49716000Y-55266000D02*
X49716000Y-57814000D01*
X49676000Y-60296000D02*
X49676000Y-62879000D01*
X49676000Y-55231000D02*
X49676000Y-57814000D01*
X49636000Y-60296000D02*
X49636000Y-62913000D01*
X49636000Y-55197000D02*
X49636000Y-57814000D01*
X49596000Y-60296000D02*
X49596000Y-62947000D01*
X49596000Y-55163000D02*
X49596000Y-57814000D01*
X49556000Y-60296000D02*
X49556000Y-62980000D01*
X49556000Y-55130000D02*
X49556000Y-57814000D01*
X49516000Y-60296000D02*
X49516000Y-63012000D01*
X49516000Y-55098000D02*
X49516000Y-57814000D01*
X49476000Y-60296000D02*
X49476000Y-63044000D01*
X49476000Y-55066000D02*
X49476000Y-57814000D01*
X49436000Y-60296000D02*
X49436000Y-63075000D01*
X49436000Y-55035000D02*
X49436000Y-57814000D01*
X49396000Y-60296000D02*
X49396000Y-63105000D01*
X49396000Y-55005000D02*
X49396000Y-57814000D01*
X49356000Y-60296000D02*
X49356000Y-63135000D01*
X49356000Y-54975000D02*
X49356000Y-57814000D01*
X49316000Y-60296000D02*
X49316000Y-63165000D01*
X49316000Y-54945000D02*
X49316000Y-57814000D01*
X49276000Y-60296000D02*
X49276000Y-63193000D01*
X49276000Y-54917000D02*
X49276000Y-57814000D01*
X49236000Y-60296000D02*
X49236000Y-63221000D01*
X49236000Y-54889000D02*
X49236000Y-57814000D01*
X49196000Y-60296000D02*
X49196000Y-63249000D01*
X49196000Y-54861000D02*
X49196000Y-57814000D01*
X49156000Y-60296000D02*
X49156000Y-63276000D01*
X49156000Y-54834000D02*
X49156000Y-57814000D01*
X49116000Y-60296000D02*
X49116000Y-63302000D01*
X49116000Y-54808000D02*
X49116000Y-57814000D01*
X49076000Y-60296000D02*
X49076000Y-63328000D01*
X49076000Y-54782000D02*
X49076000Y-57814000D01*
X49036000Y-60296000D02*
X49036000Y-63353000D01*
X49036000Y-54757000D02*
X49036000Y-57814000D01*
X48996000Y-60296000D02*
X48996000Y-63378000D01*
X48996000Y-54732000D02*
X48996000Y-57814000D01*
X48956000Y-60296000D02*
X48956000Y-63402000D01*
X48956000Y-54708000D02*
X48956000Y-57814000D01*
X48916000Y-60296000D02*
X48916000Y-63426000D01*
X48916000Y-54684000D02*
X48916000Y-57814000D01*
X48876000Y-60296000D02*
X48876000Y-63450000D01*
X48876000Y-54660000D02*
X48876000Y-57814000D01*
X48836000Y-60296000D02*
X48836000Y-63472000D01*
X48836000Y-54638000D02*
X48836000Y-57814000D01*
X48796000Y-60296000D02*
X48796000Y-63495000D01*
X48796000Y-54615000D02*
X48796000Y-57814000D01*
X48756000Y-60296000D02*
X48756000Y-63517000D01*
X48756000Y-54593000D02*
X48756000Y-57814000D01*
X48716000Y-60296000D02*
X48716000Y-63538000D01*
X48716000Y-54572000D02*
X48716000Y-57814000D01*
X48676000Y-60296000D02*
X48676000Y-63559000D01*
X48676000Y-54551000D02*
X48676000Y-57814000D01*
X48636000Y-60296000D02*
X48636000Y-63580000D01*
X48636000Y-54530000D02*
X48636000Y-57814000D01*
X48596000Y-60296000D02*
X48596000Y-63600000D01*
X48596000Y-54510000D02*
X48596000Y-57814000D01*
X48556000Y-60296000D02*
X48556000Y-63619000D01*
X48556000Y-54491000D02*
X48556000Y-57814000D01*
X48516000Y-60296000D02*
X48516000Y-63639000D01*
X48516000Y-54471000D02*
X48516000Y-57814000D01*
X48476000Y-60296000D02*
X48476000Y-63658000D01*
X48476000Y-54452000D02*
X48476000Y-57814000D01*
X48436000Y-60296000D02*
X48436000Y-63676000D01*
X48436000Y-54434000D02*
X48436000Y-57814000D01*
X48396000Y-60296000D02*
X48396000Y-63694000D01*
X48396000Y-54416000D02*
X48396000Y-57814000D01*
X48356000Y-60296000D02*
X48356000Y-63712000D01*
X48356000Y-54398000D02*
X48356000Y-57814000D01*
X48316000Y-60296000D02*
X48316000Y-63729000D01*
X48316000Y-54381000D02*
X48316000Y-57814000D01*
X48276000Y-60296000D02*
X48276000Y-63745000D01*
X48276000Y-54365000D02*
X48276000Y-57814000D01*
X48236000Y-60296000D02*
X48236000Y-63762000D01*
X48236000Y-54348000D02*
X48236000Y-57814000D01*
X48196000Y-60296000D02*
X48196000Y-63778000D01*
X48196000Y-54332000D02*
X48196000Y-57814000D01*
X48156000Y-60296000D02*
X48156000Y-63793000D01*
X48156000Y-54317000D02*
X48156000Y-57814000D01*
X48116000Y-60296000D02*
X48116000Y-63809000D01*
X48116000Y-54301000D02*
X48116000Y-57814000D01*
X48076000Y-60296000D02*
X48076000Y-63823000D01*
X48076000Y-54287000D02*
X48076000Y-57814000D01*
X48036000Y-60296000D02*
X48036000Y-63838000D01*
X48036000Y-54272000D02*
X48036000Y-57814000D01*
X47996000Y-60296000D02*
X47996000Y-63852000D01*
X47996000Y-54258000D02*
X47996000Y-57814000D01*
X47956000Y-60296000D02*
X47956000Y-63866000D01*
X47956000Y-54244000D02*
X47956000Y-57814000D01*
X47916000Y-60296000D02*
X47916000Y-63879000D01*
X47916000Y-54231000D02*
X47916000Y-57814000D01*
X47876000Y-60296000D02*
X47876000Y-63892000D01*
X47876000Y-54218000D02*
X47876000Y-57814000D01*
X47836000Y-60296000D02*
X47836000Y-63905000D01*
X47836000Y-54205000D02*
X47836000Y-57814000D01*
X47796000Y-60296000D02*
X47796000Y-63917000D01*
X47796000Y-54193000D02*
X47796000Y-57814000D01*
X47756000Y-60296000D02*
X47756000Y-63929000D01*
X47756000Y-54181000D02*
X47756000Y-57814000D01*
X47716000Y-60296000D02*
X47716000Y-63940000D01*
X47716000Y-54170000D02*
X47716000Y-57814000D01*
X47676000Y-60296000D02*
X47676000Y-63952000D01*
X47676000Y-54158000D02*
X47676000Y-57814000D01*
X47636000Y-60296000D02*
X47636000Y-63962000D01*
X47636000Y-54148000D02*
X47636000Y-57814000D01*
X47596000Y-60296000D02*
X47596000Y-63973000D01*
X47596000Y-54137000D02*
X47596000Y-57814000D01*
X47556000Y-54127000D02*
X47556000Y-63983000D01*
X47516000Y-54117000D02*
X47516000Y-63993000D01*
X47476000Y-54108000D02*
X47476000Y-64002000D01*
X47436000Y-54099000D02*
X47436000Y-64011000D01*
X47396000Y-54090000D02*
X47396000Y-64020000D01*
X47356000Y-54081000D02*
X47356000Y-64029000D01*
X47316000Y-54073000D02*
X47316000Y-64037000D01*
X47276000Y-54065000D02*
X47276000Y-64045000D01*
X47236000Y-54058000D02*
X47236000Y-64052000D01*
X47196000Y-54051000D02*
X47196000Y-64059000D01*
X47156000Y-54044000D02*
X47156000Y-64066000D01*
X47116000Y-54037000D02*
X47116000Y-64073000D01*
X47076000Y-54031000D02*
X47076000Y-64079000D01*
X47036000Y-54025000D02*
X47036000Y-64085000D01*
X46995000Y-54020000D02*
X46995000Y-64090000D01*
X46955000Y-54015000D02*
X46955000Y-64095000D01*
X46915000Y-54010000D02*
X46915000Y-64100000D01*
X46875000Y-54005000D02*
X46875000Y-64105000D01*
X46835000Y-54001000D02*
X46835000Y-64109000D01*
X46795000Y-53997000D02*
X46795000Y-64113000D01*
X46755000Y-53993000D02*
X46755000Y-64117000D01*
X46715000Y-53990000D02*
X46715000Y-64120000D01*
X46675000Y-53987000D02*
X46675000Y-64123000D01*
X46635000Y-53985000D02*
X46635000Y-64125000D01*
X46595000Y-53982000D02*
X46595000Y-64128000D01*
X46555000Y-53980000D02*
X46555000Y-64130000D01*
X46515000Y-53978000D02*
X46515000Y-64132000D01*
X46475000Y-53977000D02*
X46475000Y-64133000D01*
X46435000Y-53976000D02*
X46435000Y-64134000D01*
X46395000Y-53975000D02*
X46395000Y-64135000D01*
X46355000Y-53975000D02*
X46355000Y-64135000D01*
X46315000Y-53975000D02*
X46315000Y-64135000D01*
X51435000Y-59055000D02*
G75*
G03X51435000Y-59055000I-5120000J0D01*
G01*
X41335354Y-81080000D02*
X41335354Y-82080000D01*
X40835354Y-81580000D02*
X41835354Y-81580000D01*
X51396000Y-83856000D02*
X51396000Y-85054000D01*
X51356000Y-83593000D02*
X51356000Y-85317000D01*
X51316000Y-83393000D02*
X51316000Y-85517000D01*
X51276000Y-83225000D02*
X51276000Y-85685000D01*
X51236000Y-83077000D02*
X51236000Y-85833000D01*
X51196000Y-82945000D02*
X51196000Y-85965000D01*
X51156000Y-82825000D02*
X51156000Y-86085000D01*
X51116000Y-82713000D02*
X51116000Y-86197000D01*
X51076000Y-82609000D02*
X51076000Y-86301000D01*
X51036000Y-82511000D02*
X51036000Y-86399000D01*
X50996000Y-82418000D02*
X50996000Y-86492000D01*
X50956000Y-82330000D02*
X50956000Y-86580000D01*
X50916000Y-82246000D02*
X50916000Y-86664000D01*
X50876000Y-82166000D02*
X50876000Y-86744000D01*
X50836000Y-82090000D02*
X50836000Y-86820000D01*
X50796000Y-82016000D02*
X50796000Y-86894000D01*
X50756000Y-81945000D02*
X50756000Y-86965000D01*
X50716000Y-81876000D02*
X50716000Y-87034000D01*
X50676000Y-81810000D02*
X50676000Y-87100000D01*
X50636000Y-81746000D02*
X50636000Y-87164000D01*
X50596000Y-81685000D02*
X50596000Y-87225000D01*
X50556000Y-81625000D02*
X50556000Y-87285000D01*
X50516000Y-81566000D02*
X50516000Y-87344000D01*
X50476000Y-81510000D02*
X50476000Y-87400000D01*
X50436000Y-81455000D02*
X50436000Y-87455000D01*
X50396000Y-81401000D02*
X50396000Y-87509000D01*
X50356000Y-81349000D02*
X50356000Y-87561000D01*
X50316000Y-81299000D02*
X50316000Y-87611000D01*
X50276000Y-81249000D02*
X50276000Y-87661000D01*
X50236000Y-81201000D02*
X50236000Y-87709000D01*
X50196000Y-81154000D02*
X50196000Y-87756000D01*
X50156000Y-81108000D02*
X50156000Y-87802000D01*
X50116000Y-81063000D02*
X50116000Y-87847000D01*
X50076000Y-81019000D02*
X50076000Y-87891000D01*
X50036000Y-85696000D02*
X50036000Y-87933000D01*
X50036000Y-80977000D02*
X50036000Y-83214000D01*
X49996000Y-85696000D02*
X49996000Y-87975000D01*
X49996000Y-80935000D02*
X49996000Y-83214000D01*
X49956000Y-85696000D02*
X49956000Y-88016000D01*
X49956000Y-80894000D02*
X49956000Y-83214000D01*
X49916000Y-85696000D02*
X49916000Y-88056000D01*
X49916000Y-80854000D02*
X49916000Y-83214000D01*
X49876000Y-85696000D02*
X49876000Y-88095000D01*
X49876000Y-80815000D02*
X49876000Y-83214000D01*
X49836000Y-85696000D02*
X49836000Y-88134000D01*
X49836000Y-80776000D02*
X49836000Y-83214000D01*
X49796000Y-85696000D02*
X49796000Y-88171000D01*
X49796000Y-80739000D02*
X49796000Y-83214000D01*
X49756000Y-85696000D02*
X49756000Y-88208000D01*
X49756000Y-80702000D02*
X49756000Y-83214000D01*
X49716000Y-85696000D02*
X49716000Y-88244000D01*
X49716000Y-80666000D02*
X49716000Y-83214000D01*
X49676000Y-85696000D02*
X49676000Y-88279000D01*
X49676000Y-80631000D02*
X49676000Y-83214000D01*
X49636000Y-85696000D02*
X49636000Y-88313000D01*
X49636000Y-80597000D02*
X49636000Y-83214000D01*
X49596000Y-85696000D02*
X49596000Y-88347000D01*
X49596000Y-80563000D02*
X49596000Y-83214000D01*
X49556000Y-85696000D02*
X49556000Y-88380000D01*
X49556000Y-80530000D02*
X49556000Y-83214000D01*
X49516000Y-85696000D02*
X49516000Y-88412000D01*
X49516000Y-80498000D02*
X49516000Y-83214000D01*
X49476000Y-85696000D02*
X49476000Y-88444000D01*
X49476000Y-80466000D02*
X49476000Y-83214000D01*
X49436000Y-85696000D02*
X49436000Y-88475000D01*
X49436000Y-80435000D02*
X49436000Y-83214000D01*
X49396000Y-85696000D02*
X49396000Y-88505000D01*
X49396000Y-80405000D02*
X49396000Y-83214000D01*
X49356000Y-85696000D02*
X49356000Y-88535000D01*
X49356000Y-80375000D02*
X49356000Y-83214000D01*
X49316000Y-85696000D02*
X49316000Y-88565000D01*
X49316000Y-80345000D02*
X49316000Y-83214000D01*
X49276000Y-85696000D02*
X49276000Y-88593000D01*
X49276000Y-80317000D02*
X49276000Y-83214000D01*
X49236000Y-85696000D02*
X49236000Y-88621000D01*
X49236000Y-80289000D02*
X49236000Y-83214000D01*
X49196000Y-85696000D02*
X49196000Y-88649000D01*
X49196000Y-80261000D02*
X49196000Y-83214000D01*
X49156000Y-85696000D02*
X49156000Y-88676000D01*
X49156000Y-80234000D02*
X49156000Y-83214000D01*
X49116000Y-85696000D02*
X49116000Y-88702000D01*
X49116000Y-80208000D02*
X49116000Y-83214000D01*
X49076000Y-85696000D02*
X49076000Y-88728000D01*
X49076000Y-80182000D02*
X49076000Y-83214000D01*
X49036000Y-85696000D02*
X49036000Y-88753000D01*
X49036000Y-80157000D02*
X49036000Y-83214000D01*
X48996000Y-85696000D02*
X48996000Y-88778000D01*
X48996000Y-80132000D02*
X48996000Y-83214000D01*
X48956000Y-85696000D02*
X48956000Y-88802000D01*
X48956000Y-80108000D02*
X48956000Y-83214000D01*
X48916000Y-85696000D02*
X48916000Y-88826000D01*
X48916000Y-80084000D02*
X48916000Y-83214000D01*
X48876000Y-85696000D02*
X48876000Y-88850000D01*
X48876000Y-80060000D02*
X48876000Y-83214000D01*
X48836000Y-85696000D02*
X48836000Y-88872000D01*
X48836000Y-80038000D02*
X48836000Y-83214000D01*
X48796000Y-85696000D02*
X48796000Y-88895000D01*
X48796000Y-80015000D02*
X48796000Y-83214000D01*
X48756000Y-85696000D02*
X48756000Y-88917000D01*
X48756000Y-79993000D02*
X48756000Y-83214000D01*
X48716000Y-85696000D02*
X48716000Y-88938000D01*
X48716000Y-79972000D02*
X48716000Y-83214000D01*
X48676000Y-85696000D02*
X48676000Y-88959000D01*
X48676000Y-79951000D02*
X48676000Y-83214000D01*
X48636000Y-85696000D02*
X48636000Y-88980000D01*
X48636000Y-79930000D02*
X48636000Y-83214000D01*
X48596000Y-85696000D02*
X48596000Y-89000000D01*
X48596000Y-79910000D02*
X48596000Y-83214000D01*
X48556000Y-85696000D02*
X48556000Y-89019000D01*
X48556000Y-79891000D02*
X48556000Y-83214000D01*
X48516000Y-85696000D02*
X48516000Y-89039000D01*
X48516000Y-79871000D02*
X48516000Y-83214000D01*
X48476000Y-85696000D02*
X48476000Y-89058000D01*
X48476000Y-79852000D02*
X48476000Y-83214000D01*
X48436000Y-85696000D02*
X48436000Y-89076000D01*
X48436000Y-79834000D02*
X48436000Y-83214000D01*
X48396000Y-85696000D02*
X48396000Y-89094000D01*
X48396000Y-79816000D02*
X48396000Y-83214000D01*
X48356000Y-85696000D02*
X48356000Y-89112000D01*
X48356000Y-79798000D02*
X48356000Y-83214000D01*
X48316000Y-85696000D02*
X48316000Y-89129000D01*
X48316000Y-79781000D02*
X48316000Y-83214000D01*
X48276000Y-85696000D02*
X48276000Y-89145000D01*
X48276000Y-79765000D02*
X48276000Y-83214000D01*
X48236000Y-85696000D02*
X48236000Y-89162000D01*
X48236000Y-79748000D02*
X48236000Y-83214000D01*
X48196000Y-85696000D02*
X48196000Y-89178000D01*
X48196000Y-79732000D02*
X48196000Y-83214000D01*
X48156000Y-85696000D02*
X48156000Y-89193000D01*
X48156000Y-79717000D02*
X48156000Y-83214000D01*
X48116000Y-85696000D02*
X48116000Y-89209000D01*
X48116000Y-79701000D02*
X48116000Y-83214000D01*
X48076000Y-85696000D02*
X48076000Y-89223000D01*
X48076000Y-79687000D02*
X48076000Y-83214000D01*
X48036000Y-85696000D02*
X48036000Y-89238000D01*
X48036000Y-79672000D02*
X48036000Y-83214000D01*
X47996000Y-85696000D02*
X47996000Y-89252000D01*
X47996000Y-79658000D02*
X47996000Y-83214000D01*
X47956000Y-85696000D02*
X47956000Y-89266000D01*
X47956000Y-79644000D02*
X47956000Y-83214000D01*
X47916000Y-85696000D02*
X47916000Y-89279000D01*
X47916000Y-79631000D02*
X47916000Y-83214000D01*
X47876000Y-85696000D02*
X47876000Y-89292000D01*
X47876000Y-79618000D02*
X47876000Y-83214000D01*
X47836000Y-85696000D02*
X47836000Y-89305000D01*
X47836000Y-79605000D02*
X47836000Y-83214000D01*
X47796000Y-85696000D02*
X47796000Y-89317000D01*
X47796000Y-79593000D02*
X47796000Y-83214000D01*
X47756000Y-85696000D02*
X47756000Y-89329000D01*
X47756000Y-79581000D02*
X47756000Y-83214000D01*
X47716000Y-85696000D02*
X47716000Y-89340000D01*
X47716000Y-79570000D02*
X47716000Y-83214000D01*
X47676000Y-85696000D02*
X47676000Y-89352000D01*
X47676000Y-79558000D02*
X47676000Y-83214000D01*
X47636000Y-85696000D02*
X47636000Y-89362000D01*
X47636000Y-79548000D02*
X47636000Y-83214000D01*
X47596000Y-85696000D02*
X47596000Y-89373000D01*
X47596000Y-79537000D02*
X47596000Y-83214000D01*
X47556000Y-79527000D02*
X47556000Y-89383000D01*
X47516000Y-79517000D02*
X47516000Y-89393000D01*
X47476000Y-79508000D02*
X47476000Y-89402000D01*
X47436000Y-79499000D02*
X47436000Y-89411000D01*
X47396000Y-79490000D02*
X47396000Y-89420000D01*
X47356000Y-79481000D02*
X47356000Y-89429000D01*
X47316000Y-79473000D02*
X47316000Y-89437000D01*
X47276000Y-79465000D02*
X47276000Y-89445000D01*
X47236000Y-79458000D02*
X47236000Y-89452000D01*
X47196000Y-79451000D02*
X47196000Y-89459000D01*
X47156000Y-79444000D02*
X47156000Y-89466000D01*
X47116000Y-79437000D02*
X47116000Y-89473000D01*
X47076000Y-79431000D02*
X47076000Y-89479000D01*
X47036000Y-79425000D02*
X47036000Y-89485000D01*
X46995000Y-79420000D02*
X46995000Y-89490000D01*
X46955000Y-79415000D02*
X46955000Y-89495000D01*
X46915000Y-79410000D02*
X46915000Y-89500000D01*
X46875000Y-79405000D02*
X46875000Y-89505000D01*
X46835000Y-79401000D02*
X46835000Y-89509000D01*
X46795000Y-79397000D02*
X46795000Y-89513000D01*
X46755000Y-79393000D02*
X46755000Y-89517000D01*
X46715000Y-79390000D02*
X46715000Y-89520000D01*
X46675000Y-79387000D02*
X46675000Y-89523000D01*
X46635000Y-79385000D02*
X46635000Y-89525000D01*
X46595000Y-79382000D02*
X46595000Y-89528000D01*
X46555000Y-79380000D02*
X46555000Y-89530000D01*
X46515000Y-79378000D02*
X46515000Y-89532000D01*
X46475000Y-79377000D02*
X46475000Y-89533000D01*
X46435000Y-79376000D02*
X46435000Y-89534000D01*
X46395000Y-79375000D02*
X46395000Y-89535000D01*
X46355000Y-79375000D02*
X46355000Y-89535000D01*
X46315000Y-79375000D02*
X46315000Y-89535000D01*
X51435000Y-84455000D02*
G75*
G03X51435000Y-84455000I-5120000J0D01*
G01*
X41335354Y-68380000D02*
X41335354Y-69380000D01*
X40835354Y-68880000D02*
X41835354Y-68880000D01*
X51396000Y-71156000D02*
X51396000Y-72354000D01*
X51356000Y-70893000D02*
X51356000Y-72617000D01*
X51316000Y-70693000D02*
X51316000Y-72817000D01*
X51276000Y-70525000D02*
X51276000Y-72985000D01*
X51236000Y-70377000D02*
X51236000Y-73133000D01*
X51196000Y-70245000D02*
X51196000Y-73265000D01*
X51156000Y-70125000D02*
X51156000Y-73385000D01*
X51116000Y-70013000D02*
X51116000Y-73497000D01*
X51076000Y-69909000D02*
X51076000Y-73601000D01*
X51036000Y-69811000D02*
X51036000Y-73699000D01*
X50996000Y-69718000D02*
X50996000Y-73792000D01*
X50956000Y-69630000D02*
X50956000Y-73880000D01*
X50916000Y-69546000D02*
X50916000Y-73964000D01*
X50876000Y-69466000D02*
X50876000Y-74044000D01*
X50836000Y-69390000D02*
X50836000Y-74120000D01*
X50796000Y-69316000D02*
X50796000Y-74194000D01*
X50756000Y-69245000D02*
X50756000Y-74265000D01*
X50716000Y-69176000D02*
X50716000Y-74334000D01*
X50676000Y-69110000D02*
X50676000Y-74400000D01*
X50636000Y-69046000D02*
X50636000Y-74464000D01*
X50596000Y-68985000D02*
X50596000Y-74525000D01*
X50556000Y-68925000D02*
X50556000Y-74585000D01*
X50516000Y-68866000D02*
X50516000Y-74644000D01*
X50476000Y-68810000D02*
X50476000Y-74700000D01*
X50436000Y-68755000D02*
X50436000Y-74755000D01*
X50396000Y-68701000D02*
X50396000Y-74809000D01*
X50356000Y-68649000D02*
X50356000Y-74861000D01*
X50316000Y-68599000D02*
X50316000Y-74911000D01*
X50276000Y-68549000D02*
X50276000Y-74961000D01*
X50236000Y-68501000D02*
X50236000Y-75009000D01*
X50196000Y-68454000D02*
X50196000Y-75056000D01*
X50156000Y-68408000D02*
X50156000Y-75102000D01*
X50116000Y-68363000D02*
X50116000Y-75147000D01*
X50076000Y-68319000D02*
X50076000Y-75191000D01*
X50036000Y-72996000D02*
X50036000Y-75233000D01*
X50036000Y-68277000D02*
X50036000Y-70514000D01*
X49996000Y-72996000D02*
X49996000Y-75275000D01*
X49996000Y-68235000D02*
X49996000Y-70514000D01*
X49956000Y-72996000D02*
X49956000Y-75316000D01*
X49956000Y-68194000D02*
X49956000Y-70514000D01*
X49916000Y-72996000D02*
X49916000Y-75356000D01*
X49916000Y-68154000D02*
X49916000Y-70514000D01*
X49876000Y-72996000D02*
X49876000Y-75395000D01*
X49876000Y-68115000D02*
X49876000Y-70514000D01*
X49836000Y-72996000D02*
X49836000Y-75434000D01*
X49836000Y-68076000D02*
X49836000Y-70514000D01*
X49796000Y-72996000D02*
X49796000Y-75471000D01*
X49796000Y-68039000D02*
X49796000Y-70514000D01*
X49756000Y-72996000D02*
X49756000Y-75508000D01*
X49756000Y-68002000D02*
X49756000Y-70514000D01*
X49716000Y-72996000D02*
X49716000Y-75544000D01*
X49716000Y-67966000D02*
X49716000Y-70514000D01*
X49676000Y-72996000D02*
X49676000Y-75579000D01*
X49676000Y-67931000D02*
X49676000Y-70514000D01*
X49636000Y-72996000D02*
X49636000Y-75613000D01*
X49636000Y-67897000D02*
X49636000Y-70514000D01*
X49596000Y-72996000D02*
X49596000Y-75647000D01*
X49596000Y-67863000D02*
X49596000Y-70514000D01*
X49556000Y-72996000D02*
X49556000Y-75680000D01*
X49556000Y-67830000D02*
X49556000Y-70514000D01*
X49516000Y-72996000D02*
X49516000Y-75712000D01*
X49516000Y-67798000D02*
X49516000Y-70514000D01*
X49476000Y-72996000D02*
X49476000Y-75744000D01*
X49476000Y-67766000D02*
X49476000Y-70514000D01*
X49436000Y-72996000D02*
X49436000Y-75775000D01*
X49436000Y-67735000D02*
X49436000Y-70514000D01*
X49396000Y-72996000D02*
X49396000Y-75805000D01*
X49396000Y-67705000D02*
X49396000Y-70514000D01*
X49356000Y-72996000D02*
X49356000Y-75835000D01*
X49356000Y-67675000D02*
X49356000Y-70514000D01*
X49316000Y-72996000D02*
X49316000Y-75865000D01*
X49316000Y-67645000D02*
X49316000Y-70514000D01*
X49276000Y-72996000D02*
X49276000Y-75893000D01*
X49276000Y-67617000D02*
X49276000Y-70514000D01*
X49236000Y-72996000D02*
X49236000Y-75921000D01*
X49236000Y-67589000D02*
X49236000Y-70514000D01*
X49196000Y-72996000D02*
X49196000Y-75949000D01*
X49196000Y-67561000D02*
X49196000Y-70514000D01*
X49156000Y-72996000D02*
X49156000Y-75976000D01*
X49156000Y-67534000D02*
X49156000Y-70514000D01*
X49116000Y-72996000D02*
X49116000Y-76002000D01*
X49116000Y-67508000D02*
X49116000Y-70514000D01*
X49076000Y-72996000D02*
X49076000Y-76028000D01*
X49076000Y-67482000D02*
X49076000Y-70514000D01*
X49036000Y-72996000D02*
X49036000Y-76053000D01*
X49036000Y-67457000D02*
X49036000Y-70514000D01*
X48996000Y-72996000D02*
X48996000Y-76078000D01*
X48996000Y-67432000D02*
X48996000Y-70514000D01*
X48956000Y-72996000D02*
X48956000Y-76102000D01*
X48956000Y-67408000D02*
X48956000Y-70514000D01*
X48916000Y-72996000D02*
X48916000Y-76126000D01*
X48916000Y-67384000D02*
X48916000Y-70514000D01*
X48876000Y-72996000D02*
X48876000Y-76150000D01*
X48876000Y-67360000D02*
X48876000Y-70514000D01*
X48836000Y-72996000D02*
X48836000Y-76172000D01*
X48836000Y-67338000D02*
X48836000Y-70514000D01*
X48796000Y-72996000D02*
X48796000Y-76195000D01*
X48796000Y-67315000D02*
X48796000Y-70514000D01*
X48756000Y-72996000D02*
X48756000Y-76217000D01*
X48756000Y-67293000D02*
X48756000Y-70514000D01*
X48716000Y-72996000D02*
X48716000Y-76238000D01*
X48716000Y-67272000D02*
X48716000Y-70514000D01*
X48676000Y-72996000D02*
X48676000Y-76259000D01*
X48676000Y-67251000D02*
X48676000Y-70514000D01*
X48636000Y-72996000D02*
X48636000Y-76280000D01*
X48636000Y-67230000D02*
X48636000Y-70514000D01*
X48596000Y-72996000D02*
X48596000Y-76300000D01*
X48596000Y-67210000D02*
X48596000Y-70514000D01*
X48556000Y-72996000D02*
X48556000Y-76319000D01*
X48556000Y-67191000D02*
X48556000Y-70514000D01*
X48516000Y-72996000D02*
X48516000Y-76339000D01*
X48516000Y-67171000D02*
X48516000Y-70514000D01*
X48476000Y-72996000D02*
X48476000Y-76358000D01*
X48476000Y-67152000D02*
X48476000Y-70514000D01*
X48436000Y-72996000D02*
X48436000Y-76376000D01*
X48436000Y-67134000D02*
X48436000Y-70514000D01*
X48396000Y-72996000D02*
X48396000Y-76394000D01*
X48396000Y-67116000D02*
X48396000Y-70514000D01*
X48356000Y-72996000D02*
X48356000Y-76412000D01*
X48356000Y-67098000D02*
X48356000Y-70514000D01*
X48316000Y-72996000D02*
X48316000Y-76429000D01*
X48316000Y-67081000D02*
X48316000Y-70514000D01*
X48276000Y-72996000D02*
X48276000Y-76445000D01*
X48276000Y-67065000D02*
X48276000Y-70514000D01*
X48236000Y-72996000D02*
X48236000Y-76462000D01*
X48236000Y-67048000D02*
X48236000Y-70514000D01*
X48196000Y-72996000D02*
X48196000Y-76478000D01*
X48196000Y-67032000D02*
X48196000Y-70514000D01*
X48156000Y-72996000D02*
X48156000Y-76493000D01*
X48156000Y-67017000D02*
X48156000Y-70514000D01*
X48116000Y-72996000D02*
X48116000Y-76509000D01*
X48116000Y-67001000D02*
X48116000Y-70514000D01*
X48076000Y-72996000D02*
X48076000Y-76523000D01*
X48076000Y-66987000D02*
X48076000Y-70514000D01*
X48036000Y-72996000D02*
X48036000Y-76538000D01*
X48036000Y-66972000D02*
X48036000Y-70514000D01*
X47996000Y-72996000D02*
X47996000Y-76552000D01*
X47996000Y-66958000D02*
X47996000Y-70514000D01*
X47956000Y-72996000D02*
X47956000Y-76566000D01*
X47956000Y-66944000D02*
X47956000Y-70514000D01*
X47916000Y-72996000D02*
X47916000Y-76579000D01*
X47916000Y-66931000D02*
X47916000Y-70514000D01*
X47876000Y-72996000D02*
X47876000Y-76592000D01*
X47876000Y-66918000D02*
X47876000Y-70514000D01*
X47836000Y-72996000D02*
X47836000Y-76605000D01*
X47836000Y-66905000D02*
X47836000Y-70514000D01*
X47796000Y-72996000D02*
X47796000Y-76617000D01*
X47796000Y-66893000D02*
X47796000Y-70514000D01*
X47756000Y-72996000D02*
X47756000Y-76629000D01*
X47756000Y-66881000D02*
X47756000Y-70514000D01*
X47716000Y-72996000D02*
X47716000Y-76640000D01*
X47716000Y-66870000D02*
X47716000Y-70514000D01*
X47676000Y-72996000D02*
X47676000Y-76652000D01*
X47676000Y-66858000D02*
X47676000Y-70514000D01*
X47636000Y-72996000D02*
X47636000Y-76662000D01*
X47636000Y-66848000D02*
X47636000Y-70514000D01*
X47596000Y-72996000D02*
X47596000Y-76673000D01*
X47596000Y-66837000D02*
X47596000Y-70514000D01*
X47556000Y-66827000D02*
X47556000Y-76683000D01*
X47516000Y-66817000D02*
X47516000Y-76693000D01*
X47476000Y-66808000D02*
X47476000Y-76702000D01*
X47436000Y-66799000D02*
X47436000Y-76711000D01*
X47396000Y-66790000D02*
X47396000Y-76720000D01*
X47356000Y-66781000D02*
X47356000Y-76729000D01*
X47316000Y-66773000D02*
X47316000Y-76737000D01*
X47276000Y-66765000D02*
X47276000Y-76745000D01*
X47236000Y-66758000D02*
X47236000Y-76752000D01*
X47196000Y-66751000D02*
X47196000Y-76759000D01*
X47156000Y-66744000D02*
X47156000Y-76766000D01*
X47116000Y-66737000D02*
X47116000Y-76773000D01*
X47076000Y-66731000D02*
X47076000Y-76779000D01*
X47036000Y-66725000D02*
X47036000Y-76785000D01*
X46995000Y-66720000D02*
X46995000Y-76790000D01*
X46955000Y-66715000D02*
X46955000Y-76795000D01*
X46915000Y-66710000D02*
X46915000Y-76800000D01*
X46875000Y-66705000D02*
X46875000Y-76805000D01*
X46835000Y-66701000D02*
X46835000Y-76809000D01*
X46795000Y-66697000D02*
X46795000Y-76813000D01*
X46755000Y-66693000D02*
X46755000Y-76817000D01*
X46715000Y-66690000D02*
X46715000Y-76820000D01*
X46675000Y-66687000D02*
X46675000Y-76823000D01*
X46635000Y-66685000D02*
X46635000Y-76825000D01*
X46595000Y-66682000D02*
X46595000Y-76828000D01*
X46555000Y-66680000D02*
X46555000Y-76830000D01*
X46515000Y-66678000D02*
X46515000Y-76832000D01*
X46475000Y-66677000D02*
X46475000Y-76833000D01*
X46435000Y-66676000D02*
X46435000Y-76834000D01*
X46395000Y-66675000D02*
X46395000Y-76835000D01*
X46355000Y-66675000D02*
X46355000Y-76835000D01*
X46315000Y-66675000D02*
X46315000Y-76835000D01*
X51435000Y-71755000D02*
G75*
G03X51435000Y-71755000I-5120000J0D01*
G01*
X41335354Y-93780000D02*
X41335354Y-94780000D01*
X40835354Y-94280000D02*
X41835354Y-94280000D01*
X51396000Y-96556000D02*
X51396000Y-97754000D01*
X51356000Y-96293000D02*
X51356000Y-98017000D01*
X51316000Y-96093000D02*
X51316000Y-98217000D01*
X51276000Y-95925000D02*
X51276000Y-98385000D01*
X51236000Y-95777000D02*
X51236000Y-98533000D01*
X51196000Y-95645000D02*
X51196000Y-98665000D01*
X51156000Y-95525000D02*
X51156000Y-98785000D01*
X51116000Y-95413000D02*
X51116000Y-98897000D01*
X51076000Y-95309000D02*
X51076000Y-99001000D01*
X51036000Y-95211000D02*
X51036000Y-99099000D01*
X50996000Y-95118000D02*
X50996000Y-99192000D01*
X50956000Y-95030000D02*
X50956000Y-99280000D01*
X50916000Y-94946000D02*
X50916000Y-99364000D01*
X50876000Y-94866000D02*
X50876000Y-99444000D01*
X50836000Y-94790000D02*
X50836000Y-99520000D01*
X50796000Y-94716000D02*
X50796000Y-99594000D01*
X50756000Y-94645000D02*
X50756000Y-99665000D01*
X50716000Y-94576000D02*
X50716000Y-99734000D01*
X50676000Y-94510000D02*
X50676000Y-99800000D01*
X50636000Y-94446000D02*
X50636000Y-99864000D01*
X50596000Y-94385000D02*
X50596000Y-99925000D01*
X50556000Y-94325000D02*
X50556000Y-99985000D01*
X50516000Y-94266000D02*
X50516000Y-100044000D01*
X50476000Y-94210000D02*
X50476000Y-100100000D01*
X50436000Y-94155000D02*
X50436000Y-100155000D01*
X50396000Y-94101000D02*
X50396000Y-100209000D01*
X50356000Y-94049000D02*
X50356000Y-100261000D01*
X50316000Y-93999000D02*
X50316000Y-100311000D01*
X50276000Y-93949000D02*
X50276000Y-100361000D01*
X50236000Y-93901000D02*
X50236000Y-100409000D01*
X50196000Y-93854000D02*
X50196000Y-100456000D01*
X50156000Y-93808000D02*
X50156000Y-100502000D01*
X50116000Y-93763000D02*
X50116000Y-100547000D01*
X50076000Y-93719000D02*
X50076000Y-100591000D01*
X50036000Y-98396000D02*
X50036000Y-100633000D01*
X50036000Y-93677000D02*
X50036000Y-95914000D01*
X49996000Y-98396000D02*
X49996000Y-100675000D01*
X49996000Y-93635000D02*
X49996000Y-95914000D01*
X49956000Y-98396000D02*
X49956000Y-100716000D01*
X49956000Y-93594000D02*
X49956000Y-95914000D01*
X49916000Y-98396000D02*
X49916000Y-100756000D01*
X49916000Y-93554000D02*
X49916000Y-95914000D01*
X49876000Y-98396000D02*
X49876000Y-100795000D01*
X49876000Y-93515000D02*
X49876000Y-95914000D01*
X49836000Y-98396000D02*
X49836000Y-100834000D01*
X49836000Y-93476000D02*
X49836000Y-95914000D01*
X49796000Y-98396000D02*
X49796000Y-100871000D01*
X49796000Y-93439000D02*
X49796000Y-95914000D01*
X49756000Y-98396000D02*
X49756000Y-100908000D01*
X49756000Y-93402000D02*
X49756000Y-95914000D01*
X49716000Y-98396000D02*
X49716000Y-100944000D01*
X49716000Y-93366000D02*
X49716000Y-95914000D01*
X49676000Y-98396000D02*
X49676000Y-100979000D01*
X49676000Y-93331000D02*
X49676000Y-95914000D01*
X49636000Y-98396000D02*
X49636000Y-101013000D01*
X49636000Y-93297000D02*
X49636000Y-95914000D01*
X49596000Y-98396000D02*
X49596000Y-101047000D01*
X49596000Y-93263000D02*
X49596000Y-95914000D01*
X49556000Y-98396000D02*
X49556000Y-101080000D01*
X49556000Y-93230000D02*
X49556000Y-95914000D01*
X49516000Y-98396000D02*
X49516000Y-101112000D01*
X49516000Y-93198000D02*
X49516000Y-95914000D01*
X49476000Y-98396000D02*
X49476000Y-101144000D01*
X49476000Y-93166000D02*
X49476000Y-95914000D01*
X49436000Y-98396000D02*
X49436000Y-101175000D01*
X49436000Y-93135000D02*
X49436000Y-95914000D01*
X49396000Y-98396000D02*
X49396000Y-101205000D01*
X49396000Y-93105000D02*
X49396000Y-95914000D01*
X49356000Y-98396000D02*
X49356000Y-101235000D01*
X49356000Y-93075000D02*
X49356000Y-95914000D01*
X49316000Y-98396000D02*
X49316000Y-101265000D01*
X49316000Y-93045000D02*
X49316000Y-95914000D01*
X49276000Y-98396000D02*
X49276000Y-101293000D01*
X49276000Y-93017000D02*
X49276000Y-95914000D01*
X49236000Y-98396000D02*
X49236000Y-101321000D01*
X49236000Y-92989000D02*
X49236000Y-95914000D01*
X49196000Y-98396000D02*
X49196000Y-101349000D01*
X49196000Y-92961000D02*
X49196000Y-95914000D01*
X49156000Y-98396000D02*
X49156000Y-101376000D01*
X49156000Y-92934000D02*
X49156000Y-95914000D01*
X49116000Y-98396000D02*
X49116000Y-101402000D01*
X49116000Y-92908000D02*
X49116000Y-95914000D01*
X49076000Y-98396000D02*
X49076000Y-101428000D01*
X49076000Y-92882000D02*
X49076000Y-95914000D01*
X49036000Y-98396000D02*
X49036000Y-101453000D01*
X49036000Y-92857000D02*
X49036000Y-95914000D01*
X48996000Y-98396000D02*
X48996000Y-101478000D01*
X48996000Y-92832000D02*
X48996000Y-95914000D01*
X48956000Y-98396000D02*
X48956000Y-101502000D01*
X48956000Y-92808000D02*
X48956000Y-95914000D01*
X48916000Y-98396000D02*
X48916000Y-101526000D01*
X48916000Y-92784000D02*
X48916000Y-95914000D01*
X48876000Y-98396000D02*
X48876000Y-101550000D01*
X48876000Y-92760000D02*
X48876000Y-95914000D01*
X48836000Y-98396000D02*
X48836000Y-101572000D01*
X48836000Y-92738000D02*
X48836000Y-95914000D01*
X48796000Y-98396000D02*
X48796000Y-101595000D01*
X48796000Y-92715000D02*
X48796000Y-95914000D01*
X48756000Y-98396000D02*
X48756000Y-101617000D01*
X48756000Y-92693000D02*
X48756000Y-95914000D01*
X48716000Y-98396000D02*
X48716000Y-101638000D01*
X48716000Y-92672000D02*
X48716000Y-95914000D01*
X48676000Y-98396000D02*
X48676000Y-101659000D01*
X48676000Y-92651000D02*
X48676000Y-95914000D01*
X48636000Y-98396000D02*
X48636000Y-101680000D01*
X48636000Y-92630000D02*
X48636000Y-95914000D01*
X48596000Y-98396000D02*
X48596000Y-101700000D01*
X48596000Y-92610000D02*
X48596000Y-95914000D01*
X48556000Y-98396000D02*
X48556000Y-101719000D01*
X48556000Y-92591000D02*
X48556000Y-95914000D01*
X48516000Y-98396000D02*
X48516000Y-101739000D01*
X48516000Y-92571000D02*
X48516000Y-95914000D01*
X48476000Y-98396000D02*
X48476000Y-101758000D01*
X48476000Y-92552000D02*
X48476000Y-95914000D01*
X48436000Y-98396000D02*
X48436000Y-101776000D01*
X48436000Y-92534000D02*
X48436000Y-95914000D01*
X48396000Y-98396000D02*
X48396000Y-101794000D01*
X48396000Y-92516000D02*
X48396000Y-95914000D01*
X48356000Y-98396000D02*
X48356000Y-101812000D01*
X48356000Y-92498000D02*
X48356000Y-95914000D01*
X48316000Y-98396000D02*
X48316000Y-101829000D01*
X48316000Y-92481000D02*
X48316000Y-95914000D01*
X48276000Y-98396000D02*
X48276000Y-101845000D01*
X48276000Y-92465000D02*
X48276000Y-95914000D01*
X48236000Y-98396000D02*
X48236000Y-101862000D01*
X48236000Y-92448000D02*
X48236000Y-95914000D01*
X48196000Y-98396000D02*
X48196000Y-101878000D01*
X48196000Y-92432000D02*
X48196000Y-95914000D01*
X48156000Y-98396000D02*
X48156000Y-101893000D01*
X48156000Y-92417000D02*
X48156000Y-95914000D01*
X48116000Y-98396000D02*
X48116000Y-101909000D01*
X48116000Y-92401000D02*
X48116000Y-95914000D01*
X48076000Y-98396000D02*
X48076000Y-101923000D01*
X48076000Y-92387000D02*
X48076000Y-95914000D01*
X48036000Y-98396000D02*
X48036000Y-101938000D01*
X48036000Y-92372000D02*
X48036000Y-95914000D01*
X47996000Y-98396000D02*
X47996000Y-101952000D01*
X47996000Y-92358000D02*
X47996000Y-95914000D01*
X47956000Y-98396000D02*
X47956000Y-101966000D01*
X47956000Y-92344000D02*
X47956000Y-95914000D01*
X47916000Y-98396000D02*
X47916000Y-101979000D01*
X47916000Y-92331000D02*
X47916000Y-95914000D01*
X47876000Y-98396000D02*
X47876000Y-101992000D01*
X47876000Y-92318000D02*
X47876000Y-95914000D01*
X47836000Y-98396000D02*
X47836000Y-102005000D01*
X47836000Y-92305000D02*
X47836000Y-95914000D01*
X47796000Y-98396000D02*
X47796000Y-102017000D01*
X47796000Y-92293000D02*
X47796000Y-95914000D01*
X47756000Y-98396000D02*
X47756000Y-102029000D01*
X47756000Y-92281000D02*
X47756000Y-95914000D01*
X47716000Y-98396000D02*
X47716000Y-102040000D01*
X47716000Y-92270000D02*
X47716000Y-95914000D01*
X47676000Y-98396000D02*
X47676000Y-102052000D01*
X47676000Y-92258000D02*
X47676000Y-95914000D01*
X47636000Y-98396000D02*
X47636000Y-102062000D01*
X47636000Y-92248000D02*
X47636000Y-95914000D01*
X47596000Y-98396000D02*
X47596000Y-102073000D01*
X47596000Y-92237000D02*
X47596000Y-95914000D01*
X47556000Y-92227000D02*
X47556000Y-102083000D01*
X47516000Y-92217000D02*
X47516000Y-102093000D01*
X47476000Y-92208000D02*
X47476000Y-102102000D01*
X47436000Y-92199000D02*
X47436000Y-102111000D01*
X47396000Y-92190000D02*
X47396000Y-102120000D01*
X47356000Y-92181000D02*
X47356000Y-102129000D01*
X47316000Y-92173000D02*
X47316000Y-102137000D01*
X47276000Y-92165000D02*
X47276000Y-102145000D01*
X47236000Y-92158000D02*
X47236000Y-102152000D01*
X47196000Y-92151000D02*
X47196000Y-102159000D01*
X47156000Y-92144000D02*
X47156000Y-102166000D01*
X47116000Y-92137000D02*
X47116000Y-102173000D01*
X47076000Y-92131000D02*
X47076000Y-102179000D01*
X47036000Y-92125000D02*
X47036000Y-102185000D01*
X46995000Y-92120000D02*
X46995000Y-102190000D01*
X46955000Y-92115000D02*
X46955000Y-102195000D01*
X46915000Y-92110000D02*
X46915000Y-102200000D01*
X46875000Y-92105000D02*
X46875000Y-102205000D01*
X46835000Y-92101000D02*
X46835000Y-102209000D01*
X46795000Y-92097000D02*
X46795000Y-102213000D01*
X46755000Y-92093000D02*
X46755000Y-102217000D01*
X46715000Y-92090000D02*
X46715000Y-102220000D01*
X46675000Y-92087000D02*
X46675000Y-102223000D01*
X46635000Y-92085000D02*
X46635000Y-102225000D01*
X46595000Y-92082000D02*
X46595000Y-102228000D01*
X46555000Y-92080000D02*
X46555000Y-102230000D01*
X46515000Y-92078000D02*
X46515000Y-102232000D01*
X46475000Y-92077000D02*
X46475000Y-102233000D01*
X46435000Y-92076000D02*
X46435000Y-102234000D01*
X46395000Y-92075000D02*
X46395000Y-102235000D01*
X46355000Y-92075000D02*
X46355000Y-102235000D01*
X46315000Y-92075000D02*
X46315000Y-102235000D01*
X51435000Y-97155000D02*
G75*
G03X51435000Y-97155000I-5120000J0D01*
G01*
X55320000Y-60196252D02*
X55320000Y-59673748D01*
X53900000Y-60196252D02*
X53900000Y-59673748D01*
X55261252Y-102160000D02*
X54738748Y-102160000D01*
X55261252Y-103580000D02*
X54738748Y-103580000D01*
D16*
X62804523Y-52281666D02*
X62804523Y-52886428D01*
X61534523Y-52886428D01*
X62804523Y-51193095D02*
X62804523Y-51918809D01*
X62804523Y-51555952D02*
X61534523Y-51555952D01*
X61715952Y-51676904D01*
X61836904Y-51797857D01*
X61897380Y-51918809D01*
D17*
X64153715Y-94495950D02*
X64086955Y-94629471D01*
X63953434Y-94762992D01*
X63753152Y-94963274D01*
X63686392Y-95096795D01*
X63686392Y-95230316D01*
X64020194Y-95163555D02*
X63953434Y-95297076D01*
X63819913Y-95430597D01*
X63552871Y-95497358D01*
X63085547Y-95497358D01*
X62818505Y-95430597D01*
X62684985Y-95297076D01*
X62618224Y-95163555D01*
X62618224Y-94896513D01*
X62684985Y-94762992D01*
X62818505Y-94629471D01*
X63085547Y-94562711D01*
X63552871Y-94562711D01*
X63819913Y-94629471D01*
X63953434Y-94762992D01*
X64020194Y-94896513D01*
X64020194Y-95163555D01*
X64020194Y-93227501D02*
X64020194Y-94028627D01*
X64020194Y-93628064D02*
X62618224Y-93628064D01*
X62818505Y-93761585D01*
X62952026Y-93895106D01*
X63018787Y-94028627D01*
X55052818Y-101423518D02*
X55119541Y-101223348D01*
X55119541Y-100889731D01*
X55052818Y-100756285D01*
X54986095Y-100689561D01*
X54852648Y-100622838D01*
X54719201Y-100622838D01*
X54585755Y-100689561D01*
X54519031Y-100756285D01*
X54452308Y-100889731D01*
X54385585Y-101156625D01*
X54318861Y-101290071D01*
X54252138Y-101356795D01*
X54118691Y-101423518D01*
X53985245Y-101423518D01*
X53851798Y-101356795D01*
X53785075Y-101290071D01*
X53718351Y-101156625D01*
X53718351Y-100823008D01*
X53785075Y-100622838D01*
X53718351Y-100222498D02*
X53718351Y-99421818D01*
X55119541Y-99822158D02*
X53718351Y-99822158D01*
X55119541Y-98954755D02*
X53718351Y-98954755D01*
X53718351Y-98420968D01*
X53785075Y-98287521D01*
X53851798Y-98220798D01*
X53985245Y-98154075D01*
X54185415Y-98154075D01*
X54318861Y-98220798D01*
X54385585Y-98287521D01*
X54452308Y-98420968D01*
X54452308Y-98954755D01*
X55119541Y-96819608D02*
X55119541Y-97620288D01*
X55119541Y-97219948D02*
X53718351Y-97219948D01*
X53918521Y-97353395D01*
X54051968Y-97486841D01*
X54118691Y-97620288D01*
X53718351Y-95618588D02*
X53718351Y-95885481D01*
X53785075Y-96018928D01*
X53851798Y-96085651D01*
X54051968Y-96219098D01*
X54318861Y-96285821D01*
X54852648Y-96285821D01*
X54986095Y-96219098D01*
X55052818Y-96152375D01*
X55119541Y-96018928D01*
X55119541Y-95752035D01*
X55052818Y-95618588D01*
X54986095Y-95551865D01*
X54852648Y-95485141D01*
X54519031Y-95485141D01*
X54385585Y-95551865D01*
X54318861Y-95618588D01*
X54252138Y-95752035D01*
X54252138Y-96018928D01*
X54318861Y-96152375D01*
X54385585Y-96219098D01*
X54519031Y-96285821D01*
X53718351Y-94617738D02*
X53718351Y-94484291D01*
X53785075Y-94350845D01*
X53851798Y-94284121D01*
X53985245Y-94217398D01*
X54252138Y-94150675D01*
X54585755Y-94150675D01*
X54852648Y-94217398D01*
X54986095Y-94284121D01*
X55052818Y-94350845D01*
X55119541Y-94484291D01*
X55119541Y-94617738D01*
X55052818Y-94751185D01*
X54986095Y-94817908D01*
X54852648Y-94884631D01*
X54585755Y-94951355D01*
X54252138Y-94951355D01*
X53985245Y-94884631D01*
X53851798Y-94817908D01*
X53785075Y-94751185D01*
X53718351Y-94617738D01*
X55119541Y-93550165D02*
X53718351Y-93550165D01*
X55119541Y-92749485D01*
X53718351Y-92749485D01*
X53718351Y-92215698D02*
X53718351Y-91348295D01*
X54252138Y-91815358D01*
X54252138Y-91615188D01*
X54318861Y-91481741D01*
X54385585Y-91415018D01*
X54519031Y-91348295D01*
X54852648Y-91348295D01*
X54986095Y-91415018D01*
X55052818Y-91481741D01*
X55119541Y-91615188D01*
X55119541Y-92015528D01*
X55052818Y-92148975D01*
X54986095Y-92215698D01*
X55119541Y-90080551D02*
X55119541Y-90747785D01*
X53718351Y-90747785D01*
X55119541Y-88946255D02*
X55119541Y-89613488D01*
X53718351Y-89613488D01*
D18*
X71578095Y-93269761D02*
X71720952Y-93317380D01*
X71959047Y-93317380D01*
X72054285Y-93269761D01*
X72101904Y-93222142D01*
X72149523Y-93126904D01*
X72149523Y-93031666D01*
X72101904Y-92936428D01*
X72054285Y-92888809D01*
X71959047Y-92841190D01*
X71768571Y-92793571D01*
X71673333Y-92745952D01*
X71625714Y-92698333D01*
X71578095Y-92603095D01*
X71578095Y-92507857D01*
X71625714Y-92412619D01*
X71673333Y-92365000D01*
X71768571Y-92317380D01*
X72006666Y-92317380D01*
X72149523Y-92365000D01*
X73101904Y-93317380D02*
X72530476Y-93317380D01*
X72816190Y-93317380D02*
X72816190Y-92317380D01*
X72720952Y-92460238D01*
X72625714Y-92555476D01*
X72530476Y-92603095D01*
X63968333Y-50237380D02*
X63635000Y-49761190D01*
X63396904Y-50237380D02*
X63396904Y-49237380D01*
X63777857Y-49237380D01*
X63873095Y-49285000D01*
X63920714Y-49332619D01*
X63968333Y-49427857D01*
X63968333Y-49570714D01*
X63920714Y-49665952D01*
X63873095Y-49713571D01*
X63777857Y-49761190D01*
X63396904Y-49761190D01*
X64825476Y-49237380D02*
X64635000Y-49237380D01*
X64539761Y-49285000D01*
X64492142Y-49332619D01*
X64396904Y-49475476D01*
X64349285Y-49665952D01*
X64349285Y-50046904D01*
X64396904Y-50142142D01*
X64444523Y-50189761D01*
X64539761Y-50237380D01*
X64730238Y-50237380D01*
X64825476Y-50189761D01*
X64873095Y-50142142D01*
X64920714Y-50046904D01*
X64920714Y-49808809D01*
X64873095Y-49713571D01*
X64825476Y-49665952D01*
X64730238Y-49618333D01*
X64539761Y-49618333D01*
X64444523Y-49665952D01*
X64396904Y-49713571D01*
X64349285Y-49808809D01*
D15*
X53306666Y-39672380D02*
X53306666Y-40386666D01*
X53259047Y-40529523D01*
X53163809Y-40624761D01*
X53020952Y-40672380D01*
X52925714Y-40672380D01*
X53925714Y-40100952D02*
X53830476Y-40053333D01*
X53782857Y-40005714D01*
X53735238Y-39910476D01*
X53735238Y-39862857D01*
X53782857Y-39767619D01*
X53830476Y-39720000D01*
X53925714Y-39672380D01*
X54116190Y-39672380D01*
X54211428Y-39720000D01*
X54259047Y-39767619D01*
X54306666Y-39862857D01*
X54306666Y-39910476D01*
X54259047Y-40005714D01*
X54211428Y-40053333D01*
X54116190Y-40100952D01*
X53925714Y-40100952D01*
X53830476Y-40148571D01*
X53782857Y-40196190D01*
X53735238Y-40291428D01*
X53735238Y-40481904D01*
X53782857Y-40577142D01*
X53830476Y-40624761D01*
X53925714Y-40672380D01*
X54116190Y-40672380D01*
X54211428Y-40624761D01*
X54259047Y-40577142D01*
X54306666Y-40481904D01*
X54306666Y-40291428D01*
X54259047Y-40196190D01*
X54211428Y-40148571D01*
X54116190Y-40100952D01*
X46939047Y-43001428D02*
X47700952Y-43001428D01*
X47320000Y-43382380D02*
X47320000Y-42620476D01*
X53782857Y-48148571D02*
X53449523Y-48148571D01*
X53449523Y-48672380D02*
X53449523Y-47672380D01*
X53925714Y-47672380D01*
D18*
X65301904Y-46172380D02*
X65301904Y-45172380D01*
X65540000Y-45172380D01*
X65682857Y-45220000D01*
X65778095Y-45315238D01*
X65825714Y-45410476D01*
X65873333Y-45600952D01*
X65873333Y-45743809D01*
X65825714Y-45934285D01*
X65778095Y-46029523D01*
X65682857Y-46124761D01*
X65540000Y-46172380D01*
X65301904Y-46172380D01*
X66254285Y-45267619D02*
X66301904Y-45220000D01*
X66397142Y-45172380D01*
X66635238Y-45172380D01*
X66730476Y-45220000D01*
X66778095Y-45267619D01*
X66825714Y-45362857D01*
X66825714Y-45458095D01*
X66778095Y-45600952D01*
X66206666Y-46172380D01*
X66825714Y-46172380D01*
X51039780Y-87223504D02*
X51849304Y-87223504D01*
X51944542Y-87175885D01*
X51992161Y-87128266D01*
X52039780Y-87033028D01*
X52039780Y-86842552D01*
X51992161Y-86747314D01*
X51944542Y-86699695D01*
X51849304Y-86652076D01*
X51039780Y-86652076D01*
X52039780Y-85652076D02*
X52039780Y-86223504D01*
X52039780Y-85937790D02*
X51039780Y-85937790D01*
X51182638Y-86033028D01*
X51277876Y-86128266D01*
X51325495Y-86223504D01*
X73691904Y-45679380D02*
X73691904Y-44679380D01*
X73691904Y-45155571D02*
X74263333Y-45155571D01*
X74263333Y-45679380D02*
X74263333Y-44679380D01*
X74691904Y-44774619D02*
X74739523Y-44727000D01*
X74834761Y-44679380D01*
X75072857Y-44679380D01*
X75168095Y-44727000D01*
X75215714Y-44774619D01*
X75263333Y-44869857D01*
X75263333Y-44965095D01*
X75215714Y-45107952D01*
X74644285Y-45679380D01*
X75263333Y-45679380D01*
X75644285Y-44774619D02*
X75691904Y-44727000D01*
X75787142Y-44679380D01*
X76025238Y-44679380D01*
X76120476Y-44727000D01*
X76168095Y-44774619D01*
X76215714Y-44869857D01*
X76215714Y-44965095D01*
X76168095Y-45107952D01*
X75596666Y-45679380D01*
X76215714Y-45679380D01*
X73691904Y-52029380D02*
X73691904Y-51029380D01*
X73691904Y-51505571D02*
X74263333Y-51505571D01*
X74263333Y-52029380D02*
X74263333Y-51029380D01*
X74691904Y-51124619D02*
X74739523Y-51077000D01*
X74834761Y-51029380D01*
X75072857Y-51029380D01*
X75168095Y-51077000D01*
X75215714Y-51124619D01*
X75263333Y-51219857D01*
X75263333Y-51315095D01*
X75215714Y-51457952D01*
X74644285Y-52029380D01*
X75263333Y-52029380D01*
X76215714Y-52029380D02*
X75644285Y-52029380D01*
X75930000Y-52029380D02*
X75930000Y-51029380D01*
X75834761Y-51172238D01*
X75739523Y-51267476D01*
X75644285Y-51315095D01*
X74168095Y-33717380D02*
X74168095Y-32717380D01*
X74168095Y-33193571D02*
X74739523Y-33193571D01*
X74739523Y-33717380D02*
X74739523Y-32717380D01*
X75644285Y-33050714D02*
X75644285Y-33717380D01*
X75406190Y-32669761D02*
X75168095Y-33384047D01*
X75787142Y-33384047D01*
X65602380Y-60101666D02*
X65126190Y-60435000D01*
X65602380Y-60673095D02*
X64602380Y-60673095D01*
X64602380Y-60292142D01*
X64650000Y-60196904D01*
X64697619Y-60149285D01*
X64792857Y-60101666D01*
X64935714Y-60101666D01*
X65030952Y-60149285D01*
X65078571Y-60196904D01*
X65126190Y-60292142D01*
X65126190Y-60673095D01*
X64935714Y-59244523D02*
X65602380Y-59244523D01*
X64554761Y-59482619D02*
X65269047Y-59720714D01*
X65269047Y-59101666D01*
X64358333Y-54682380D02*
X64025000Y-54206190D01*
X63786904Y-54682380D02*
X63786904Y-53682380D01*
X64167857Y-53682380D01*
X64263095Y-53730000D01*
X64310714Y-53777619D01*
X64358333Y-53872857D01*
X64358333Y-54015714D01*
X64310714Y-54110952D01*
X64263095Y-54158571D01*
X64167857Y-54206190D01*
X63786904Y-54206190D01*
X64691666Y-53682380D02*
X65310714Y-53682380D01*
X64977380Y-54063333D01*
X65120238Y-54063333D01*
X65215476Y-54110952D01*
X65263095Y-54158571D01*
X65310714Y-54253809D01*
X65310714Y-54491904D01*
X65263095Y-54587142D01*
X65215476Y-54634761D01*
X65120238Y-54682380D01*
X64834523Y-54682380D01*
X64739285Y-54634761D01*
X64691666Y-54587142D01*
X33946904Y-77762380D02*
X33946904Y-76762380D01*
X34185000Y-76762380D01*
X34327857Y-76810000D01*
X34423095Y-76905238D01*
X34470714Y-77000476D01*
X34518333Y-77190952D01*
X34518333Y-77333809D01*
X34470714Y-77524285D01*
X34423095Y-77619523D01*
X34327857Y-77714761D01*
X34185000Y-77762380D01*
X33946904Y-77762380D01*
X35470714Y-77762380D02*
X34899285Y-77762380D01*
X35185000Y-77762380D02*
X35185000Y-76762380D01*
X35089761Y-76905238D01*
X34994523Y-77000476D01*
X34899285Y-77048095D01*
X34513333Y-75002380D02*
X34180000Y-74526190D01*
X33941904Y-75002380D02*
X33941904Y-74002380D01*
X34322857Y-74002380D01*
X34418095Y-74050000D01*
X34465714Y-74097619D01*
X34513333Y-74192857D01*
X34513333Y-74335714D01*
X34465714Y-74430952D01*
X34418095Y-74478571D01*
X34322857Y-74526190D01*
X33941904Y-74526190D01*
X35418095Y-74002380D02*
X34941904Y-74002380D01*
X34894285Y-74478571D01*
X34941904Y-74430952D01*
X35037142Y-74383333D01*
X35275238Y-74383333D01*
X35370476Y-74430952D01*
X35418095Y-74478571D01*
X35465714Y-74573809D01*
X35465714Y-74811904D01*
X35418095Y-74907142D01*
X35370476Y-74954761D01*
X35275238Y-75002380D01*
X35037142Y-75002380D01*
X34941904Y-74954761D01*
X34894285Y-74907142D01*
X26238095Y-114252380D02*
X26238095Y-113252380D01*
X26238095Y-113728571D02*
X26809523Y-113728571D01*
X26809523Y-114252380D02*
X26809523Y-113252380D01*
X27190476Y-113252380D02*
X27809523Y-113252380D01*
X27476190Y-113633333D01*
X27619047Y-113633333D01*
X27714285Y-113680952D01*
X27761904Y-113728571D01*
X27809523Y-113823809D01*
X27809523Y-114061904D01*
X27761904Y-114157142D01*
X27714285Y-114204761D01*
X27619047Y-114252380D01*
X27333333Y-114252380D01*
X27238095Y-114204761D01*
X27190476Y-114157142D01*
X26238095Y-34252380D02*
X26238095Y-33252380D01*
X26238095Y-33728571D02*
X26809523Y-33728571D01*
X26809523Y-34252380D02*
X26809523Y-33252380D01*
X27238095Y-33347619D02*
X27285714Y-33300000D01*
X27380952Y-33252380D01*
X27619047Y-33252380D01*
X27714285Y-33300000D01*
X27761904Y-33347619D01*
X27809523Y-33442857D01*
X27809523Y-33538095D01*
X27761904Y-33680952D01*
X27190476Y-34252380D01*
X27809523Y-34252380D01*
X75438095Y-114362380D02*
X75438095Y-113362380D01*
X75438095Y-113838571D02*
X76009523Y-113838571D01*
X76009523Y-114362380D02*
X76009523Y-113362380D01*
X77009523Y-114362380D02*
X76438095Y-114362380D01*
X76723809Y-114362380D02*
X76723809Y-113362380D01*
X76628571Y-113505238D01*
X76533333Y-113600476D01*
X76438095Y-113648095D01*
X58397142Y-60101666D02*
X58444761Y-60149285D01*
X58492380Y-60292142D01*
X58492380Y-60387380D01*
X58444761Y-60530238D01*
X58349523Y-60625476D01*
X58254285Y-60673095D01*
X58063809Y-60720714D01*
X57920952Y-60720714D01*
X57730476Y-60673095D01*
X57635238Y-60625476D01*
X57540000Y-60530238D01*
X57492380Y-60387380D01*
X57492380Y-60292142D01*
X57540000Y-60149285D01*
X57587619Y-60101666D01*
X58492380Y-59625476D02*
X58492380Y-59435000D01*
X58444761Y-59339761D01*
X58397142Y-59292142D01*
X58254285Y-59196904D01*
X58063809Y-59149285D01*
X57682857Y-59149285D01*
X57587619Y-59196904D01*
X57540000Y-59244523D01*
X57492380Y-59339761D01*
X57492380Y-59530238D01*
X57540000Y-59625476D01*
X57587619Y-59673095D01*
X57682857Y-59720714D01*
X57920952Y-59720714D01*
X58016190Y-59673095D01*
X58063809Y-59625476D01*
X58111428Y-59530238D01*
X58111428Y-59339761D01*
X58063809Y-59244523D01*
X58016190Y-59196904D01*
X57920952Y-59149285D01*
X60522380Y-104061666D02*
X60046190Y-104395000D01*
X60522380Y-104633095D02*
X59522380Y-104633095D01*
X59522380Y-104252142D01*
X59570000Y-104156904D01*
X59617619Y-104109285D01*
X59712857Y-104061666D01*
X59855714Y-104061666D01*
X59950952Y-104109285D01*
X59998571Y-104156904D01*
X60046190Y-104252142D01*
X60046190Y-104633095D01*
X59617619Y-103680714D02*
X59570000Y-103633095D01*
X59522380Y-103537857D01*
X59522380Y-103299761D01*
X59570000Y-103204523D01*
X59617619Y-103156904D01*
X59712857Y-103109285D01*
X59808095Y-103109285D01*
X59950952Y-103156904D01*
X60522380Y-103728333D01*
X60522380Y-103109285D01*
X52777380Y-99471666D02*
X52301190Y-99805000D01*
X52777380Y-100043095D02*
X51777380Y-100043095D01*
X51777380Y-99662142D01*
X51825000Y-99566904D01*
X51872619Y-99519285D01*
X51967857Y-99471666D01*
X52110714Y-99471666D01*
X52205952Y-99519285D01*
X52253571Y-99566904D01*
X52301190Y-99662142D01*
X52301190Y-100043095D01*
X52777380Y-98519285D02*
X52777380Y-99090714D01*
X52777380Y-98805000D02*
X51777380Y-98805000D01*
X51920238Y-98900238D01*
X52015476Y-98995476D01*
X52063095Y-99090714D01*
D15*
X46609047Y-106751428D02*
X47370952Y-106751428D01*
X46990000Y-107132380D02*
X46990000Y-106370476D01*
X55687857Y-112918571D02*
X55354523Y-112918571D01*
X55354523Y-113442380D02*
X55354523Y-112442380D01*
X55830714Y-112442380D01*
D18*
X43988571Y-45192142D02*
X45131428Y-45192142D01*
X30988571Y-45192142D02*
X32131428Y-45192142D01*
X31560000Y-45763571D02*
X31560000Y-44620714D01*
X43433571Y-111867142D02*
X44576428Y-111867142D01*
X30433571Y-111867142D02*
X31576428Y-111867142D01*
X31005000Y-112438571D02*
X31005000Y-111295714D01*
X58038571Y-118852142D02*
X59181428Y-118852142D01*
X45038571Y-118852142D02*
X46181428Y-118852142D01*
X45610000Y-119423571D02*
X45610000Y-118280714D01*
X43988571Y-38207142D02*
X45131428Y-38207142D01*
X30988571Y-38207142D02*
X32131428Y-38207142D01*
X31560000Y-38778571D02*
X31560000Y-37635714D01*
X72643571Y-118852142D02*
X73786428Y-118852142D01*
X59643571Y-118852142D02*
X60786428Y-118852142D01*
X60215000Y-119423571D02*
X60215000Y-118280714D01*
X43433571Y-118852142D02*
X44576428Y-118852142D01*
X30433571Y-118852142D02*
X31576428Y-118852142D01*
X31005000Y-119423571D02*
X31005000Y-118280714D01*
X59228571Y-38207142D02*
X60371428Y-38207142D01*
X46228571Y-38207142D02*
X47371428Y-38207142D01*
X46800000Y-38778571D02*
X46800000Y-37635714D01*
X46148333Y-53162142D02*
X46100714Y-53209761D01*
X45957857Y-53257380D01*
X45862619Y-53257380D01*
X45719761Y-53209761D01*
X45624523Y-53114523D01*
X45576904Y-53019285D01*
X45529285Y-52828809D01*
X45529285Y-52685952D01*
X45576904Y-52495476D01*
X45624523Y-52400238D01*
X45719761Y-52305000D01*
X45862619Y-52257380D01*
X45957857Y-52257380D01*
X46100714Y-52305000D01*
X46148333Y-52352619D01*
X46719761Y-52685952D02*
X46624523Y-52638333D01*
X46576904Y-52590714D01*
X46529285Y-52495476D01*
X46529285Y-52447857D01*
X46576904Y-52352619D01*
X46624523Y-52305000D01*
X46719761Y-52257380D01*
X46910238Y-52257380D01*
X47005476Y-52305000D01*
X47053095Y-52352619D01*
X47100714Y-52447857D01*
X47100714Y-52495476D01*
X47053095Y-52590714D01*
X47005476Y-52638333D01*
X46910238Y-52685952D01*
X46719761Y-52685952D01*
X46624523Y-52733571D01*
X46576904Y-52781190D01*
X46529285Y-52876428D01*
X46529285Y-53066904D01*
X46576904Y-53162142D01*
X46624523Y-53209761D01*
X46719761Y-53257380D01*
X46910238Y-53257380D01*
X47005476Y-53209761D01*
X47053095Y-53162142D01*
X47100714Y-53066904D01*
X47100714Y-52876428D01*
X47053095Y-52781190D01*
X47005476Y-52733571D01*
X46910238Y-52685952D01*
X46148333Y-78562142D02*
X46100714Y-78609761D01*
X45957857Y-78657380D01*
X45862619Y-78657380D01*
X45719761Y-78609761D01*
X45624523Y-78514523D01*
X45576904Y-78419285D01*
X45529285Y-78228809D01*
X45529285Y-78085952D01*
X45576904Y-77895476D01*
X45624523Y-77800238D01*
X45719761Y-77705000D01*
X45862619Y-77657380D01*
X45957857Y-77657380D01*
X46100714Y-77705000D01*
X46148333Y-77752619D01*
X47005476Y-77657380D02*
X46815000Y-77657380D01*
X46719761Y-77705000D01*
X46672142Y-77752619D01*
X46576904Y-77895476D01*
X46529285Y-78085952D01*
X46529285Y-78466904D01*
X46576904Y-78562142D01*
X46624523Y-78609761D01*
X46719761Y-78657380D01*
X46910238Y-78657380D01*
X47005476Y-78609761D01*
X47053095Y-78562142D01*
X47100714Y-78466904D01*
X47100714Y-78228809D01*
X47053095Y-78133571D01*
X47005476Y-78085952D01*
X46910238Y-78038333D01*
X46719761Y-78038333D01*
X46624523Y-78085952D01*
X46576904Y-78133571D01*
X46529285Y-78228809D01*
X46148333Y-65862142D02*
X46100714Y-65909761D01*
X45957857Y-65957380D01*
X45862619Y-65957380D01*
X45719761Y-65909761D01*
X45624523Y-65814523D01*
X45576904Y-65719285D01*
X45529285Y-65528809D01*
X45529285Y-65385952D01*
X45576904Y-65195476D01*
X45624523Y-65100238D01*
X45719761Y-65005000D01*
X45862619Y-64957380D01*
X45957857Y-64957380D01*
X46100714Y-65005000D01*
X46148333Y-65052619D01*
X47053095Y-64957380D02*
X46576904Y-64957380D01*
X46529285Y-65433571D01*
X46576904Y-65385952D01*
X46672142Y-65338333D01*
X46910238Y-65338333D01*
X47005476Y-65385952D01*
X47053095Y-65433571D01*
X47100714Y-65528809D01*
X47100714Y-65766904D01*
X47053095Y-65862142D01*
X47005476Y-65909761D01*
X46910238Y-65957380D01*
X46672142Y-65957380D01*
X46576904Y-65909761D01*
X46529285Y-65862142D01*
X46148333Y-91262142D02*
X46100714Y-91309761D01*
X45957857Y-91357380D01*
X45862619Y-91357380D01*
X45719761Y-91309761D01*
X45624523Y-91214523D01*
X45576904Y-91119285D01*
X45529285Y-90928809D01*
X45529285Y-90785952D01*
X45576904Y-90595476D01*
X45624523Y-90500238D01*
X45719761Y-90405000D01*
X45862619Y-90357380D01*
X45957857Y-90357380D01*
X46100714Y-90405000D01*
X46148333Y-90452619D01*
X46481666Y-90357380D02*
X47100714Y-90357380D01*
X46767380Y-90738333D01*
X46910238Y-90738333D01*
X47005476Y-90785952D01*
X47053095Y-90833571D01*
X47100714Y-90928809D01*
X47100714Y-91166904D01*
X47053095Y-91262142D01*
X47005476Y-91309761D01*
X46910238Y-91357380D01*
X46624523Y-91357380D01*
X46529285Y-91309761D01*
X46481666Y-91262142D01*
X53317142Y-60101666D02*
X53364761Y-60149285D01*
X53412380Y-60292142D01*
X53412380Y-60387380D01*
X53364761Y-60530238D01*
X53269523Y-60625476D01*
X53174285Y-60673095D01*
X52983809Y-60720714D01*
X52840952Y-60720714D01*
X52650476Y-60673095D01*
X52555238Y-60625476D01*
X52460000Y-60530238D01*
X52412380Y-60387380D01*
X52412380Y-60292142D01*
X52460000Y-60149285D01*
X52507619Y-60101666D01*
X52507619Y-59720714D02*
X52460000Y-59673095D01*
X52412380Y-59577857D01*
X52412380Y-59339761D01*
X52460000Y-59244523D01*
X52507619Y-59196904D01*
X52602857Y-59149285D01*
X52698095Y-59149285D01*
X52840952Y-59196904D01*
X53412380Y-59768333D01*
X53412380Y-59149285D01*
X54833333Y-104877142D02*
X54785714Y-104924761D01*
X54642857Y-104972380D01*
X54547619Y-104972380D01*
X54404761Y-104924761D01*
X54309523Y-104829523D01*
X54261904Y-104734285D01*
X54214285Y-104543809D01*
X54214285Y-104400952D01*
X54261904Y-104210476D01*
X54309523Y-104115238D01*
X54404761Y-104020000D01*
X54547619Y-103972380D01*
X54642857Y-103972380D01*
X54785714Y-104020000D01*
X54833333Y-104067619D01*
X55785714Y-104972380D02*
X55214285Y-104972380D01*
X55500000Y-104972380D02*
X55500000Y-103972380D01*
X55404761Y-104115238D01*
X55309523Y-104210476D01*
X55214285Y-104258095D01*
M02*
