M48
; DRILL file {KiCad (5.1.0-0)} date Wednesday, April 24, 2019 at 02:20:33 AM
; FORMAT={-:-/ absolute / inch / decimal}
; #@! TF.CreationDate,2019-04-24T02:20:33-07:00
; #@! TF.GenerationSoftware,Kicad,Pcbnew,(5.1.0-0)
; #@! TF.FileFunction,Plated,1,2,PTH
FMAT,2
INCH
T1C0.0157
T2C0.0354
T3C0.0394
T4C0.0500
T5C0.0512
T6C0.0591
T7C0.1063
T8C0.1575
%
G90
G05
T1
X1.565Y-3.84
X1.57Y-2.84
X1.57Y-2.91
X1.58Y-2.99
X1.595Y-3.87
X1.76Y-2.6
X1.975Y-3.995
X1.985Y-4.065
X2.17Y-3.995
X2.375Y-4.025
T2
X2.75Y-3.775
X2.8484Y-3.775
X2.9469Y-3.775
T3
X1.725Y-2.325
X1.9219Y-2.325
X1.725Y-3.825
X1.9219Y-3.825
X1.725Y-3.325
X1.9219Y-3.325
X1.725Y-2.825
X1.9219Y-2.825
T4
X2.3Y-3.677
X2.3Y-3.875
X2.301Y-3.777
T5
X1.3031Y-2.7165
X1.5Y-2.7165
X1.3031Y-3.5827
X1.5Y-3.5827
T6
X2.95Y-2.125
X2.2Y-2.575
X2.2Y-2.875
X2.2Y-3.075
X3.0Y-2.575
X3.0Y-2.975
X3.0Y-3.375
X2.95Y-1.875
T7
X2.5281Y-4.675
X2.725Y-4.675
X1.9531Y-4.675
X2.15Y-4.675
X1.4Y-1.775
X1.5969Y-1.775
X1.4Y-1.5
X1.5969Y-1.5
X1.3781Y-4.4
X1.575Y-4.4
X2.0Y-1.5
X2.1969Y-1.5
X1.3781Y-4.675
X1.575Y-4.675
T8
X2.05Y-4.35
X2.3236Y-4.35
X1.975Y-1.8
X2.2486Y-1.8
T0
M30
