G04 #@! TF.GenerationSoftware,KiCad,Pcbnew,(5.1.0-0)*
G04 #@! TF.CreationDate,2019-04-24T02:20:35-07:00*
G04 #@! TF.ProjectId,power board,706f7765-7220-4626-9f61-72642e6b6963,rev?*
G04 #@! TF.SameCoordinates,Original*
G04 #@! TF.FileFunction,Copper,L2,Bot*
G04 #@! TF.FilePolarity,Positive*
%FSLAX46Y46*%
G04 Gerber Fmt 4.6, Leading zero omitted, Abs format (unit mm)*
G04 Created by KiCad (PCBNEW (5.1.0-0)) date 2019-04-24 02:20:35*
%MOMM*%
%LPD*%
G04 APERTURE LIST*
%ADD10C,2.000000*%
%ADD11C,1.910000*%
%ADD12R,1.910000X1.910000*%
%ADD13C,1.900000*%
%ADD14R,1.900000X1.900000*%
%ADD15C,6.500000*%
%ADD16O,3.000000X2.000000*%
%ADD17R,3.000000X2.000000*%
%ADD18C,3.000000*%
%ADD19C,1.700000*%
%ADD20C,4.000000*%
%ADD21R,3.800000X3.800000*%
%ADD22R,2.000000X2.000000*%
%ADD23C,0.800000*%
%ADD24C,0.700000*%
%ADD25C,0.600000*%
%ADD26C,0.254000*%
G04 APERTURE END LIST*
D10*
X33100000Y-69000000D03*
X38100000Y-69000000D03*
D11*
X58420000Y-98425000D03*
X58420000Y-93395800D03*
D12*
X58445400Y-95935800D03*
D13*
X74850000Y-95885000D03*
X72350000Y-95885000D03*
D14*
X69850000Y-95885000D03*
D15*
X50165000Y-45720000D03*
X57115000Y-45720000D03*
D16*
X55880000Y-65405000D03*
X76200000Y-75565000D03*
D17*
X55880000Y-78105000D03*
D16*
X55880000Y-73025000D03*
X76200000Y-85725000D03*
X76200000Y-65405000D03*
D18*
X74930000Y-47625000D03*
X74930000Y-53975000D03*
D19*
X33100000Y-91000000D03*
X38100000Y-91000000D03*
D15*
X52070000Y-110490000D03*
X59020000Y-110490000D03*
D20*
X35560000Y-45085000D03*
D21*
X40560000Y-45085000D03*
D20*
X35005000Y-111760000D03*
D21*
X40005000Y-111760000D03*
D20*
X49610000Y-118745000D03*
D21*
X54610000Y-118745000D03*
D20*
X35560000Y-38100000D03*
D21*
X40560000Y-38100000D03*
D20*
X64215000Y-118745000D03*
D21*
X69215000Y-118745000D03*
D20*
X35005000Y-118745000D03*
D21*
X40005000Y-118745000D03*
D20*
X50800000Y-38100000D03*
D21*
X55800000Y-38100000D03*
D10*
X48815000Y-59055000D03*
D22*
X43815000Y-59055000D03*
D10*
X48815000Y-84455000D03*
D22*
X43815000Y-84455000D03*
D10*
X48815000Y-71755000D03*
D22*
X43815000Y-71755000D03*
D10*
X48815000Y-97155000D03*
D22*
X43815000Y-97155000D03*
D23*
X44704000Y-66040000D03*
X40132000Y-75946000D03*
X39878000Y-73914000D03*
X39878000Y-72136000D03*
X50419000Y-103251000D03*
X60325000Y-102235000D03*
X55118000Y-101473000D03*
X39751000Y-97536000D03*
X40513000Y-98298000D03*
X50165000Y-101473000D03*
D24*
X33100000Y-91000000D02*
X38100000Y-91000000D01*
X39878000Y-75692000D02*
X40132000Y-75946000D01*
X44704000Y-66040000D02*
X39878000Y-70866000D01*
X39878000Y-73914000D02*
X39878000Y-75692000D01*
X39878000Y-73025000D02*
X39878000Y-72136000D01*
X39878000Y-70866000D02*
X39878000Y-73025000D01*
X39878000Y-73025000D02*
X39878000Y-73914000D01*
X38100000Y-98044000D02*
X43307000Y-103251000D01*
X38100000Y-91000000D02*
X38100000Y-98044000D01*
X43307000Y-103251000D02*
X50419000Y-103251000D01*
D25*
X66675000Y-95885000D02*
X60325000Y-102235000D01*
X69850000Y-95885000D02*
X66675000Y-95885000D01*
D24*
X40513000Y-98298000D02*
X39751000Y-97536000D01*
X43688000Y-101473000D02*
X41148000Y-98933000D01*
X41148000Y-98933000D02*
X40513000Y-98298000D01*
X55118000Y-101473000D02*
X50165000Y-101473000D01*
X50165000Y-101473000D02*
X43688000Y-101473000D01*
D26*
G36*
X80190140Y-42027925D02*
G01*
X80514681Y-42047102D01*
X80831530Y-42101820D01*
X81140283Y-42191603D01*
X81437058Y-42315322D01*
X81718158Y-42471435D01*
X81980049Y-42657983D01*
X82219455Y-42872629D01*
X82433367Y-43112675D01*
X82619124Y-43375138D01*
X82774380Y-43656697D01*
X82897204Y-43953859D01*
X82986049Y-44262876D01*
X83039807Y-44579894D01*
X83058000Y-44904480D01*
X83058000Y-89526672D01*
X83039631Y-89666197D01*
X82988990Y-89788454D01*
X82908436Y-89893436D01*
X82803454Y-89973990D01*
X82681197Y-90024631D01*
X82541672Y-90043000D01*
X56343560Y-90043000D01*
X56018354Y-90024737D01*
X55700734Y-89970772D01*
X55391182Y-89881591D01*
X55093532Y-89758300D01*
X54811579Y-89602471D01*
X54548844Y-89416049D01*
X54308624Y-89201376D01*
X54093951Y-88961156D01*
X53907529Y-88698421D01*
X53751700Y-88416468D01*
X53628409Y-88118818D01*
X53539228Y-87809266D01*
X53485263Y-87491646D01*
X53467000Y-87166440D01*
X53467000Y-85725000D01*
X74057089Y-85725000D01*
X74088657Y-86045516D01*
X74182148Y-86353715D01*
X74333969Y-86637752D01*
X74538286Y-86886714D01*
X74787248Y-87091031D01*
X75071285Y-87242852D01*
X75379484Y-87336343D01*
X75619678Y-87360000D01*
X76780322Y-87360000D01*
X77020516Y-87336343D01*
X77328715Y-87242852D01*
X77612752Y-87091031D01*
X77861714Y-86886714D01*
X78066031Y-86637752D01*
X78217852Y-86353715D01*
X78311343Y-86045516D01*
X78342911Y-85725000D01*
X78311343Y-85404484D01*
X78217852Y-85096285D01*
X78066031Y-84812248D01*
X77861714Y-84563286D01*
X77612752Y-84358969D01*
X77328715Y-84207148D01*
X77020516Y-84113657D01*
X76780322Y-84090000D01*
X75619678Y-84090000D01*
X75379484Y-84113657D01*
X75071285Y-84207148D01*
X74787248Y-84358969D01*
X74538286Y-84563286D01*
X74333969Y-84812248D01*
X74182148Y-85096285D01*
X74088657Y-85404484D01*
X74057089Y-85725000D01*
X53467000Y-85725000D01*
X53467000Y-77105000D01*
X53741928Y-77105000D01*
X53741928Y-79105000D01*
X53754188Y-79229482D01*
X53790498Y-79349180D01*
X53849463Y-79459494D01*
X53928815Y-79556185D01*
X54025506Y-79635537D01*
X54135820Y-79694502D01*
X54255518Y-79730812D01*
X54380000Y-79743072D01*
X57380000Y-79743072D01*
X57504482Y-79730812D01*
X57624180Y-79694502D01*
X57734494Y-79635537D01*
X57831185Y-79556185D01*
X57910537Y-79459494D01*
X57969502Y-79349180D01*
X58005812Y-79229482D01*
X58018072Y-79105000D01*
X58018072Y-77105000D01*
X58005812Y-76980518D01*
X57969502Y-76860820D01*
X57910537Y-76750506D01*
X57831185Y-76653815D01*
X57734494Y-76574463D01*
X57624180Y-76515498D01*
X57504482Y-76479188D01*
X57380000Y-76466928D01*
X54380000Y-76466928D01*
X54255518Y-76479188D01*
X54135820Y-76515498D01*
X54025506Y-76574463D01*
X53928815Y-76653815D01*
X53849463Y-76750506D01*
X53790498Y-76860820D01*
X53754188Y-76980518D01*
X53741928Y-77105000D01*
X53467000Y-77105000D01*
X53467000Y-75565000D01*
X74057089Y-75565000D01*
X74088657Y-75885516D01*
X74182148Y-76193715D01*
X74333969Y-76477752D01*
X74538286Y-76726714D01*
X74787248Y-76931031D01*
X75071285Y-77082852D01*
X75379484Y-77176343D01*
X75619678Y-77200000D01*
X76780322Y-77200000D01*
X77020516Y-77176343D01*
X77328715Y-77082852D01*
X77612752Y-76931031D01*
X77861714Y-76726714D01*
X78066031Y-76477752D01*
X78217852Y-76193715D01*
X78311343Y-75885516D01*
X78342911Y-75565000D01*
X78311343Y-75244484D01*
X78217852Y-74936285D01*
X78066031Y-74652248D01*
X77861714Y-74403286D01*
X77612752Y-74198969D01*
X77328715Y-74047148D01*
X77020516Y-73953657D01*
X76780322Y-73930000D01*
X75619678Y-73930000D01*
X75379484Y-73953657D01*
X75071285Y-74047148D01*
X74787248Y-74198969D01*
X74538286Y-74403286D01*
X74333969Y-74652248D01*
X74182148Y-74936285D01*
X74088657Y-75244484D01*
X74057089Y-75565000D01*
X53467000Y-75565000D01*
X53467000Y-73025000D01*
X53737089Y-73025000D01*
X53768657Y-73345516D01*
X53862148Y-73653715D01*
X54013969Y-73937752D01*
X54218286Y-74186714D01*
X54467248Y-74391031D01*
X54751285Y-74542852D01*
X55059484Y-74636343D01*
X55299678Y-74660000D01*
X56460322Y-74660000D01*
X56700516Y-74636343D01*
X57008715Y-74542852D01*
X57292752Y-74391031D01*
X57541714Y-74186714D01*
X57746031Y-73937752D01*
X57897852Y-73653715D01*
X57991343Y-73345516D01*
X58022911Y-73025000D01*
X57991343Y-72704484D01*
X57897852Y-72396285D01*
X57746031Y-72112248D01*
X57541714Y-71863286D01*
X57292752Y-71658969D01*
X57008715Y-71507148D01*
X56700516Y-71413657D01*
X56460322Y-71390000D01*
X55299678Y-71390000D01*
X55059484Y-71413657D01*
X54751285Y-71507148D01*
X54467248Y-71658969D01*
X54218286Y-71863286D01*
X54013969Y-72112248D01*
X53862148Y-72396285D01*
X53768657Y-72704484D01*
X53737089Y-73025000D01*
X53467000Y-73025000D01*
X53467000Y-65847194D01*
X53485098Y-65523456D01*
X53505131Y-65405000D01*
X53737089Y-65405000D01*
X53768657Y-65725516D01*
X53862148Y-66033715D01*
X54013969Y-66317752D01*
X54218286Y-66566714D01*
X54467248Y-66771031D01*
X54751285Y-66922852D01*
X55059484Y-67016343D01*
X55299678Y-67040000D01*
X56460322Y-67040000D01*
X56700516Y-67016343D01*
X57008715Y-66922852D01*
X57292752Y-66771031D01*
X57541714Y-66566714D01*
X57746031Y-66317752D01*
X57897852Y-66033715D01*
X57991343Y-65725516D01*
X58022911Y-65405000D01*
X57991343Y-65084484D01*
X57897852Y-64776285D01*
X57746031Y-64492248D01*
X57541714Y-64243286D01*
X57292752Y-64038969D01*
X57008715Y-63887148D01*
X56700516Y-63793657D01*
X56460322Y-63770000D01*
X55299678Y-63770000D01*
X55059484Y-63793657D01*
X54751285Y-63887148D01*
X54467248Y-64038969D01*
X54218286Y-64243286D01*
X54013969Y-64492248D01*
X53862148Y-64776285D01*
X53768657Y-65084484D01*
X53737089Y-65405000D01*
X53505131Y-65405000D01*
X53538576Y-65207243D01*
X53626961Y-64898973D01*
X53749156Y-64602472D01*
X53903639Y-64321434D01*
X54088480Y-64059370D01*
X54301379Y-63819539D01*
X54539683Y-63604933D01*
X54800432Y-63418216D01*
X55080342Y-63261739D01*
X55375977Y-63137424D01*
X55683608Y-63046839D01*
X55999419Y-62991106D01*
X56323019Y-62970696D01*
X59252335Y-62949773D01*
X59259422Y-62949524D01*
X59593652Y-62928443D01*
X59607729Y-62926762D01*
X59937528Y-62868561D01*
X59951330Y-62865322D01*
X60272586Y-62770725D01*
X60285942Y-62765968D01*
X60594653Y-62636154D01*
X60607394Y-62629937D01*
X60899713Y-62466523D01*
X60911683Y-62458926D01*
X61183967Y-62263950D01*
X61195015Y-62255065D01*
X61443871Y-62030955D01*
X61453860Y-62020894D01*
X61676186Y-61770444D01*
X61684991Y-61759333D01*
X61878018Y-61485663D01*
X61885530Y-61473640D01*
X62046851Y-61180162D01*
X62052976Y-61167376D01*
X62180582Y-60857745D01*
X62185244Y-60844356D01*
X62277544Y-60522432D01*
X62280685Y-60508608D01*
X62336530Y-60178402D01*
X62338110Y-60164312D01*
X62356802Y-59829940D01*
X62357000Y-59822852D01*
X62357000Y-53764721D01*
X72795000Y-53764721D01*
X72795000Y-54185279D01*
X72877047Y-54597756D01*
X73037988Y-54986302D01*
X73271637Y-55335983D01*
X73569017Y-55633363D01*
X73918698Y-55867012D01*
X74307244Y-56027953D01*
X74719721Y-56110000D01*
X75140279Y-56110000D01*
X75552756Y-56027953D01*
X75941302Y-55867012D01*
X76290983Y-55633363D01*
X76588363Y-55335983D01*
X76822012Y-54986302D01*
X76982953Y-54597756D01*
X77065000Y-54185279D01*
X77065000Y-53764721D01*
X76982953Y-53352244D01*
X76822012Y-52963698D01*
X76588363Y-52614017D01*
X76290983Y-52316637D01*
X75941302Y-52082988D01*
X75552756Y-51922047D01*
X75140279Y-51840000D01*
X74719721Y-51840000D01*
X74307244Y-51922047D01*
X73918698Y-52082988D01*
X73569017Y-52316637D01*
X73271637Y-52614017D01*
X73037988Y-52963698D01*
X72877047Y-53352244D01*
X72795000Y-53764721D01*
X62357000Y-53764721D01*
X62357000Y-44859168D01*
X62375333Y-44533342D01*
X62429505Y-44215136D01*
X62519031Y-43905017D01*
X62642778Y-43606903D01*
X62799185Y-43324555D01*
X62986289Y-43061522D01*
X63201701Y-42821156D01*
X63442731Y-42606462D01*
X63706322Y-42420162D01*
X63989141Y-42264612D01*
X64287633Y-42141767D01*
X64598019Y-42053182D01*
X64916388Y-41999975D01*
X65242276Y-41982628D01*
X80190140Y-42027925D01*
X80190140Y-42027925D01*
G37*
X80190140Y-42027925D02*
X80514681Y-42047102D01*
X80831530Y-42101820D01*
X81140283Y-42191603D01*
X81437058Y-42315322D01*
X81718158Y-42471435D01*
X81980049Y-42657983D01*
X82219455Y-42872629D01*
X82433367Y-43112675D01*
X82619124Y-43375138D01*
X82774380Y-43656697D01*
X82897204Y-43953859D01*
X82986049Y-44262876D01*
X83039807Y-44579894D01*
X83058000Y-44904480D01*
X83058000Y-89526672D01*
X83039631Y-89666197D01*
X82988990Y-89788454D01*
X82908436Y-89893436D01*
X82803454Y-89973990D01*
X82681197Y-90024631D01*
X82541672Y-90043000D01*
X56343560Y-90043000D01*
X56018354Y-90024737D01*
X55700734Y-89970772D01*
X55391182Y-89881591D01*
X55093532Y-89758300D01*
X54811579Y-89602471D01*
X54548844Y-89416049D01*
X54308624Y-89201376D01*
X54093951Y-88961156D01*
X53907529Y-88698421D01*
X53751700Y-88416468D01*
X53628409Y-88118818D01*
X53539228Y-87809266D01*
X53485263Y-87491646D01*
X53467000Y-87166440D01*
X53467000Y-85725000D01*
X74057089Y-85725000D01*
X74088657Y-86045516D01*
X74182148Y-86353715D01*
X74333969Y-86637752D01*
X74538286Y-86886714D01*
X74787248Y-87091031D01*
X75071285Y-87242852D01*
X75379484Y-87336343D01*
X75619678Y-87360000D01*
X76780322Y-87360000D01*
X77020516Y-87336343D01*
X77328715Y-87242852D01*
X77612752Y-87091031D01*
X77861714Y-86886714D01*
X78066031Y-86637752D01*
X78217852Y-86353715D01*
X78311343Y-86045516D01*
X78342911Y-85725000D01*
X78311343Y-85404484D01*
X78217852Y-85096285D01*
X78066031Y-84812248D01*
X77861714Y-84563286D01*
X77612752Y-84358969D01*
X77328715Y-84207148D01*
X77020516Y-84113657D01*
X76780322Y-84090000D01*
X75619678Y-84090000D01*
X75379484Y-84113657D01*
X75071285Y-84207148D01*
X74787248Y-84358969D01*
X74538286Y-84563286D01*
X74333969Y-84812248D01*
X74182148Y-85096285D01*
X74088657Y-85404484D01*
X74057089Y-85725000D01*
X53467000Y-85725000D01*
X53467000Y-77105000D01*
X53741928Y-77105000D01*
X53741928Y-79105000D01*
X53754188Y-79229482D01*
X53790498Y-79349180D01*
X53849463Y-79459494D01*
X53928815Y-79556185D01*
X54025506Y-79635537D01*
X54135820Y-79694502D01*
X54255518Y-79730812D01*
X54380000Y-79743072D01*
X57380000Y-79743072D01*
X57504482Y-79730812D01*
X57624180Y-79694502D01*
X57734494Y-79635537D01*
X57831185Y-79556185D01*
X57910537Y-79459494D01*
X57969502Y-79349180D01*
X58005812Y-79229482D01*
X58018072Y-79105000D01*
X58018072Y-77105000D01*
X58005812Y-76980518D01*
X57969502Y-76860820D01*
X57910537Y-76750506D01*
X57831185Y-76653815D01*
X57734494Y-76574463D01*
X57624180Y-76515498D01*
X57504482Y-76479188D01*
X57380000Y-76466928D01*
X54380000Y-76466928D01*
X54255518Y-76479188D01*
X54135820Y-76515498D01*
X54025506Y-76574463D01*
X53928815Y-76653815D01*
X53849463Y-76750506D01*
X53790498Y-76860820D01*
X53754188Y-76980518D01*
X53741928Y-77105000D01*
X53467000Y-77105000D01*
X53467000Y-75565000D01*
X74057089Y-75565000D01*
X74088657Y-75885516D01*
X74182148Y-76193715D01*
X74333969Y-76477752D01*
X74538286Y-76726714D01*
X74787248Y-76931031D01*
X75071285Y-77082852D01*
X75379484Y-77176343D01*
X75619678Y-77200000D01*
X76780322Y-77200000D01*
X77020516Y-77176343D01*
X77328715Y-77082852D01*
X77612752Y-76931031D01*
X77861714Y-76726714D01*
X78066031Y-76477752D01*
X78217852Y-76193715D01*
X78311343Y-75885516D01*
X78342911Y-75565000D01*
X78311343Y-75244484D01*
X78217852Y-74936285D01*
X78066031Y-74652248D01*
X77861714Y-74403286D01*
X77612752Y-74198969D01*
X77328715Y-74047148D01*
X77020516Y-73953657D01*
X76780322Y-73930000D01*
X75619678Y-73930000D01*
X75379484Y-73953657D01*
X75071285Y-74047148D01*
X74787248Y-74198969D01*
X74538286Y-74403286D01*
X74333969Y-74652248D01*
X74182148Y-74936285D01*
X74088657Y-75244484D01*
X74057089Y-75565000D01*
X53467000Y-75565000D01*
X53467000Y-73025000D01*
X53737089Y-73025000D01*
X53768657Y-73345516D01*
X53862148Y-73653715D01*
X54013969Y-73937752D01*
X54218286Y-74186714D01*
X54467248Y-74391031D01*
X54751285Y-74542852D01*
X55059484Y-74636343D01*
X55299678Y-74660000D01*
X56460322Y-74660000D01*
X56700516Y-74636343D01*
X57008715Y-74542852D01*
X57292752Y-74391031D01*
X57541714Y-74186714D01*
X57746031Y-73937752D01*
X57897852Y-73653715D01*
X57991343Y-73345516D01*
X58022911Y-73025000D01*
X57991343Y-72704484D01*
X57897852Y-72396285D01*
X57746031Y-72112248D01*
X57541714Y-71863286D01*
X57292752Y-71658969D01*
X57008715Y-71507148D01*
X56700516Y-71413657D01*
X56460322Y-71390000D01*
X55299678Y-71390000D01*
X55059484Y-71413657D01*
X54751285Y-71507148D01*
X54467248Y-71658969D01*
X54218286Y-71863286D01*
X54013969Y-72112248D01*
X53862148Y-72396285D01*
X53768657Y-72704484D01*
X53737089Y-73025000D01*
X53467000Y-73025000D01*
X53467000Y-65847194D01*
X53485098Y-65523456D01*
X53505131Y-65405000D01*
X53737089Y-65405000D01*
X53768657Y-65725516D01*
X53862148Y-66033715D01*
X54013969Y-66317752D01*
X54218286Y-66566714D01*
X54467248Y-66771031D01*
X54751285Y-66922852D01*
X55059484Y-67016343D01*
X55299678Y-67040000D01*
X56460322Y-67040000D01*
X56700516Y-67016343D01*
X57008715Y-66922852D01*
X57292752Y-66771031D01*
X57541714Y-66566714D01*
X57746031Y-66317752D01*
X57897852Y-66033715D01*
X57991343Y-65725516D01*
X58022911Y-65405000D01*
X57991343Y-65084484D01*
X57897852Y-64776285D01*
X57746031Y-64492248D01*
X57541714Y-64243286D01*
X57292752Y-64038969D01*
X57008715Y-63887148D01*
X56700516Y-63793657D01*
X56460322Y-63770000D01*
X55299678Y-63770000D01*
X55059484Y-63793657D01*
X54751285Y-63887148D01*
X54467248Y-64038969D01*
X54218286Y-64243286D01*
X54013969Y-64492248D01*
X53862148Y-64776285D01*
X53768657Y-65084484D01*
X53737089Y-65405000D01*
X53505131Y-65405000D01*
X53538576Y-65207243D01*
X53626961Y-64898973D01*
X53749156Y-64602472D01*
X53903639Y-64321434D01*
X54088480Y-64059370D01*
X54301379Y-63819539D01*
X54539683Y-63604933D01*
X54800432Y-63418216D01*
X55080342Y-63261739D01*
X55375977Y-63137424D01*
X55683608Y-63046839D01*
X55999419Y-62991106D01*
X56323019Y-62970696D01*
X59252335Y-62949773D01*
X59259422Y-62949524D01*
X59593652Y-62928443D01*
X59607729Y-62926762D01*
X59937528Y-62868561D01*
X59951330Y-62865322D01*
X60272586Y-62770725D01*
X60285942Y-62765968D01*
X60594653Y-62636154D01*
X60607394Y-62629937D01*
X60899713Y-62466523D01*
X60911683Y-62458926D01*
X61183967Y-62263950D01*
X61195015Y-62255065D01*
X61443871Y-62030955D01*
X61453860Y-62020894D01*
X61676186Y-61770444D01*
X61684991Y-61759333D01*
X61878018Y-61485663D01*
X61885530Y-61473640D01*
X62046851Y-61180162D01*
X62052976Y-61167376D01*
X62180582Y-60857745D01*
X62185244Y-60844356D01*
X62277544Y-60522432D01*
X62280685Y-60508608D01*
X62336530Y-60178402D01*
X62338110Y-60164312D01*
X62356802Y-59829940D01*
X62357000Y-59822852D01*
X62357000Y-53764721D01*
X72795000Y-53764721D01*
X72795000Y-54185279D01*
X72877047Y-54597756D01*
X73037988Y-54986302D01*
X73271637Y-55335983D01*
X73569017Y-55633363D01*
X73918698Y-55867012D01*
X74307244Y-56027953D01*
X74719721Y-56110000D01*
X75140279Y-56110000D01*
X75552756Y-56027953D01*
X75941302Y-55867012D01*
X76290983Y-55633363D01*
X76588363Y-55335983D01*
X76822012Y-54986302D01*
X76982953Y-54597756D01*
X77065000Y-54185279D01*
X77065000Y-53764721D01*
X76982953Y-53352244D01*
X76822012Y-52963698D01*
X76588363Y-52614017D01*
X76290983Y-52316637D01*
X75941302Y-52082988D01*
X75552756Y-51922047D01*
X75140279Y-51840000D01*
X74719721Y-51840000D01*
X74307244Y-51922047D01*
X73918698Y-52082988D01*
X73569017Y-52316637D01*
X73271637Y-52614017D01*
X73037988Y-52963698D01*
X72877047Y-53352244D01*
X72795000Y-53764721D01*
X62357000Y-53764721D01*
X62357000Y-44859168D01*
X62375333Y-44533342D01*
X62429505Y-44215136D01*
X62519031Y-43905017D01*
X62642778Y-43606903D01*
X62799185Y-43324555D01*
X62986289Y-43061522D01*
X63201701Y-42821156D01*
X63442731Y-42606462D01*
X63706322Y-42420162D01*
X63989141Y-42264612D01*
X64287633Y-42141767D01*
X64598019Y-42053182D01*
X64916388Y-41999975D01*
X65242276Y-41982628D01*
X80190140Y-42027925D01*
G36*
X54648242Y-35179065D02*
G01*
X54965862Y-35233030D01*
X55275414Y-35322211D01*
X55573064Y-35445502D01*
X55855017Y-35601331D01*
X56117752Y-35787753D01*
X56357972Y-36002426D01*
X56572645Y-36242646D01*
X56759067Y-36505381D01*
X56914896Y-36787334D01*
X57038187Y-37084984D01*
X57127368Y-37394536D01*
X57181333Y-37712156D01*
X57199596Y-38037362D01*
X57199596Y-48730475D01*
X57199815Y-48737938D01*
X57220536Y-49089927D01*
X57222288Y-49104751D01*
X57284164Y-49451878D01*
X57287642Y-49466394D01*
X57389820Y-49803863D01*
X57394978Y-49817870D01*
X57536045Y-50141019D01*
X57542810Y-50154324D01*
X57720817Y-50458691D01*
X57724775Y-50465023D01*
X60501495Y-54630102D01*
X60680573Y-54938112D01*
X60819057Y-55262128D01*
X60916827Y-55600654D01*
X60972421Y-55948621D01*
X60985134Y-56304665D01*
X60908208Y-59299991D01*
X60878881Y-59643757D01*
X60809760Y-59977939D01*
X60701506Y-60301552D01*
X60555641Y-60610050D01*
X60374226Y-60899073D01*
X60159815Y-61164551D01*
X59915445Y-61402726D01*
X59644552Y-61610249D01*
X59350967Y-61784183D01*
X59038825Y-61922080D01*
X58712531Y-62021993D01*
X58376701Y-62082508D01*
X58032279Y-62103000D01*
X55279083Y-62103000D01*
X55271913Y-62103203D01*
X54933726Y-62122326D01*
X54919478Y-62123942D01*
X54585603Y-62181066D01*
X54571628Y-62184278D01*
X54246320Y-62278675D01*
X54232796Y-62283443D01*
X53920203Y-62413911D01*
X53907303Y-62420172D01*
X53611410Y-62585046D01*
X53599298Y-62592722D01*
X53323878Y-62789900D01*
X53312709Y-62798892D01*
X53061271Y-63025862D01*
X53051186Y-63036056D01*
X52826938Y-63289923D01*
X52818066Y-63301189D01*
X52623865Y-63578718D01*
X52616321Y-63590912D01*
X52454643Y-63888563D01*
X52448521Y-63901530D01*
X52321428Y-64215510D01*
X52316806Y-64229084D01*
X52225918Y-64555389D01*
X52222857Y-64569398D01*
X52169332Y-64903870D01*
X52167869Y-64918134D01*
X52152390Y-65256507D01*
X52152264Y-65263679D01*
X52404796Y-88709492D01*
X52405073Y-88716610D01*
X52427550Y-89052252D01*
X52429296Y-89066385D01*
X52489208Y-89397401D01*
X52492526Y-89411249D01*
X52589120Y-89733477D01*
X52593968Y-89746868D01*
X52726030Y-90056256D01*
X52732346Y-90069019D01*
X52898216Y-90361676D01*
X52905921Y-90373652D01*
X53103512Y-90645900D01*
X53112510Y-90656938D01*
X53339338Y-90905353D01*
X53349515Y-90915315D01*
X53602729Y-91136774D01*
X53613957Y-91145533D01*
X53890372Y-91337251D01*
X53902510Y-91344698D01*
X54198651Y-91504264D01*
X54211547Y-91510306D01*
X54523691Y-91635715D01*
X54537182Y-91640274D01*
X54861404Y-91729949D01*
X54875321Y-91732970D01*
X55207544Y-91785782D01*
X55221711Y-91787226D01*
X55557758Y-91802512D01*
X55564880Y-91802636D01*
X79405285Y-91549015D01*
X79730799Y-91563831D01*
X80049082Y-91614452D01*
X80359685Y-91700403D01*
X80658711Y-91820604D01*
X80942389Y-91973540D01*
X81207146Y-92157282D01*
X81449672Y-92369537D01*
X81666890Y-92607612D01*
X81856072Y-92868512D01*
X82014847Y-93148973D01*
X82141207Y-93445446D01*
X82233565Y-93754206D01*
X82290760Y-94071371D01*
X82312305Y-94396497D01*
X82569276Y-119965116D01*
X82554183Y-120291446D01*
X82503102Y-120610504D01*
X82416519Y-120921796D01*
X82295523Y-121221406D01*
X82141645Y-121505538D01*
X81956842Y-121770580D01*
X81743441Y-122013196D01*
X81504146Y-122230313D01*
X81241974Y-122419192D01*
X80960265Y-122577426D01*
X80662558Y-122703030D01*
X80352627Y-122794407D01*
X80034409Y-122850401D01*
X79708324Y-122870527D01*
X25405002Y-123162481D01*
X24684844Y-123093771D01*
X24096528Y-122921179D01*
X23950450Y-122844878D01*
X23706655Y-122670675D01*
X23489365Y-122464365D01*
X23302762Y-122229916D01*
X23148209Y-121968048D01*
X22833552Y-121338734D01*
X22700756Y-121029561D01*
X22605659Y-120710627D01*
X22548087Y-120382847D01*
X22528596Y-120046913D01*
X22528596Y-118865859D01*
X22528687Y-118842730D01*
X22537055Y-117779872D01*
X24765000Y-117779872D01*
X24765000Y-118220128D01*
X24850890Y-118651925D01*
X25019369Y-119058669D01*
X25263962Y-119424729D01*
X25575271Y-119736038D01*
X25941331Y-119980631D01*
X26348075Y-120149110D01*
X26779872Y-120235000D01*
X27220128Y-120235000D01*
X27651925Y-120149110D01*
X28058669Y-119980631D01*
X28424729Y-119736038D01*
X28736038Y-119424729D01*
X28980631Y-119058669D01*
X29149110Y-118651925D01*
X29182219Y-118485475D01*
X32370000Y-118485475D01*
X32370000Y-119004525D01*
X32471261Y-119513601D01*
X32669893Y-119993141D01*
X32958262Y-120424715D01*
X33325285Y-120791738D01*
X33756859Y-121080107D01*
X34236399Y-121278739D01*
X34745475Y-121380000D01*
X35264525Y-121380000D01*
X35773601Y-121278739D01*
X36253141Y-121080107D01*
X36684715Y-120791738D01*
X37051738Y-120424715D01*
X37340107Y-119993141D01*
X37538739Y-119513601D01*
X37640000Y-119004525D01*
X37640000Y-118485475D01*
X46975000Y-118485475D01*
X46975000Y-119004525D01*
X47076261Y-119513601D01*
X47274893Y-119993141D01*
X47563262Y-120424715D01*
X47930285Y-120791738D01*
X48361859Y-121080107D01*
X48841399Y-121278739D01*
X49350475Y-121380000D01*
X49869525Y-121380000D01*
X50378601Y-121278739D01*
X50858141Y-121080107D01*
X51289715Y-120791738D01*
X51656738Y-120424715D01*
X51945107Y-119993141D01*
X52143739Y-119513601D01*
X52245000Y-119004525D01*
X52245000Y-118485475D01*
X61580000Y-118485475D01*
X61580000Y-119004525D01*
X61681261Y-119513601D01*
X61879893Y-119993141D01*
X62168262Y-120424715D01*
X62535285Y-120791738D01*
X62966859Y-121080107D01*
X63446399Y-121278739D01*
X63955475Y-121380000D01*
X64474525Y-121380000D01*
X64983601Y-121278739D01*
X65463141Y-121080107D01*
X65894715Y-120791738D01*
X66261738Y-120424715D01*
X66550107Y-119993141D01*
X66748739Y-119513601D01*
X66850000Y-119004525D01*
X66850000Y-118485475D01*
X66748739Y-117976399D01*
X66712899Y-117889872D01*
X73965000Y-117889872D01*
X73965000Y-118330128D01*
X74050890Y-118761925D01*
X74219369Y-119168669D01*
X74463962Y-119534729D01*
X74775271Y-119846038D01*
X75141331Y-120090631D01*
X75548075Y-120259110D01*
X75979872Y-120345000D01*
X76420128Y-120345000D01*
X76851925Y-120259110D01*
X77258669Y-120090631D01*
X77624729Y-119846038D01*
X77936038Y-119534729D01*
X78180631Y-119168669D01*
X78349110Y-118761925D01*
X78435000Y-118330128D01*
X78435000Y-117889872D01*
X78349110Y-117458075D01*
X78180631Y-117051331D01*
X77936038Y-116685271D01*
X77624729Y-116373962D01*
X77258669Y-116129369D01*
X76851925Y-115960890D01*
X76420128Y-115875000D01*
X75979872Y-115875000D01*
X75548075Y-115960890D01*
X75141331Y-116129369D01*
X74775271Y-116373962D01*
X74463962Y-116685271D01*
X74219369Y-117051331D01*
X74050890Y-117458075D01*
X73965000Y-117889872D01*
X66712899Y-117889872D01*
X66550107Y-117496859D01*
X66261738Y-117065285D01*
X65894715Y-116698262D01*
X65463141Y-116409893D01*
X64983601Y-116211261D01*
X64474525Y-116110000D01*
X63955475Y-116110000D01*
X63446399Y-116211261D01*
X62966859Y-116409893D01*
X62535285Y-116698262D01*
X62168262Y-117065285D01*
X61879893Y-117496859D01*
X61681261Y-117976399D01*
X61580000Y-118485475D01*
X52245000Y-118485475D01*
X52143739Y-117976399D01*
X51945107Y-117496859D01*
X51656738Y-117065285D01*
X51289715Y-116698262D01*
X50858141Y-116409893D01*
X50378601Y-116211261D01*
X49869525Y-116110000D01*
X49350475Y-116110000D01*
X48841399Y-116211261D01*
X48361859Y-116409893D01*
X47930285Y-116698262D01*
X47563262Y-117065285D01*
X47274893Y-117496859D01*
X47076261Y-117976399D01*
X46975000Y-118485475D01*
X37640000Y-118485475D01*
X37538739Y-117976399D01*
X37340107Y-117496859D01*
X37051738Y-117065285D01*
X36684715Y-116698262D01*
X36253141Y-116409893D01*
X35773601Y-116211261D01*
X35264525Y-116110000D01*
X34745475Y-116110000D01*
X34236399Y-116211261D01*
X33756859Y-116409893D01*
X33325285Y-116698262D01*
X32958262Y-117065285D01*
X32669893Y-117496859D01*
X32471261Y-117976399D01*
X32370000Y-118485475D01*
X29182219Y-118485475D01*
X29235000Y-118220128D01*
X29235000Y-117779872D01*
X29149110Y-117348075D01*
X28980631Y-116941331D01*
X28736038Y-116575271D01*
X28424729Y-116263962D01*
X28058669Y-116019369D01*
X27651925Y-115850890D01*
X27220128Y-115765000D01*
X26779872Y-115765000D01*
X26348075Y-115850890D01*
X25941331Y-116019369D01*
X25575271Y-116263962D01*
X25263962Y-116575271D01*
X25019369Y-116941331D01*
X24850890Y-117348075D01*
X24765000Y-117779872D01*
X22537055Y-117779872D01*
X22586499Y-111500475D01*
X32370000Y-111500475D01*
X32370000Y-112019525D01*
X32471261Y-112528601D01*
X32669893Y-113008141D01*
X32958262Y-113439715D01*
X33325285Y-113806738D01*
X33756859Y-114095107D01*
X34236399Y-114293739D01*
X34745475Y-114395000D01*
X35264525Y-114395000D01*
X35773601Y-114293739D01*
X36253141Y-114095107D01*
X36684715Y-113806738D01*
X37051738Y-113439715D01*
X37340107Y-113008141D01*
X37538739Y-112528601D01*
X37640000Y-112019525D01*
X37640000Y-111500475D01*
X37538739Y-110991399D01*
X37340107Y-110511859D01*
X37069830Y-110107361D01*
X48185000Y-110107361D01*
X48185000Y-110872639D01*
X48334298Y-111623213D01*
X48627158Y-112330238D01*
X49052323Y-112966543D01*
X49593457Y-113507677D01*
X50229762Y-113932842D01*
X50936787Y-114225702D01*
X51687361Y-114375000D01*
X52452639Y-114375000D01*
X53203213Y-114225702D01*
X53910238Y-113932842D01*
X54546543Y-113507677D01*
X55087677Y-112966543D01*
X55512842Y-112330238D01*
X55805702Y-111623213D01*
X55955000Y-110872639D01*
X55955000Y-110107361D01*
X55805702Y-109356787D01*
X55512842Y-108649762D01*
X55087677Y-108013457D01*
X54546543Y-107472323D01*
X53910238Y-107047158D01*
X53203213Y-106754298D01*
X52452639Y-106605000D01*
X51687361Y-106605000D01*
X50936787Y-106754298D01*
X50229762Y-107047158D01*
X49593457Y-107472323D01*
X49052323Y-108013457D01*
X48627158Y-108649762D01*
X48334298Y-109356787D01*
X48185000Y-110107361D01*
X37069830Y-110107361D01*
X37051738Y-110080285D01*
X36684715Y-109713262D01*
X36253141Y-109424893D01*
X35773601Y-109226261D01*
X35264525Y-109125000D01*
X34745475Y-109125000D01*
X34236399Y-109226261D01*
X33756859Y-109424893D01*
X33325285Y-109713262D01*
X32958262Y-110080285D01*
X32669893Y-110511859D01*
X32471261Y-110991399D01*
X32370000Y-111500475D01*
X22586499Y-111500475D01*
X22749072Y-90853740D01*
X31615000Y-90853740D01*
X31615000Y-91146260D01*
X31672068Y-91433158D01*
X31784010Y-91703411D01*
X31946525Y-91946632D01*
X32153368Y-92153475D01*
X32396589Y-92315990D01*
X32666842Y-92427932D01*
X32953740Y-92485000D01*
X33246260Y-92485000D01*
X33533158Y-92427932D01*
X33803411Y-92315990D01*
X34046632Y-92153475D01*
X34215107Y-91985000D01*
X36984893Y-91985000D01*
X37115000Y-92115107D01*
X37115001Y-97995610D01*
X37110235Y-98044000D01*
X37129253Y-98237093D01*
X37185576Y-98422766D01*
X37228152Y-98502419D01*
X37277041Y-98593884D01*
X37400131Y-98743870D01*
X37437711Y-98774711D01*
X42576284Y-103913284D01*
X42607130Y-103950870D01*
X42757116Y-104073960D01*
X42928233Y-104165424D01*
X43113906Y-104221747D01*
X43306999Y-104240765D01*
X43355379Y-104236000D01*
X50092414Y-104236000D01*
X50117102Y-104246226D01*
X50317061Y-104286000D01*
X50520939Y-104286000D01*
X50720898Y-104246226D01*
X50909256Y-104168205D01*
X51078774Y-104054937D01*
X51222937Y-103910774D01*
X51336205Y-103741256D01*
X51414226Y-103552898D01*
X51454000Y-103352939D01*
X51454000Y-103149061D01*
X51414226Y-102949102D01*
X51336205Y-102760744D01*
X51222937Y-102591226D01*
X51089711Y-102458000D01*
X54791414Y-102458000D01*
X54816102Y-102468226D01*
X55016061Y-102508000D01*
X55219939Y-102508000D01*
X55419898Y-102468226D01*
X55608256Y-102390205D01*
X55777774Y-102276937D01*
X55921650Y-102133061D01*
X59290000Y-102133061D01*
X59290000Y-102336939D01*
X59329774Y-102536898D01*
X59407795Y-102725256D01*
X59521063Y-102894774D01*
X59665226Y-103038937D01*
X59834744Y-103152205D01*
X60023102Y-103230226D01*
X60223061Y-103270000D01*
X60426939Y-103270000D01*
X60626898Y-103230226D01*
X60815256Y-103152205D01*
X60984774Y-103038937D01*
X61128937Y-102894774D01*
X61242205Y-102725256D01*
X61302431Y-102579858D01*
X67062290Y-96820000D01*
X68261928Y-96820000D01*
X68261928Y-96835000D01*
X68274188Y-96959482D01*
X68310498Y-97079180D01*
X68369463Y-97189494D01*
X68448815Y-97286185D01*
X68545506Y-97365537D01*
X68655820Y-97424502D01*
X68775518Y-97460812D01*
X68900000Y-97473072D01*
X70800000Y-97473072D01*
X70924482Y-97460812D01*
X71044180Y-97424502D01*
X71154494Y-97365537D01*
X71251185Y-97286185D01*
X71330537Y-97189494D01*
X71361814Y-97130979D01*
X71599221Y-97289609D01*
X71887673Y-97409089D01*
X72193891Y-97470000D01*
X72506109Y-97470000D01*
X72812327Y-97409089D01*
X73100779Y-97289609D01*
X73360379Y-97116150D01*
X73581150Y-96895379D01*
X73600000Y-96867168D01*
X73618850Y-96895379D01*
X73839621Y-97116150D01*
X74099221Y-97289609D01*
X74387673Y-97409089D01*
X74693891Y-97470000D01*
X75006109Y-97470000D01*
X75312327Y-97409089D01*
X75600779Y-97289609D01*
X75860379Y-97116150D01*
X76081150Y-96895379D01*
X76254609Y-96635779D01*
X76374089Y-96347327D01*
X76435000Y-96041109D01*
X76435000Y-95728891D01*
X76374089Y-95422673D01*
X76254609Y-95134221D01*
X76081150Y-94874621D01*
X75860379Y-94653850D01*
X75600779Y-94480391D01*
X75312327Y-94360911D01*
X75006109Y-94300000D01*
X74693891Y-94300000D01*
X74387673Y-94360911D01*
X74099221Y-94480391D01*
X73839621Y-94653850D01*
X73618850Y-94874621D01*
X73600000Y-94902832D01*
X73581150Y-94874621D01*
X73360379Y-94653850D01*
X73100779Y-94480391D01*
X72812327Y-94360911D01*
X72506109Y-94300000D01*
X72193891Y-94300000D01*
X71887673Y-94360911D01*
X71599221Y-94480391D01*
X71361814Y-94639021D01*
X71330537Y-94580506D01*
X71251185Y-94483815D01*
X71154494Y-94404463D01*
X71044180Y-94345498D01*
X70924482Y-94309188D01*
X70800000Y-94296928D01*
X68900000Y-94296928D01*
X68775518Y-94309188D01*
X68655820Y-94345498D01*
X68545506Y-94404463D01*
X68448815Y-94483815D01*
X68369463Y-94580506D01*
X68310498Y-94690820D01*
X68274188Y-94810518D01*
X68261928Y-94935000D01*
X68261928Y-94950000D01*
X66720931Y-94950000D01*
X66674999Y-94945476D01*
X66491707Y-94963529D01*
X66438243Y-94979747D01*
X66315460Y-95016993D01*
X66153028Y-95103814D01*
X66010656Y-95220656D01*
X65981375Y-95256335D01*
X59980142Y-101257569D01*
X59834744Y-101317795D01*
X59665226Y-101431063D01*
X59521063Y-101575226D01*
X59407795Y-101744744D01*
X59329774Y-101933102D01*
X59290000Y-102133061D01*
X55921650Y-102133061D01*
X55921937Y-102132774D01*
X56035205Y-101963256D01*
X56113226Y-101774898D01*
X56153000Y-101574939D01*
X56153000Y-101371061D01*
X56113226Y-101171102D01*
X56035205Y-100982744D01*
X55921937Y-100813226D01*
X55777774Y-100669063D01*
X55608256Y-100555795D01*
X55419898Y-100477774D01*
X55219939Y-100438000D01*
X55016061Y-100438000D01*
X54816102Y-100477774D01*
X54791414Y-100488000D01*
X50491586Y-100488000D01*
X50466898Y-100477774D01*
X50266939Y-100438000D01*
X50063061Y-100438000D01*
X49863102Y-100477774D01*
X49838414Y-100488000D01*
X44096000Y-100488000D01*
X41440431Y-97832431D01*
X41430205Y-97807744D01*
X41316937Y-97638226D01*
X41172774Y-97494063D01*
X41003256Y-97380795D01*
X40978571Y-97370570D01*
X40678430Y-97070430D01*
X40668205Y-97045744D01*
X40554937Y-96876226D01*
X40410774Y-96732063D01*
X40241256Y-96618795D01*
X40052898Y-96540774D01*
X39852939Y-96501000D01*
X39649061Y-96501000D01*
X39449102Y-96540774D01*
X39260744Y-96618795D01*
X39091226Y-96732063D01*
X39085000Y-96738289D01*
X39085000Y-96155000D01*
X42176928Y-96155000D01*
X42176928Y-98155000D01*
X42189188Y-98279482D01*
X42225498Y-98399180D01*
X42284463Y-98509494D01*
X42363815Y-98606185D01*
X42460506Y-98685537D01*
X42570820Y-98744502D01*
X42690518Y-98780812D01*
X42815000Y-98793072D01*
X44815000Y-98793072D01*
X44939482Y-98780812D01*
X45059180Y-98744502D01*
X45169494Y-98685537D01*
X45266185Y-98606185D01*
X45345537Y-98509494D01*
X45404502Y-98399180D01*
X45440812Y-98279482D01*
X45441903Y-98268399D01*
X56830000Y-98268399D01*
X56830000Y-98581601D01*
X56891103Y-98888786D01*
X57010961Y-99178147D01*
X57184967Y-99438566D01*
X57406434Y-99660033D01*
X57666853Y-99834039D01*
X57956214Y-99953897D01*
X58263399Y-100015000D01*
X58576601Y-100015000D01*
X58883786Y-99953897D01*
X59173147Y-99834039D01*
X59433566Y-99660033D01*
X59655033Y-99438566D01*
X59829039Y-99178147D01*
X59948897Y-98888786D01*
X60010000Y-98581601D01*
X60010000Y-98268399D01*
X59948897Y-97961214D01*
X59829039Y-97671853D01*
X59655033Y-97411434D01*
X59433566Y-97189967D01*
X59173147Y-97015961D01*
X58883786Y-96896103D01*
X58576601Y-96835000D01*
X58263399Y-96835000D01*
X57956214Y-96896103D01*
X57666853Y-97015961D01*
X57406434Y-97189967D01*
X57184967Y-97411434D01*
X57010961Y-97671853D01*
X56891103Y-97961214D01*
X56830000Y-98268399D01*
X45441903Y-98268399D01*
X45453072Y-98155000D01*
X45453072Y-96155000D01*
X45440812Y-96030518D01*
X45404502Y-95910820D01*
X45345537Y-95800506D01*
X45266185Y-95703815D01*
X45169494Y-95624463D01*
X45059180Y-95565498D01*
X44939482Y-95529188D01*
X44815000Y-95516928D01*
X42815000Y-95516928D01*
X42690518Y-95529188D01*
X42570820Y-95565498D01*
X42460506Y-95624463D01*
X42363815Y-95703815D01*
X42284463Y-95800506D01*
X42225498Y-95910820D01*
X42189188Y-96030518D01*
X42176928Y-96155000D01*
X39085000Y-96155000D01*
X39085000Y-93239199D01*
X56830000Y-93239199D01*
X56830000Y-93552401D01*
X56891103Y-93859586D01*
X57010961Y-94148947D01*
X57184967Y-94409366D01*
X57406434Y-94630833D01*
X57666853Y-94804839D01*
X57956214Y-94924697D01*
X58263399Y-94985800D01*
X58576601Y-94985800D01*
X58883786Y-94924697D01*
X59173147Y-94804839D01*
X59433566Y-94630833D01*
X59655033Y-94409366D01*
X59829039Y-94148947D01*
X59948897Y-93859586D01*
X60010000Y-93552401D01*
X60010000Y-93239199D01*
X59948897Y-92932014D01*
X59829039Y-92642653D01*
X59655033Y-92382234D01*
X59433566Y-92160767D01*
X59173147Y-91986761D01*
X58883786Y-91866903D01*
X58576601Y-91805800D01*
X58263399Y-91805800D01*
X57956214Y-91866903D01*
X57666853Y-91986761D01*
X57406434Y-92160767D01*
X57184967Y-92382234D01*
X57010961Y-92642653D01*
X56891103Y-92932014D01*
X56830000Y-93239199D01*
X39085000Y-93239199D01*
X39085000Y-92115107D01*
X39253475Y-91946632D01*
X39415990Y-91703411D01*
X39527932Y-91433158D01*
X39585000Y-91146260D01*
X39585000Y-90853740D01*
X39527932Y-90566842D01*
X39415990Y-90296589D01*
X39253475Y-90053368D01*
X39046632Y-89846525D01*
X38803411Y-89684010D01*
X38533158Y-89572068D01*
X38246260Y-89515000D01*
X37953740Y-89515000D01*
X37666842Y-89572068D01*
X37396589Y-89684010D01*
X37153368Y-89846525D01*
X36984893Y-90015000D01*
X34215107Y-90015000D01*
X34046632Y-89846525D01*
X33803411Y-89684010D01*
X33533158Y-89572068D01*
X33246260Y-89515000D01*
X32953740Y-89515000D01*
X32666842Y-89572068D01*
X32396589Y-89684010D01*
X32153368Y-89846525D01*
X31946525Y-90053368D01*
X31784010Y-90296589D01*
X31672068Y-90566842D01*
X31615000Y-90853740D01*
X22749072Y-90853740D01*
X22807329Y-83455000D01*
X42176928Y-83455000D01*
X42176928Y-85455000D01*
X42189188Y-85579482D01*
X42225498Y-85699180D01*
X42284463Y-85809494D01*
X42363815Y-85906185D01*
X42460506Y-85985537D01*
X42570820Y-86044502D01*
X42690518Y-86080812D01*
X42815000Y-86093072D01*
X44815000Y-86093072D01*
X44939482Y-86080812D01*
X45059180Y-86044502D01*
X45169494Y-85985537D01*
X45266185Y-85906185D01*
X45345537Y-85809494D01*
X45404502Y-85699180D01*
X45440812Y-85579482D01*
X45453072Y-85455000D01*
X45453072Y-83455000D01*
X45440812Y-83330518D01*
X45404502Y-83210820D01*
X45345537Y-83100506D01*
X45266185Y-83003815D01*
X45169494Y-82924463D01*
X45059180Y-82865498D01*
X44939482Y-82829188D01*
X44815000Y-82816928D01*
X42815000Y-82816928D01*
X42690518Y-82829188D01*
X42570820Y-82865498D01*
X42460506Y-82924463D01*
X42363815Y-83003815D01*
X42284463Y-83100506D01*
X42225498Y-83210820D01*
X42189188Y-83330518D01*
X42176928Y-83455000D01*
X22807329Y-83455000D01*
X22922417Y-68838967D01*
X31465000Y-68838967D01*
X31465000Y-69161033D01*
X31527832Y-69476912D01*
X31651082Y-69774463D01*
X31830013Y-70042252D01*
X32057748Y-70269987D01*
X32325537Y-70448918D01*
X32623088Y-70572168D01*
X32938967Y-70635000D01*
X33261033Y-70635000D01*
X33576912Y-70572168D01*
X33874463Y-70448918D01*
X34142252Y-70269987D01*
X34369987Y-70042252D01*
X34548918Y-69774463D01*
X34672168Y-69476912D01*
X34735000Y-69161033D01*
X34735000Y-68838967D01*
X36465000Y-68838967D01*
X36465000Y-69161033D01*
X36527832Y-69476912D01*
X36651082Y-69774463D01*
X36830013Y-70042252D01*
X37057748Y-70269987D01*
X37325537Y-70448918D01*
X37623088Y-70572168D01*
X37938967Y-70635000D01*
X38261033Y-70635000D01*
X38576912Y-70572168D01*
X38874463Y-70448918D01*
X39044943Y-70335007D01*
X38963577Y-70487233D01*
X38963576Y-70487234D01*
X38907253Y-70672907D01*
X38888235Y-70866000D01*
X38893000Y-70914380D01*
X38893000Y-71809413D01*
X38882774Y-71834102D01*
X38843000Y-72034061D01*
X38843000Y-72237939D01*
X38882774Y-72437898D01*
X38893000Y-72462586D01*
X38893000Y-73587414D01*
X38882774Y-73612102D01*
X38843000Y-73812061D01*
X38843000Y-74015939D01*
X38882774Y-74215898D01*
X38893000Y-74240586D01*
X38893001Y-75643611D01*
X38888235Y-75692000D01*
X38907253Y-75885093D01*
X38963576Y-76070766D01*
X38963577Y-76070767D01*
X39055041Y-76241884D01*
X39178131Y-76391870D01*
X39205823Y-76414596D01*
X39214795Y-76436256D01*
X39328063Y-76605774D01*
X39472226Y-76749937D01*
X39641744Y-76863205D01*
X39830102Y-76941226D01*
X40030061Y-76981000D01*
X40233939Y-76981000D01*
X40433898Y-76941226D01*
X40622256Y-76863205D01*
X40791774Y-76749937D01*
X40935937Y-76605774D01*
X41049205Y-76436256D01*
X41127226Y-76247898D01*
X41167000Y-76047939D01*
X41167000Y-75844061D01*
X41127226Y-75644102D01*
X41049205Y-75455744D01*
X40935937Y-75286226D01*
X40863000Y-75213289D01*
X40863000Y-74240586D01*
X40873226Y-74215898D01*
X40913000Y-74015939D01*
X40913000Y-73812061D01*
X40873226Y-73612102D01*
X40863000Y-73587414D01*
X40863000Y-72462586D01*
X40873226Y-72437898D01*
X40913000Y-72237939D01*
X40913000Y-72034061D01*
X40873226Y-71834102D01*
X40863000Y-71809414D01*
X40863000Y-71274000D01*
X41382000Y-70755000D01*
X42176928Y-70755000D01*
X42176928Y-72755000D01*
X42189188Y-72879482D01*
X42225498Y-72999180D01*
X42284463Y-73109494D01*
X42363815Y-73206185D01*
X42460506Y-73285537D01*
X42570820Y-73344502D01*
X42690518Y-73380812D01*
X42815000Y-73393072D01*
X44815000Y-73393072D01*
X44939482Y-73380812D01*
X45059180Y-73344502D01*
X45169494Y-73285537D01*
X45266185Y-73206185D01*
X45345537Y-73109494D01*
X45404502Y-72999180D01*
X45440812Y-72879482D01*
X45453072Y-72755000D01*
X45453072Y-70755000D01*
X45440812Y-70630518D01*
X45404502Y-70510820D01*
X45345537Y-70400506D01*
X45266185Y-70303815D01*
X45169494Y-70224463D01*
X45059180Y-70165498D01*
X44939482Y-70129188D01*
X44815000Y-70116928D01*
X42815000Y-70116928D01*
X42690518Y-70129188D01*
X42570820Y-70165498D01*
X42460506Y-70224463D01*
X42363815Y-70303815D01*
X42284463Y-70400506D01*
X42225498Y-70510820D01*
X42189188Y-70630518D01*
X42176928Y-70755000D01*
X41382000Y-70755000D01*
X45169571Y-66967430D01*
X45194256Y-66957205D01*
X45363774Y-66843937D01*
X45507937Y-66699774D01*
X45621205Y-66530256D01*
X45699226Y-66341898D01*
X45739000Y-66141939D01*
X45739000Y-65938061D01*
X45699226Y-65738102D01*
X45621205Y-65549744D01*
X45507937Y-65380226D01*
X45363774Y-65236063D01*
X45194256Y-65122795D01*
X45005898Y-65044774D01*
X44805939Y-65005000D01*
X44602061Y-65005000D01*
X44402102Y-65044774D01*
X44213744Y-65122795D01*
X44044226Y-65236063D01*
X43900063Y-65380226D01*
X43786795Y-65549744D01*
X43776570Y-65574429D01*
X39493302Y-69857697D01*
X39548918Y-69774463D01*
X39672168Y-69476912D01*
X39735000Y-69161033D01*
X39735000Y-68838967D01*
X39672168Y-68523088D01*
X39548918Y-68225537D01*
X39369987Y-67957748D01*
X39142252Y-67730013D01*
X38874463Y-67551082D01*
X38576912Y-67427832D01*
X38261033Y-67365000D01*
X37938967Y-67365000D01*
X37623088Y-67427832D01*
X37325537Y-67551082D01*
X37057748Y-67730013D01*
X36830013Y-67957748D01*
X36651082Y-68225537D01*
X36527832Y-68523088D01*
X36465000Y-68838967D01*
X34735000Y-68838967D01*
X34672168Y-68523088D01*
X34548918Y-68225537D01*
X34369987Y-67957748D01*
X34142252Y-67730013D01*
X33874463Y-67551082D01*
X33576912Y-67427832D01*
X33261033Y-67365000D01*
X32938967Y-67365000D01*
X32623088Y-67427832D01*
X32325537Y-67551082D01*
X32057748Y-67730013D01*
X31830013Y-67957748D01*
X31651082Y-68225537D01*
X31527832Y-68523088D01*
X31465000Y-68838967D01*
X22922417Y-68838967D01*
X23007329Y-58055000D01*
X42176928Y-58055000D01*
X42176928Y-60055000D01*
X42189188Y-60179482D01*
X42225498Y-60299180D01*
X42284463Y-60409494D01*
X42363815Y-60506185D01*
X42460506Y-60585537D01*
X42570820Y-60644502D01*
X42690518Y-60680812D01*
X42815000Y-60693072D01*
X44815000Y-60693072D01*
X44939482Y-60680812D01*
X45059180Y-60644502D01*
X45169494Y-60585537D01*
X45266185Y-60506185D01*
X45345537Y-60409494D01*
X45404502Y-60299180D01*
X45440812Y-60179482D01*
X45453072Y-60055000D01*
X45453072Y-58055000D01*
X45440812Y-57930518D01*
X45404502Y-57810820D01*
X45345537Y-57700506D01*
X45266185Y-57603815D01*
X45169494Y-57524463D01*
X45059180Y-57465498D01*
X44939482Y-57429188D01*
X44815000Y-57416928D01*
X42815000Y-57416928D01*
X42690518Y-57429188D01*
X42570820Y-57465498D01*
X42460506Y-57524463D01*
X42363815Y-57603815D01*
X42284463Y-57700506D01*
X42225498Y-57810820D01*
X42189188Y-57930518D01*
X42176928Y-58055000D01*
X23007329Y-58055000D01*
X23111499Y-44825475D01*
X32925000Y-44825475D01*
X32925000Y-45344525D01*
X33026261Y-45853601D01*
X33224893Y-46333141D01*
X33513262Y-46764715D01*
X33880285Y-47131738D01*
X34311859Y-47420107D01*
X34791399Y-47618739D01*
X35300475Y-47720000D01*
X35819525Y-47720000D01*
X36328601Y-47618739D01*
X36808141Y-47420107D01*
X37239715Y-47131738D01*
X37606738Y-46764715D01*
X37895107Y-46333141D01*
X38093739Y-45853601D01*
X38195000Y-45344525D01*
X38195000Y-45337361D01*
X46280000Y-45337361D01*
X46280000Y-46102639D01*
X46429298Y-46853213D01*
X46722158Y-47560238D01*
X47147323Y-48196543D01*
X47688457Y-48737677D01*
X48324762Y-49162842D01*
X49031787Y-49455702D01*
X49782361Y-49605000D01*
X50547639Y-49605000D01*
X51298213Y-49455702D01*
X52005238Y-49162842D01*
X52641543Y-48737677D01*
X53182677Y-48196543D01*
X53607842Y-47560238D01*
X53900702Y-46853213D01*
X54050000Y-46102639D01*
X54050000Y-45337361D01*
X53900702Y-44586787D01*
X53607842Y-43879762D01*
X53182677Y-43243457D01*
X52641543Y-42702323D01*
X52005238Y-42277158D01*
X51298213Y-41984298D01*
X50547639Y-41835000D01*
X49782361Y-41835000D01*
X49031787Y-41984298D01*
X48324762Y-42277158D01*
X47688457Y-42702323D01*
X47147323Y-43243457D01*
X46722158Y-43879762D01*
X46429298Y-44586787D01*
X46280000Y-45337361D01*
X38195000Y-45337361D01*
X38195000Y-44825475D01*
X38093739Y-44316399D01*
X37895107Y-43836859D01*
X37606738Y-43405285D01*
X37239715Y-43038262D01*
X36808141Y-42749893D01*
X36328601Y-42551261D01*
X35819525Y-42450000D01*
X35300475Y-42450000D01*
X34791399Y-42551261D01*
X34311859Y-42749893D01*
X33880285Y-43038262D01*
X33513262Y-43405285D01*
X33224893Y-43836859D01*
X33026261Y-44316399D01*
X32925000Y-44825475D01*
X23111499Y-44825475D01*
X23163499Y-38221612D01*
X23163502Y-38221112D01*
X23163595Y-38197491D01*
X23163596Y-38196991D01*
X23163596Y-37779872D01*
X24765000Y-37779872D01*
X24765000Y-38220128D01*
X24850890Y-38651925D01*
X25019369Y-39058669D01*
X25263962Y-39424729D01*
X25575271Y-39736038D01*
X25941331Y-39980631D01*
X26348075Y-40149110D01*
X26779872Y-40235000D01*
X27220128Y-40235000D01*
X27651925Y-40149110D01*
X28058669Y-39980631D01*
X28424729Y-39736038D01*
X28736038Y-39424729D01*
X28980631Y-39058669D01*
X29149110Y-38651925D01*
X29235000Y-38220128D01*
X29235000Y-37840475D01*
X32925000Y-37840475D01*
X32925000Y-38359525D01*
X33026261Y-38868601D01*
X33224893Y-39348141D01*
X33513262Y-39779715D01*
X33880285Y-40146738D01*
X34311859Y-40435107D01*
X34791399Y-40633739D01*
X35300475Y-40735000D01*
X35819525Y-40735000D01*
X36328601Y-40633739D01*
X36808141Y-40435107D01*
X37239715Y-40146738D01*
X37606738Y-39779715D01*
X37895107Y-39348141D01*
X38093739Y-38868601D01*
X38195000Y-38359525D01*
X38195000Y-37840475D01*
X48165000Y-37840475D01*
X48165000Y-38359525D01*
X48266261Y-38868601D01*
X48464893Y-39348141D01*
X48753262Y-39779715D01*
X49120285Y-40146738D01*
X49551859Y-40435107D01*
X50031399Y-40633739D01*
X50540475Y-40735000D01*
X51059525Y-40735000D01*
X51568601Y-40633739D01*
X52048141Y-40435107D01*
X52479715Y-40146738D01*
X52846738Y-39779715D01*
X53135107Y-39348141D01*
X53333739Y-38868601D01*
X53435000Y-38359525D01*
X53435000Y-37840475D01*
X53333739Y-37331399D01*
X53135107Y-36851859D01*
X52846738Y-36420285D01*
X52479715Y-36053262D01*
X52048141Y-35764893D01*
X51568601Y-35566261D01*
X51059525Y-35465000D01*
X50540475Y-35465000D01*
X50031399Y-35566261D01*
X49551859Y-35764893D01*
X49120285Y-36053262D01*
X48753262Y-36420285D01*
X48464893Y-36851859D01*
X48266261Y-37331399D01*
X48165000Y-37840475D01*
X38195000Y-37840475D01*
X38093739Y-37331399D01*
X37895107Y-36851859D01*
X37606738Y-36420285D01*
X37239715Y-36053262D01*
X36808141Y-35764893D01*
X36328601Y-35566261D01*
X35819525Y-35465000D01*
X35300475Y-35465000D01*
X34791399Y-35566261D01*
X34311859Y-35764893D01*
X33880285Y-36053262D01*
X33513262Y-36420285D01*
X33224893Y-36851859D01*
X33026261Y-37331399D01*
X32925000Y-37840475D01*
X29235000Y-37840475D01*
X29235000Y-37779872D01*
X29149110Y-37348075D01*
X28980631Y-36941331D01*
X28736038Y-36575271D01*
X28424729Y-36263962D01*
X28058669Y-36019369D01*
X27651925Y-35850890D01*
X27220128Y-35765000D01*
X26779872Y-35765000D01*
X26348075Y-35850890D01*
X25941331Y-36019369D01*
X25575271Y-36263962D01*
X25263962Y-36575271D01*
X25019369Y-36941331D01*
X24850890Y-37348075D01*
X24765000Y-37779872D01*
X23163596Y-37779872D01*
X23163596Y-36626285D01*
X23181964Y-36392895D01*
X23235451Y-36170106D01*
X23323132Y-35958426D01*
X23442844Y-35763074D01*
X23591645Y-35588851D01*
X23765868Y-35440050D01*
X23961220Y-35320338D01*
X24172900Y-35232657D01*
X24395689Y-35179170D01*
X24629079Y-35160802D01*
X54323036Y-35160802D01*
X54648242Y-35179065D01*
X54648242Y-35179065D01*
G37*
X54648242Y-35179065D02*
X54965862Y-35233030D01*
X55275414Y-35322211D01*
X55573064Y-35445502D01*
X55855017Y-35601331D01*
X56117752Y-35787753D01*
X56357972Y-36002426D01*
X56572645Y-36242646D01*
X56759067Y-36505381D01*
X56914896Y-36787334D01*
X57038187Y-37084984D01*
X57127368Y-37394536D01*
X57181333Y-37712156D01*
X57199596Y-38037362D01*
X57199596Y-48730475D01*
X57199815Y-48737938D01*
X57220536Y-49089927D01*
X57222288Y-49104751D01*
X57284164Y-49451878D01*
X57287642Y-49466394D01*
X57389820Y-49803863D01*
X57394978Y-49817870D01*
X57536045Y-50141019D01*
X57542810Y-50154324D01*
X57720817Y-50458691D01*
X57724775Y-50465023D01*
X60501495Y-54630102D01*
X60680573Y-54938112D01*
X60819057Y-55262128D01*
X60916827Y-55600654D01*
X60972421Y-55948621D01*
X60985134Y-56304665D01*
X60908208Y-59299991D01*
X60878881Y-59643757D01*
X60809760Y-59977939D01*
X60701506Y-60301552D01*
X60555641Y-60610050D01*
X60374226Y-60899073D01*
X60159815Y-61164551D01*
X59915445Y-61402726D01*
X59644552Y-61610249D01*
X59350967Y-61784183D01*
X59038825Y-61922080D01*
X58712531Y-62021993D01*
X58376701Y-62082508D01*
X58032279Y-62103000D01*
X55279083Y-62103000D01*
X55271913Y-62103203D01*
X54933726Y-62122326D01*
X54919478Y-62123942D01*
X54585603Y-62181066D01*
X54571628Y-62184278D01*
X54246320Y-62278675D01*
X54232796Y-62283443D01*
X53920203Y-62413911D01*
X53907303Y-62420172D01*
X53611410Y-62585046D01*
X53599298Y-62592722D01*
X53323878Y-62789900D01*
X53312709Y-62798892D01*
X53061271Y-63025862D01*
X53051186Y-63036056D01*
X52826938Y-63289923D01*
X52818066Y-63301189D01*
X52623865Y-63578718D01*
X52616321Y-63590912D01*
X52454643Y-63888563D01*
X52448521Y-63901530D01*
X52321428Y-64215510D01*
X52316806Y-64229084D01*
X52225918Y-64555389D01*
X52222857Y-64569398D01*
X52169332Y-64903870D01*
X52167869Y-64918134D01*
X52152390Y-65256507D01*
X52152264Y-65263679D01*
X52404796Y-88709492D01*
X52405073Y-88716610D01*
X52427550Y-89052252D01*
X52429296Y-89066385D01*
X52489208Y-89397401D01*
X52492526Y-89411249D01*
X52589120Y-89733477D01*
X52593968Y-89746868D01*
X52726030Y-90056256D01*
X52732346Y-90069019D01*
X52898216Y-90361676D01*
X52905921Y-90373652D01*
X53103512Y-90645900D01*
X53112510Y-90656938D01*
X53339338Y-90905353D01*
X53349515Y-90915315D01*
X53602729Y-91136774D01*
X53613957Y-91145533D01*
X53890372Y-91337251D01*
X53902510Y-91344698D01*
X54198651Y-91504264D01*
X54211547Y-91510306D01*
X54523691Y-91635715D01*
X54537182Y-91640274D01*
X54861404Y-91729949D01*
X54875321Y-91732970D01*
X55207544Y-91785782D01*
X55221711Y-91787226D01*
X55557758Y-91802512D01*
X55564880Y-91802636D01*
X79405285Y-91549015D01*
X79730799Y-91563831D01*
X80049082Y-91614452D01*
X80359685Y-91700403D01*
X80658711Y-91820604D01*
X80942389Y-91973540D01*
X81207146Y-92157282D01*
X81449672Y-92369537D01*
X81666890Y-92607612D01*
X81856072Y-92868512D01*
X82014847Y-93148973D01*
X82141207Y-93445446D01*
X82233565Y-93754206D01*
X82290760Y-94071371D01*
X82312305Y-94396497D01*
X82569276Y-119965116D01*
X82554183Y-120291446D01*
X82503102Y-120610504D01*
X82416519Y-120921796D01*
X82295523Y-121221406D01*
X82141645Y-121505538D01*
X81956842Y-121770580D01*
X81743441Y-122013196D01*
X81504146Y-122230313D01*
X81241974Y-122419192D01*
X80960265Y-122577426D01*
X80662558Y-122703030D01*
X80352627Y-122794407D01*
X80034409Y-122850401D01*
X79708324Y-122870527D01*
X25405002Y-123162481D01*
X24684844Y-123093771D01*
X24096528Y-122921179D01*
X23950450Y-122844878D01*
X23706655Y-122670675D01*
X23489365Y-122464365D01*
X23302762Y-122229916D01*
X23148209Y-121968048D01*
X22833552Y-121338734D01*
X22700756Y-121029561D01*
X22605659Y-120710627D01*
X22548087Y-120382847D01*
X22528596Y-120046913D01*
X22528596Y-118865859D01*
X22528687Y-118842730D01*
X22537055Y-117779872D01*
X24765000Y-117779872D01*
X24765000Y-118220128D01*
X24850890Y-118651925D01*
X25019369Y-119058669D01*
X25263962Y-119424729D01*
X25575271Y-119736038D01*
X25941331Y-119980631D01*
X26348075Y-120149110D01*
X26779872Y-120235000D01*
X27220128Y-120235000D01*
X27651925Y-120149110D01*
X28058669Y-119980631D01*
X28424729Y-119736038D01*
X28736038Y-119424729D01*
X28980631Y-119058669D01*
X29149110Y-118651925D01*
X29182219Y-118485475D01*
X32370000Y-118485475D01*
X32370000Y-119004525D01*
X32471261Y-119513601D01*
X32669893Y-119993141D01*
X32958262Y-120424715D01*
X33325285Y-120791738D01*
X33756859Y-121080107D01*
X34236399Y-121278739D01*
X34745475Y-121380000D01*
X35264525Y-121380000D01*
X35773601Y-121278739D01*
X36253141Y-121080107D01*
X36684715Y-120791738D01*
X37051738Y-120424715D01*
X37340107Y-119993141D01*
X37538739Y-119513601D01*
X37640000Y-119004525D01*
X37640000Y-118485475D01*
X46975000Y-118485475D01*
X46975000Y-119004525D01*
X47076261Y-119513601D01*
X47274893Y-119993141D01*
X47563262Y-120424715D01*
X47930285Y-120791738D01*
X48361859Y-121080107D01*
X48841399Y-121278739D01*
X49350475Y-121380000D01*
X49869525Y-121380000D01*
X50378601Y-121278739D01*
X50858141Y-121080107D01*
X51289715Y-120791738D01*
X51656738Y-120424715D01*
X51945107Y-119993141D01*
X52143739Y-119513601D01*
X52245000Y-119004525D01*
X52245000Y-118485475D01*
X61580000Y-118485475D01*
X61580000Y-119004525D01*
X61681261Y-119513601D01*
X61879893Y-119993141D01*
X62168262Y-120424715D01*
X62535285Y-120791738D01*
X62966859Y-121080107D01*
X63446399Y-121278739D01*
X63955475Y-121380000D01*
X64474525Y-121380000D01*
X64983601Y-121278739D01*
X65463141Y-121080107D01*
X65894715Y-120791738D01*
X66261738Y-120424715D01*
X66550107Y-119993141D01*
X66748739Y-119513601D01*
X66850000Y-119004525D01*
X66850000Y-118485475D01*
X66748739Y-117976399D01*
X66712899Y-117889872D01*
X73965000Y-117889872D01*
X73965000Y-118330128D01*
X74050890Y-118761925D01*
X74219369Y-119168669D01*
X74463962Y-119534729D01*
X74775271Y-119846038D01*
X75141331Y-120090631D01*
X75548075Y-120259110D01*
X75979872Y-120345000D01*
X76420128Y-120345000D01*
X76851925Y-120259110D01*
X77258669Y-120090631D01*
X77624729Y-119846038D01*
X77936038Y-119534729D01*
X78180631Y-119168669D01*
X78349110Y-118761925D01*
X78435000Y-118330128D01*
X78435000Y-117889872D01*
X78349110Y-117458075D01*
X78180631Y-117051331D01*
X77936038Y-116685271D01*
X77624729Y-116373962D01*
X77258669Y-116129369D01*
X76851925Y-115960890D01*
X76420128Y-115875000D01*
X75979872Y-115875000D01*
X75548075Y-115960890D01*
X75141331Y-116129369D01*
X74775271Y-116373962D01*
X74463962Y-116685271D01*
X74219369Y-117051331D01*
X74050890Y-117458075D01*
X73965000Y-117889872D01*
X66712899Y-117889872D01*
X66550107Y-117496859D01*
X66261738Y-117065285D01*
X65894715Y-116698262D01*
X65463141Y-116409893D01*
X64983601Y-116211261D01*
X64474525Y-116110000D01*
X63955475Y-116110000D01*
X63446399Y-116211261D01*
X62966859Y-116409893D01*
X62535285Y-116698262D01*
X62168262Y-117065285D01*
X61879893Y-117496859D01*
X61681261Y-117976399D01*
X61580000Y-118485475D01*
X52245000Y-118485475D01*
X52143739Y-117976399D01*
X51945107Y-117496859D01*
X51656738Y-117065285D01*
X51289715Y-116698262D01*
X50858141Y-116409893D01*
X50378601Y-116211261D01*
X49869525Y-116110000D01*
X49350475Y-116110000D01*
X48841399Y-116211261D01*
X48361859Y-116409893D01*
X47930285Y-116698262D01*
X47563262Y-117065285D01*
X47274893Y-117496859D01*
X47076261Y-117976399D01*
X46975000Y-118485475D01*
X37640000Y-118485475D01*
X37538739Y-117976399D01*
X37340107Y-117496859D01*
X37051738Y-117065285D01*
X36684715Y-116698262D01*
X36253141Y-116409893D01*
X35773601Y-116211261D01*
X35264525Y-116110000D01*
X34745475Y-116110000D01*
X34236399Y-116211261D01*
X33756859Y-116409893D01*
X33325285Y-116698262D01*
X32958262Y-117065285D01*
X32669893Y-117496859D01*
X32471261Y-117976399D01*
X32370000Y-118485475D01*
X29182219Y-118485475D01*
X29235000Y-118220128D01*
X29235000Y-117779872D01*
X29149110Y-117348075D01*
X28980631Y-116941331D01*
X28736038Y-116575271D01*
X28424729Y-116263962D01*
X28058669Y-116019369D01*
X27651925Y-115850890D01*
X27220128Y-115765000D01*
X26779872Y-115765000D01*
X26348075Y-115850890D01*
X25941331Y-116019369D01*
X25575271Y-116263962D01*
X25263962Y-116575271D01*
X25019369Y-116941331D01*
X24850890Y-117348075D01*
X24765000Y-117779872D01*
X22537055Y-117779872D01*
X22586499Y-111500475D01*
X32370000Y-111500475D01*
X32370000Y-112019525D01*
X32471261Y-112528601D01*
X32669893Y-113008141D01*
X32958262Y-113439715D01*
X33325285Y-113806738D01*
X33756859Y-114095107D01*
X34236399Y-114293739D01*
X34745475Y-114395000D01*
X35264525Y-114395000D01*
X35773601Y-114293739D01*
X36253141Y-114095107D01*
X36684715Y-113806738D01*
X37051738Y-113439715D01*
X37340107Y-113008141D01*
X37538739Y-112528601D01*
X37640000Y-112019525D01*
X37640000Y-111500475D01*
X37538739Y-110991399D01*
X37340107Y-110511859D01*
X37069830Y-110107361D01*
X48185000Y-110107361D01*
X48185000Y-110872639D01*
X48334298Y-111623213D01*
X48627158Y-112330238D01*
X49052323Y-112966543D01*
X49593457Y-113507677D01*
X50229762Y-113932842D01*
X50936787Y-114225702D01*
X51687361Y-114375000D01*
X52452639Y-114375000D01*
X53203213Y-114225702D01*
X53910238Y-113932842D01*
X54546543Y-113507677D01*
X55087677Y-112966543D01*
X55512842Y-112330238D01*
X55805702Y-111623213D01*
X55955000Y-110872639D01*
X55955000Y-110107361D01*
X55805702Y-109356787D01*
X55512842Y-108649762D01*
X55087677Y-108013457D01*
X54546543Y-107472323D01*
X53910238Y-107047158D01*
X53203213Y-106754298D01*
X52452639Y-106605000D01*
X51687361Y-106605000D01*
X50936787Y-106754298D01*
X50229762Y-107047158D01*
X49593457Y-107472323D01*
X49052323Y-108013457D01*
X48627158Y-108649762D01*
X48334298Y-109356787D01*
X48185000Y-110107361D01*
X37069830Y-110107361D01*
X37051738Y-110080285D01*
X36684715Y-109713262D01*
X36253141Y-109424893D01*
X35773601Y-109226261D01*
X35264525Y-109125000D01*
X34745475Y-109125000D01*
X34236399Y-109226261D01*
X33756859Y-109424893D01*
X33325285Y-109713262D01*
X32958262Y-110080285D01*
X32669893Y-110511859D01*
X32471261Y-110991399D01*
X32370000Y-111500475D01*
X22586499Y-111500475D01*
X22749072Y-90853740D01*
X31615000Y-90853740D01*
X31615000Y-91146260D01*
X31672068Y-91433158D01*
X31784010Y-91703411D01*
X31946525Y-91946632D01*
X32153368Y-92153475D01*
X32396589Y-92315990D01*
X32666842Y-92427932D01*
X32953740Y-92485000D01*
X33246260Y-92485000D01*
X33533158Y-92427932D01*
X33803411Y-92315990D01*
X34046632Y-92153475D01*
X34215107Y-91985000D01*
X36984893Y-91985000D01*
X37115000Y-92115107D01*
X37115001Y-97995610D01*
X37110235Y-98044000D01*
X37129253Y-98237093D01*
X37185576Y-98422766D01*
X37228152Y-98502419D01*
X37277041Y-98593884D01*
X37400131Y-98743870D01*
X37437711Y-98774711D01*
X42576284Y-103913284D01*
X42607130Y-103950870D01*
X42757116Y-104073960D01*
X42928233Y-104165424D01*
X43113906Y-104221747D01*
X43306999Y-104240765D01*
X43355379Y-104236000D01*
X50092414Y-104236000D01*
X50117102Y-104246226D01*
X50317061Y-104286000D01*
X50520939Y-104286000D01*
X50720898Y-104246226D01*
X50909256Y-104168205D01*
X51078774Y-104054937D01*
X51222937Y-103910774D01*
X51336205Y-103741256D01*
X51414226Y-103552898D01*
X51454000Y-103352939D01*
X51454000Y-103149061D01*
X51414226Y-102949102D01*
X51336205Y-102760744D01*
X51222937Y-102591226D01*
X51089711Y-102458000D01*
X54791414Y-102458000D01*
X54816102Y-102468226D01*
X55016061Y-102508000D01*
X55219939Y-102508000D01*
X55419898Y-102468226D01*
X55608256Y-102390205D01*
X55777774Y-102276937D01*
X55921650Y-102133061D01*
X59290000Y-102133061D01*
X59290000Y-102336939D01*
X59329774Y-102536898D01*
X59407795Y-102725256D01*
X59521063Y-102894774D01*
X59665226Y-103038937D01*
X59834744Y-103152205D01*
X60023102Y-103230226D01*
X60223061Y-103270000D01*
X60426939Y-103270000D01*
X60626898Y-103230226D01*
X60815256Y-103152205D01*
X60984774Y-103038937D01*
X61128937Y-102894774D01*
X61242205Y-102725256D01*
X61302431Y-102579858D01*
X67062290Y-96820000D01*
X68261928Y-96820000D01*
X68261928Y-96835000D01*
X68274188Y-96959482D01*
X68310498Y-97079180D01*
X68369463Y-97189494D01*
X68448815Y-97286185D01*
X68545506Y-97365537D01*
X68655820Y-97424502D01*
X68775518Y-97460812D01*
X68900000Y-97473072D01*
X70800000Y-97473072D01*
X70924482Y-97460812D01*
X71044180Y-97424502D01*
X71154494Y-97365537D01*
X71251185Y-97286185D01*
X71330537Y-97189494D01*
X71361814Y-97130979D01*
X71599221Y-97289609D01*
X71887673Y-97409089D01*
X72193891Y-97470000D01*
X72506109Y-97470000D01*
X72812327Y-97409089D01*
X73100779Y-97289609D01*
X73360379Y-97116150D01*
X73581150Y-96895379D01*
X73600000Y-96867168D01*
X73618850Y-96895379D01*
X73839621Y-97116150D01*
X74099221Y-97289609D01*
X74387673Y-97409089D01*
X74693891Y-97470000D01*
X75006109Y-97470000D01*
X75312327Y-97409089D01*
X75600779Y-97289609D01*
X75860379Y-97116150D01*
X76081150Y-96895379D01*
X76254609Y-96635779D01*
X76374089Y-96347327D01*
X76435000Y-96041109D01*
X76435000Y-95728891D01*
X76374089Y-95422673D01*
X76254609Y-95134221D01*
X76081150Y-94874621D01*
X75860379Y-94653850D01*
X75600779Y-94480391D01*
X75312327Y-94360911D01*
X75006109Y-94300000D01*
X74693891Y-94300000D01*
X74387673Y-94360911D01*
X74099221Y-94480391D01*
X73839621Y-94653850D01*
X73618850Y-94874621D01*
X73600000Y-94902832D01*
X73581150Y-94874621D01*
X73360379Y-94653850D01*
X73100779Y-94480391D01*
X72812327Y-94360911D01*
X72506109Y-94300000D01*
X72193891Y-94300000D01*
X71887673Y-94360911D01*
X71599221Y-94480391D01*
X71361814Y-94639021D01*
X71330537Y-94580506D01*
X71251185Y-94483815D01*
X71154494Y-94404463D01*
X71044180Y-94345498D01*
X70924482Y-94309188D01*
X70800000Y-94296928D01*
X68900000Y-94296928D01*
X68775518Y-94309188D01*
X68655820Y-94345498D01*
X68545506Y-94404463D01*
X68448815Y-94483815D01*
X68369463Y-94580506D01*
X68310498Y-94690820D01*
X68274188Y-94810518D01*
X68261928Y-94935000D01*
X68261928Y-94950000D01*
X66720931Y-94950000D01*
X66674999Y-94945476D01*
X66491707Y-94963529D01*
X66438243Y-94979747D01*
X66315460Y-95016993D01*
X66153028Y-95103814D01*
X66010656Y-95220656D01*
X65981375Y-95256335D01*
X59980142Y-101257569D01*
X59834744Y-101317795D01*
X59665226Y-101431063D01*
X59521063Y-101575226D01*
X59407795Y-101744744D01*
X59329774Y-101933102D01*
X59290000Y-102133061D01*
X55921650Y-102133061D01*
X55921937Y-102132774D01*
X56035205Y-101963256D01*
X56113226Y-101774898D01*
X56153000Y-101574939D01*
X56153000Y-101371061D01*
X56113226Y-101171102D01*
X56035205Y-100982744D01*
X55921937Y-100813226D01*
X55777774Y-100669063D01*
X55608256Y-100555795D01*
X55419898Y-100477774D01*
X55219939Y-100438000D01*
X55016061Y-100438000D01*
X54816102Y-100477774D01*
X54791414Y-100488000D01*
X50491586Y-100488000D01*
X50466898Y-100477774D01*
X50266939Y-100438000D01*
X50063061Y-100438000D01*
X49863102Y-100477774D01*
X49838414Y-100488000D01*
X44096000Y-100488000D01*
X41440431Y-97832431D01*
X41430205Y-97807744D01*
X41316937Y-97638226D01*
X41172774Y-97494063D01*
X41003256Y-97380795D01*
X40978571Y-97370570D01*
X40678430Y-97070430D01*
X40668205Y-97045744D01*
X40554937Y-96876226D01*
X40410774Y-96732063D01*
X40241256Y-96618795D01*
X40052898Y-96540774D01*
X39852939Y-96501000D01*
X39649061Y-96501000D01*
X39449102Y-96540774D01*
X39260744Y-96618795D01*
X39091226Y-96732063D01*
X39085000Y-96738289D01*
X39085000Y-96155000D01*
X42176928Y-96155000D01*
X42176928Y-98155000D01*
X42189188Y-98279482D01*
X42225498Y-98399180D01*
X42284463Y-98509494D01*
X42363815Y-98606185D01*
X42460506Y-98685537D01*
X42570820Y-98744502D01*
X42690518Y-98780812D01*
X42815000Y-98793072D01*
X44815000Y-98793072D01*
X44939482Y-98780812D01*
X45059180Y-98744502D01*
X45169494Y-98685537D01*
X45266185Y-98606185D01*
X45345537Y-98509494D01*
X45404502Y-98399180D01*
X45440812Y-98279482D01*
X45441903Y-98268399D01*
X56830000Y-98268399D01*
X56830000Y-98581601D01*
X56891103Y-98888786D01*
X57010961Y-99178147D01*
X57184967Y-99438566D01*
X57406434Y-99660033D01*
X57666853Y-99834039D01*
X57956214Y-99953897D01*
X58263399Y-100015000D01*
X58576601Y-100015000D01*
X58883786Y-99953897D01*
X59173147Y-99834039D01*
X59433566Y-99660033D01*
X59655033Y-99438566D01*
X59829039Y-99178147D01*
X59948897Y-98888786D01*
X60010000Y-98581601D01*
X60010000Y-98268399D01*
X59948897Y-97961214D01*
X59829039Y-97671853D01*
X59655033Y-97411434D01*
X59433566Y-97189967D01*
X59173147Y-97015961D01*
X58883786Y-96896103D01*
X58576601Y-96835000D01*
X58263399Y-96835000D01*
X57956214Y-96896103D01*
X57666853Y-97015961D01*
X57406434Y-97189967D01*
X57184967Y-97411434D01*
X57010961Y-97671853D01*
X56891103Y-97961214D01*
X56830000Y-98268399D01*
X45441903Y-98268399D01*
X45453072Y-98155000D01*
X45453072Y-96155000D01*
X45440812Y-96030518D01*
X45404502Y-95910820D01*
X45345537Y-95800506D01*
X45266185Y-95703815D01*
X45169494Y-95624463D01*
X45059180Y-95565498D01*
X44939482Y-95529188D01*
X44815000Y-95516928D01*
X42815000Y-95516928D01*
X42690518Y-95529188D01*
X42570820Y-95565498D01*
X42460506Y-95624463D01*
X42363815Y-95703815D01*
X42284463Y-95800506D01*
X42225498Y-95910820D01*
X42189188Y-96030518D01*
X42176928Y-96155000D01*
X39085000Y-96155000D01*
X39085000Y-93239199D01*
X56830000Y-93239199D01*
X56830000Y-93552401D01*
X56891103Y-93859586D01*
X57010961Y-94148947D01*
X57184967Y-94409366D01*
X57406434Y-94630833D01*
X57666853Y-94804839D01*
X57956214Y-94924697D01*
X58263399Y-94985800D01*
X58576601Y-94985800D01*
X58883786Y-94924697D01*
X59173147Y-94804839D01*
X59433566Y-94630833D01*
X59655033Y-94409366D01*
X59829039Y-94148947D01*
X59948897Y-93859586D01*
X60010000Y-93552401D01*
X60010000Y-93239199D01*
X59948897Y-92932014D01*
X59829039Y-92642653D01*
X59655033Y-92382234D01*
X59433566Y-92160767D01*
X59173147Y-91986761D01*
X58883786Y-91866903D01*
X58576601Y-91805800D01*
X58263399Y-91805800D01*
X57956214Y-91866903D01*
X57666853Y-91986761D01*
X57406434Y-92160767D01*
X57184967Y-92382234D01*
X57010961Y-92642653D01*
X56891103Y-92932014D01*
X56830000Y-93239199D01*
X39085000Y-93239199D01*
X39085000Y-92115107D01*
X39253475Y-91946632D01*
X39415990Y-91703411D01*
X39527932Y-91433158D01*
X39585000Y-91146260D01*
X39585000Y-90853740D01*
X39527932Y-90566842D01*
X39415990Y-90296589D01*
X39253475Y-90053368D01*
X39046632Y-89846525D01*
X38803411Y-89684010D01*
X38533158Y-89572068D01*
X38246260Y-89515000D01*
X37953740Y-89515000D01*
X37666842Y-89572068D01*
X37396589Y-89684010D01*
X37153368Y-89846525D01*
X36984893Y-90015000D01*
X34215107Y-90015000D01*
X34046632Y-89846525D01*
X33803411Y-89684010D01*
X33533158Y-89572068D01*
X33246260Y-89515000D01*
X32953740Y-89515000D01*
X32666842Y-89572068D01*
X32396589Y-89684010D01*
X32153368Y-89846525D01*
X31946525Y-90053368D01*
X31784010Y-90296589D01*
X31672068Y-90566842D01*
X31615000Y-90853740D01*
X22749072Y-90853740D01*
X22807329Y-83455000D01*
X42176928Y-83455000D01*
X42176928Y-85455000D01*
X42189188Y-85579482D01*
X42225498Y-85699180D01*
X42284463Y-85809494D01*
X42363815Y-85906185D01*
X42460506Y-85985537D01*
X42570820Y-86044502D01*
X42690518Y-86080812D01*
X42815000Y-86093072D01*
X44815000Y-86093072D01*
X44939482Y-86080812D01*
X45059180Y-86044502D01*
X45169494Y-85985537D01*
X45266185Y-85906185D01*
X45345537Y-85809494D01*
X45404502Y-85699180D01*
X45440812Y-85579482D01*
X45453072Y-85455000D01*
X45453072Y-83455000D01*
X45440812Y-83330518D01*
X45404502Y-83210820D01*
X45345537Y-83100506D01*
X45266185Y-83003815D01*
X45169494Y-82924463D01*
X45059180Y-82865498D01*
X44939482Y-82829188D01*
X44815000Y-82816928D01*
X42815000Y-82816928D01*
X42690518Y-82829188D01*
X42570820Y-82865498D01*
X42460506Y-82924463D01*
X42363815Y-83003815D01*
X42284463Y-83100506D01*
X42225498Y-83210820D01*
X42189188Y-83330518D01*
X42176928Y-83455000D01*
X22807329Y-83455000D01*
X22922417Y-68838967D01*
X31465000Y-68838967D01*
X31465000Y-69161033D01*
X31527832Y-69476912D01*
X31651082Y-69774463D01*
X31830013Y-70042252D01*
X32057748Y-70269987D01*
X32325537Y-70448918D01*
X32623088Y-70572168D01*
X32938967Y-70635000D01*
X33261033Y-70635000D01*
X33576912Y-70572168D01*
X33874463Y-70448918D01*
X34142252Y-70269987D01*
X34369987Y-70042252D01*
X34548918Y-69774463D01*
X34672168Y-69476912D01*
X34735000Y-69161033D01*
X34735000Y-68838967D01*
X36465000Y-68838967D01*
X36465000Y-69161033D01*
X36527832Y-69476912D01*
X36651082Y-69774463D01*
X36830013Y-70042252D01*
X37057748Y-70269987D01*
X37325537Y-70448918D01*
X37623088Y-70572168D01*
X37938967Y-70635000D01*
X38261033Y-70635000D01*
X38576912Y-70572168D01*
X38874463Y-70448918D01*
X39044943Y-70335007D01*
X38963577Y-70487233D01*
X38963576Y-70487234D01*
X38907253Y-70672907D01*
X38888235Y-70866000D01*
X38893000Y-70914380D01*
X38893000Y-71809413D01*
X38882774Y-71834102D01*
X38843000Y-72034061D01*
X38843000Y-72237939D01*
X38882774Y-72437898D01*
X38893000Y-72462586D01*
X38893000Y-73587414D01*
X38882774Y-73612102D01*
X38843000Y-73812061D01*
X38843000Y-74015939D01*
X38882774Y-74215898D01*
X38893000Y-74240586D01*
X38893001Y-75643611D01*
X38888235Y-75692000D01*
X38907253Y-75885093D01*
X38963576Y-76070766D01*
X38963577Y-76070767D01*
X39055041Y-76241884D01*
X39178131Y-76391870D01*
X39205823Y-76414596D01*
X39214795Y-76436256D01*
X39328063Y-76605774D01*
X39472226Y-76749937D01*
X39641744Y-76863205D01*
X39830102Y-76941226D01*
X40030061Y-76981000D01*
X40233939Y-76981000D01*
X40433898Y-76941226D01*
X40622256Y-76863205D01*
X40791774Y-76749937D01*
X40935937Y-76605774D01*
X41049205Y-76436256D01*
X41127226Y-76247898D01*
X41167000Y-76047939D01*
X41167000Y-75844061D01*
X41127226Y-75644102D01*
X41049205Y-75455744D01*
X40935937Y-75286226D01*
X40863000Y-75213289D01*
X40863000Y-74240586D01*
X40873226Y-74215898D01*
X40913000Y-74015939D01*
X40913000Y-73812061D01*
X40873226Y-73612102D01*
X40863000Y-73587414D01*
X40863000Y-72462586D01*
X40873226Y-72437898D01*
X40913000Y-72237939D01*
X40913000Y-72034061D01*
X40873226Y-71834102D01*
X40863000Y-71809414D01*
X40863000Y-71274000D01*
X41382000Y-70755000D01*
X42176928Y-70755000D01*
X42176928Y-72755000D01*
X42189188Y-72879482D01*
X42225498Y-72999180D01*
X42284463Y-73109494D01*
X42363815Y-73206185D01*
X42460506Y-73285537D01*
X42570820Y-73344502D01*
X42690518Y-73380812D01*
X42815000Y-73393072D01*
X44815000Y-73393072D01*
X44939482Y-73380812D01*
X45059180Y-73344502D01*
X45169494Y-73285537D01*
X45266185Y-73206185D01*
X45345537Y-73109494D01*
X45404502Y-72999180D01*
X45440812Y-72879482D01*
X45453072Y-72755000D01*
X45453072Y-70755000D01*
X45440812Y-70630518D01*
X45404502Y-70510820D01*
X45345537Y-70400506D01*
X45266185Y-70303815D01*
X45169494Y-70224463D01*
X45059180Y-70165498D01*
X44939482Y-70129188D01*
X44815000Y-70116928D01*
X42815000Y-70116928D01*
X42690518Y-70129188D01*
X42570820Y-70165498D01*
X42460506Y-70224463D01*
X42363815Y-70303815D01*
X42284463Y-70400506D01*
X42225498Y-70510820D01*
X42189188Y-70630518D01*
X42176928Y-70755000D01*
X41382000Y-70755000D01*
X45169571Y-66967430D01*
X45194256Y-66957205D01*
X45363774Y-66843937D01*
X45507937Y-66699774D01*
X45621205Y-66530256D01*
X45699226Y-66341898D01*
X45739000Y-66141939D01*
X45739000Y-65938061D01*
X45699226Y-65738102D01*
X45621205Y-65549744D01*
X45507937Y-65380226D01*
X45363774Y-65236063D01*
X45194256Y-65122795D01*
X45005898Y-65044774D01*
X44805939Y-65005000D01*
X44602061Y-65005000D01*
X44402102Y-65044774D01*
X44213744Y-65122795D01*
X44044226Y-65236063D01*
X43900063Y-65380226D01*
X43786795Y-65549744D01*
X43776570Y-65574429D01*
X39493302Y-69857697D01*
X39548918Y-69774463D01*
X39672168Y-69476912D01*
X39735000Y-69161033D01*
X39735000Y-68838967D01*
X39672168Y-68523088D01*
X39548918Y-68225537D01*
X39369987Y-67957748D01*
X39142252Y-67730013D01*
X38874463Y-67551082D01*
X38576912Y-67427832D01*
X38261033Y-67365000D01*
X37938967Y-67365000D01*
X37623088Y-67427832D01*
X37325537Y-67551082D01*
X37057748Y-67730013D01*
X36830013Y-67957748D01*
X36651082Y-68225537D01*
X36527832Y-68523088D01*
X36465000Y-68838967D01*
X34735000Y-68838967D01*
X34672168Y-68523088D01*
X34548918Y-68225537D01*
X34369987Y-67957748D01*
X34142252Y-67730013D01*
X33874463Y-67551082D01*
X33576912Y-67427832D01*
X33261033Y-67365000D01*
X32938967Y-67365000D01*
X32623088Y-67427832D01*
X32325537Y-67551082D01*
X32057748Y-67730013D01*
X31830013Y-67957748D01*
X31651082Y-68225537D01*
X31527832Y-68523088D01*
X31465000Y-68838967D01*
X22922417Y-68838967D01*
X23007329Y-58055000D01*
X42176928Y-58055000D01*
X42176928Y-60055000D01*
X42189188Y-60179482D01*
X42225498Y-60299180D01*
X42284463Y-60409494D01*
X42363815Y-60506185D01*
X42460506Y-60585537D01*
X42570820Y-60644502D01*
X42690518Y-60680812D01*
X42815000Y-60693072D01*
X44815000Y-60693072D01*
X44939482Y-60680812D01*
X45059180Y-60644502D01*
X45169494Y-60585537D01*
X45266185Y-60506185D01*
X45345537Y-60409494D01*
X45404502Y-60299180D01*
X45440812Y-60179482D01*
X45453072Y-60055000D01*
X45453072Y-58055000D01*
X45440812Y-57930518D01*
X45404502Y-57810820D01*
X45345537Y-57700506D01*
X45266185Y-57603815D01*
X45169494Y-57524463D01*
X45059180Y-57465498D01*
X44939482Y-57429188D01*
X44815000Y-57416928D01*
X42815000Y-57416928D01*
X42690518Y-57429188D01*
X42570820Y-57465498D01*
X42460506Y-57524463D01*
X42363815Y-57603815D01*
X42284463Y-57700506D01*
X42225498Y-57810820D01*
X42189188Y-57930518D01*
X42176928Y-58055000D01*
X23007329Y-58055000D01*
X23111499Y-44825475D01*
X32925000Y-44825475D01*
X32925000Y-45344525D01*
X33026261Y-45853601D01*
X33224893Y-46333141D01*
X33513262Y-46764715D01*
X33880285Y-47131738D01*
X34311859Y-47420107D01*
X34791399Y-47618739D01*
X35300475Y-47720000D01*
X35819525Y-47720000D01*
X36328601Y-47618739D01*
X36808141Y-47420107D01*
X37239715Y-47131738D01*
X37606738Y-46764715D01*
X37895107Y-46333141D01*
X38093739Y-45853601D01*
X38195000Y-45344525D01*
X38195000Y-45337361D01*
X46280000Y-45337361D01*
X46280000Y-46102639D01*
X46429298Y-46853213D01*
X46722158Y-47560238D01*
X47147323Y-48196543D01*
X47688457Y-48737677D01*
X48324762Y-49162842D01*
X49031787Y-49455702D01*
X49782361Y-49605000D01*
X50547639Y-49605000D01*
X51298213Y-49455702D01*
X52005238Y-49162842D01*
X52641543Y-48737677D01*
X53182677Y-48196543D01*
X53607842Y-47560238D01*
X53900702Y-46853213D01*
X54050000Y-46102639D01*
X54050000Y-45337361D01*
X53900702Y-44586787D01*
X53607842Y-43879762D01*
X53182677Y-43243457D01*
X52641543Y-42702323D01*
X52005238Y-42277158D01*
X51298213Y-41984298D01*
X50547639Y-41835000D01*
X49782361Y-41835000D01*
X49031787Y-41984298D01*
X48324762Y-42277158D01*
X47688457Y-42702323D01*
X47147323Y-43243457D01*
X46722158Y-43879762D01*
X46429298Y-44586787D01*
X46280000Y-45337361D01*
X38195000Y-45337361D01*
X38195000Y-44825475D01*
X38093739Y-44316399D01*
X37895107Y-43836859D01*
X37606738Y-43405285D01*
X37239715Y-43038262D01*
X36808141Y-42749893D01*
X36328601Y-42551261D01*
X35819525Y-42450000D01*
X35300475Y-42450000D01*
X34791399Y-42551261D01*
X34311859Y-42749893D01*
X33880285Y-43038262D01*
X33513262Y-43405285D01*
X33224893Y-43836859D01*
X33026261Y-44316399D01*
X32925000Y-44825475D01*
X23111499Y-44825475D01*
X23163499Y-38221612D01*
X23163502Y-38221112D01*
X23163595Y-38197491D01*
X23163596Y-38196991D01*
X23163596Y-37779872D01*
X24765000Y-37779872D01*
X24765000Y-38220128D01*
X24850890Y-38651925D01*
X25019369Y-39058669D01*
X25263962Y-39424729D01*
X25575271Y-39736038D01*
X25941331Y-39980631D01*
X26348075Y-40149110D01*
X26779872Y-40235000D01*
X27220128Y-40235000D01*
X27651925Y-40149110D01*
X28058669Y-39980631D01*
X28424729Y-39736038D01*
X28736038Y-39424729D01*
X28980631Y-39058669D01*
X29149110Y-38651925D01*
X29235000Y-38220128D01*
X29235000Y-37840475D01*
X32925000Y-37840475D01*
X32925000Y-38359525D01*
X33026261Y-38868601D01*
X33224893Y-39348141D01*
X33513262Y-39779715D01*
X33880285Y-40146738D01*
X34311859Y-40435107D01*
X34791399Y-40633739D01*
X35300475Y-40735000D01*
X35819525Y-40735000D01*
X36328601Y-40633739D01*
X36808141Y-40435107D01*
X37239715Y-40146738D01*
X37606738Y-39779715D01*
X37895107Y-39348141D01*
X38093739Y-38868601D01*
X38195000Y-38359525D01*
X38195000Y-37840475D01*
X48165000Y-37840475D01*
X48165000Y-38359525D01*
X48266261Y-38868601D01*
X48464893Y-39348141D01*
X48753262Y-39779715D01*
X49120285Y-40146738D01*
X49551859Y-40435107D01*
X50031399Y-40633739D01*
X50540475Y-40735000D01*
X51059525Y-40735000D01*
X51568601Y-40633739D01*
X52048141Y-40435107D01*
X52479715Y-40146738D01*
X52846738Y-39779715D01*
X53135107Y-39348141D01*
X53333739Y-38868601D01*
X53435000Y-38359525D01*
X53435000Y-37840475D01*
X53333739Y-37331399D01*
X53135107Y-36851859D01*
X52846738Y-36420285D01*
X52479715Y-36053262D01*
X52048141Y-35764893D01*
X51568601Y-35566261D01*
X51059525Y-35465000D01*
X50540475Y-35465000D01*
X50031399Y-35566261D01*
X49551859Y-35764893D01*
X49120285Y-36053262D01*
X48753262Y-36420285D01*
X48464893Y-36851859D01*
X48266261Y-37331399D01*
X48165000Y-37840475D01*
X38195000Y-37840475D01*
X38093739Y-37331399D01*
X37895107Y-36851859D01*
X37606738Y-36420285D01*
X37239715Y-36053262D01*
X36808141Y-35764893D01*
X36328601Y-35566261D01*
X35819525Y-35465000D01*
X35300475Y-35465000D01*
X34791399Y-35566261D01*
X34311859Y-35764893D01*
X33880285Y-36053262D01*
X33513262Y-36420285D01*
X33224893Y-36851859D01*
X33026261Y-37331399D01*
X32925000Y-37840475D01*
X29235000Y-37840475D01*
X29235000Y-37779872D01*
X29149110Y-37348075D01*
X28980631Y-36941331D01*
X28736038Y-36575271D01*
X28424729Y-36263962D01*
X28058669Y-36019369D01*
X27651925Y-35850890D01*
X27220128Y-35765000D01*
X26779872Y-35765000D01*
X26348075Y-35850890D01*
X25941331Y-36019369D01*
X25575271Y-36263962D01*
X25263962Y-36575271D01*
X25019369Y-36941331D01*
X24850890Y-37348075D01*
X24765000Y-37779872D01*
X23163596Y-37779872D01*
X23163596Y-36626285D01*
X23181964Y-36392895D01*
X23235451Y-36170106D01*
X23323132Y-35958426D01*
X23442844Y-35763074D01*
X23591645Y-35588851D01*
X23765868Y-35440050D01*
X23961220Y-35320338D01*
X24172900Y-35232657D01*
X24395689Y-35179170D01*
X24629079Y-35160802D01*
X54323036Y-35160802D01*
X54648242Y-35179065D01*
M02*
