G04 #@! TF.GenerationSoftware,KiCad,Pcbnew,(5.1.0-0)*
G04 #@! TF.CreationDate,2019-04-24T02:20:35-07:00*
G04 #@! TF.ProjectId,power board,706f7765-7220-4626-9f61-72642e6b6963,rev?*
G04 #@! TF.SameCoordinates,Original*
G04 #@! TF.FileFunction,Legend,Bot*
G04 #@! TF.FilePolarity,Positive*
%FSLAX46Y46*%
G04 Gerber Fmt 4.6, Leading zero omitted, Abs format (unit mm)*
G04 Created by KiCad (PCBNEW (5.1.0-0)) date 2019-04-24 02:20:35*
%MOMM*%
%LPD*%
G04 APERTURE LIST*
%ADD10C,0.300000*%
%ADD11C,0.500000*%
%ADD12C,0.120000*%
%ADD13C,0.150000*%
G04 APERTURE END LIST*
D10*
X78866428Y-59324761D02*
X78866428Y-57324761D01*
X78009285Y-59229523D02*
X77723571Y-59324761D01*
X77247380Y-59324761D01*
X77056904Y-59229523D01*
X76961666Y-59134285D01*
X76866428Y-58943809D01*
X76866428Y-58753333D01*
X76961666Y-58562857D01*
X77056904Y-58467619D01*
X77247380Y-58372380D01*
X77628333Y-58277142D01*
X77818809Y-58181904D01*
X77914047Y-58086666D01*
X78009285Y-57896190D01*
X78009285Y-57705714D01*
X77914047Y-57515238D01*
X77818809Y-57420000D01*
X77628333Y-57324761D01*
X77152142Y-57324761D01*
X76866428Y-57420000D01*
X75628333Y-57324761D02*
X75247380Y-57324761D01*
X75056904Y-57420000D01*
X74866428Y-57610476D01*
X74771190Y-57991428D01*
X74771190Y-58658095D01*
X74866428Y-59039047D01*
X75056904Y-59229523D01*
X75247380Y-59324761D01*
X75628333Y-59324761D01*
X75818809Y-59229523D01*
X76009285Y-59039047D01*
X76104523Y-58658095D01*
X76104523Y-57991428D01*
X76009285Y-57610476D01*
X75818809Y-57420000D01*
X75628333Y-57324761D01*
X74390238Y-59515238D02*
X72866428Y-59515238D01*
X71437857Y-57324761D02*
X72390238Y-57324761D01*
X72485476Y-58277142D01*
X72390238Y-58181904D01*
X72199761Y-58086666D01*
X71723571Y-58086666D01*
X71533095Y-58181904D01*
X71437857Y-58277142D01*
X71342619Y-58467619D01*
X71342619Y-58943809D01*
X71437857Y-59134285D01*
X71533095Y-59229523D01*
X71723571Y-59324761D01*
X72199761Y-59324761D01*
X72390238Y-59229523D01*
X72485476Y-59134285D01*
X70771190Y-57324761D02*
X70104523Y-59324761D01*
X69437857Y-57324761D01*
X79469523Y-43449761D02*
X79469523Y-41449761D01*
X78612380Y-43354523D02*
X78326666Y-43449761D01*
X77850476Y-43449761D01*
X77660000Y-43354523D01*
X77564761Y-43259285D01*
X77469523Y-43068809D01*
X77469523Y-42878333D01*
X77564761Y-42687857D01*
X77660000Y-42592619D01*
X77850476Y-42497380D01*
X78231428Y-42402142D01*
X78421904Y-42306904D01*
X78517142Y-42211666D01*
X78612380Y-42021190D01*
X78612380Y-41830714D01*
X78517142Y-41640238D01*
X78421904Y-41545000D01*
X78231428Y-41449761D01*
X77755238Y-41449761D01*
X77469523Y-41545000D01*
X76231428Y-41449761D02*
X75850476Y-41449761D01*
X75660000Y-41545000D01*
X75469523Y-41735476D01*
X75374285Y-42116428D01*
X75374285Y-42783095D01*
X75469523Y-43164047D01*
X75660000Y-43354523D01*
X75850476Y-43449761D01*
X76231428Y-43449761D01*
X76421904Y-43354523D01*
X76612380Y-43164047D01*
X76707619Y-42783095D01*
X76707619Y-42116428D01*
X76612380Y-41735476D01*
X76421904Y-41545000D01*
X76231428Y-41449761D01*
X74993333Y-43640238D02*
X73469523Y-43640238D01*
X71945714Y-41545000D02*
X72136190Y-41449761D01*
X72421904Y-41449761D01*
X72707619Y-41545000D01*
X72898095Y-41735476D01*
X72993333Y-41925952D01*
X73088571Y-42306904D01*
X73088571Y-42592619D01*
X72993333Y-42973571D01*
X72898095Y-43164047D01*
X72707619Y-43354523D01*
X72421904Y-43449761D01*
X72231428Y-43449761D01*
X71945714Y-43354523D01*
X71850476Y-43259285D01*
X71850476Y-42592619D01*
X72231428Y-42592619D01*
X70993333Y-43449761D02*
X70993333Y-41449761D01*
X69850476Y-43449761D01*
X69850476Y-41449761D01*
X68898095Y-43449761D02*
X68898095Y-41449761D01*
X68421904Y-41449761D01*
X68136190Y-41545000D01*
X67945714Y-41735476D01*
X67850476Y-41925952D01*
X67755238Y-42306904D01*
X67755238Y-42592619D01*
X67850476Y-42973571D01*
X67945714Y-43164047D01*
X68136190Y-43354523D01*
X68421904Y-43449761D01*
X68898095Y-43449761D01*
D11*
X33400714Y-93750000D02*
X33686428Y-93607142D01*
X34115000Y-93607142D01*
X34543571Y-93750000D01*
X34829285Y-94035714D01*
X34972142Y-94321428D01*
X35115000Y-94892857D01*
X35115000Y-95321428D01*
X34972142Y-95892857D01*
X34829285Y-96178571D01*
X34543571Y-96464285D01*
X34115000Y-96607142D01*
X33829285Y-96607142D01*
X33400714Y-96464285D01*
X33257857Y-96321428D01*
X33257857Y-95321428D01*
X33829285Y-95321428D01*
X31972142Y-96607142D02*
X31972142Y-93607142D01*
X30257857Y-96607142D01*
X30257857Y-93607142D01*
X28829285Y-96607142D02*
X28829285Y-93607142D01*
X28115000Y-93607142D01*
X27686428Y-93750000D01*
X27400714Y-94035714D01*
X27257857Y-94321428D01*
X27115000Y-94892857D01*
X27115000Y-95321428D01*
X27257857Y-95892857D01*
X27400714Y-96178571D01*
X27686428Y-96464285D01*
X28115000Y-96607142D01*
X28829285Y-96607142D01*
X37670714Y-64349285D02*
X35385000Y-64349285D01*
X36527857Y-65492142D02*
X36527857Y-63206428D01*
X34099285Y-62777857D02*
X33956428Y-62635000D01*
X33670714Y-62492142D01*
X32956428Y-62492142D01*
X32670714Y-62635000D01*
X32527857Y-62777857D01*
X32385000Y-63063571D01*
X32385000Y-63349285D01*
X32527857Y-63777857D01*
X34242142Y-65492142D01*
X32385000Y-65492142D01*
X29813571Y-63492142D02*
X29813571Y-65492142D01*
X30527857Y-62349285D02*
X31242142Y-64492142D01*
X29385000Y-64492142D01*
X28670714Y-62492142D02*
X27670714Y-65492142D01*
X26670714Y-62492142D01*
D12*
X24130000Y-70270000D02*
X39370000Y-70270000D01*
X24130000Y-67730000D02*
X24130000Y-70270000D01*
X39370000Y-67730000D02*
X24130000Y-67730000D01*
X39370000Y-70270000D02*
X39370000Y-67730000D01*
X24130000Y-92270000D02*
X39370000Y-92270000D01*
X24130000Y-89730000D02*
X24130000Y-92270000D01*
X39370000Y-89730000D02*
X24130000Y-89730000D01*
X39370000Y-92270000D02*
X39370000Y-89730000D01*
D13*
X36020476Y-65872380D02*
X36020476Y-66586666D01*
X35972857Y-66729523D01*
X35877619Y-66824761D01*
X35734761Y-66872380D01*
X35639523Y-66872380D01*
X37020476Y-66872380D02*
X36449047Y-66872380D01*
X36734761Y-66872380D02*
X36734761Y-65872380D01*
X36639523Y-66015238D01*
X36544285Y-66110476D01*
X36449047Y-66158095D01*
X37972857Y-66872380D02*
X37401428Y-66872380D01*
X37687142Y-66872380D02*
X37687142Y-65872380D01*
X37591904Y-66015238D01*
X37496666Y-66110476D01*
X37401428Y-66158095D01*
X38909523Y-87277380D02*
X38909523Y-87991666D01*
X38957142Y-88134523D01*
X39052380Y-88229761D01*
X39195238Y-88277380D01*
X39290476Y-88277380D01*
X37909523Y-88277380D02*
X38480952Y-88277380D01*
X38195238Y-88277380D02*
X38195238Y-87277380D01*
X38290476Y-87420238D01*
X38385714Y-87515476D01*
X38480952Y-87563095D01*
X37528571Y-87372619D02*
X37480952Y-87325000D01*
X37385714Y-87277380D01*
X37147619Y-87277380D01*
X37052380Y-87325000D01*
X37004761Y-87372619D01*
X36957142Y-87467857D01*
X36957142Y-87563095D01*
X37004761Y-87705952D01*
X37576190Y-88277380D01*
X36957142Y-88277380D01*
M02*
