G04 #@! TF.GenerationSoftware,KiCad,Pcbnew,(5.1.0-0)*
G04 #@! TF.CreationDate,2019-04-24T02:20:35-07:00*
G04 #@! TF.ProjectId,power board,706f7765-7220-4626-9f61-72642e6b6963,rev?*
G04 #@! TF.SameCoordinates,Original*
G04 #@! TF.FileFunction,Copper,L1,Top*
G04 #@! TF.FilePolarity,Positive*
%FSLAX46Y46*%
G04 Gerber Fmt 4.6, Leading zero omitted, Abs format (unit mm)*
G04 Created by KiCad (PCBNEW (5.1.0-0)) date 2019-04-24 02:20:35*
%MOMM*%
%LPD*%
G04 APERTURE LIST*
%ADD10R,5.500000X1.430000*%
%ADD11C,2.000000*%
%ADD12C,1.910000*%
%ADD13R,1.910000X1.910000*%
%ADD14C,1.900000*%
%ADD15R,1.900000X1.900000*%
%ADD16C,0.100000*%
%ADD17C,1.150000*%
%ADD18C,6.500000*%
%ADD19C,0.950000*%
%ADD20O,3.000000X2.000000*%
%ADD21R,3.000000X2.000000*%
%ADD22C,3.000000*%
%ADD23C,1.700000*%
%ADD24C,4.000000*%
%ADD25R,3.800000X3.800000*%
%ADD26R,2.000000X2.000000*%
%ADD27C,0.800000*%
%ADD28C,0.700000*%
%ADD29C,0.600000*%
%ADD30C,0.800000*%
%ADD31C,0.400000*%
%ADD32C,1.000000*%
%ADD33C,0.254000*%
G04 APERTURE END LIST*
D10*
X57150000Y-51955000D03*
X57150000Y-55995000D03*
D11*
X33100000Y-69000000D03*
X38100000Y-69000000D03*
D12*
X58420000Y-98425000D03*
X58420000Y-93395800D03*
D13*
X58445400Y-95935800D03*
D14*
X74850000Y-95885000D03*
X72350000Y-95885000D03*
D15*
X69850000Y-95885000D03*
D16*
G36*
X67414505Y-50736204D02*
G01*
X67438773Y-50739804D01*
X67462572Y-50745765D01*
X67485671Y-50754030D01*
X67507850Y-50764520D01*
X67528893Y-50777132D01*
X67548599Y-50791747D01*
X67566777Y-50808223D01*
X67583253Y-50826401D01*
X67597868Y-50846107D01*
X67610480Y-50867150D01*
X67620970Y-50889329D01*
X67629235Y-50912428D01*
X67635196Y-50936227D01*
X67638796Y-50960495D01*
X67640000Y-50984999D01*
X67640000Y-51885001D01*
X67638796Y-51909505D01*
X67635196Y-51933773D01*
X67629235Y-51957572D01*
X67620970Y-51980671D01*
X67610480Y-52002850D01*
X67597868Y-52023893D01*
X67583253Y-52043599D01*
X67566777Y-52061777D01*
X67548599Y-52078253D01*
X67528893Y-52092868D01*
X67507850Y-52105480D01*
X67485671Y-52115970D01*
X67462572Y-52124235D01*
X67438773Y-52130196D01*
X67414505Y-52133796D01*
X67390001Y-52135000D01*
X66739999Y-52135000D01*
X66715495Y-52133796D01*
X66691227Y-52130196D01*
X66667428Y-52124235D01*
X66644329Y-52115970D01*
X66622150Y-52105480D01*
X66601107Y-52092868D01*
X66581401Y-52078253D01*
X66563223Y-52061777D01*
X66546747Y-52043599D01*
X66532132Y-52023893D01*
X66519520Y-52002850D01*
X66509030Y-51980671D01*
X66500765Y-51957572D01*
X66494804Y-51933773D01*
X66491204Y-51909505D01*
X66490000Y-51885001D01*
X66490000Y-50984999D01*
X66491204Y-50960495D01*
X66494804Y-50936227D01*
X66500765Y-50912428D01*
X66509030Y-50889329D01*
X66519520Y-50867150D01*
X66532132Y-50846107D01*
X66546747Y-50826401D01*
X66563223Y-50808223D01*
X66581401Y-50791747D01*
X66601107Y-50777132D01*
X66622150Y-50764520D01*
X66644329Y-50754030D01*
X66667428Y-50745765D01*
X66691227Y-50739804D01*
X66715495Y-50736204D01*
X66739999Y-50735000D01*
X67390001Y-50735000D01*
X67414505Y-50736204D01*
X67414505Y-50736204D01*
G37*
D17*
X67065000Y-51435000D03*
D16*
G36*
X65364505Y-50736204D02*
G01*
X65388773Y-50739804D01*
X65412572Y-50745765D01*
X65435671Y-50754030D01*
X65457850Y-50764520D01*
X65478893Y-50777132D01*
X65498599Y-50791747D01*
X65516777Y-50808223D01*
X65533253Y-50826401D01*
X65547868Y-50846107D01*
X65560480Y-50867150D01*
X65570970Y-50889329D01*
X65579235Y-50912428D01*
X65585196Y-50936227D01*
X65588796Y-50960495D01*
X65590000Y-50984999D01*
X65590000Y-51885001D01*
X65588796Y-51909505D01*
X65585196Y-51933773D01*
X65579235Y-51957572D01*
X65570970Y-51980671D01*
X65560480Y-52002850D01*
X65547868Y-52023893D01*
X65533253Y-52043599D01*
X65516777Y-52061777D01*
X65498599Y-52078253D01*
X65478893Y-52092868D01*
X65457850Y-52105480D01*
X65435671Y-52115970D01*
X65412572Y-52124235D01*
X65388773Y-52130196D01*
X65364505Y-52133796D01*
X65340001Y-52135000D01*
X64689999Y-52135000D01*
X64665495Y-52133796D01*
X64641227Y-52130196D01*
X64617428Y-52124235D01*
X64594329Y-52115970D01*
X64572150Y-52105480D01*
X64551107Y-52092868D01*
X64531401Y-52078253D01*
X64513223Y-52061777D01*
X64496747Y-52043599D01*
X64482132Y-52023893D01*
X64469520Y-52002850D01*
X64459030Y-51980671D01*
X64450765Y-51957572D01*
X64444804Y-51933773D01*
X64441204Y-51909505D01*
X64440000Y-51885001D01*
X64440000Y-50984999D01*
X64441204Y-50960495D01*
X64444804Y-50936227D01*
X64450765Y-50912428D01*
X64459030Y-50889329D01*
X64469520Y-50867150D01*
X64482132Y-50846107D01*
X64496747Y-50826401D01*
X64513223Y-50808223D01*
X64531401Y-50791747D01*
X64551107Y-50777132D01*
X64572150Y-50764520D01*
X64594329Y-50754030D01*
X64617428Y-50745765D01*
X64641227Y-50739804D01*
X64665495Y-50736204D01*
X64689999Y-50735000D01*
X65340001Y-50735000D01*
X65364505Y-50736204D01*
X65364505Y-50736204D01*
G37*
D17*
X65015000Y-51435000D03*
D18*
X50165000Y-45720000D03*
X57115000Y-45720000D03*
D16*
G36*
X65475779Y-47151144D02*
G01*
X65498834Y-47154563D01*
X65521443Y-47160227D01*
X65543387Y-47168079D01*
X65564457Y-47178044D01*
X65584448Y-47190026D01*
X65603168Y-47203910D01*
X65620438Y-47219562D01*
X65636090Y-47236832D01*
X65649974Y-47255552D01*
X65661956Y-47275543D01*
X65671921Y-47296613D01*
X65679773Y-47318557D01*
X65685437Y-47341166D01*
X65688856Y-47364221D01*
X65690000Y-47387500D01*
X65690000Y-47862500D01*
X65688856Y-47885779D01*
X65685437Y-47908834D01*
X65679773Y-47931443D01*
X65671921Y-47953387D01*
X65661956Y-47974457D01*
X65649974Y-47994448D01*
X65636090Y-48013168D01*
X65620438Y-48030438D01*
X65603168Y-48046090D01*
X65584448Y-48059974D01*
X65564457Y-48071956D01*
X65543387Y-48081921D01*
X65521443Y-48089773D01*
X65498834Y-48095437D01*
X65475779Y-48098856D01*
X65452500Y-48100000D01*
X64877500Y-48100000D01*
X64854221Y-48098856D01*
X64831166Y-48095437D01*
X64808557Y-48089773D01*
X64786613Y-48081921D01*
X64765543Y-48071956D01*
X64745552Y-48059974D01*
X64726832Y-48046090D01*
X64709562Y-48030438D01*
X64693910Y-48013168D01*
X64680026Y-47994448D01*
X64668044Y-47974457D01*
X64658079Y-47953387D01*
X64650227Y-47931443D01*
X64644563Y-47908834D01*
X64641144Y-47885779D01*
X64640000Y-47862500D01*
X64640000Y-47387500D01*
X64641144Y-47364221D01*
X64644563Y-47341166D01*
X64650227Y-47318557D01*
X64658079Y-47296613D01*
X64668044Y-47275543D01*
X64680026Y-47255552D01*
X64693910Y-47236832D01*
X64709562Y-47219562D01*
X64726832Y-47203910D01*
X64745552Y-47190026D01*
X64765543Y-47178044D01*
X64786613Y-47168079D01*
X64808557Y-47160227D01*
X64831166Y-47154563D01*
X64854221Y-47151144D01*
X64877500Y-47150000D01*
X65452500Y-47150000D01*
X65475779Y-47151144D01*
X65475779Y-47151144D01*
G37*
D19*
X65165000Y-47625000D03*
D16*
G36*
X67225779Y-47151144D02*
G01*
X67248834Y-47154563D01*
X67271443Y-47160227D01*
X67293387Y-47168079D01*
X67314457Y-47178044D01*
X67334448Y-47190026D01*
X67353168Y-47203910D01*
X67370438Y-47219562D01*
X67386090Y-47236832D01*
X67399974Y-47255552D01*
X67411956Y-47275543D01*
X67421921Y-47296613D01*
X67429773Y-47318557D01*
X67435437Y-47341166D01*
X67438856Y-47364221D01*
X67440000Y-47387500D01*
X67440000Y-47862500D01*
X67438856Y-47885779D01*
X67435437Y-47908834D01*
X67429773Y-47931443D01*
X67421921Y-47953387D01*
X67411956Y-47974457D01*
X67399974Y-47994448D01*
X67386090Y-48013168D01*
X67370438Y-48030438D01*
X67353168Y-48046090D01*
X67334448Y-48059974D01*
X67314457Y-48071956D01*
X67293387Y-48081921D01*
X67271443Y-48089773D01*
X67248834Y-48095437D01*
X67225779Y-48098856D01*
X67202500Y-48100000D01*
X66627500Y-48100000D01*
X66604221Y-48098856D01*
X66581166Y-48095437D01*
X66558557Y-48089773D01*
X66536613Y-48081921D01*
X66515543Y-48071956D01*
X66495552Y-48059974D01*
X66476832Y-48046090D01*
X66459562Y-48030438D01*
X66443910Y-48013168D01*
X66430026Y-47994448D01*
X66418044Y-47974457D01*
X66408079Y-47953387D01*
X66400227Y-47931443D01*
X66394563Y-47908834D01*
X66391144Y-47885779D01*
X66390000Y-47862500D01*
X66390000Y-47387500D01*
X66391144Y-47364221D01*
X66394563Y-47341166D01*
X66400227Y-47318557D01*
X66408079Y-47296613D01*
X66418044Y-47275543D01*
X66430026Y-47255552D01*
X66443910Y-47236832D01*
X66459562Y-47219562D01*
X66476832Y-47203910D01*
X66495552Y-47190026D01*
X66515543Y-47178044D01*
X66536613Y-47168079D01*
X66558557Y-47160227D01*
X66581166Y-47154563D01*
X66604221Y-47151144D01*
X66627500Y-47150000D01*
X67202500Y-47150000D01*
X67225779Y-47151144D01*
X67225779Y-47151144D01*
G37*
D19*
X66915000Y-47625000D03*
D20*
X55880000Y-65405000D03*
X76200000Y-75565000D03*
D21*
X55880000Y-78105000D03*
D20*
X55880000Y-73025000D03*
X76200000Y-85725000D03*
X76200000Y-65405000D03*
D22*
X74930000Y-47625000D03*
X74930000Y-53975000D03*
D16*
G36*
X63974505Y-60386204D02*
G01*
X63998773Y-60389804D01*
X64022572Y-60395765D01*
X64045671Y-60404030D01*
X64067850Y-60414520D01*
X64088893Y-60427132D01*
X64108599Y-60441747D01*
X64126777Y-60458223D01*
X64143253Y-60476401D01*
X64157868Y-60496107D01*
X64170480Y-60517150D01*
X64180970Y-60539329D01*
X64189235Y-60562428D01*
X64195196Y-60586227D01*
X64198796Y-60610495D01*
X64200000Y-60634999D01*
X64200000Y-61285001D01*
X64198796Y-61309505D01*
X64195196Y-61333773D01*
X64189235Y-61357572D01*
X64180970Y-61380671D01*
X64170480Y-61402850D01*
X64157868Y-61423893D01*
X64143253Y-61443599D01*
X64126777Y-61461777D01*
X64108599Y-61478253D01*
X64088893Y-61492868D01*
X64067850Y-61505480D01*
X64045671Y-61515970D01*
X64022572Y-61524235D01*
X63998773Y-61530196D01*
X63974505Y-61533796D01*
X63950001Y-61535000D01*
X63049999Y-61535000D01*
X63025495Y-61533796D01*
X63001227Y-61530196D01*
X62977428Y-61524235D01*
X62954329Y-61515970D01*
X62932150Y-61505480D01*
X62911107Y-61492868D01*
X62891401Y-61478253D01*
X62873223Y-61461777D01*
X62856747Y-61443599D01*
X62842132Y-61423893D01*
X62829520Y-61402850D01*
X62819030Y-61380671D01*
X62810765Y-61357572D01*
X62804804Y-61333773D01*
X62801204Y-61309505D01*
X62800000Y-61285001D01*
X62800000Y-60634999D01*
X62801204Y-60610495D01*
X62804804Y-60586227D01*
X62810765Y-60562428D01*
X62819030Y-60539329D01*
X62829520Y-60517150D01*
X62842132Y-60496107D01*
X62856747Y-60476401D01*
X62873223Y-60458223D01*
X62891401Y-60441747D01*
X62911107Y-60427132D01*
X62932150Y-60414520D01*
X62954329Y-60404030D01*
X62977428Y-60395765D01*
X63001227Y-60389804D01*
X63025495Y-60386204D01*
X63049999Y-60385000D01*
X63950001Y-60385000D01*
X63974505Y-60386204D01*
X63974505Y-60386204D01*
G37*
D17*
X63500000Y-60960000D03*
D16*
G36*
X63974505Y-58336204D02*
G01*
X63998773Y-58339804D01*
X64022572Y-58345765D01*
X64045671Y-58354030D01*
X64067850Y-58364520D01*
X64088893Y-58377132D01*
X64108599Y-58391747D01*
X64126777Y-58408223D01*
X64143253Y-58426401D01*
X64157868Y-58446107D01*
X64170480Y-58467150D01*
X64180970Y-58489329D01*
X64189235Y-58512428D01*
X64195196Y-58536227D01*
X64198796Y-58560495D01*
X64200000Y-58584999D01*
X64200000Y-59235001D01*
X64198796Y-59259505D01*
X64195196Y-59283773D01*
X64189235Y-59307572D01*
X64180970Y-59330671D01*
X64170480Y-59352850D01*
X64157868Y-59373893D01*
X64143253Y-59393599D01*
X64126777Y-59411777D01*
X64108599Y-59428253D01*
X64088893Y-59442868D01*
X64067850Y-59455480D01*
X64045671Y-59465970D01*
X64022572Y-59474235D01*
X63998773Y-59480196D01*
X63974505Y-59483796D01*
X63950001Y-59485000D01*
X63049999Y-59485000D01*
X63025495Y-59483796D01*
X63001227Y-59480196D01*
X62977428Y-59474235D01*
X62954329Y-59465970D01*
X62932150Y-59455480D01*
X62911107Y-59442868D01*
X62891401Y-59428253D01*
X62873223Y-59411777D01*
X62856747Y-59393599D01*
X62842132Y-59373893D01*
X62829520Y-59352850D01*
X62819030Y-59330671D01*
X62810765Y-59307572D01*
X62804804Y-59283773D01*
X62801204Y-59259505D01*
X62800000Y-59235001D01*
X62800000Y-58584999D01*
X62801204Y-58560495D01*
X62804804Y-58536227D01*
X62810765Y-58512428D01*
X62819030Y-58489329D01*
X62829520Y-58467150D01*
X62842132Y-58446107D01*
X62856747Y-58426401D01*
X62873223Y-58408223D01*
X62891401Y-58391747D01*
X62911107Y-58377132D01*
X62932150Y-58364520D01*
X62954329Y-58354030D01*
X62977428Y-58345765D01*
X63001227Y-58339804D01*
X63025495Y-58336204D01*
X63049999Y-58335000D01*
X63950001Y-58335000D01*
X63974505Y-58336204D01*
X63974505Y-58336204D01*
G37*
D17*
X63500000Y-58910000D03*
D16*
G36*
X65899505Y-55181204D02*
G01*
X65923773Y-55184804D01*
X65947572Y-55190765D01*
X65970671Y-55199030D01*
X65992850Y-55209520D01*
X66013893Y-55222132D01*
X66033599Y-55236747D01*
X66051777Y-55253223D01*
X66068253Y-55271401D01*
X66082868Y-55291107D01*
X66095480Y-55312150D01*
X66105970Y-55334329D01*
X66114235Y-55357428D01*
X66120196Y-55381227D01*
X66123796Y-55405495D01*
X66125000Y-55429999D01*
X66125000Y-56330001D01*
X66123796Y-56354505D01*
X66120196Y-56378773D01*
X66114235Y-56402572D01*
X66105970Y-56425671D01*
X66095480Y-56447850D01*
X66082868Y-56468893D01*
X66068253Y-56488599D01*
X66051777Y-56506777D01*
X66033599Y-56523253D01*
X66013893Y-56537868D01*
X65992850Y-56550480D01*
X65970671Y-56560970D01*
X65947572Y-56569235D01*
X65923773Y-56575196D01*
X65899505Y-56578796D01*
X65875001Y-56580000D01*
X65224999Y-56580000D01*
X65200495Y-56578796D01*
X65176227Y-56575196D01*
X65152428Y-56569235D01*
X65129329Y-56560970D01*
X65107150Y-56550480D01*
X65086107Y-56537868D01*
X65066401Y-56523253D01*
X65048223Y-56506777D01*
X65031747Y-56488599D01*
X65017132Y-56468893D01*
X65004520Y-56447850D01*
X64994030Y-56425671D01*
X64985765Y-56402572D01*
X64979804Y-56378773D01*
X64976204Y-56354505D01*
X64975000Y-56330001D01*
X64975000Y-55429999D01*
X64976204Y-55405495D01*
X64979804Y-55381227D01*
X64985765Y-55357428D01*
X64994030Y-55334329D01*
X65004520Y-55312150D01*
X65017132Y-55291107D01*
X65031747Y-55271401D01*
X65048223Y-55253223D01*
X65066401Y-55236747D01*
X65086107Y-55222132D01*
X65107150Y-55209520D01*
X65129329Y-55199030D01*
X65152428Y-55190765D01*
X65176227Y-55184804D01*
X65200495Y-55181204D01*
X65224999Y-55180000D01*
X65875001Y-55180000D01*
X65899505Y-55181204D01*
X65899505Y-55181204D01*
G37*
D17*
X65550000Y-55880000D03*
D16*
G36*
X63849505Y-55181204D02*
G01*
X63873773Y-55184804D01*
X63897572Y-55190765D01*
X63920671Y-55199030D01*
X63942850Y-55209520D01*
X63963893Y-55222132D01*
X63983599Y-55236747D01*
X64001777Y-55253223D01*
X64018253Y-55271401D01*
X64032868Y-55291107D01*
X64045480Y-55312150D01*
X64055970Y-55334329D01*
X64064235Y-55357428D01*
X64070196Y-55381227D01*
X64073796Y-55405495D01*
X64075000Y-55429999D01*
X64075000Y-56330001D01*
X64073796Y-56354505D01*
X64070196Y-56378773D01*
X64064235Y-56402572D01*
X64055970Y-56425671D01*
X64045480Y-56447850D01*
X64032868Y-56468893D01*
X64018253Y-56488599D01*
X64001777Y-56506777D01*
X63983599Y-56523253D01*
X63963893Y-56537868D01*
X63942850Y-56550480D01*
X63920671Y-56560970D01*
X63897572Y-56569235D01*
X63873773Y-56575196D01*
X63849505Y-56578796D01*
X63825001Y-56580000D01*
X63174999Y-56580000D01*
X63150495Y-56578796D01*
X63126227Y-56575196D01*
X63102428Y-56569235D01*
X63079329Y-56560970D01*
X63057150Y-56550480D01*
X63036107Y-56537868D01*
X63016401Y-56523253D01*
X62998223Y-56506777D01*
X62981747Y-56488599D01*
X62967132Y-56468893D01*
X62954520Y-56447850D01*
X62944030Y-56425671D01*
X62935765Y-56402572D01*
X62929804Y-56378773D01*
X62926204Y-56354505D01*
X62925000Y-56330001D01*
X62925000Y-55429999D01*
X62926204Y-55405495D01*
X62929804Y-55381227D01*
X62935765Y-55357428D01*
X62944030Y-55334329D01*
X62954520Y-55312150D01*
X62967132Y-55291107D01*
X62981747Y-55271401D01*
X62998223Y-55253223D01*
X63016401Y-55236747D01*
X63036107Y-55222132D01*
X63057150Y-55209520D01*
X63079329Y-55199030D01*
X63102428Y-55190765D01*
X63126227Y-55184804D01*
X63150495Y-55181204D01*
X63174999Y-55180000D01*
X63825001Y-55180000D01*
X63849505Y-55181204D01*
X63849505Y-55181204D01*
G37*
D17*
X63500000Y-55880000D03*
D16*
G36*
X35870779Y-78266144D02*
G01*
X35893834Y-78269563D01*
X35916443Y-78275227D01*
X35938387Y-78283079D01*
X35959457Y-78293044D01*
X35979448Y-78305026D01*
X35998168Y-78318910D01*
X36015438Y-78334562D01*
X36031090Y-78351832D01*
X36044974Y-78370552D01*
X36056956Y-78390543D01*
X36066921Y-78411613D01*
X36074773Y-78433557D01*
X36080437Y-78456166D01*
X36083856Y-78479221D01*
X36085000Y-78502500D01*
X36085000Y-78977500D01*
X36083856Y-79000779D01*
X36080437Y-79023834D01*
X36074773Y-79046443D01*
X36066921Y-79068387D01*
X36056956Y-79089457D01*
X36044974Y-79109448D01*
X36031090Y-79128168D01*
X36015438Y-79145438D01*
X35998168Y-79161090D01*
X35979448Y-79174974D01*
X35959457Y-79186956D01*
X35938387Y-79196921D01*
X35916443Y-79204773D01*
X35893834Y-79210437D01*
X35870779Y-79213856D01*
X35847500Y-79215000D01*
X35272500Y-79215000D01*
X35249221Y-79213856D01*
X35226166Y-79210437D01*
X35203557Y-79204773D01*
X35181613Y-79196921D01*
X35160543Y-79186956D01*
X35140552Y-79174974D01*
X35121832Y-79161090D01*
X35104562Y-79145438D01*
X35088910Y-79128168D01*
X35075026Y-79109448D01*
X35063044Y-79089457D01*
X35053079Y-79068387D01*
X35045227Y-79046443D01*
X35039563Y-79023834D01*
X35036144Y-79000779D01*
X35035000Y-78977500D01*
X35035000Y-78502500D01*
X35036144Y-78479221D01*
X35039563Y-78456166D01*
X35045227Y-78433557D01*
X35053079Y-78411613D01*
X35063044Y-78390543D01*
X35075026Y-78370552D01*
X35088910Y-78351832D01*
X35104562Y-78334562D01*
X35121832Y-78318910D01*
X35140552Y-78305026D01*
X35160543Y-78293044D01*
X35181613Y-78283079D01*
X35203557Y-78275227D01*
X35226166Y-78269563D01*
X35249221Y-78266144D01*
X35272500Y-78265000D01*
X35847500Y-78265000D01*
X35870779Y-78266144D01*
X35870779Y-78266144D01*
G37*
D19*
X35560000Y-78740000D03*
D16*
G36*
X34120779Y-78266144D02*
G01*
X34143834Y-78269563D01*
X34166443Y-78275227D01*
X34188387Y-78283079D01*
X34209457Y-78293044D01*
X34229448Y-78305026D01*
X34248168Y-78318910D01*
X34265438Y-78334562D01*
X34281090Y-78351832D01*
X34294974Y-78370552D01*
X34306956Y-78390543D01*
X34316921Y-78411613D01*
X34324773Y-78433557D01*
X34330437Y-78456166D01*
X34333856Y-78479221D01*
X34335000Y-78502500D01*
X34335000Y-78977500D01*
X34333856Y-79000779D01*
X34330437Y-79023834D01*
X34324773Y-79046443D01*
X34316921Y-79068387D01*
X34306956Y-79089457D01*
X34294974Y-79109448D01*
X34281090Y-79128168D01*
X34265438Y-79145438D01*
X34248168Y-79161090D01*
X34229448Y-79174974D01*
X34209457Y-79186956D01*
X34188387Y-79196921D01*
X34166443Y-79204773D01*
X34143834Y-79210437D01*
X34120779Y-79213856D01*
X34097500Y-79215000D01*
X33522500Y-79215000D01*
X33499221Y-79213856D01*
X33476166Y-79210437D01*
X33453557Y-79204773D01*
X33431613Y-79196921D01*
X33410543Y-79186956D01*
X33390552Y-79174974D01*
X33371832Y-79161090D01*
X33354562Y-79145438D01*
X33338910Y-79128168D01*
X33325026Y-79109448D01*
X33313044Y-79089457D01*
X33303079Y-79068387D01*
X33295227Y-79046443D01*
X33289563Y-79023834D01*
X33286144Y-79000779D01*
X33285000Y-78977500D01*
X33285000Y-78502500D01*
X33286144Y-78479221D01*
X33289563Y-78456166D01*
X33295227Y-78433557D01*
X33303079Y-78411613D01*
X33313044Y-78390543D01*
X33325026Y-78370552D01*
X33338910Y-78351832D01*
X33354562Y-78334562D01*
X33371832Y-78318910D01*
X33390552Y-78305026D01*
X33410543Y-78293044D01*
X33431613Y-78283079D01*
X33453557Y-78275227D01*
X33476166Y-78269563D01*
X33499221Y-78266144D01*
X33522500Y-78265000D01*
X34097500Y-78265000D01*
X34120779Y-78266144D01*
X34120779Y-78266144D01*
G37*
D19*
X33810000Y-78740000D03*
D16*
G36*
X36054505Y-75501204D02*
G01*
X36078773Y-75504804D01*
X36102572Y-75510765D01*
X36125671Y-75519030D01*
X36147850Y-75529520D01*
X36168893Y-75542132D01*
X36188599Y-75556747D01*
X36206777Y-75573223D01*
X36223253Y-75591401D01*
X36237868Y-75611107D01*
X36250480Y-75632150D01*
X36260970Y-75654329D01*
X36269235Y-75677428D01*
X36275196Y-75701227D01*
X36278796Y-75725495D01*
X36280000Y-75749999D01*
X36280000Y-76650001D01*
X36278796Y-76674505D01*
X36275196Y-76698773D01*
X36269235Y-76722572D01*
X36260970Y-76745671D01*
X36250480Y-76767850D01*
X36237868Y-76788893D01*
X36223253Y-76808599D01*
X36206777Y-76826777D01*
X36188599Y-76843253D01*
X36168893Y-76857868D01*
X36147850Y-76870480D01*
X36125671Y-76880970D01*
X36102572Y-76889235D01*
X36078773Y-76895196D01*
X36054505Y-76898796D01*
X36030001Y-76900000D01*
X35379999Y-76900000D01*
X35355495Y-76898796D01*
X35331227Y-76895196D01*
X35307428Y-76889235D01*
X35284329Y-76880970D01*
X35262150Y-76870480D01*
X35241107Y-76857868D01*
X35221401Y-76843253D01*
X35203223Y-76826777D01*
X35186747Y-76808599D01*
X35172132Y-76788893D01*
X35159520Y-76767850D01*
X35149030Y-76745671D01*
X35140765Y-76722572D01*
X35134804Y-76698773D01*
X35131204Y-76674505D01*
X35130000Y-76650001D01*
X35130000Y-75749999D01*
X35131204Y-75725495D01*
X35134804Y-75701227D01*
X35140765Y-75677428D01*
X35149030Y-75654329D01*
X35159520Y-75632150D01*
X35172132Y-75611107D01*
X35186747Y-75591401D01*
X35203223Y-75573223D01*
X35221401Y-75556747D01*
X35241107Y-75542132D01*
X35262150Y-75529520D01*
X35284329Y-75519030D01*
X35307428Y-75510765D01*
X35331227Y-75504804D01*
X35355495Y-75501204D01*
X35379999Y-75500000D01*
X36030001Y-75500000D01*
X36054505Y-75501204D01*
X36054505Y-75501204D01*
G37*
D17*
X35705000Y-76200000D03*
D16*
G36*
X34004505Y-75501204D02*
G01*
X34028773Y-75504804D01*
X34052572Y-75510765D01*
X34075671Y-75519030D01*
X34097850Y-75529520D01*
X34118893Y-75542132D01*
X34138599Y-75556747D01*
X34156777Y-75573223D01*
X34173253Y-75591401D01*
X34187868Y-75611107D01*
X34200480Y-75632150D01*
X34210970Y-75654329D01*
X34219235Y-75677428D01*
X34225196Y-75701227D01*
X34228796Y-75725495D01*
X34230000Y-75749999D01*
X34230000Y-76650001D01*
X34228796Y-76674505D01*
X34225196Y-76698773D01*
X34219235Y-76722572D01*
X34210970Y-76745671D01*
X34200480Y-76767850D01*
X34187868Y-76788893D01*
X34173253Y-76808599D01*
X34156777Y-76826777D01*
X34138599Y-76843253D01*
X34118893Y-76857868D01*
X34097850Y-76870480D01*
X34075671Y-76880970D01*
X34052572Y-76889235D01*
X34028773Y-76895196D01*
X34004505Y-76898796D01*
X33980001Y-76900000D01*
X33329999Y-76900000D01*
X33305495Y-76898796D01*
X33281227Y-76895196D01*
X33257428Y-76889235D01*
X33234329Y-76880970D01*
X33212150Y-76870480D01*
X33191107Y-76857868D01*
X33171401Y-76843253D01*
X33153223Y-76826777D01*
X33136747Y-76808599D01*
X33122132Y-76788893D01*
X33109520Y-76767850D01*
X33099030Y-76745671D01*
X33090765Y-76722572D01*
X33084804Y-76698773D01*
X33081204Y-76674505D01*
X33080000Y-76650001D01*
X33080000Y-75749999D01*
X33081204Y-75725495D01*
X33084804Y-75701227D01*
X33090765Y-75677428D01*
X33099030Y-75654329D01*
X33109520Y-75632150D01*
X33122132Y-75611107D01*
X33136747Y-75591401D01*
X33153223Y-75573223D01*
X33171401Y-75556747D01*
X33191107Y-75542132D01*
X33212150Y-75529520D01*
X33234329Y-75519030D01*
X33257428Y-75510765D01*
X33281227Y-75504804D01*
X33305495Y-75501204D01*
X33329999Y-75500000D01*
X33980001Y-75500000D01*
X34004505Y-75501204D01*
X34004505Y-75501204D01*
G37*
D17*
X33655000Y-76200000D03*
D23*
X33100000Y-91000000D03*
X38100000Y-91000000D03*
D16*
G36*
X60164505Y-58336204D02*
G01*
X60188773Y-58339804D01*
X60212572Y-58345765D01*
X60235671Y-58354030D01*
X60257850Y-58364520D01*
X60278893Y-58377132D01*
X60298599Y-58391747D01*
X60316777Y-58408223D01*
X60333253Y-58426401D01*
X60347868Y-58446107D01*
X60360480Y-58467150D01*
X60370970Y-58489329D01*
X60379235Y-58512428D01*
X60385196Y-58536227D01*
X60388796Y-58560495D01*
X60390000Y-58584999D01*
X60390000Y-59235001D01*
X60388796Y-59259505D01*
X60385196Y-59283773D01*
X60379235Y-59307572D01*
X60370970Y-59330671D01*
X60360480Y-59352850D01*
X60347868Y-59373893D01*
X60333253Y-59393599D01*
X60316777Y-59411777D01*
X60298599Y-59428253D01*
X60278893Y-59442868D01*
X60257850Y-59455480D01*
X60235671Y-59465970D01*
X60212572Y-59474235D01*
X60188773Y-59480196D01*
X60164505Y-59483796D01*
X60140001Y-59485000D01*
X59239999Y-59485000D01*
X59215495Y-59483796D01*
X59191227Y-59480196D01*
X59167428Y-59474235D01*
X59144329Y-59465970D01*
X59122150Y-59455480D01*
X59101107Y-59442868D01*
X59081401Y-59428253D01*
X59063223Y-59411777D01*
X59046747Y-59393599D01*
X59032132Y-59373893D01*
X59019520Y-59352850D01*
X59009030Y-59330671D01*
X59000765Y-59307572D01*
X58994804Y-59283773D01*
X58991204Y-59259505D01*
X58990000Y-59235001D01*
X58990000Y-58584999D01*
X58991204Y-58560495D01*
X58994804Y-58536227D01*
X59000765Y-58512428D01*
X59009030Y-58489329D01*
X59019520Y-58467150D01*
X59032132Y-58446107D01*
X59046747Y-58426401D01*
X59063223Y-58408223D01*
X59081401Y-58391747D01*
X59101107Y-58377132D01*
X59122150Y-58364520D01*
X59144329Y-58354030D01*
X59167428Y-58345765D01*
X59191227Y-58339804D01*
X59215495Y-58336204D01*
X59239999Y-58335000D01*
X60140001Y-58335000D01*
X60164505Y-58336204D01*
X60164505Y-58336204D01*
G37*
D17*
X59690000Y-58910000D03*
D16*
G36*
X60164505Y-60386204D02*
G01*
X60188773Y-60389804D01*
X60212572Y-60395765D01*
X60235671Y-60404030D01*
X60257850Y-60414520D01*
X60278893Y-60427132D01*
X60298599Y-60441747D01*
X60316777Y-60458223D01*
X60333253Y-60476401D01*
X60347868Y-60496107D01*
X60360480Y-60517150D01*
X60370970Y-60539329D01*
X60379235Y-60562428D01*
X60385196Y-60586227D01*
X60388796Y-60610495D01*
X60390000Y-60634999D01*
X60390000Y-61285001D01*
X60388796Y-61309505D01*
X60385196Y-61333773D01*
X60379235Y-61357572D01*
X60370970Y-61380671D01*
X60360480Y-61402850D01*
X60347868Y-61423893D01*
X60333253Y-61443599D01*
X60316777Y-61461777D01*
X60298599Y-61478253D01*
X60278893Y-61492868D01*
X60257850Y-61505480D01*
X60235671Y-61515970D01*
X60212572Y-61524235D01*
X60188773Y-61530196D01*
X60164505Y-61533796D01*
X60140001Y-61535000D01*
X59239999Y-61535000D01*
X59215495Y-61533796D01*
X59191227Y-61530196D01*
X59167428Y-61524235D01*
X59144329Y-61515970D01*
X59122150Y-61505480D01*
X59101107Y-61492868D01*
X59081401Y-61478253D01*
X59063223Y-61461777D01*
X59046747Y-61443599D01*
X59032132Y-61423893D01*
X59019520Y-61402850D01*
X59009030Y-61380671D01*
X59000765Y-61357572D01*
X58994804Y-61333773D01*
X58991204Y-61309505D01*
X58990000Y-61285001D01*
X58990000Y-60634999D01*
X58991204Y-60610495D01*
X58994804Y-60586227D01*
X59000765Y-60562428D01*
X59009030Y-60539329D01*
X59019520Y-60517150D01*
X59032132Y-60496107D01*
X59046747Y-60476401D01*
X59063223Y-60458223D01*
X59081401Y-60441747D01*
X59101107Y-60427132D01*
X59122150Y-60414520D01*
X59144329Y-60404030D01*
X59167428Y-60395765D01*
X59191227Y-60389804D01*
X59215495Y-60386204D01*
X59239999Y-60385000D01*
X60140001Y-60385000D01*
X60164505Y-60386204D01*
X60164505Y-60386204D01*
G37*
D17*
X59690000Y-60960000D03*
D16*
G36*
X58894505Y-104346204D02*
G01*
X58918773Y-104349804D01*
X58942572Y-104355765D01*
X58965671Y-104364030D01*
X58987850Y-104374520D01*
X59008893Y-104387132D01*
X59028599Y-104401747D01*
X59046777Y-104418223D01*
X59063253Y-104436401D01*
X59077868Y-104456107D01*
X59090480Y-104477150D01*
X59100970Y-104499329D01*
X59109235Y-104522428D01*
X59115196Y-104546227D01*
X59118796Y-104570495D01*
X59120000Y-104594999D01*
X59120000Y-105245001D01*
X59118796Y-105269505D01*
X59115196Y-105293773D01*
X59109235Y-105317572D01*
X59100970Y-105340671D01*
X59090480Y-105362850D01*
X59077868Y-105383893D01*
X59063253Y-105403599D01*
X59046777Y-105421777D01*
X59028599Y-105438253D01*
X59008893Y-105452868D01*
X58987850Y-105465480D01*
X58965671Y-105475970D01*
X58942572Y-105484235D01*
X58918773Y-105490196D01*
X58894505Y-105493796D01*
X58870001Y-105495000D01*
X57969999Y-105495000D01*
X57945495Y-105493796D01*
X57921227Y-105490196D01*
X57897428Y-105484235D01*
X57874329Y-105475970D01*
X57852150Y-105465480D01*
X57831107Y-105452868D01*
X57811401Y-105438253D01*
X57793223Y-105421777D01*
X57776747Y-105403599D01*
X57762132Y-105383893D01*
X57749520Y-105362850D01*
X57739030Y-105340671D01*
X57730765Y-105317572D01*
X57724804Y-105293773D01*
X57721204Y-105269505D01*
X57720000Y-105245001D01*
X57720000Y-104594999D01*
X57721204Y-104570495D01*
X57724804Y-104546227D01*
X57730765Y-104522428D01*
X57739030Y-104499329D01*
X57749520Y-104477150D01*
X57762132Y-104456107D01*
X57776747Y-104436401D01*
X57793223Y-104418223D01*
X57811401Y-104401747D01*
X57831107Y-104387132D01*
X57852150Y-104374520D01*
X57874329Y-104364030D01*
X57897428Y-104355765D01*
X57921227Y-104349804D01*
X57945495Y-104346204D01*
X57969999Y-104345000D01*
X58870001Y-104345000D01*
X58894505Y-104346204D01*
X58894505Y-104346204D01*
G37*
D17*
X58420000Y-104920000D03*
D16*
G36*
X58894505Y-102296204D02*
G01*
X58918773Y-102299804D01*
X58942572Y-102305765D01*
X58965671Y-102314030D01*
X58987850Y-102324520D01*
X59008893Y-102337132D01*
X59028599Y-102351747D01*
X59046777Y-102368223D01*
X59063253Y-102386401D01*
X59077868Y-102406107D01*
X59090480Y-102427150D01*
X59100970Y-102449329D01*
X59109235Y-102472428D01*
X59115196Y-102496227D01*
X59118796Y-102520495D01*
X59120000Y-102544999D01*
X59120000Y-103195001D01*
X59118796Y-103219505D01*
X59115196Y-103243773D01*
X59109235Y-103267572D01*
X59100970Y-103290671D01*
X59090480Y-103312850D01*
X59077868Y-103333893D01*
X59063253Y-103353599D01*
X59046777Y-103371777D01*
X59028599Y-103388253D01*
X59008893Y-103402868D01*
X58987850Y-103415480D01*
X58965671Y-103425970D01*
X58942572Y-103434235D01*
X58918773Y-103440196D01*
X58894505Y-103443796D01*
X58870001Y-103445000D01*
X57969999Y-103445000D01*
X57945495Y-103443796D01*
X57921227Y-103440196D01*
X57897428Y-103434235D01*
X57874329Y-103425970D01*
X57852150Y-103415480D01*
X57831107Y-103402868D01*
X57811401Y-103388253D01*
X57793223Y-103371777D01*
X57776747Y-103353599D01*
X57762132Y-103333893D01*
X57749520Y-103312850D01*
X57739030Y-103290671D01*
X57730765Y-103267572D01*
X57724804Y-103243773D01*
X57721204Y-103219505D01*
X57720000Y-103195001D01*
X57720000Y-102544999D01*
X57721204Y-102520495D01*
X57724804Y-102496227D01*
X57730765Y-102472428D01*
X57739030Y-102449329D01*
X57749520Y-102427150D01*
X57762132Y-102406107D01*
X57776747Y-102386401D01*
X57793223Y-102368223D01*
X57811401Y-102351747D01*
X57831107Y-102337132D01*
X57852150Y-102324520D01*
X57874329Y-102314030D01*
X57897428Y-102305765D01*
X57921227Y-102299804D01*
X57945495Y-102296204D01*
X57969999Y-102295000D01*
X58870001Y-102295000D01*
X58894505Y-102296204D01*
X58894505Y-102296204D01*
G37*
D17*
X58420000Y-102870000D03*
D16*
G36*
X54449505Y-97706204D02*
G01*
X54473773Y-97709804D01*
X54497572Y-97715765D01*
X54520671Y-97724030D01*
X54542850Y-97734520D01*
X54563893Y-97747132D01*
X54583599Y-97761747D01*
X54601777Y-97778223D01*
X54618253Y-97796401D01*
X54632868Y-97816107D01*
X54645480Y-97837150D01*
X54655970Y-97859329D01*
X54664235Y-97882428D01*
X54670196Y-97906227D01*
X54673796Y-97930495D01*
X54675000Y-97954999D01*
X54675000Y-98605001D01*
X54673796Y-98629505D01*
X54670196Y-98653773D01*
X54664235Y-98677572D01*
X54655970Y-98700671D01*
X54645480Y-98722850D01*
X54632868Y-98743893D01*
X54618253Y-98763599D01*
X54601777Y-98781777D01*
X54583599Y-98798253D01*
X54563893Y-98812868D01*
X54542850Y-98825480D01*
X54520671Y-98835970D01*
X54497572Y-98844235D01*
X54473773Y-98850196D01*
X54449505Y-98853796D01*
X54425001Y-98855000D01*
X53524999Y-98855000D01*
X53500495Y-98853796D01*
X53476227Y-98850196D01*
X53452428Y-98844235D01*
X53429329Y-98835970D01*
X53407150Y-98825480D01*
X53386107Y-98812868D01*
X53366401Y-98798253D01*
X53348223Y-98781777D01*
X53331747Y-98763599D01*
X53317132Y-98743893D01*
X53304520Y-98722850D01*
X53294030Y-98700671D01*
X53285765Y-98677572D01*
X53279804Y-98653773D01*
X53276204Y-98629505D01*
X53275000Y-98605001D01*
X53275000Y-97954999D01*
X53276204Y-97930495D01*
X53279804Y-97906227D01*
X53285765Y-97882428D01*
X53294030Y-97859329D01*
X53304520Y-97837150D01*
X53317132Y-97816107D01*
X53331747Y-97796401D01*
X53348223Y-97778223D01*
X53366401Y-97761747D01*
X53386107Y-97747132D01*
X53407150Y-97734520D01*
X53429329Y-97724030D01*
X53452428Y-97715765D01*
X53476227Y-97709804D01*
X53500495Y-97706204D01*
X53524999Y-97705000D01*
X54425001Y-97705000D01*
X54449505Y-97706204D01*
X54449505Y-97706204D01*
G37*
D17*
X53975000Y-98280000D03*
D16*
G36*
X54449505Y-99756204D02*
G01*
X54473773Y-99759804D01*
X54497572Y-99765765D01*
X54520671Y-99774030D01*
X54542850Y-99784520D01*
X54563893Y-99797132D01*
X54583599Y-99811747D01*
X54601777Y-99828223D01*
X54618253Y-99846401D01*
X54632868Y-99866107D01*
X54645480Y-99887150D01*
X54655970Y-99909329D01*
X54664235Y-99932428D01*
X54670196Y-99956227D01*
X54673796Y-99980495D01*
X54675000Y-100004999D01*
X54675000Y-100655001D01*
X54673796Y-100679505D01*
X54670196Y-100703773D01*
X54664235Y-100727572D01*
X54655970Y-100750671D01*
X54645480Y-100772850D01*
X54632868Y-100793893D01*
X54618253Y-100813599D01*
X54601777Y-100831777D01*
X54583599Y-100848253D01*
X54563893Y-100862868D01*
X54542850Y-100875480D01*
X54520671Y-100885970D01*
X54497572Y-100894235D01*
X54473773Y-100900196D01*
X54449505Y-100903796D01*
X54425001Y-100905000D01*
X53524999Y-100905000D01*
X53500495Y-100903796D01*
X53476227Y-100900196D01*
X53452428Y-100894235D01*
X53429329Y-100885970D01*
X53407150Y-100875480D01*
X53386107Y-100862868D01*
X53366401Y-100848253D01*
X53348223Y-100831777D01*
X53331747Y-100813599D01*
X53317132Y-100793893D01*
X53304520Y-100772850D01*
X53294030Y-100750671D01*
X53285765Y-100727572D01*
X53279804Y-100703773D01*
X53276204Y-100679505D01*
X53275000Y-100655001D01*
X53275000Y-100004999D01*
X53276204Y-99980495D01*
X53279804Y-99956227D01*
X53285765Y-99932428D01*
X53294030Y-99909329D01*
X53304520Y-99887150D01*
X53317132Y-99866107D01*
X53331747Y-99846401D01*
X53348223Y-99828223D01*
X53366401Y-99811747D01*
X53386107Y-99797132D01*
X53407150Y-99784520D01*
X53429329Y-99774030D01*
X53452428Y-99765765D01*
X53476227Y-99759804D01*
X53500495Y-99756204D01*
X53524999Y-99755000D01*
X54425001Y-99755000D01*
X54449505Y-99756204D01*
X54449505Y-99756204D01*
G37*
D17*
X53975000Y-100330000D03*
D18*
X52070000Y-110490000D03*
X59020000Y-110490000D03*
D24*
X35560000Y-45085000D03*
D25*
X40560000Y-45085000D03*
D24*
X35005000Y-111760000D03*
D25*
X40005000Y-111760000D03*
D24*
X49610000Y-118745000D03*
D25*
X54610000Y-118745000D03*
D24*
X35560000Y-38100000D03*
D25*
X40560000Y-38100000D03*
D24*
X64215000Y-118745000D03*
D25*
X69215000Y-118745000D03*
D24*
X35005000Y-118745000D03*
D25*
X40005000Y-118745000D03*
D24*
X50800000Y-38100000D03*
D25*
X55800000Y-38100000D03*
D11*
X48815000Y-59055000D03*
D26*
X43815000Y-59055000D03*
D11*
X48815000Y-84455000D03*
D26*
X43815000Y-84455000D03*
D11*
X48815000Y-71755000D03*
D26*
X43815000Y-71755000D03*
D11*
X48815000Y-97155000D03*
D26*
X43815000Y-97155000D03*
D16*
G36*
X55084505Y-58336204D02*
G01*
X55108773Y-58339804D01*
X55132572Y-58345765D01*
X55155671Y-58354030D01*
X55177850Y-58364520D01*
X55198893Y-58377132D01*
X55218599Y-58391747D01*
X55236777Y-58408223D01*
X55253253Y-58426401D01*
X55267868Y-58446107D01*
X55280480Y-58467150D01*
X55290970Y-58489329D01*
X55299235Y-58512428D01*
X55305196Y-58536227D01*
X55308796Y-58560495D01*
X55310000Y-58584999D01*
X55310000Y-59235001D01*
X55308796Y-59259505D01*
X55305196Y-59283773D01*
X55299235Y-59307572D01*
X55290970Y-59330671D01*
X55280480Y-59352850D01*
X55267868Y-59373893D01*
X55253253Y-59393599D01*
X55236777Y-59411777D01*
X55218599Y-59428253D01*
X55198893Y-59442868D01*
X55177850Y-59455480D01*
X55155671Y-59465970D01*
X55132572Y-59474235D01*
X55108773Y-59480196D01*
X55084505Y-59483796D01*
X55060001Y-59485000D01*
X54159999Y-59485000D01*
X54135495Y-59483796D01*
X54111227Y-59480196D01*
X54087428Y-59474235D01*
X54064329Y-59465970D01*
X54042150Y-59455480D01*
X54021107Y-59442868D01*
X54001401Y-59428253D01*
X53983223Y-59411777D01*
X53966747Y-59393599D01*
X53952132Y-59373893D01*
X53939520Y-59352850D01*
X53929030Y-59330671D01*
X53920765Y-59307572D01*
X53914804Y-59283773D01*
X53911204Y-59259505D01*
X53910000Y-59235001D01*
X53910000Y-58584999D01*
X53911204Y-58560495D01*
X53914804Y-58536227D01*
X53920765Y-58512428D01*
X53929030Y-58489329D01*
X53939520Y-58467150D01*
X53952132Y-58446107D01*
X53966747Y-58426401D01*
X53983223Y-58408223D01*
X54001401Y-58391747D01*
X54021107Y-58377132D01*
X54042150Y-58364520D01*
X54064329Y-58354030D01*
X54087428Y-58345765D01*
X54111227Y-58339804D01*
X54135495Y-58336204D01*
X54159999Y-58335000D01*
X55060001Y-58335000D01*
X55084505Y-58336204D01*
X55084505Y-58336204D01*
G37*
D17*
X54610000Y-58910000D03*
D16*
G36*
X55084505Y-60386204D02*
G01*
X55108773Y-60389804D01*
X55132572Y-60395765D01*
X55155671Y-60404030D01*
X55177850Y-60414520D01*
X55198893Y-60427132D01*
X55218599Y-60441747D01*
X55236777Y-60458223D01*
X55253253Y-60476401D01*
X55267868Y-60496107D01*
X55280480Y-60517150D01*
X55290970Y-60539329D01*
X55299235Y-60562428D01*
X55305196Y-60586227D01*
X55308796Y-60610495D01*
X55310000Y-60634999D01*
X55310000Y-61285001D01*
X55308796Y-61309505D01*
X55305196Y-61333773D01*
X55299235Y-61357572D01*
X55290970Y-61380671D01*
X55280480Y-61402850D01*
X55267868Y-61423893D01*
X55253253Y-61443599D01*
X55236777Y-61461777D01*
X55218599Y-61478253D01*
X55198893Y-61492868D01*
X55177850Y-61505480D01*
X55155671Y-61515970D01*
X55132572Y-61524235D01*
X55108773Y-61530196D01*
X55084505Y-61533796D01*
X55060001Y-61535000D01*
X54159999Y-61535000D01*
X54135495Y-61533796D01*
X54111227Y-61530196D01*
X54087428Y-61524235D01*
X54064329Y-61515970D01*
X54042150Y-61505480D01*
X54021107Y-61492868D01*
X54001401Y-61478253D01*
X53983223Y-61461777D01*
X53966747Y-61443599D01*
X53952132Y-61423893D01*
X53939520Y-61402850D01*
X53929030Y-61380671D01*
X53920765Y-61357572D01*
X53914804Y-61333773D01*
X53911204Y-61309505D01*
X53910000Y-61285001D01*
X53910000Y-60634999D01*
X53911204Y-60610495D01*
X53914804Y-60586227D01*
X53920765Y-60562428D01*
X53929030Y-60539329D01*
X53939520Y-60517150D01*
X53952132Y-60496107D01*
X53966747Y-60476401D01*
X53983223Y-60458223D01*
X54001401Y-60441747D01*
X54021107Y-60427132D01*
X54042150Y-60414520D01*
X54064329Y-60404030D01*
X54087428Y-60395765D01*
X54111227Y-60389804D01*
X54135495Y-60386204D01*
X54159999Y-60385000D01*
X55060001Y-60385000D01*
X55084505Y-60386204D01*
X55084505Y-60386204D01*
G37*
D17*
X54610000Y-60960000D03*
D16*
G36*
X54324505Y-102171204D02*
G01*
X54348773Y-102174804D01*
X54372572Y-102180765D01*
X54395671Y-102189030D01*
X54417850Y-102199520D01*
X54438893Y-102212132D01*
X54458599Y-102226747D01*
X54476777Y-102243223D01*
X54493253Y-102261401D01*
X54507868Y-102281107D01*
X54520480Y-102302150D01*
X54530970Y-102324329D01*
X54539235Y-102347428D01*
X54545196Y-102371227D01*
X54548796Y-102395495D01*
X54550000Y-102419999D01*
X54550000Y-103320001D01*
X54548796Y-103344505D01*
X54545196Y-103368773D01*
X54539235Y-103392572D01*
X54530970Y-103415671D01*
X54520480Y-103437850D01*
X54507868Y-103458893D01*
X54493253Y-103478599D01*
X54476777Y-103496777D01*
X54458599Y-103513253D01*
X54438893Y-103527868D01*
X54417850Y-103540480D01*
X54395671Y-103550970D01*
X54372572Y-103559235D01*
X54348773Y-103565196D01*
X54324505Y-103568796D01*
X54300001Y-103570000D01*
X53649999Y-103570000D01*
X53625495Y-103568796D01*
X53601227Y-103565196D01*
X53577428Y-103559235D01*
X53554329Y-103550970D01*
X53532150Y-103540480D01*
X53511107Y-103527868D01*
X53491401Y-103513253D01*
X53473223Y-103496777D01*
X53456747Y-103478599D01*
X53442132Y-103458893D01*
X53429520Y-103437850D01*
X53419030Y-103415671D01*
X53410765Y-103392572D01*
X53404804Y-103368773D01*
X53401204Y-103344505D01*
X53400000Y-103320001D01*
X53400000Y-102419999D01*
X53401204Y-102395495D01*
X53404804Y-102371227D01*
X53410765Y-102347428D01*
X53419030Y-102324329D01*
X53429520Y-102302150D01*
X53442132Y-102281107D01*
X53456747Y-102261401D01*
X53473223Y-102243223D01*
X53491401Y-102226747D01*
X53511107Y-102212132D01*
X53532150Y-102199520D01*
X53554329Y-102189030D01*
X53577428Y-102180765D01*
X53601227Y-102174804D01*
X53625495Y-102171204D01*
X53649999Y-102170000D01*
X54300001Y-102170000D01*
X54324505Y-102171204D01*
X54324505Y-102171204D01*
G37*
D17*
X53975000Y-102870000D03*
D16*
G36*
X56374505Y-102171204D02*
G01*
X56398773Y-102174804D01*
X56422572Y-102180765D01*
X56445671Y-102189030D01*
X56467850Y-102199520D01*
X56488893Y-102212132D01*
X56508599Y-102226747D01*
X56526777Y-102243223D01*
X56543253Y-102261401D01*
X56557868Y-102281107D01*
X56570480Y-102302150D01*
X56580970Y-102324329D01*
X56589235Y-102347428D01*
X56595196Y-102371227D01*
X56598796Y-102395495D01*
X56600000Y-102419999D01*
X56600000Y-103320001D01*
X56598796Y-103344505D01*
X56595196Y-103368773D01*
X56589235Y-103392572D01*
X56580970Y-103415671D01*
X56570480Y-103437850D01*
X56557868Y-103458893D01*
X56543253Y-103478599D01*
X56526777Y-103496777D01*
X56508599Y-103513253D01*
X56488893Y-103527868D01*
X56467850Y-103540480D01*
X56445671Y-103550970D01*
X56422572Y-103559235D01*
X56398773Y-103565196D01*
X56374505Y-103568796D01*
X56350001Y-103570000D01*
X55699999Y-103570000D01*
X55675495Y-103568796D01*
X55651227Y-103565196D01*
X55627428Y-103559235D01*
X55604329Y-103550970D01*
X55582150Y-103540480D01*
X55561107Y-103527868D01*
X55541401Y-103513253D01*
X55523223Y-103496777D01*
X55506747Y-103478599D01*
X55492132Y-103458893D01*
X55479520Y-103437850D01*
X55469030Y-103415671D01*
X55460765Y-103392572D01*
X55454804Y-103368773D01*
X55451204Y-103344505D01*
X55450000Y-103320001D01*
X55450000Y-102419999D01*
X55451204Y-102395495D01*
X55454804Y-102371227D01*
X55460765Y-102347428D01*
X55469030Y-102324329D01*
X55479520Y-102302150D01*
X55492132Y-102281107D01*
X55506747Y-102261401D01*
X55523223Y-102243223D01*
X55541401Y-102226747D01*
X55561107Y-102212132D01*
X55582150Y-102199520D01*
X55604329Y-102189030D01*
X55627428Y-102180765D01*
X55651227Y-102174804D01*
X55675495Y-102171204D01*
X55699999Y-102170000D01*
X56350001Y-102170000D01*
X56374505Y-102171204D01*
X56374505Y-102171204D01*
G37*
D17*
X56025000Y-102870000D03*
D27*
X44704000Y-66040000D03*
X40132000Y-75946000D03*
X39878000Y-73914000D03*
X39878000Y-72136000D03*
X50419000Y-103251000D03*
X60325000Y-102235000D03*
X55118000Y-101473000D03*
X39751000Y-97536000D03*
X40513000Y-98298000D03*
X50165000Y-101473000D03*
D28*
X59690000Y-60960000D02*
X54610000Y-60960000D01*
X54610000Y-60960000D02*
X52070000Y-60960000D01*
X41275000Y-76835000D02*
X38494990Y-79615010D01*
X52070000Y-60960000D02*
X46990000Y-66040000D01*
X53980000Y-73025000D02*
X49530000Y-77475000D01*
X55880000Y-73025000D02*
X53980000Y-73025000D01*
X41915000Y-77475000D02*
X41275000Y-76835000D01*
X49530000Y-77475000D02*
X41915000Y-77475000D01*
X38100000Y-80010000D02*
X38100000Y-91000000D01*
X38494990Y-79615010D02*
X38100000Y-80010000D01*
X72310000Y-98425000D02*
X58420000Y-98425000D01*
X74850000Y-95885000D02*
X72310000Y-98425000D01*
X34309072Y-79239072D02*
X33810000Y-78740000D01*
X35588000Y-80518000D02*
X34309072Y-79239072D01*
X37592000Y-80518000D02*
X35588000Y-80518000D01*
X38494990Y-79615010D02*
X37592000Y-80518000D01*
X46990000Y-66040000D02*
X44704000Y-66040000D01*
X41021000Y-76835000D02*
X41275000Y-76835000D01*
X40132000Y-75946000D02*
X41021000Y-76835000D01*
X52070000Y-96520000D02*
X52070000Y-100965000D01*
X54737000Y-96520000D02*
X52070000Y-96520000D01*
X56642000Y-98425000D02*
X54737000Y-96520000D01*
X58420000Y-98425000D02*
X56642000Y-98425000D01*
X53975000Y-102870000D02*
X56025000Y-104920000D01*
X56025000Y-104920000D02*
X58420000Y-104920000D01*
X52070000Y-100965000D02*
X53975000Y-102870000D01*
X50419000Y-103251000D02*
X50818999Y-102851001D01*
X50818999Y-102851001D02*
X50818999Y-102216001D01*
X50818999Y-102216001D02*
X52070000Y-100965000D01*
D29*
X58420000Y-102870000D02*
X56025000Y-102870000D01*
X59055000Y-102235000D02*
X58420000Y-102870000D01*
X60325000Y-102235000D02*
X59055000Y-102235000D01*
X53975000Y-98280000D02*
X56025000Y-100330000D01*
X56025000Y-100330000D02*
X56025000Y-102870000D01*
D28*
X53975000Y-100330000D02*
X55118000Y-101473000D01*
X43434000Y-97536000D02*
X43815000Y-97155000D01*
X39751000Y-97536000D02*
X43434000Y-97536000D01*
D30*
X71120000Y-50310000D02*
X71120000Y-49530000D01*
X65550000Y-55880000D02*
X71120000Y-50310000D01*
X69215000Y-47625000D02*
X71120000Y-49530000D01*
X66915000Y-47625000D02*
X69215000Y-47625000D01*
X73025000Y-49530000D02*
X74930000Y-47625000D01*
X71120000Y-49530000D02*
X73025000Y-49530000D01*
D28*
X61583000Y-51955000D02*
X57150000Y-51955000D01*
X62169190Y-72315810D02*
X62169190Y-51368810D01*
X62169190Y-51368810D02*
X61583000Y-51955000D01*
X56380000Y-78105000D02*
X62169190Y-72315810D01*
X55880000Y-78105000D02*
X56380000Y-78105000D01*
D30*
X76200000Y-71610000D02*
X63500000Y-58910000D01*
X76200000Y-75565000D02*
X76200000Y-71610000D01*
X63500000Y-55880000D02*
X63500000Y-58910000D01*
D31*
X35560000Y-76345000D02*
X35705000Y-76200000D01*
X35560000Y-78740000D02*
X35560000Y-76345000D01*
D32*
X72350000Y-93395800D02*
X58420000Y-93395800D01*
X72350000Y-95885000D02*
X72350000Y-93395800D01*
D30*
X65165000Y-49535000D02*
X67065000Y-51435000D01*
X65165000Y-47625000D02*
X65165000Y-49535000D01*
D33*
G36*
X55416504Y-35071385D02*
G01*
X55677593Y-35128181D01*
X55927940Y-35221556D01*
X56162445Y-35349605D01*
X56376338Y-35509724D01*
X56428542Y-35561928D01*
X53900000Y-35561928D01*
X53775518Y-35574188D01*
X53655820Y-35610498D01*
X53545506Y-35669463D01*
X53448815Y-35748815D01*
X53369463Y-35845506D01*
X53310498Y-35955820D01*
X53274188Y-36075518D01*
X53261928Y-36200000D01*
X53261928Y-40000000D01*
X53274188Y-40124482D01*
X53310498Y-40244180D01*
X53369463Y-40354494D01*
X53448815Y-40451185D01*
X53545506Y-40530537D01*
X53655820Y-40589502D01*
X53775518Y-40625812D01*
X53900000Y-40638072D01*
X57023000Y-40638072D01*
X57023000Y-41835000D01*
X56732361Y-41835000D01*
X55981787Y-41984298D01*
X55274762Y-42277158D01*
X54638457Y-42702323D01*
X54097323Y-43243457D01*
X53672158Y-43879762D01*
X53379298Y-44586787D01*
X53230000Y-45337361D01*
X53230000Y-46102639D01*
X53379298Y-46853213D01*
X53672158Y-47560238D01*
X54097323Y-48196543D01*
X54638457Y-48737677D01*
X55274762Y-49162842D01*
X55981787Y-49455702D01*
X56732361Y-49605000D01*
X57138607Y-49605000D01*
X57222831Y-49823769D01*
X57230793Y-49840637D01*
X57375341Y-50096346D01*
X57380229Y-50104296D01*
X57711984Y-50601928D01*
X54400000Y-50601928D01*
X54275518Y-50614188D01*
X54155820Y-50650498D01*
X54045506Y-50709463D01*
X53948815Y-50788815D01*
X53869463Y-50885506D01*
X53810498Y-50995820D01*
X53774188Y-51115518D01*
X53761928Y-51240000D01*
X53761928Y-52670000D01*
X53774188Y-52794482D01*
X53810498Y-52914180D01*
X53869463Y-53024494D01*
X53948815Y-53121185D01*
X54045506Y-53200537D01*
X54155820Y-53259502D01*
X54275518Y-53295812D01*
X54400000Y-53308072D01*
X59516080Y-53308072D01*
X60515840Y-54807712D01*
X60653488Y-55051215D01*
X60752305Y-55307886D01*
X60812460Y-55576260D01*
X60833000Y-55855219D01*
X60833000Y-60086287D01*
X60767962Y-60007038D01*
X60633387Y-59896595D01*
X60479851Y-59814528D01*
X60313255Y-59763992D01*
X60140001Y-59746928D01*
X59239999Y-59746928D01*
X59066745Y-59763992D01*
X58900149Y-59814528D01*
X58746613Y-59896595D01*
X58651076Y-59975000D01*
X55648924Y-59975000D01*
X55553387Y-59896595D01*
X55399851Y-59814528D01*
X55233255Y-59763992D01*
X55060001Y-59746928D01*
X54159999Y-59746928D01*
X53986745Y-59763992D01*
X53820149Y-59814528D01*
X53666613Y-59896595D01*
X53571076Y-59975000D01*
X52118380Y-59975000D01*
X52070000Y-59970235D01*
X52021620Y-59975000D01*
X51876906Y-59989253D01*
X51691233Y-60045576D01*
X51520116Y-60137040D01*
X51370130Y-60260130D01*
X51339289Y-60297710D01*
X46582000Y-65055000D01*
X45030586Y-65055000D01*
X45005898Y-65044774D01*
X44805939Y-65005000D01*
X44602061Y-65005000D01*
X44402102Y-65044774D01*
X44213744Y-65122795D01*
X44044226Y-65236063D01*
X43900063Y-65380226D01*
X43786795Y-65549744D01*
X43708774Y-65738102D01*
X43669000Y-65938061D01*
X43669000Y-66141939D01*
X43708774Y-66341898D01*
X43786795Y-66530256D01*
X43900063Y-66699774D01*
X44044226Y-66843937D01*
X44213744Y-66957205D01*
X44402102Y-67035226D01*
X44602061Y-67075000D01*
X44805939Y-67075000D01*
X45005898Y-67035226D01*
X45030586Y-67025000D01*
X46941620Y-67025000D01*
X46990000Y-67029765D01*
X47038380Y-67025000D01*
X47183094Y-67010747D01*
X47368767Y-66954424D01*
X47539884Y-66862960D01*
X47689870Y-66739870D01*
X47720716Y-66702284D01*
X52478001Y-61945000D01*
X53571076Y-61945000D01*
X53666613Y-62023405D01*
X53820149Y-62105472D01*
X53864794Y-62119015D01*
X53796041Y-62123966D01*
X53777984Y-62126580D01*
X53497324Y-62188067D01*
X53479829Y-62193242D01*
X53210874Y-62294310D01*
X53194300Y-62301938D01*
X52942603Y-62440501D01*
X52927294Y-62450425D01*
X52698049Y-62623624D01*
X52684319Y-62635639D01*
X52482256Y-62839898D01*
X52470390Y-62853757D01*
X52299680Y-63084861D01*
X52289922Y-63100277D01*
X52154088Y-63353458D01*
X52146640Y-63370113D01*
X52048485Y-63640144D01*
X52043500Y-63657694D01*
X51985050Y-63939003D01*
X51982631Y-63957086D01*
X51965092Y-64243867D01*
X51964862Y-64252993D01*
X52065334Y-73546666D01*
X49122000Y-76490000D01*
X42323000Y-76490000D01*
X42005716Y-76172716D01*
X41974870Y-76135130D01*
X41824884Y-76012040D01*
X41653767Y-75920576D01*
X41468094Y-75864253D01*
X41440540Y-75861539D01*
X41059430Y-75480430D01*
X41049205Y-75455744D01*
X40935937Y-75286226D01*
X40791774Y-75142063D01*
X40622256Y-75028795D01*
X40433898Y-74950774D01*
X40233939Y-74911000D01*
X40170979Y-74911000D01*
X40179898Y-74909226D01*
X40368256Y-74831205D01*
X40537774Y-74717937D01*
X40681937Y-74573774D01*
X40795205Y-74404256D01*
X40873226Y-74215898D01*
X40913000Y-74015939D01*
X40913000Y-73812061D01*
X40873226Y-73612102D01*
X40795205Y-73423744D01*
X40681937Y-73254226D01*
X40537774Y-73110063D01*
X40410468Y-73025000D01*
X40537774Y-72939937D01*
X40681937Y-72795774D01*
X40795205Y-72626256D01*
X40873226Y-72437898D01*
X40913000Y-72237939D01*
X40913000Y-72034061D01*
X40873226Y-71834102D01*
X40795205Y-71645744D01*
X40760609Y-71593967D01*
X47180000Y-71593967D01*
X47180000Y-71916033D01*
X47242832Y-72231912D01*
X47366082Y-72529463D01*
X47545013Y-72797252D01*
X47772748Y-73024987D01*
X48040537Y-73203918D01*
X48338088Y-73327168D01*
X48653967Y-73390000D01*
X48976033Y-73390000D01*
X49291912Y-73327168D01*
X49589463Y-73203918D01*
X49857252Y-73024987D01*
X50084987Y-72797252D01*
X50263918Y-72529463D01*
X50387168Y-72231912D01*
X50450000Y-71916033D01*
X50450000Y-71593967D01*
X50387168Y-71278088D01*
X50263918Y-70980537D01*
X50084987Y-70712748D01*
X49857252Y-70485013D01*
X49589463Y-70306082D01*
X49291912Y-70182832D01*
X48976033Y-70120000D01*
X48653967Y-70120000D01*
X48338088Y-70182832D01*
X48040537Y-70306082D01*
X47772748Y-70485013D01*
X47545013Y-70712748D01*
X47366082Y-70980537D01*
X47242832Y-71278088D01*
X47180000Y-71593967D01*
X40760609Y-71593967D01*
X40681937Y-71476226D01*
X40537774Y-71332063D01*
X40368256Y-71218795D01*
X40179898Y-71140774D01*
X39979939Y-71101000D01*
X39776061Y-71101000D01*
X39576102Y-71140774D01*
X39387744Y-71218795D01*
X39218226Y-71332063D01*
X39074063Y-71476226D01*
X38960795Y-71645744D01*
X38882774Y-71834102D01*
X38843000Y-72034061D01*
X38843000Y-72237939D01*
X38882774Y-72437898D01*
X38960795Y-72626256D01*
X39074063Y-72795774D01*
X39218226Y-72939937D01*
X39345532Y-73025000D01*
X39218226Y-73110063D01*
X39074063Y-73254226D01*
X38960795Y-73423744D01*
X38882774Y-73612102D01*
X38843000Y-73812061D01*
X38843000Y-74015939D01*
X38882774Y-74215898D01*
X38960795Y-74404256D01*
X39074063Y-74573774D01*
X39218226Y-74717937D01*
X39387744Y-74831205D01*
X39576102Y-74909226D01*
X39776061Y-74949000D01*
X39839021Y-74949000D01*
X39830102Y-74950774D01*
X39641744Y-75028795D01*
X39472226Y-75142063D01*
X39328063Y-75286226D01*
X39214795Y-75455744D01*
X39136774Y-75644102D01*
X39097000Y-75844061D01*
X39097000Y-76047939D01*
X39136774Y-76247898D01*
X39214795Y-76436256D01*
X39328063Y-76605774D01*
X39472226Y-76749937D01*
X39641744Y-76863205D01*
X39666430Y-76873430D01*
X39754999Y-76962000D01*
X37832704Y-78884296D01*
X37832699Y-78884300D01*
X37437712Y-79279287D01*
X37400130Y-79310130D01*
X37369289Y-79347710D01*
X37184000Y-79533000D01*
X36518837Y-79533000D01*
X36575512Y-79463942D01*
X36656423Y-79312567D01*
X36706248Y-79148316D01*
X36723072Y-78977500D01*
X36723072Y-78502500D01*
X36706248Y-78331684D01*
X36656423Y-78167433D01*
X36575512Y-78016058D01*
X36466623Y-77883377D01*
X36395000Y-77824597D01*
X36395000Y-77457030D01*
X36523387Y-77388405D01*
X36657962Y-77277962D01*
X36768405Y-77143387D01*
X36850472Y-76989851D01*
X36901008Y-76823255D01*
X36918072Y-76650001D01*
X36918072Y-75749999D01*
X36901008Y-75576745D01*
X36850472Y-75410149D01*
X36768405Y-75256613D01*
X36657962Y-75122038D01*
X36523387Y-75011595D01*
X36369851Y-74929528D01*
X36203255Y-74878992D01*
X36030001Y-74861928D01*
X35379999Y-74861928D01*
X35206745Y-74878992D01*
X35040149Y-74929528D01*
X34886613Y-75011595D01*
X34752038Y-75122038D01*
X34641595Y-75256613D01*
X34559528Y-75410149D01*
X34508992Y-75576745D01*
X34491928Y-75749999D01*
X34491928Y-76650001D01*
X34508992Y-76823255D01*
X34559528Y-76989851D01*
X34641595Y-77143387D01*
X34725001Y-77245017D01*
X34725000Y-77824597D01*
X34685000Y-77857425D01*
X34583942Y-77774488D01*
X34432567Y-77693577D01*
X34268316Y-77643752D01*
X34097500Y-77626928D01*
X33522500Y-77626928D01*
X33351684Y-77643752D01*
X33187433Y-77693577D01*
X33036058Y-77774488D01*
X32903377Y-77883377D01*
X32794488Y-78016058D01*
X32713577Y-78167433D01*
X32663752Y-78331684D01*
X32646928Y-78502500D01*
X32646928Y-78977500D01*
X32663752Y-79148316D01*
X32713577Y-79312567D01*
X32794488Y-79463942D01*
X32903377Y-79596623D01*
X33036058Y-79705512D01*
X33187433Y-79786423D01*
X33351684Y-79836248D01*
X33522500Y-79853072D01*
X33530073Y-79853072D01*
X33578358Y-79901357D01*
X33578362Y-79901362D01*
X34857284Y-81180284D01*
X34888130Y-81217870D01*
X35038116Y-81340960D01*
X35209233Y-81432424D01*
X35351691Y-81475638D01*
X35394905Y-81488747D01*
X35587999Y-81507765D01*
X35636379Y-81503000D01*
X37115000Y-81503000D01*
X37115001Y-89884892D01*
X36946525Y-90053368D01*
X36784010Y-90296589D01*
X36672068Y-90566842D01*
X36615000Y-90853740D01*
X36615000Y-91146260D01*
X36672068Y-91433158D01*
X36784010Y-91703411D01*
X36946525Y-91946632D01*
X37153368Y-92153475D01*
X37396589Y-92315990D01*
X37666842Y-92427932D01*
X37953740Y-92485000D01*
X38246260Y-92485000D01*
X38533158Y-92427932D01*
X38803411Y-92315990D01*
X39046632Y-92153475D01*
X39253475Y-91946632D01*
X39415990Y-91703411D01*
X39527932Y-91433158D01*
X39585000Y-91146260D01*
X39585000Y-90853740D01*
X39527932Y-90566842D01*
X39415990Y-90296589D01*
X39253475Y-90053368D01*
X39085000Y-89884893D01*
X39085000Y-84293967D01*
X47180000Y-84293967D01*
X47180000Y-84616033D01*
X47242832Y-84931912D01*
X47366082Y-85229463D01*
X47545013Y-85497252D01*
X47772748Y-85724987D01*
X48040537Y-85903918D01*
X48338088Y-86027168D01*
X48653967Y-86090000D01*
X48976033Y-86090000D01*
X49291912Y-86027168D01*
X49589463Y-85903918D01*
X49857252Y-85724987D01*
X50084987Y-85497252D01*
X50263918Y-85229463D01*
X50387168Y-84931912D01*
X50450000Y-84616033D01*
X50450000Y-84293967D01*
X50387168Y-83978088D01*
X50263918Y-83680537D01*
X50084987Y-83412748D01*
X49857252Y-83185013D01*
X49589463Y-83006082D01*
X49291912Y-82882832D01*
X48976033Y-82820000D01*
X48653967Y-82820000D01*
X48338088Y-82882832D01*
X48040537Y-83006082D01*
X47772748Y-83185013D01*
X47545013Y-83412748D01*
X47366082Y-83680537D01*
X47242832Y-83978088D01*
X47180000Y-84293967D01*
X39085000Y-84293967D01*
X39085000Y-80418001D01*
X39225700Y-80277301D01*
X39225704Y-80277296D01*
X41277195Y-78225805D01*
X41329006Y-78268325D01*
X41365116Y-78297960D01*
X41536233Y-78389424D01*
X41721906Y-78445747D01*
X41915000Y-78464765D01*
X41963380Y-78460000D01*
X49481620Y-78460000D01*
X49530000Y-78464765D01*
X49578380Y-78460000D01*
X49723094Y-78445747D01*
X49908767Y-78389424D01*
X50079884Y-78297960D01*
X50229870Y-78174870D01*
X50260716Y-78137284D01*
X52095131Y-76302869D01*
X52238890Y-89600585D01*
X52239312Y-89609640D01*
X52262740Y-89894002D01*
X52265512Y-89911907D01*
X52329167Y-90190041D01*
X52334458Y-90207369D01*
X52437042Y-90473615D01*
X52444746Y-90490014D01*
X52584174Y-90738953D01*
X52594132Y-90754088D01*
X52767564Y-90980654D01*
X52779576Y-90994220D01*
X52983484Y-91193800D01*
X52997303Y-91205517D01*
X53227535Y-91374050D01*
X53242881Y-91383682D01*
X53494753Y-91517739D01*
X53511313Y-91525089D01*
X53779698Y-91621940D01*
X53797136Y-91626858D01*
X54076572Y-91684532D01*
X54094532Y-91686920D01*
X54379331Y-91704244D01*
X54388393Y-91704471D01*
X80228260Y-91429579D01*
X80499583Y-91446093D01*
X80761357Y-91500150D01*
X81012762Y-91590923D01*
X81248676Y-91716559D01*
X81464310Y-91874509D01*
X81655262Y-92061551D01*
X81817632Y-92273862D01*
X81948125Y-92507133D01*
X82044080Y-92756610D01*
X82103538Y-93017200D01*
X82125663Y-93288137D01*
X82402766Y-120859971D01*
X82386000Y-121131987D01*
X82331504Y-121394367D01*
X82240110Y-121646294D01*
X82113701Y-121882584D01*
X81954855Y-122098416D01*
X81766826Y-122289369D01*
X81553476Y-122451521D01*
X81319160Y-122581562D01*
X81068674Y-122676830D01*
X80807166Y-122735367D01*
X80535423Y-122756329D01*
X24742233Y-123056293D01*
X24505178Y-123041063D01*
X23995484Y-122891536D01*
X23671411Y-122724627D01*
X23535770Y-122627706D01*
X23347065Y-122448536D01*
X23185015Y-122244934D01*
X23050498Y-122017017D01*
X22551937Y-121019893D01*
X22441128Y-120747515D01*
X22374700Y-120466122D01*
X22352000Y-120172955D01*
X22352000Y-118753120D01*
X22352060Y-118737864D01*
X22359603Y-117779872D01*
X24765000Y-117779872D01*
X24765000Y-118220128D01*
X24850890Y-118651925D01*
X25019369Y-119058669D01*
X25263962Y-119424729D01*
X25575271Y-119736038D01*
X25941331Y-119980631D01*
X26348075Y-120149110D01*
X26779872Y-120235000D01*
X27220128Y-120235000D01*
X27651925Y-120149110D01*
X28058669Y-119980631D01*
X28424729Y-119736038D01*
X28736038Y-119424729D01*
X28980631Y-119058669D01*
X29149110Y-118651925D01*
X29235000Y-118220128D01*
X29235000Y-117779872D01*
X29149110Y-117348075D01*
X28980631Y-116941331D01*
X28916265Y-116845000D01*
X37466928Y-116845000D01*
X37466928Y-120645000D01*
X37479188Y-120769482D01*
X37515498Y-120889180D01*
X37574463Y-120999494D01*
X37653815Y-121096185D01*
X37750506Y-121175537D01*
X37860820Y-121234502D01*
X37980518Y-121270812D01*
X38105000Y-121283072D01*
X41905000Y-121283072D01*
X42029482Y-121270812D01*
X42149180Y-121234502D01*
X42259494Y-121175537D01*
X42356185Y-121096185D01*
X42435537Y-120999494D01*
X42494502Y-120889180D01*
X42530812Y-120769482D01*
X42543072Y-120645000D01*
X42543072Y-116845000D01*
X52071928Y-116845000D01*
X52071928Y-120645000D01*
X52084188Y-120769482D01*
X52120498Y-120889180D01*
X52179463Y-120999494D01*
X52258815Y-121096185D01*
X52355506Y-121175537D01*
X52465820Y-121234502D01*
X52585518Y-121270812D01*
X52710000Y-121283072D01*
X56510000Y-121283072D01*
X56634482Y-121270812D01*
X56754180Y-121234502D01*
X56864494Y-121175537D01*
X56961185Y-121096185D01*
X57040537Y-120999494D01*
X57099502Y-120889180D01*
X57135812Y-120769482D01*
X57148072Y-120645000D01*
X57148072Y-116845000D01*
X66676928Y-116845000D01*
X66676928Y-120645000D01*
X66689188Y-120769482D01*
X66725498Y-120889180D01*
X66784463Y-120999494D01*
X66863815Y-121096185D01*
X66960506Y-121175537D01*
X67070820Y-121234502D01*
X67190518Y-121270812D01*
X67315000Y-121283072D01*
X71115000Y-121283072D01*
X71239482Y-121270812D01*
X71359180Y-121234502D01*
X71469494Y-121175537D01*
X71566185Y-121096185D01*
X71645537Y-120999494D01*
X71704502Y-120889180D01*
X71740812Y-120769482D01*
X71753072Y-120645000D01*
X71753072Y-117889872D01*
X73965000Y-117889872D01*
X73965000Y-118330128D01*
X74050890Y-118761925D01*
X74219369Y-119168669D01*
X74463962Y-119534729D01*
X74775271Y-119846038D01*
X75141331Y-120090631D01*
X75548075Y-120259110D01*
X75979872Y-120345000D01*
X76420128Y-120345000D01*
X76851925Y-120259110D01*
X77258669Y-120090631D01*
X77624729Y-119846038D01*
X77936038Y-119534729D01*
X78180631Y-119168669D01*
X78349110Y-118761925D01*
X78435000Y-118330128D01*
X78435000Y-117889872D01*
X78349110Y-117458075D01*
X78180631Y-117051331D01*
X77936038Y-116685271D01*
X77624729Y-116373962D01*
X77258669Y-116129369D01*
X76851925Y-115960890D01*
X76420128Y-115875000D01*
X75979872Y-115875000D01*
X75548075Y-115960890D01*
X75141331Y-116129369D01*
X74775271Y-116373962D01*
X74463962Y-116685271D01*
X74219369Y-117051331D01*
X74050890Y-117458075D01*
X73965000Y-117889872D01*
X71753072Y-117889872D01*
X71753072Y-116845000D01*
X71740812Y-116720518D01*
X71704502Y-116600820D01*
X71645537Y-116490506D01*
X71566185Y-116393815D01*
X71469494Y-116314463D01*
X71359180Y-116255498D01*
X71239482Y-116219188D01*
X71115000Y-116206928D01*
X67315000Y-116206928D01*
X67190518Y-116219188D01*
X67070820Y-116255498D01*
X66960506Y-116314463D01*
X66863815Y-116393815D01*
X66784463Y-116490506D01*
X66725498Y-116600820D01*
X66689188Y-116720518D01*
X66676928Y-116845000D01*
X57148072Y-116845000D01*
X57135812Y-116720518D01*
X57099502Y-116600820D01*
X57040537Y-116490506D01*
X56961185Y-116393815D01*
X56864494Y-116314463D01*
X56754180Y-116255498D01*
X56634482Y-116219188D01*
X56510000Y-116206928D01*
X52710000Y-116206928D01*
X52585518Y-116219188D01*
X52465820Y-116255498D01*
X52355506Y-116314463D01*
X52258815Y-116393815D01*
X52179463Y-116490506D01*
X52120498Y-116600820D01*
X52084188Y-116720518D01*
X52071928Y-116845000D01*
X42543072Y-116845000D01*
X42530812Y-116720518D01*
X42494502Y-116600820D01*
X42435537Y-116490506D01*
X42356185Y-116393815D01*
X42259494Y-116314463D01*
X42149180Y-116255498D01*
X42029482Y-116219188D01*
X41905000Y-116206928D01*
X38105000Y-116206928D01*
X37980518Y-116219188D01*
X37860820Y-116255498D01*
X37750506Y-116314463D01*
X37653815Y-116393815D01*
X37574463Y-116490506D01*
X37515498Y-116600820D01*
X37479188Y-116720518D01*
X37466928Y-116845000D01*
X28916265Y-116845000D01*
X28736038Y-116575271D01*
X28424729Y-116263962D01*
X28058669Y-116019369D01*
X27651925Y-115850890D01*
X27220128Y-115765000D01*
X26779872Y-115765000D01*
X26348075Y-115850890D01*
X25941331Y-116019369D01*
X25575271Y-116263962D01*
X25263962Y-116575271D01*
X25019369Y-116941331D01*
X24850890Y-117348075D01*
X24765000Y-117779872D01*
X22359603Y-117779872D01*
X22421963Y-109860000D01*
X37466928Y-109860000D01*
X37466928Y-113660000D01*
X37479188Y-113784482D01*
X37515498Y-113904180D01*
X37574463Y-114014494D01*
X37653815Y-114111185D01*
X37750506Y-114190537D01*
X37860820Y-114249502D01*
X37980518Y-114285812D01*
X38105000Y-114298072D01*
X41905000Y-114298072D01*
X42029482Y-114285812D01*
X42149180Y-114249502D01*
X42259494Y-114190537D01*
X42356185Y-114111185D01*
X42435537Y-114014494D01*
X42494502Y-113904180D01*
X42530812Y-113784482D01*
X42543072Y-113660000D01*
X42543072Y-110107361D01*
X55135000Y-110107361D01*
X55135000Y-110872639D01*
X55284298Y-111623213D01*
X55577158Y-112330238D01*
X56002323Y-112966543D01*
X56543457Y-113507677D01*
X57179762Y-113932842D01*
X57886787Y-114225702D01*
X58637361Y-114375000D01*
X59402639Y-114375000D01*
X60153213Y-114225702D01*
X60860238Y-113932842D01*
X61496543Y-113507677D01*
X62037677Y-112966543D01*
X62462842Y-112330238D01*
X62755702Y-111623213D01*
X62905000Y-110872639D01*
X62905000Y-110107361D01*
X62755702Y-109356787D01*
X62462842Y-108649762D01*
X62037677Y-108013457D01*
X61496543Y-107472323D01*
X60860238Y-107047158D01*
X60153213Y-106754298D01*
X59402639Y-106605000D01*
X58637361Y-106605000D01*
X57886787Y-106754298D01*
X57179762Y-107047158D01*
X56543457Y-107472323D01*
X56002323Y-108013457D01*
X55577158Y-108649762D01*
X55284298Y-109356787D01*
X55135000Y-110107361D01*
X42543072Y-110107361D01*
X42543072Y-109860000D01*
X42530812Y-109735518D01*
X42494502Y-109615820D01*
X42435537Y-109505506D01*
X42356185Y-109408815D01*
X42259494Y-109329463D01*
X42149180Y-109270498D01*
X42029482Y-109234188D01*
X41905000Y-109221928D01*
X38105000Y-109221928D01*
X37980518Y-109234188D01*
X37860820Y-109270498D01*
X37750506Y-109329463D01*
X37653815Y-109408815D01*
X37574463Y-109505506D01*
X37515498Y-109615820D01*
X37479188Y-109735518D01*
X37466928Y-109860000D01*
X22421963Y-109860000D01*
X22474804Y-103149061D01*
X49384000Y-103149061D01*
X49384000Y-103352939D01*
X49423774Y-103552898D01*
X49501795Y-103741256D01*
X49615063Y-103910774D01*
X49759226Y-104054937D01*
X49928744Y-104168205D01*
X50117102Y-104246226D01*
X50317061Y-104286000D01*
X50520939Y-104286000D01*
X50720898Y-104246226D01*
X50909256Y-104168205D01*
X51078774Y-104054937D01*
X51222937Y-103910774D01*
X51336205Y-103741256D01*
X51346431Y-103716568D01*
X51481279Y-103581721D01*
X51518869Y-103550871D01*
X51641959Y-103400885D01*
X51733423Y-103229768D01*
X51789746Y-103044095D01*
X51803999Y-102899381D01*
X51803999Y-102899380D01*
X51808764Y-102851002D01*
X51803999Y-102802622D01*
X51803999Y-102624001D01*
X52070000Y-102358000D01*
X52761928Y-103049929D01*
X52761928Y-103320001D01*
X52778992Y-103493255D01*
X52829528Y-103659851D01*
X52911595Y-103813387D01*
X53022038Y-103947962D01*
X53156613Y-104058405D01*
X53310149Y-104140472D01*
X53476745Y-104191008D01*
X53649999Y-104208072D01*
X53920072Y-104208072D01*
X55294289Y-105582290D01*
X55325130Y-105619870D01*
X55362709Y-105650710D01*
X55475116Y-105742960D01*
X55646233Y-105834424D01*
X55831906Y-105890747D01*
X56025000Y-105909765D01*
X56073380Y-105905000D01*
X57381076Y-105905000D01*
X57476613Y-105983405D01*
X57630149Y-106065472D01*
X57796745Y-106116008D01*
X57969999Y-106133072D01*
X58870001Y-106133072D01*
X59043255Y-106116008D01*
X59209851Y-106065472D01*
X59363387Y-105983405D01*
X59497962Y-105872962D01*
X59608405Y-105738387D01*
X59690472Y-105584851D01*
X59741008Y-105418255D01*
X59758072Y-105245001D01*
X59758072Y-104594999D01*
X59741008Y-104421745D01*
X59690472Y-104255149D01*
X59608405Y-104101613D01*
X59497962Y-103967038D01*
X59410184Y-103895000D01*
X59497962Y-103822962D01*
X59608405Y-103688387D01*
X59690472Y-103534851D01*
X59741008Y-103368255D01*
X59758072Y-103195001D01*
X59758072Y-103170000D01*
X59877705Y-103170000D01*
X60023102Y-103230226D01*
X60223061Y-103270000D01*
X60426939Y-103270000D01*
X60626898Y-103230226D01*
X60815256Y-103152205D01*
X60984774Y-103038937D01*
X61128937Y-102894774D01*
X61242205Y-102725256D01*
X61320226Y-102536898D01*
X61360000Y-102336939D01*
X61360000Y-102133061D01*
X61320226Y-101933102D01*
X61242205Y-101744744D01*
X61128937Y-101575226D01*
X60984774Y-101431063D01*
X60815256Y-101317795D01*
X60626898Y-101239774D01*
X60426939Y-101200000D01*
X60223061Y-101200000D01*
X60023102Y-101239774D01*
X59877705Y-101300000D01*
X59100935Y-101300000D01*
X59055000Y-101295476D01*
X58871708Y-101313528D01*
X58695459Y-101366993D01*
X58646727Y-101393041D01*
X58533028Y-101453814D01*
X58390656Y-101570656D01*
X58361370Y-101606341D01*
X58310783Y-101656928D01*
X57969999Y-101656928D01*
X57796745Y-101673992D01*
X57630149Y-101724528D01*
X57476613Y-101806595D01*
X57342038Y-101917038D01*
X57327297Y-101935000D01*
X57092888Y-101935000D01*
X57088405Y-101926613D01*
X56977962Y-101792038D01*
X56960000Y-101777297D01*
X56960000Y-100375932D01*
X56964524Y-100330000D01*
X56946471Y-100146708D01*
X56945055Y-100142040D01*
X56893007Y-99970460D01*
X56806186Y-99808028D01*
X56689344Y-99665656D01*
X56653660Y-99636371D01*
X56397417Y-99380128D01*
X56448906Y-99395747D01*
X56642000Y-99414765D01*
X56690380Y-99410000D01*
X57165880Y-99410000D01*
X57184967Y-99438566D01*
X57406434Y-99660033D01*
X57666853Y-99834039D01*
X57956214Y-99953897D01*
X58263399Y-100015000D01*
X58576601Y-100015000D01*
X58883786Y-99953897D01*
X59173147Y-99834039D01*
X59433566Y-99660033D01*
X59655033Y-99438566D01*
X59674120Y-99410000D01*
X72261620Y-99410000D01*
X72310000Y-99414765D01*
X72358380Y-99410000D01*
X72503094Y-99395747D01*
X72688767Y-99339424D01*
X72859884Y-99247960D01*
X73009870Y-99124870D01*
X73040716Y-99087284D01*
X74663955Y-97464045D01*
X74693891Y-97470000D01*
X75006109Y-97470000D01*
X75312327Y-97409089D01*
X75600779Y-97289609D01*
X75860379Y-97116150D01*
X76081150Y-96895379D01*
X76254609Y-96635779D01*
X76374089Y-96347327D01*
X76435000Y-96041109D01*
X76435000Y-95728891D01*
X76374089Y-95422673D01*
X76254609Y-95134221D01*
X76081150Y-94874621D01*
X75860379Y-94653850D01*
X75600779Y-94480391D01*
X75312327Y-94360911D01*
X75006109Y-94300000D01*
X74693891Y-94300000D01*
X74387673Y-94360911D01*
X74099221Y-94480391D01*
X73839621Y-94653850D01*
X73618850Y-94874621D01*
X73600000Y-94902832D01*
X73581150Y-94874621D01*
X73485000Y-94778471D01*
X73485000Y-93451552D01*
X73490491Y-93395800D01*
X73468577Y-93173301D01*
X73403676Y-92959353D01*
X73298284Y-92762177D01*
X73156449Y-92589351D01*
X72983623Y-92447516D01*
X72786447Y-92342124D01*
X72572499Y-92277223D01*
X72405752Y-92260800D01*
X72350000Y-92255309D01*
X72294249Y-92260800D01*
X59533599Y-92260800D01*
X59433566Y-92160767D01*
X59173147Y-91986761D01*
X58883786Y-91866903D01*
X58576601Y-91805800D01*
X58263399Y-91805800D01*
X57956214Y-91866903D01*
X57666853Y-91986761D01*
X57406434Y-92160767D01*
X57184967Y-92382234D01*
X57010961Y-92642653D01*
X56891103Y-92932014D01*
X56830000Y-93239199D01*
X56830000Y-93552401D01*
X56891103Y-93859586D01*
X57010961Y-94148947D01*
X57184967Y-94409366D01*
X57194529Y-94418928D01*
X57135906Y-94450263D01*
X57039215Y-94529615D01*
X56959863Y-94626306D01*
X56900898Y-94736620D01*
X56864588Y-94856318D01*
X56852328Y-94980800D01*
X56852328Y-96890800D01*
X56864588Y-97015282D01*
X56900898Y-97134980D01*
X56959863Y-97245294D01*
X57039215Y-97341985D01*
X57135906Y-97421337D01*
X57167180Y-97438054D01*
X57165880Y-97440000D01*
X57050001Y-97440000D01*
X55467716Y-95857716D01*
X55436870Y-95820130D01*
X55286884Y-95697040D01*
X55115767Y-95605576D01*
X54930094Y-95549253D01*
X54785380Y-95535000D01*
X54737000Y-95530235D01*
X54688620Y-95535000D01*
X52118380Y-95535000D01*
X52070000Y-95530235D01*
X52021620Y-95535000D01*
X51876906Y-95549253D01*
X51691233Y-95605576D01*
X51520116Y-95697040D01*
X51370130Y-95820130D01*
X51247040Y-95970116D01*
X51155576Y-96141233D01*
X51099253Y-96326906D01*
X51080235Y-96520000D01*
X51085000Y-96568380D01*
X51085001Y-100556998D01*
X50156710Y-101485290D01*
X50119130Y-101516131D01*
X49996040Y-101666117D01*
X49991831Y-101673992D01*
X49904575Y-101837235D01*
X49874692Y-101935747D01*
X49848252Y-102022907D01*
X49837403Y-102133061D01*
X49829234Y-102216001D01*
X49833999Y-102264381D01*
X49833999Y-102397101D01*
X49759226Y-102447063D01*
X49615063Y-102591226D01*
X49501795Y-102760744D01*
X49423774Y-102949102D01*
X49384000Y-103149061D01*
X22474804Y-103149061D01*
X22523270Y-96993967D01*
X47180000Y-96993967D01*
X47180000Y-97316033D01*
X47242832Y-97631912D01*
X47366082Y-97929463D01*
X47545013Y-98197252D01*
X47772748Y-98424987D01*
X48040537Y-98603918D01*
X48338088Y-98727168D01*
X48653967Y-98790000D01*
X48976033Y-98790000D01*
X49291912Y-98727168D01*
X49589463Y-98603918D01*
X49857252Y-98424987D01*
X50084987Y-98197252D01*
X50263918Y-97929463D01*
X50387168Y-97631912D01*
X50450000Y-97316033D01*
X50450000Y-96993967D01*
X50387168Y-96678088D01*
X50263918Y-96380537D01*
X50084987Y-96112748D01*
X49857252Y-95885013D01*
X49589463Y-95706082D01*
X49291912Y-95582832D01*
X48976033Y-95520000D01*
X48653967Y-95520000D01*
X48338088Y-95582832D01*
X48040537Y-95706082D01*
X47772748Y-95885013D01*
X47545013Y-96112748D01*
X47366082Y-96380537D01*
X47242832Y-96678088D01*
X47180000Y-96993967D01*
X22523270Y-96993967D01*
X22571619Y-90853740D01*
X31615000Y-90853740D01*
X31615000Y-91146260D01*
X31672068Y-91433158D01*
X31784010Y-91703411D01*
X31946525Y-91946632D01*
X32153368Y-92153475D01*
X32396589Y-92315990D01*
X32666842Y-92427932D01*
X32953740Y-92485000D01*
X33246260Y-92485000D01*
X33533158Y-92427932D01*
X33803411Y-92315990D01*
X34046632Y-92153475D01*
X34253475Y-91946632D01*
X34415990Y-91703411D01*
X34527932Y-91433158D01*
X34585000Y-91146260D01*
X34585000Y-90853740D01*
X34527932Y-90566842D01*
X34415990Y-90296589D01*
X34253475Y-90053368D01*
X34046632Y-89846525D01*
X33803411Y-89684010D01*
X33533158Y-89572068D01*
X33246260Y-89515000D01*
X32953740Y-89515000D01*
X32666842Y-89572068D01*
X32396589Y-89684010D01*
X32153368Y-89846525D01*
X31946525Y-90053368D01*
X31784010Y-90296589D01*
X31672068Y-90566842D01*
X31615000Y-90853740D01*
X22571619Y-90853740D01*
X22823271Y-58893967D01*
X47180000Y-58893967D01*
X47180000Y-59216033D01*
X47242832Y-59531912D01*
X47366082Y-59829463D01*
X47545013Y-60097252D01*
X47772748Y-60324987D01*
X48040537Y-60503918D01*
X48338088Y-60627168D01*
X48653967Y-60690000D01*
X48976033Y-60690000D01*
X49291912Y-60627168D01*
X49589463Y-60503918D01*
X49857252Y-60324987D01*
X50084987Y-60097252D01*
X50263918Y-59829463D01*
X50387168Y-59531912D01*
X50450000Y-59216033D01*
X50450000Y-58893967D01*
X50387168Y-58578088D01*
X50263918Y-58280537D01*
X50084987Y-58012748D01*
X49857252Y-57785013D01*
X49589463Y-57606082D01*
X49291912Y-57482832D01*
X48976033Y-57420000D01*
X48653967Y-57420000D01*
X48338088Y-57482832D01*
X48040537Y-57606082D01*
X47772748Y-57785013D01*
X47545013Y-58012748D01*
X47366082Y-58280537D01*
X47242832Y-58578088D01*
X47180000Y-58893967D01*
X22823271Y-58893967D01*
X22946964Y-43185000D01*
X38021928Y-43185000D01*
X38021928Y-46985000D01*
X38034188Y-47109482D01*
X38070498Y-47229180D01*
X38129463Y-47339494D01*
X38208815Y-47436185D01*
X38305506Y-47515537D01*
X38415820Y-47574502D01*
X38535518Y-47610812D01*
X38660000Y-47623072D01*
X42460000Y-47623072D01*
X42584482Y-47610812D01*
X42704180Y-47574502D01*
X42814494Y-47515537D01*
X42911185Y-47436185D01*
X42990537Y-47339494D01*
X43049502Y-47229180D01*
X43085812Y-47109482D01*
X43098072Y-46985000D01*
X43098072Y-43185000D01*
X43085812Y-43060518D01*
X43049502Y-42940820D01*
X42990537Y-42830506D01*
X42911185Y-42733815D01*
X42814494Y-42654463D01*
X42704180Y-42595498D01*
X42584482Y-42559188D01*
X42460000Y-42546928D01*
X38660000Y-42546928D01*
X38535518Y-42559188D01*
X38415820Y-42595498D01*
X38305506Y-42654463D01*
X38208815Y-42733815D01*
X38129463Y-42830506D01*
X38070498Y-42940820D01*
X38034188Y-43060518D01*
X38021928Y-43185000D01*
X22946964Y-43185000D01*
X22986934Y-38108874D01*
X22986937Y-38108374D01*
X22986999Y-38092626D01*
X22987000Y-38092126D01*
X22987000Y-37779872D01*
X24765000Y-37779872D01*
X24765000Y-38220128D01*
X24850890Y-38651925D01*
X25019369Y-39058669D01*
X25263962Y-39424729D01*
X25575271Y-39736038D01*
X25941331Y-39980631D01*
X26348075Y-40149110D01*
X26779872Y-40235000D01*
X27220128Y-40235000D01*
X27651925Y-40149110D01*
X28058669Y-39980631D01*
X28424729Y-39736038D01*
X28736038Y-39424729D01*
X28980631Y-39058669D01*
X29149110Y-38651925D01*
X29235000Y-38220128D01*
X29235000Y-37779872D01*
X29149110Y-37348075D01*
X28980631Y-36941331D01*
X28736038Y-36575271D01*
X28424729Y-36263962D01*
X28329003Y-36200000D01*
X38021928Y-36200000D01*
X38021928Y-40000000D01*
X38034188Y-40124482D01*
X38070498Y-40244180D01*
X38129463Y-40354494D01*
X38208815Y-40451185D01*
X38305506Y-40530537D01*
X38415820Y-40589502D01*
X38535518Y-40625812D01*
X38660000Y-40638072D01*
X42460000Y-40638072D01*
X42584482Y-40625812D01*
X42704180Y-40589502D01*
X42814494Y-40530537D01*
X42911185Y-40451185D01*
X42990537Y-40354494D01*
X43049502Y-40244180D01*
X43085812Y-40124482D01*
X43098072Y-40000000D01*
X43098072Y-36200000D01*
X43085812Y-36075518D01*
X43049502Y-35955820D01*
X42990537Y-35845506D01*
X42911185Y-35748815D01*
X42814494Y-35669463D01*
X42704180Y-35610498D01*
X42584482Y-35574188D01*
X42460000Y-35561928D01*
X38660000Y-35561928D01*
X38535518Y-35574188D01*
X38415820Y-35610498D01*
X38305506Y-35669463D01*
X38208815Y-35748815D01*
X38129463Y-35845506D01*
X38070498Y-35955820D01*
X38034188Y-36075518D01*
X38021928Y-36200000D01*
X28329003Y-36200000D01*
X28058669Y-36019369D01*
X27651925Y-35850890D01*
X27220128Y-35765000D01*
X26779872Y-35765000D01*
X26348075Y-35850890D01*
X25941331Y-36019369D01*
X25575271Y-36263962D01*
X25263962Y-36575271D01*
X25019369Y-36941331D01*
X24850890Y-37348075D01*
X24765000Y-37779872D01*
X22987000Y-37779872D01*
X22987000Y-36517483D01*
X23005368Y-36284093D01*
X23058855Y-36061304D01*
X23146536Y-35849624D01*
X23266248Y-35654272D01*
X23415049Y-35480049D01*
X23589272Y-35331248D01*
X23784624Y-35211536D01*
X23996304Y-35123855D01*
X24219093Y-35070368D01*
X24452483Y-35052000D01*
X55145470Y-35052000D01*
X55416504Y-35071385D01*
X55416504Y-35071385D01*
G37*
X55416504Y-35071385D02*
X55677593Y-35128181D01*
X55927940Y-35221556D01*
X56162445Y-35349605D01*
X56376338Y-35509724D01*
X56428542Y-35561928D01*
X53900000Y-35561928D01*
X53775518Y-35574188D01*
X53655820Y-35610498D01*
X53545506Y-35669463D01*
X53448815Y-35748815D01*
X53369463Y-35845506D01*
X53310498Y-35955820D01*
X53274188Y-36075518D01*
X53261928Y-36200000D01*
X53261928Y-40000000D01*
X53274188Y-40124482D01*
X53310498Y-40244180D01*
X53369463Y-40354494D01*
X53448815Y-40451185D01*
X53545506Y-40530537D01*
X53655820Y-40589502D01*
X53775518Y-40625812D01*
X53900000Y-40638072D01*
X57023000Y-40638072D01*
X57023000Y-41835000D01*
X56732361Y-41835000D01*
X55981787Y-41984298D01*
X55274762Y-42277158D01*
X54638457Y-42702323D01*
X54097323Y-43243457D01*
X53672158Y-43879762D01*
X53379298Y-44586787D01*
X53230000Y-45337361D01*
X53230000Y-46102639D01*
X53379298Y-46853213D01*
X53672158Y-47560238D01*
X54097323Y-48196543D01*
X54638457Y-48737677D01*
X55274762Y-49162842D01*
X55981787Y-49455702D01*
X56732361Y-49605000D01*
X57138607Y-49605000D01*
X57222831Y-49823769D01*
X57230793Y-49840637D01*
X57375341Y-50096346D01*
X57380229Y-50104296D01*
X57711984Y-50601928D01*
X54400000Y-50601928D01*
X54275518Y-50614188D01*
X54155820Y-50650498D01*
X54045506Y-50709463D01*
X53948815Y-50788815D01*
X53869463Y-50885506D01*
X53810498Y-50995820D01*
X53774188Y-51115518D01*
X53761928Y-51240000D01*
X53761928Y-52670000D01*
X53774188Y-52794482D01*
X53810498Y-52914180D01*
X53869463Y-53024494D01*
X53948815Y-53121185D01*
X54045506Y-53200537D01*
X54155820Y-53259502D01*
X54275518Y-53295812D01*
X54400000Y-53308072D01*
X59516080Y-53308072D01*
X60515840Y-54807712D01*
X60653488Y-55051215D01*
X60752305Y-55307886D01*
X60812460Y-55576260D01*
X60833000Y-55855219D01*
X60833000Y-60086287D01*
X60767962Y-60007038D01*
X60633387Y-59896595D01*
X60479851Y-59814528D01*
X60313255Y-59763992D01*
X60140001Y-59746928D01*
X59239999Y-59746928D01*
X59066745Y-59763992D01*
X58900149Y-59814528D01*
X58746613Y-59896595D01*
X58651076Y-59975000D01*
X55648924Y-59975000D01*
X55553387Y-59896595D01*
X55399851Y-59814528D01*
X55233255Y-59763992D01*
X55060001Y-59746928D01*
X54159999Y-59746928D01*
X53986745Y-59763992D01*
X53820149Y-59814528D01*
X53666613Y-59896595D01*
X53571076Y-59975000D01*
X52118380Y-59975000D01*
X52070000Y-59970235D01*
X52021620Y-59975000D01*
X51876906Y-59989253D01*
X51691233Y-60045576D01*
X51520116Y-60137040D01*
X51370130Y-60260130D01*
X51339289Y-60297710D01*
X46582000Y-65055000D01*
X45030586Y-65055000D01*
X45005898Y-65044774D01*
X44805939Y-65005000D01*
X44602061Y-65005000D01*
X44402102Y-65044774D01*
X44213744Y-65122795D01*
X44044226Y-65236063D01*
X43900063Y-65380226D01*
X43786795Y-65549744D01*
X43708774Y-65738102D01*
X43669000Y-65938061D01*
X43669000Y-66141939D01*
X43708774Y-66341898D01*
X43786795Y-66530256D01*
X43900063Y-66699774D01*
X44044226Y-66843937D01*
X44213744Y-66957205D01*
X44402102Y-67035226D01*
X44602061Y-67075000D01*
X44805939Y-67075000D01*
X45005898Y-67035226D01*
X45030586Y-67025000D01*
X46941620Y-67025000D01*
X46990000Y-67029765D01*
X47038380Y-67025000D01*
X47183094Y-67010747D01*
X47368767Y-66954424D01*
X47539884Y-66862960D01*
X47689870Y-66739870D01*
X47720716Y-66702284D01*
X52478001Y-61945000D01*
X53571076Y-61945000D01*
X53666613Y-62023405D01*
X53820149Y-62105472D01*
X53864794Y-62119015D01*
X53796041Y-62123966D01*
X53777984Y-62126580D01*
X53497324Y-62188067D01*
X53479829Y-62193242D01*
X53210874Y-62294310D01*
X53194300Y-62301938D01*
X52942603Y-62440501D01*
X52927294Y-62450425D01*
X52698049Y-62623624D01*
X52684319Y-62635639D01*
X52482256Y-62839898D01*
X52470390Y-62853757D01*
X52299680Y-63084861D01*
X52289922Y-63100277D01*
X52154088Y-63353458D01*
X52146640Y-63370113D01*
X52048485Y-63640144D01*
X52043500Y-63657694D01*
X51985050Y-63939003D01*
X51982631Y-63957086D01*
X51965092Y-64243867D01*
X51964862Y-64252993D01*
X52065334Y-73546666D01*
X49122000Y-76490000D01*
X42323000Y-76490000D01*
X42005716Y-76172716D01*
X41974870Y-76135130D01*
X41824884Y-76012040D01*
X41653767Y-75920576D01*
X41468094Y-75864253D01*
X41440540Y-75861539D01*
X41059430Y-75480430D01*
X41049205Y-75455744D01*
X40935937Y-75286226D01*
X40791774Y-75142063D01*
X40622256Y-75028795D01*
X40433898Y-74950774D01*
X40233939Y-74911000D01*
X40170979Y-74911000D01*
X40179898Y-74909226D01*
X40368256Y-74831205D01*
X40537774Y-74717937D01*
X40681937Y-74573774D01*
X40795205Y-74404256D01*
X40873226Y-74215898D01*
X40913000Y-74015939D01*
X40913000Y-73812061D01*
X40873226Y-73612102D01*
X40795205Y-73423744D01*
X40681937Y-73254226D01*
X40537774Y-73110063D01*
X40410468Y-73025000D01*
X40537774Y-72939937D01*
X40681937Y-72795774D01*
X40795205Y-72626256D01*
X40873226Y-72437898D01*
X40913000Y-72237939D01*
X40913000Y-72034061D01*
X40873226Y-71834102D01*
X40795205Y-71645744D01*
X40760609Y-71593967D01*
X47180000Y-71593967D01*
X47180000Y-71916033D01*
X47242832Y-72231912D01*
X47366082Y-72529463D01*
X47545013Y-72797252D01*
X47772748Y-73024987D01*
X48040537Y-73203918D01*
X48338088Y-73327168D01*
X48653967Y-73390000D01*
X48976033Y-73390000D01*
X49291912Y-73327168D01*
X49589463Y-73203918D01*
X49857252Y-73024987D01*
X50084987Y-72797252D01*
X50263918Y-72529463D01*
X50387168Y-72231912D01*
X50450000Y-71916033D01*
X50450000Y-71593967D01*
X50387168Y-71278088D01*
X50263918Y-70980537D01*
X50084987Y-70712748D01*
X49857252Y-70485013D01*
X49589463Y-70306082D01*
X49291912Y-70182832D01*
X48976033Y-70120000D01*
X48653967Y-70120000D01*
X48338088Y-70182832D01*
X48040537Y-70306082D01*
X47772748Y-70485013D01*
X47545013Y-70712748D01*
X47366082Y-70980537D01*
X47242832Y-71278088D01*
X47180000Y-71593967D01*
X40760609Y-71593967D01*
X40681937Y-71476226D01*
X40537774Y-71332063D01*
X40368256Y-71218795D01*
X40179898Y-71140774D01*
X39979939Y-71101000D01*
X39776061Y-71101000D01*
X39576102Y-71140774D01*
X39387744Y-71218795D01*
X39218226Y-71332063D01*
X39074063Y-71476226D01*
X38960795Y-71645744D01*
X38882774Y-71834102D01*
X38843000Y-72034061D01*
X38843000Y-72237939D01*
X38882774Y-72437898D01*
X38960795Y-72626256D01*
X39074063Y-72795774D01*
X39218226Y-72939937D01*
X39345532Y-73025000D01*
X39218226Y-73110063D01*
X39074063Y-73254226D01*
X38960795Y-73423744D01*
X38882774Y-73612102D01*
X38843000Y-73812061D01*
X38843000Y-74015939D01*
X38882774Y-74215898D01*
X38960795Y-74404256D01*
X39074063Y-74573774D01*
X39218226Y-74717937D01*
X39387744Y-74831205D01*
X39576102Y-74909226D01*
X39776061Y-74949000D01*
X39839021Y-74949000D01*
X39830102Y-74950774D01*
X39641744Y-75028795D01*
X39472226Y-75142063D01*
X39328063Y-75286226D01*
X39214795Y-75455744D01*
X39136774Y-75644102D01*
X39097000Y-75844061D01*
X39097000Y-76047939D01*
X39136774Y-76247898D01*
X39214795Y-76436256D01*
X39328063Y-76605774D01*
X39472226Y-76749937D01*
X39641744Y-76863205D01*
X39666430Y-76873430D01*
X39754999Y-76962000D01*
X37832704Y-78884296D01*
X37832699Y-78884300D01*
X37437712Y-79279287D01*
X37400130Y-79310130D01*
X37369289Y-79347710D01*
X37184000Y-79533000D01*
X36518837Y-79533000D01*
X36575512Y-79463942D01*
X36656423Y-79312567D01*
X36706248Y-79148316D01*
X36723072Y-78977500D01*
X36723072Y-78502500D01*
X36706248Y-78331684D01*
X36656423Y-78167433D01*
X36575512Y-78016058D01*
X36466623Y-77883377D01*
X36395000Y-77824597D01*
X36395000Y-77457030D01*
X36523387Y-77388405D01*
X36657962Y-77277962D01*
X36768405Y-77143387D01*
X36850472Y-76989851D01*
X36901008Y-76823255D01*
X36918072Y-76650001D01*
X36918072Y-75749999D01*
X36901008Y-75576745D01*
X36850472Y-75410149D01*
X36768405Y-75256613D01*
X36657962Y-75122038D01*
X36523387Y-75011595D01*
X36369851Y-74929528D01*
X36203255Y-74878992D01*
X36030001Y-74861928D01*
X35379999Y-74861928D01*
X35206745Y-74878992D01*
X35040149Y-74929528D01*
X34886613Y-75011595D01*
X34752038Y-75122038D01*
X34641595Y-75256613D01*
X34559528Y-75410149D01*
X34508992Y-75576745D01*
X34491928Y-75749999D01*
X34491928Y-76650001D01*
X34508992Y-76823255D01*
X34559528Y-76989851D01*
X34641595Y-77143387D01*
X34725001Y-77245017D01*
X34725000Y-77824597D01*
X34685000Y-77857425D01*
X34583942Y-77774488D01*
X34432567Y-77693577D01*
X34268316Y-77643752D01*
X34097500Y-77626928D01*
X33522500Y-77626928D01*
X33351684Y-77643752D01*
X33187433Y-77693577D01*
X33036058Y-77774488D01*
X32903377Y-77883377D01*
X32794488Y-78016058D01*
X32713577Y-78167433D01*
X32663752Y-78331684D01*
X32646928Y-78502500D01*
X32646928Y-78977500D01*
X32663752Y-79148316D01*
X32713577Y-79312567D01*
X32794488Y-79463942D01*
X32903377Y-79596623D01*
X33036058Y-79705512D01*
X33187433Y-79786423D01*
X33351684Y-79836248D01*
X33522500Y-79853072D01*
X33530073Y-79853072D01*
X33578358Y-79901357D01*
X33578362Y-79901362D01*
X34857284Y-81180284D01*
X34888130Y-81217870D01*
X35038116Y-81340960D01*
X35209233Y-81432424D01*
X35351691Y-81475638D01*
X35394905Y-81488747D01*
X35587999Y-81507765D01*
X35636379Y-81503000D01*
X37115000Y-81503000D01*
X37115001Y-89884892D01*
X36946525Y-90053368D01*
X36784010Y-90296589D01*
X36672068Y-90566842D01*
X36615000Y-90853740D01*
X36615000Y-91146260D01*
X36672068Y-91433158D01*
X36784010Y-91703411D01*
X36946525Y-91946632D01*
X37153368Y-92153475D01*
X37396589Y-92315990D01*
X37666842Y-92427932D01*
X37953740Y-92485000D01*
X38246260Y-92485000D01*
X38533158Y-92427932D01*
X38803411Y-92315990D01*
X39046632Y-92153475D01*
X39253475Y-91946632D01*
X39415990Y-91703411D01*
X39527932Y-91433158D01*
X39585000Y-91146260D01*
X39585000Y-90853740D01*
X39527932Y-90566842D01*
X39415990Y-90296589D01*
X39253475Y-90053368D01*
X39085000Y-89884893D01*
X39085000Y-84293967D01*
X47180000Y-84293967D01*
X47180000Y-84616033D01*
X47242832Y-84931912D01*
X47366082Y-85229463D01*
X47545013Y-85497252D01*
X47772748Y-85724987D01*
X48040537Y-85903918D01*
X48338088Y-86027168D01*
X48653967Y-86090000D01*
X48976033Y-86090000D01*
X49291912Y-86027168D01*
X49589463Y-85903918D01*
X49857252Y-85724987D01*
X50084987Y-85497252D01*
X50263918Y-85229463D01*
X50387168Y-84931912D01*
X50450000Y-84616033D01*
X50450000Y-84293967D01*
X50387168Y-83978088D01*
X50263918Y-83680537D01*
X50084987Y-83412748D01*
X49857252Y-83185013D01*
X49589463Y-83006082D01*
X49291912Y-82882832D01*
X48976033Y-82820000D01*
X48653967Y-82820000D01*
X48338088Y-82882832D01*
X48040537Y-83006082D01*
X47772748Y-83185013D01*
X47545013Y-83412748D01*
X47366082Y-83680537D01*
X47242832Y-83978088D01*
X47180000Y-84293967D01*
X39085000Y-84293967D01*
X39085000Y-80418001D01*
X39225700Y-80277301D01*
X39225704Y-80277296D01*
X41277195Y-78225805D01*
X41329006Y-78268325D01*
X41365116Y-78297960D01*
X41536233Y-78389424D01*
X41721906Y-78445747D01*
X41915000Y-78464765D01*
X41963380Y-78460000D01*
X49481620Y-78460000D01*
X49530000Y-78464765D01*
X49578380Y-78460000D01*
X49723094Y-78445747D01*
X49908767Y-78389424D01*
X50079884Y-78297960D01*
X50229870Y-78174870D01*
X50260716Y-78137284D01*
X52095131Y-76302869D01*
X52238890Y-89600585D01*
X52239312Y-89609640D01*
X52262740Y-89894002D01*
X52265512Y-89911907D01*
X52329167Y-90190041D01*
X52334458Y-90207369D01*
X52437042Y-90473615D01*
X52444746Y-90490014D01*
X52584174Y-90738953D01*
X52594132Y-90754088D01*
X52767564Y-90980654D01*
X52779576Y-90994220D01*
X52983484Y-91193800D01*
X52997303Y-91205517D01*
X53227535Y-91374050D01*
X53242881Y-91383682D01*
X53494753Y-91517739D01*
X53511313Y-91525089D01*
X53779698Y-91621940D01*
X53797136Y-91626858D01*
X54076572Y-91684532D01*
X54094532Y-91686920D01*
X54379331Y-91704244D01*
X54388393Y-91704471D01*
X80228260Y-91429579D01*
X80499583Y-91446093D01*
X80761357Y-91500150D01*
X81012762Y-91590923D01*
X81248676Y-91716559D01*
X81464310Y-91874509D01*
X81655262Y-92061551D01*
X81817632Y-92273862D01*
X81948125Y-92507133D01*
X82044080Y-92756610D01*
X82103538Y-93017200D01*
X82125663Y-93288137D01*
X82402766Y-120859971D01*
X82386000Y-121131987D01*
X82331504Y-121394367D01*
X82240110Y-121646294D01*
X82113701Y-121882584D01*
X81954855Y-122098416D01*
X81766826Y-122289369D01*
X81553476Y-122451521D01*
X81319160Y-122581562D01*
X81068674Y-122676830D01*
X80807166Y-122735367D01*
X80535423Y-122756329D01*
X24742233Y-123056293D01*
X24505178Y-123041063D01*
X23995484Y-122891536D01*
X23671411Y-122724627D01*
X23535770Y-122627706D01*
X23347065Y-122448536D01*
X23185015Y-122244934D01*
X23050498Y-122017017D01*
X22551937Y-121019893D01*
X22441128Y-120747515D01*
X22374700Y-120466122D01*
X22352000Y-120172955D01*
X22352000Y-118753120D01*
X22352060Y-118737864D01*
X22359603Y-117779872D01*
X24765000Y-117779872D01*
X24765000Y-118220128D01*
X24850890Y-118651925D01*
X25019369Y-119058669D01*
X25263962Y-119424729D01*
X25575271Y-119736038D01*
X25941331Y-119980631D01*
X26348075Y-120149110D01*
X26779872Y-120235000D01*
X27220128Y-120235000D01*
X27651925Y-120149110D01*
X28058669Y-119980631D01*
X28424729Y-119736038D01*
X28736038Y-119424729D01*
X28980631Y-119058669D01*
X29149110Y-118651925D01*
X29235000Y-118220128D01*
X29235000Y-117779872D01*
X29149110Y-117348075D01*
X28980631Y-116941331D01*
X28916265Y-116845000D01*
X37466928Y-116845000D01*
X37466928Y-120645000D01*
X37479188Y-120769482D01*
X37515498Y-120889180D01*
X37574463Y-120999494D01*
X37653815Y-121096185D01*
X37750506Y-121175537D01*
X37860820Y-121234502D01*
X37980518Y-121270812D01*
X38105000Y-121283072D01*
X41905000Y-121283072D01*
X42029482Y-121270812D01*
X42149180Y-121234502D01*
X42259494Y-121175537D01*
X42356185Y-121096185D01*
X42435537Y-120999494D01*
X42494502Y-120889180D01*
X42530812Y-120769482D01*
X42543072Y-120645000D01*
X42543072Y-116845000D01*
X52071928Y-116845000D01*
X52071928Y-120645000D01*
X52084188Y-120769482D01*
X52120498Y-120889180D01*
X52179463Y-120999494D01*
X52258815Y-121096185D01*
X52355506Y-121175537D01*
X52465820Y-121234502D01*
X52585518Y-121270812D01*
X52710000Y-121283072D01*
X56510000Y-121283072D01*
X56634482Y-121270812D01*
X56754180Y-121234502D01*
X56864494Y-121175537D01*
X56961185Y-121096185D01*
X57040537Y-120999494D01*
X57099502Y-120889180D01*
X57135812Y-120769482D01*
X57148072Y-120645000D01*
X57148072Y-116845000D01*
X66676928Y-116845000D01*
X66676928Y-120645000D01*
X66689188Y-120769482D01*
X66725498Y-120889180D01*
X66784463Y-120999494D01*
X66863815Y-121096185D01*
X66960506Y-121175537D01*
X67070820Y-121234502D01*
X67190518Y-121270812D01*
X67315000Y-121283072D01*
X71115000Y-121283072D01*
X71239482Y-121270812D01*
X71359180Y-121234502D01*
X71469494Y-121175537D01*
X71566185Y-121096185D01*
X71645537Y-120999494D01*
X71704502Y-120889180D01*
X71740812Y-120769482D01*
X71753072Y-120645000D01*
X71753072Y-117889872D01*
X73965000Y-117889872D01*
X73965000Y-118330128D01*
X74050890Y-118761925D01*
X74219369Y-119168669D01*
X74463962Y-119534729D01*
X74775271Y-119846038D01*
X75141331Y-120090631D01*
X75548075Y-120259110D01*
X75979872Y-120345000D01*
X76420128Y-120345000D01*
X76851925Y-120259110D01*
X77258669Y-120090631D01*
X77624729Y-119846038D01*
X77936038Y-119534729D01*
X78180631Y-119168669D01*
X78349110Y-118761925D01*
X78435000Y-118330128D01*
X78435000Y-117889872D01*
X78349110Y-117458075D01*
X78180631Y-117051331D01*
X77936038Y-116685271D01*
X77624729Y-116373962D01*
X77258669Y-116129369D01*
X76851925Y-115960890D01*
X76420128Y-115875000D01*
X75979872Y-115875000D01*
X75548075Y-115960890D01*
X75141331Y-116129369D01*
X74775271Y-116373962D01*
X74463962Y-116685271D01*
X74219369Y-117051331D01*
X74050890Y-117458075D01*
X73965000Y-117889872D01*
X71753072Y-117889872D01*
X71753072Y-116845000D01*
X71740812Y-116720518D01*
X71704502Y-116600820D01*
X71645537Y-116490506D01*
X71566185Y-116393815D01*
X71469494Y-116314463D01*
X71359180Y-116255498D01*
X71239482Y-116219188D01*
X71115000Y-116206928D01*
X67315000Y-116206928D01*
X67190518Y-116219188D01*
X67070820Y-116255498D01*
X66960506Y-116314463D01*
X66863815Y-116393815D01*
X66784463Y-116490506D01*
X66725498Y-116600820D01*
X66689188Y-116720518D01*
X66676928Y-116845000D01*
X57148072Y-116845000D01*
X57135812Y-116720518D01*
X57099502Y-116600820D01*
X57040537Y-116490506D01*
X56961185Y-116393815D01*
X56864494Y-116314463D01*
X56754180Y-116255498D01*
X56634482Y-116219188D01*
X56510000Y-116206928D01*
X52710000Y-116206928D01*
X52585518Y-116219188D01*
X52465820Y-116255498D01*
X52355506Y-116314463D01*
X52258815Y-116393815D01*
X52179463Y-116490506D01*
X52120498Y-116600820D01*
X52084188Y-116720518D01*
X52071928Y-116845000D01*
X42543072Y-116845000D01*
X42530812Y-116720518D01*
X42494502Y-116600820D01*
X42435537Y-116490506D01*
X42356185Y-116393815D01*
X42259494Y-116314463D01*
X42149180Y-116255498D01*
X42029482Y-116219188D01*
X41905000Y-116206928D01*
X38105000Y-116206928D01*
X37980518Y-116219188D01*
X37860820Y-116255498D01*
X37750506Y-116314463D01*
X37653815Y-116393815D01*
X37574463Y-116490506D01*
X37515498Y-116600820D01*
X37479188Y-116720518D01*
X37466928Y-116845000D01*
X28916265Y-116845000D01*
X28736038Y-116575271D01*
X28424729Y-116263962D01*
X28058669Y-116019369D01*
X27651925Y-115850890D01*
X27220128Y-115765000D01*
X26779872Y-115765000D01*
X26348075Y-115850890D01*
X25941331Y-116019369D01*
X25575271Y-116263962D01*
X25263962Y-116575271D01*
X25019369Y-116941331D01*
X24850890Y-117348075D01*
X24765000Y-117779872D01*
X22359603Y-117779872D01*
X22421963Y-109860000D01*
X37466928Y-109860000D01*
X37466928Y-113660000D01*
X37479188Y-113784482D01*
X37515498Y-113904180D01*
X37574463Y-114014494D01*
X37653815Y-114111185D01*
X37750506Y-114190537D01*
X37860820Y-114249502D01*
X37980518Y-114285812D01*
X38105000Y-114298072D01*
X41905000Y-114298072D01*
X42029482Y-114285812D01*
X42149180Y-114249502D01*
X42259494Y-114190537D01*
X42356185Y-114111185D01*
X42435537Y-114014494D01*
X42494502Y-113904180D01*
X42530812Y-113784482D01*
X42543072Y-113660000D01*
X42543072Y-110107361D01*
X55135000Y-110107361D01*
X55135000Y-110872639D01*
X55284298Y-111623213D01*
X55577158Y-112330238D01*
X56002323Y-112966543D01*
X56543457Y-113507677D01*
X57179762Y-113932842D01*
X57886787Y-114225702D01*
X58637361Y-114375000D01*
X59402639Y-114375000D01*
X60153213Y-114225702D01*
X60860238Y-113932842D01*
X61496543Y-113507677D01*
X62037677Y-112966543D01*
X62462842Y-112330238D01*
X62755702Y-111623213D01*
X62905000Y-110872639D01*
X62905000Y-110107361D01*
X62755702Y-109356787D01*
X62462842Y-108649762D01*
X62037677Y-108013457D01*
X61496543Y-107472323D01*
X60860238Y-107047158D01*
X60153213Y-106754298D01*
X59402639Y-106605000D01*
X58637361Y-106605000D01*
X57886787Y-106754298D01*
X57179762Y-107047158D01*
X56543457Y-107472323D01*
X56002323Y-108013457D01*
X55577158Y-108649762D01*
X55284298Y-109356787D01*
X55135000Y-110107361D01*
X42543072Y-110107361D01*
X42543072Y-109860000D01*
X42530812Y-109735518D01*
X42494502Y-109615820D01*
X42435537Y-109505506D01*
X42356185Y-109408815D01*
X42259494Y-109329463D01*
X42149180Y-109270498D01*
X42029482Y-109234188D01*
X41905000Y-109221928D01*
X38105000Y-109221928D01*
X37980518Y-109234188D01*
X37860820Y-109270498D01*
X37750506Y-109329463D01*
X37653815Y-109408815D01*
X37574463Y-109505506D01*
X37515498Y-109615820D01*
X37479188Y-109735518D01*
X37466928Y-109860000D01*
X22421963Y-109860000D01*
X22474804Y-103149061D01*
X49384000Y-103149061D01*
X49384000Y-103352939D01*
X49423774Y-103552898D01*
X49501795Y-103741256D01*
X49615063Y-103910774D01*
X49759226Y-104054937D01*
X49928744Y-104168205D01*
X50117102Y-104246226D01*
X50317061Y-104286000D01*
X50520939Y-104286000D01*
X50720898Y-104246226D01*
X50909256Y-104168205D01*
X51078774Y-104054937D01*
X51222937Y-103910774D01*
X51336205Y-103741256D01*
X51346431Y-103716568D01*
X51481279Y-103581721D01*
X51518869Y-103550871D01*
X51641959Y-103400885D01*
X51733423Y-103229768D01*
X51789746Y-103044095D01*
X51803999Y-102899381D01*
X51803999Y-102899380D01*
X51808764Y-102851002D01*
X51803999Y-102802622D01*
X51803999Y-102624001D01*
X52070000Y-102358000D01*
X52761928Y-103049929D01*
X52761928Y-103320001D01*
X52778992Y-103493255D01*
X52829528Y-103659851D01*
X52911595Y-103813387D01*
X53022038Y-103947962D01*
X53156613Y-104058405D01*
X53310149Y-104140472D01*
X53476745Y-104191008D01*
X53649999Y-104208072D01*
X53920072Y-104208072D01*
X55294289Y-105582290D01*
X55325130Y-105619870D01*
X55362709Y-105650710D01*
X55475116Y-105742960D01*
X55646233Y-105834424D01*
X55831906Y-105890747D01*
X56025000Y-105909765D01*
X56073380Y-105905000D01*
X57381076Y-105905000D01*
X57476613Y-105983405D01*
X57630149Y-106065472D01*
X57796745Y-106116008D01*
X57969999Y-106133072D01*
X58870001Y-106133072D01*
X59043255Y-106116008D01*
X59209851Y-106065472D01*
X59363387Y-105983405D01*
X59497962Y-105872962D01*
X59608405Y-105738387D01*
X59690472Y-105584851D01*
X59741008Y-105418255D01*
X59758072Y-105245001D01*
X59758072Y-104594999D01*
X59741008Y-104421745D01*
X59690472Y-104255149D01*
X59608405Y-104101613D01*
X59497962Y-103967038D01*
X59410184Y-103895000D01*
X59497962Y-103822962D01*
X59608405Y-103688387D01*
X59690472Y-103534851D01*
X59741008Y-103368255D01*
X59758072Y-103195001D01*
X59758072Y-103170000D01*
X59877705Y-103170000D01*
X60023102Y-103230226D01*
X60223061Y-103270000D01*
X60426939Y-103270000D01*
X60626898Y-103230226D01*
X60815256Y-103152205D01*
X60984774Y-103038937D01*
X61128937Y-102894774D01*
X61242205Y-102725256D01*
X61320226Y-102536898D01*
X61360000Y-102336939D01*
X61360000Y-102133061D01*
X61320226Y-101933102D01*
X61242205Y-101744744D01*
X61128937Y-101575226D01*
X60984774Y-101431063D01*
X60815256Y-101317795D01*
X60626898Y-101239774D01*
X60426939Y-101200000D01*
X60223061Y-101200000D01*
X60023102Y-101239774D01*
X59877705Y-101300000D01*
X59100935Y-101300000D01*
X59055000Y-101295476D01*
X58871708Y-101313528D01*
X58695459Y-101366993D01*
X58646727Y-101393041D01*
X58533028Y-101453814D01*
X58390656Y-101570656D01*
X58361370Y-101606341D01*
X58310783Y-101656928D01*
X57969999Y-101656928D01*
X57796745Y-101673992D01*
X57630149Y-101724528D01*
X57476613Y-101806595D01*
X57342038Y-101917038D01*
X57327297Y-101935000D01*
X57092888Y-101935000D01*
X57088405Y-101926613D01*
X56977962Y-101792038D01*
X56960000Y-101777297D01*
X56960000Y-100375932D01*
X56964524Y-100330000D01*
X56946471Y-100146708D01*
X56945055Y-100142040D01*
X56893007Y-99970460D01*
X56806186Y-99808028D01*
X56689344Y-99665656D01*
X56653660Y-99636371D01*
X56397417Y-99380128D01*
X56448906Y-99395747D01*
X56642000Y-99414765D01*
X56690380Y-99410000D01*
X57165880Y-99410000D01*
X57184967Y-99438566D01*
X57406434Y-99660033D01*
X57666853Y-99834039D01*
X57956214Y-99953897D01*
X58263399Y-100015000D01*
X58576601Y-100015000D01*
X58883786Y-99953897D01*
X59173147Y-99834039D01*
X59433566Y-99660033D01*
X59655033Y-99438566D01*
X59674120Y-99410000D01*
X72261620Y-99410000D01*
X72310000Y-99414765D01*
X72358380Y-99410000D01*
X72503094Y-99395747D01*
X72688767Y-99339424D01*
X72859884Y-99247960D01*
X73009870Y-99124870D01*
X73040716Y-99087284D01*
X74663955Y-97464045D01*
X74693891Y-97470000D01*
X75006109Y-97470000D01*
X75312327Y-97409089D01*
X75600779Y-97289609D01*
X75860379Y-97116150D01*
X76081150Y-96895379D01*
X76254609Y-96635779D01*
X76374089Y-96347327D01*
X76435000Y-96041109D01*
X76435000Y-95728891D01*
X76374089Y-95422673D01*
X76254609Y-95134221D01*
X76081150Y-94874621D01*
X75860379Y-94653850D01*
X75600779Y-94480391D01*
X75312327Y-94360911D01*
X75006109Y-94300000D01*
X74693891Y-94300000D01*
X74387673Y-94360911D01*
X74099221Y-94480391D01*
X73839621Y-94653850D01*
X73618850Y-94874621D01*
X73600000Y-94902832D01*
X73581150Y-94874621D01*
X73485000Y-94778471D01*
X73485000Y-93451552D01*
X73490491Y-93395800D01*
X73468577Y-93173301D01*
X73403676Y-92959353D01*
X73298284Y-92762177D01*
X73156449Y-92589351D01*
X72983623Y-92447516D01*
X72786447Y-92342124D01*
X72572499Y-92277223D01*
X72405752Y-92260800D01*
X72350000Y-92255309D01*
X72294249Y-92260800D01*
X59533599Y-92260800D01*
X59433566Y-92160767D01*
X59173147Y-91986761D01*
X58883786Y-91866903D01*
X58576601Y-91805800D01*
X58263399Y-91805800D01*
X57956214Y-91866903D01*
X57666853Y-91986761D01*
X57406434Y-92160767D01*
X57184967Y-92382234D01*
X57010961Y-92642653D01*
X56891103Y-92932014D01*
X56830000Y-93239199D01*
X56830000Y-93552401D01*
X56891103Y-93859586D01*
X57010961Y-94148947D01*
X57184967Y-94409366D01*
X57194529Y-94418928D01*
X57135906Y-94450263D01*
X57039215Y-94529615D01*
X56959863Y-94626306D01*
X56900898Y-94736620D01*
X56864588Y-94856318D01*
X56852328Y-94980800D01*
X56852328Y-96890800D01*
X56864588Y-97015282D01*
X56900898Y-97134980D01*
X56959863Y-97245294D01*
X57039215Y-97341985D01*
X57135906Y-97421337D01*
X57167180Y-97438054D01*
X57165880Y-97440000D01*
X57050001Y-97440000D01*
X55467716Y-95857716D01*
X55436870Y-95820130D01*
X55286884Y-95697040D01*
X55115767Y-95605576D01*
X54930094Y-95549253D01*
X54785380Y-95535000D01*
X54737000Y-95530235D01*
X54688620Y-95535000D01*
X52118380Y-95535000D01*
X52070000Y-95530235D01*
X52021620Y-95535000D01*
X51876906Y-95549253D01*
X51691233Y-95605576D01*
X51520116Y-95697040D01*
X51370130Y-95820130D01*
X51247040Y-95970116D01*
X51155576Y-96141233D01*
X51099253Y-96326906D01*
X51080235Y-96520000D01*
X51085000Y-96568380D01*
X51085001Y-100556998D01*
X50156710Y-101485290D01*
X50119130Y-101516131D01*
X49996040Y-101666117D01*
X49991831Y-101673992D01*
X49904575Y-101837235D01*
X49874692Y-101935747D01*
X49848252Y-102022907D01*
X49837403Y-102133061D01*
X49829234Y-102216001D01*
X49833999Y-102264381D01*
X49833999Y-102397101D01*
X49759226Y-102447063D01*
X49615063Y-102591226D01*
X49501795Y-102760744D01*
X49423774Y-102949102D01*
X49384000Y-103149061D01*
X22474804Y-103149061D01*
X22523270Y-96993967D01*
X47180000Y-96993967D01*
X47180000Y-97316033D01*
X47242832Y-97631912D01*
X47366082Y-97929463D01*
X47545013Y-98197252D01*
X47772748Y-98424987D01*
X48040537Y-98603918D01*
X48338088Y-98727168D01*
X48653967Y-98790000D01*
X48976033Y-98790000D01*
X49291912Y-98727168D01*
X49589463Y-98603918D01*
X49857252Y-98424987D01*
X50084987Y-98197252D01*
X50263918Y-97929463D01*
X50387168Y-97631912D01*
X50450000Y-97316033D01*
X50450000Y-96993967D01*
X50387168Y-96678088D01*
X50263918Y-96380537D01*
X50084987Y-96112748D01*
X49857252Y-95885013D01*
X49589463Y-95706082D01*
X49291912Y-95582832D01*
X48976033Y-95520000D01*
X48653967Y-95520000D01*
X48338088Y-95582832D01*
X48040537Y-95706082D01*
X47772748Y-95885013D01*
X47545013Y-96112748D01*
X47366082Y-96380537D01*
X47242832Y-96678088D01*
X47180000Y-96993967D01*
X22523270Y-96993967D01*
X22571619Y-90853740D01*
X31615000Y-90853740D01*
X31615000Y-91146260D01*
X31672068Y-91433158D01*
X31784010Y-91703411D01*
X31946525Y-91946632D01*
X32153368Y-92153475D01*
X32396589Y-92315990D01*
X32666842Y-92427932D01*
X32953740Y-92485000D01*
X33246260Y-92485000D01*
X33533158Y-92427932D01*
X33803411Y-92315990D01*
X34046632Y-92153475D01*
X34253475Y-91946632D01*
X34415990Y-91703411D01*
X34527932Y-91433158D01*
X34585000Y-91146260D01*
X34585000Y-90853740D01*
X34527932Y-90566842D01*
X34415990Y-90296589D01*
X34253475Y-90053368D01*
X34046632Y-89846525D01*
X33803411Y-89684010D01*
X33533158Y-89572068D01*
X33246260Y-89515000D01*
X32953740Y-89515000D01*
X32666842Y-89572068D01*
X32396589Y-89684010D01*
X32153368Y-89846525D01*
X31946525Y-90053368D01*
X31784010Y-90296589D01*
X31672068Y-90566842D01*
X31615000Y-90853740D01*
X22571619Y-90853740D01*
X22823271Y-58893967D01*
X47180000Y-58893967D01*
X47180000Y-59216033D01*
X47242832Y-59531912D01*
X47366082Y-59829463D01*
X47545013Y-60097252D01*
X47772748Y-60324987D01*
X48040537Y-60503918D01*
X48338088Y-60627168D01*
X48653967Y-60690000D01*
X48976033Y-60690000D01*
X49291912Y-60627168D01*
X49589463Y-60503918D01*
X49857252Y-60324987D01*
X50084987Y-60097252D01*
X50263918Y-59829463D01*
X50387168Y-59531912D01*
X50450000Y-59216033D01*
X50450000Y-58893967D01*
X50387168Y-58578088D01*
X50263918Y-58280537D01*
X50084987Y-58012748D01*
X49857252Y-57785013D01*
X49589463Y-57606082D01*
X49291912Y-57482832D01*
X48976033Y-57420000D01*
X48653967Y-57420000D01*
X48338088Y-57482832D01*
X48040537Y-57606082D01*
X47772748Y-57785013D01*
X47545013Y-58012748D01*
X47366082Y-58280537D01*
X47242832Y-58578088D01*
X47180000Y-58893967D01*
X22823271Y-58893967D01*
X22946964Y-43185000D01*
X38021928Y-43185000D01*
X38021928Y-46985000D01*
X38034188Y-47109482D01*
X38070498Y-47229180D01*
X38129463Y-47339494D01*
X38208815Y-47436185D01*
X38305506Y-47515537D01*
X38415820Y-47574502D01*
X38535518Y-47610812D01*
X38660000Y-47623072D01*
X42460000Y-47623072D01*
X42584482Y-47610812D01*
X42704180Y-47574502D01*
X42814494Y-47515537D01*
X42911185Y-47436185D01*
X42990537Y-47339494D01*
X43049502Y-47229180D01*
X43085812Y-47109482D01*
X43098072Y-46985000D01*
X43098072Y-43185000D01*
X43085812Y-43060518D01*
X43049502Y-42940820D01*
X42990537Y-42830506D01*
X42911185Y-42733815D01*
X42814494Y-42654463D01*
X42704180Y-42595498D01*
X42584482Y-42559188D01*
X42460000Y-42546928D01*
X38660000Y-42546928D01*
X38535518Y-42559188D01*
X38415820Y-42595498D01*
X38305506Y-42654463D01*
X38208815Y-42733815D01*
X38129463Y-42830506D01*
X38070498Y-42940820D01*
X38034188Y-43060518D01*
X38021928Y-43185000D01*
X22946964Y-43185000D01*
X22986934Y-38108874D01*
X22986937Y-38108374D01*
X22986999Y-38092626D01*
X22987000Y-38092126D01*
X22987000Y-37779872D01*
X24765000Y-37779872D01*
X24765000Y-38220128D01*
X24850890Y-38651925D01*
X25019369Y-39058669D01*
X25263962Y-39424729D01*
X25575271Y-39736038D01*
X25941331Y-39980631D01*
X26348075Y-40149110D01*
X26779872Y-40235000D01*
X27220128Y-40235000D01*
X27651925Y-40149110D01*
X28058669Y-39980631D01*
X28424729Y-39736038D01*
X28736038Y-39424729D01*
X28980631Y-39058669D01*
X29149110Y-38651925D01*
X29235000Y-38220128D01*
X29235000Y-37779872D01*
X29149110Y-37348075D01*
X28980631Y-36941331D01*
X28736038Y-36575271D01*
X28424729Y-36263962D01*
X28329003Y-36200000D01*
X38021928Y-36200000D01*
X38021928Y-40000000D01*
X38034188Y-40124482D01*
X38070498Y-40244180D01*
X38129463Y-40354494D01*
X38208815Y-40451185D01*
X38305506Y-40530537D01*
X38415820Y-40589502D01*
X38535518Y-40625812D01*
X38660000Y-40638072D01*
X42460000Y-40638072D01*
X42584482Y-40625812D01*
X42704180Y-40589502D01*
X42814494Y-40530537D01*
X42911185Y-40451185D01*
X42990537Y-40354494D01*
X43049502Y-40244180D01*
X43085812Y-40124482D01*
X43098072Y-40000000D01*
X43098072Y-36200000D01*
X43085812Y-36075518D01*
X43049502Y-35955820D01*
X42990537Y-35845506D01*
X42911185Y-35748815D01*
X42814494Y-35669463D01*
X42704180Y-35610498D01*
X42584482Y-35574188D01*
X42460000Y-35561928D01*
X38660000Y-35561928D01*
X38535518Y-35574188D01*
X38415820Y-35610498D01*
X38305506Y-35669463D01*
X38208815Y-35748815D01*
X38129463Y-35845506D01*
X38070498Y-35955820D01*
X38034188Y-36075518D01*
X38021928Y-36200000D01*
X28329003Y-36200000D01*
X28058669Y-36019369D01*
X27651925Y-35850890D01*
X27220128Y-35765000D01*
X26779872Y-35765000D01*
X26348075Y-35850890D01*
X25941331Y-36019369D01*
X25575271Y-36263962D01*
X25263962Y-36575271D01*
X25019369Y-36941331D01*
X24850890Y-37348075D01*
X24765000Y-37779872D01*
X22987000Y-37779872D01*
X22987000Y-36517483D01*
X23005368Y-36284093D01*
X23058855Y-36061304D01*
X23146536Y-35849624D01*
X23266248Y-35654272D01*
X23415049Y-35480049D01*
X23589272Y-35331248D01*
X23784624Y-35211536D01*
X23996304Y-35123855D01*
X24219093Y-35070368D01*
X24452483Y-35052000D01*
X55145470Y-35052000D01*
X55416504Y-35071385D01*
G36*
X53185149Y-99425472D02*
G01*
X53351745Y-99476008D01*
X53524999Y-99493072D01*
X53865783Y-99493072D01*
X55090000Y-100717289D01*
X55090001Y-101777296D01*
X55072038Y-101792038D01*
X55000000Y-101879816D01*
X54927962Y-101792038D01*
X54793387Y-101681595D01*
X54639851Y-101599528D01*
X54473255Y-101548992D01*
X54300001Y-101531928D01*
X54029929Y-101531928D01*
X53055000Y-100557000D01*
X53055000Y-99355906D01*
X53185149Y-99425472D01*
X53185149Y-99425472D01*
G37*
X53185149Y-99425472D02*
X53351745Y-99476008D01*
X53524999Y-99493072D01*
X53865783Y-99493072D01*
X55090000Y-100717289D01*
X55090001Y-101777296D01*
X55072038Y-101792038D01*
X55000000Y-101879816D01*
X54927962Y-101792038D01*
X54793387Y-101681595D01*
X54639851Y-101599528D01*
X54473255Y-101548992D01*
X54300001Y-101531928D01*
X54029929Y-101531928D01*
X53055000Y-100557000D01*
X53055000Y-99355906D01*
X53185149Y-99425472D01*
G36*
X80190140Y-42027925D02*
G01*
X80514681Y-42047102D01*
X80831530Y-42101820D01*
X81140283Y-42191603D01*
X81437058Y-42315322D01*
X81718158Y-42471435D01*
X81980049Y-42657983D01*
X82219455Y-42872629D01*
X82433367Y-43112675D01*
X82619124Y-43375138D01*
X82774380Y-43656697D01*
X82897204Y-43953859D01*
X82986049Y-44262876D01*
X83039807Y-44579894D01*
X83058000Y-44904480D01*
X83058000Y-89526672D01*
X83039631Y-89666197D01*
X82988990Y-89788454D01*
X82908436Y-89893436D01*
X82803454Y-89973990D01*
X82681197Y-90024631D01*
X82541672Y-90043000D01*
X56343560Y-90043000D01*
X56018354Y-90024737D01*
X55700734Y-89970772D01*
X55391182Y-89881591D01*
X55093532Y-89758300D01*
X54811579Y-89602471D01*
X54548844Y-89416049D01*
X54308624Y-89201376D01*
X54093951Y-88961156D01*
X53907529Y-88698421D01*
X53751700Y-88416468D01*
X53628409Y-88118818D01*
X53539228Y-87809266D01*
X53485263Y-87491646D01*
X53467000Y-87166440D01*
X53467000Y-74931000D01*
X54215131Y-74182869D01*
X54218286Y-74186714D01*
X54467248Y-74391031D01*
X54751285Y-74542852D01*
X55059484Y-74636343D01*
X55299678Y-74660000D01*
X56460322Y-74660000D01*
X56700516Y-74636343D01*
X57008715Y-74542852D01*
X57292752Y-74391031D01*
X57541714Y-74186714D01*
X57746031Y-73937752D01*
X57897852Y-73653715D01*
X57991343Y-73345516D01*
X58022911Y-73025000D01*
X57991343Y-72704484D01*
X57897852Y-72396285D01*
X57746031Y-72112248D01*
X57541714Y-71863286D01*
X57292752Y-71658969D01*
X57008715Y-71507148D01*
X56700516Y-71413657D01*
X56460322Y-71390000D01*
X55299678Y-71390000D01*
X55059484Y-71413657D01*
X54751285Y-71507148D01*
X54467248Y-71658969D01*
X54218286Y-71863286D01*
X54073261Y-72040000D01*
X54028379Y-72040000D01*
X53979999Y-72035235D01*
X53786905Y-72054253D01*
X53743691Y-72067362D01*
X53601233Y-72110576D01*
X53467000Y-72182325D01*
X53467000Y-65847194D01*
X53485098Y-65523456D01*
X53505131Y-65405000D01*
X53737089Y-65405000D01*
X53768657Y-65725516D01*
X53862148Y-66033715D01*
X54013969Y-66317752D01*
X54218286Y-66566714D01*
X54467248Y-66771031D01*
X54751285Y-66922852D01*
X55059484Y-67016343D01*
X55299678Y-67040000D01*
X56460322Y-67040000D01*
X56700516Y-67016343D01*
X57008715Y-66922852D01*
X57292752Y-66771031D01*
X57541714Y-66566714D01*
X57746031Y-66317752D01*
X57897852Y-66033715D01*
X57991343Y-65725516D01*
X58022911Y-65405000D01*
X57991343Y-65084484D01*
X57897852Y-64776285D01*
X57746031Y-64492248D01*
X57541714Y-64243286D01*
X57292752Y-64038969D01*
X57008715Y-63887148D01*
X56700516Y-63793657D01*
X56460322Y-63770000D01*
X55299678Y-63770000D01*
X55059484Y-63793657D01*
X54751285Y-63887148D01*
X54467248Y-64038969D01*
X54218286Y-64243286D01*
X54013969Y-64492248D01*
X53862148Y-64776285D01*
X53768657Y-65084484D01*
X53737089Y-65405000D01*
X53505131Y-65405000D01*
X53538576Y-65207243D01*
X53626961Y-64898973D01*
X53749156Y-64602472D01*
X53903639Y-64321434D01*
X54088480Y-64059370D01*
X54301379Y-63819539D01*
X54539683Y-63604933D01*
X54800432Y-63418216D01*
X55080342Y-63261739D01*
X55375977Y-63137424D01*
X55683608Y-63046839D01*
X55999419Y-62991106D01*
X56323019Y-62970696D01*
X59252335Y-62949773D01*
X59259422Y-62949524D01*
X59593652Y-62928443D01*
X59607729Y-62926762D01*
X59937528Y-62868561D01*
X59951330Y-62865322D01*
X60272586Y-62770725D01*
X60285942Y-62765968D01*
X60594653Y-62636154D01*
X60607394Y-62629937D01*
X60899713Y-62466523D01*
X60911683Y-62458926D01*
X61183967Y-62263950D01*
X61184191Y-62263770D01*
X61184190Y-71907810D01*
X56625072Y-76466928D01*
X54380000Y-76466928D01*
X54255518Y-76479188D01*
X54135820Y-76515498D01*
X54025506Y-76574463D01*
X53928815Y-76653815D01*
X53849463Y-76750506D01*
X53790498Y-76860820D01*
X53754188Y-76980518D01*
X53741928Y-77105000D01*
X53741928Y-79105000D01*
X53754188Y-79229482D01*
X53790498Y-79349180D01*
X53849463Y-79459494D01*
X53928815Y-79556185D01*
X54025506Y-79635537D01*
X54135820Y-79694502D01*
X54255518Y-79730812D01*
X54380000Y-79743072D01*
X57380000Y-79743072D01*
X57504482Y-79730812D01*
X57624180Y-79694502D01*
X57734494Y-79635537D01*
X57831185Y-79556185D01*
X57910537Y-79459494D01*
X57969502Y-79349180D01*
X58005812Y-79229482D01*
X58018072Y-79105000D01*
X58018072Y-77859928D01*
X62831474Y-73046526D01*
X62869060Y-73015680D01*
X62992150Y-72865694D01*
X63083614Y-72694577D01*
X63139937Y-72508904D01*
X63154190Y-72364190D01*
X63154190Y-72364189D01*
X63158955Y-72315811D01*
X63154190Y-72267431D01*
X63154190Y-60123072D01*
X63249362Y-60123072D01*
X75165001Y-72038712D01*
X75165000Y-74018720D01*
X75071285Y-74047148D01*
X74787248Y-74198969D01*
X74538286Y-74403286D01*
X74333969Y-74652248D01*
X74182148Y-74936285D01*
X74088657Y-75244484D01*
X74057089Y-75565000D01*
X74088657Y-75885516D01*
X74182148Y-76193715D01*
X74333969Y-76477752D01*
X74538286Y-76726714D01*
X74787248Y-76931031D01*
X75071285Y-77082852D01*
X75379484Y-77176343D01*
X75619678Y-77200000D01*
X76780322Y-77200000D01*
X77020516Y-77176343D01*
X77328715Y-77082852D01*
X77612752Y-76931031D01*
X77861714Y-76726714D01*
X78066031Y-76477752D01*
X78217852Y-76193715D01*
X78311343Y-75885516D01*
X78342911Y-75565000D01*
X78311343Y-75244484D01*
X78217852Y-74936285D01*
X78066031Y-74652248D01*
X77861714Y-74403286D01*
X77612752Y-74198969D01*
X77328715Y-74047148D01*
X77235000Y-74018720D01*
X77235000Y-71660827D01*
X77240006Y-71609999D01*
X77235000Y-71559171D01*
X77235000Y-71559162D01*
X77220024Y-71407105D01*
X77160841Y-71212007D01*
X77116104Y-71128309D01*
X77064734Y-71032202D01*
X76967803Y-70914092D01*
X76935396Y-70874604D01*
X76895908Y-70842197D01*
X71458711Y-65405000D01*
X74057089Y-65405000D01*
X74088657Y-65725516D01*
X74182148Y-66033715D01*
X74333969Y-66317752D01*
X74538286Y-66566714D01*
X74787248Y-66771031D01*
X75071285Y-66922852D01*
X75379484Y-67016343D01*
X75619678Y-67040000D01*
X76780322Y-67040000D01*
X77020516Y-67016343D01*
X77328715Y-66922852D01*
X77612752Y-66771031D01*
X77861714Y-66566714D01*
X78066031Y-66317752D01*
X78217852Y-66033715D01*
X78311343Y-65725516D01*
X78342911Y-65405000D01*
X78311343Y-65084484D01*
X78217852Y-64776285D01*
X78066031Y-64492248D01*
X77861714Y-64243286D01*
X77612752Y-64038969D01*
X77328715Y-63887148D01*
X77020516Y-63793657D01*
X76780322Y-63770000D01*
X75619678Y-63770000D01*
X75379484Y-63793657D01*
X75071285Y-63887148D01*
X74787248Y-64038969D01*
X74538286Y-64243286D01*
X74333969Y-64492248D01*
X74182148Y-64776285D01*
X74088657Y-65084484D01*
X74057089Y-65405000D01*
X71458711Y-65405000D01*
X64838072Y-58784362D01*
X64838072Y-58584999D01*
X64821008Y-58411745D01*
X64770472Y-58245149D01*
X64688405Y-58091613D01*
X64577962Y-57957038D01*
X64535000Y-57921780D01*
X64535000Y-56882369D01*
X64597038Y-56957962D01*
X64731613Y-57068405D01*
X64885149Y-57150472D01*
X65051745Y-57201008D01*
X65224999Y-57218072D01*
X65875001Y-57218072D01*
X66048255Y-57201008D01*
X66214851Y-57150472D01*
X66368387Y-57068405D01*
X66502962Y-56957962D01*
X66613405Y-56823387D01*
X66695472Y-56669851D01*
X66746008Y-56503255D01*
X66763072Y-56330001D01*
X66763072Y-56130638D01*
X71815908Y-51077803D01*
X71855396Y-51045396D01*
X71900823Y-50990043D01*
X71984734Y-50887798D01*
X72080841Y-50707994D01*
X72102043Y-50638100D01*
X72124218Y-50565000D01*
X72974172Y-50565000D01*
X73025000Y-50570006D01*
X73075828Y-50565000D01*
X73075838Y-50565000D01*
X73227895Y-50550024D01*
X73422993Y-50490841D01*
X73602797Y-50394734D01*
X73760396Y-50265396D01*
X73792807Y-50225903D01*
X74335197Y-49683513D01*
X74719721Y-49760000D01*
X75140279Y-49760000D01*
X75552756Y-49677953D01*
X75941302Y-49517012D01*
X76290983Y-49283363D01*
X76588363Y-48985983D01*
X76822012Y-48636302D01*
X76982953Y-48247756D01*
X77065000Y-47835279D01*
X77065000Y-47414721D01*
X76982953Y-47002244D01*
X76822012Y-46613698D01*
X76588363Y-46264017D01*
X76290983Y-45966637D01*
X75941302Y-45732988D01*
X75552756Y-45572047D01*
X75140279Y-45490000D01*
X74719721Y-45490000D01*
X74307244Y-45572047D01*
X73918698Y-45732988D01*
X73569017Y-45966637D01*
X73271637Y-46264017D01*
X73037988Y-46613698D01*
X72877047Y-47002244D01*
X72795000Y-47414721D01*
X72795000Y-47835279D01*
X72871487Y-48219803D01*
X72596290Y-48495000D01*
X71548711Y-48495000D01*
X69982807Y-46929097D01*
X69950396Y-46889604D01*
X69792797Y-46760266D01*
X69612993Y-46664159D01*
X69417895Y-46604976D01*
X69265838Y-46590000D01*
X69265828Y-46590000D01*
X69215000Y-46584994D01*
X69164172Y-46590000D01*
X67558938Y-46590000D01*
X67537567Y-46578577D01*
X67373316Y-46528752D01*
X67202500Y-46511928D01*
X66627500Y-46511928D01*
X66456684Y-46528752D01*
X66292433Y-46578577D01*
X66141058Y-46659488D01*
X66040000Y-46742425D01*
X65938942Y-46659488D01*
X65787567Y-46578577D01*
X65623316Y-46528752D01*
X65452500Y-46511928D01*
X64877500Y-46511928D01*
X64706684Y-46528752D01*
X64542433Y-46578577D01*
X64391058Y-46659488D01*
X64258377Y-46768377D01*
X64149488Y-46901058D01*
X64068577Y-47052433D01*
X64018752Y-47216684D01*
X64001928Y-47387500D01*
X64001928Y-47862500D01*
X64018752Y-48033316D01*
X64068577Y-48197567D01*
X64130000Y-48312483D01*
X64130001Y-49484163D01*
X64124994Y-49535000D01*
X64144977Y-49737895D01*
X64204160Y-49932993D01*
X64300266Y-50112797D01*
X64342721Y-50164528D01*
X64429605Y-50270396D01*
X64469092Y-50302802D01*
X65851928Y-51685639D01*
X65851928Y-51885001D01*
X65868992Y-52058255D01*
X65919528Y-52224851D01*
X66001595Y-52378387D01*
X66112038Y-52512962D01*
X66246613Y-52623405D01*
X66400149Y-52705472D01*
X66566745Y-52756008D01*
X66739999Y-52773072D01*
X67193218Y-52773072D01*
X65424362Y-54541928D01*
X65224999Y-54541928D01*
X65051745Y-54558992D01*
X64885149Y-54609528D01*
X64731613Y-54691595D01*
X64597038Y-54802038D01*
X64525000Y-54889816D01*
X64452962Y-54802038D01*
X64318387Y-54691595D01*
X64164851Y-54609528D01*
X63998255Y-54558992D01*
X63825001Y-54541928D01*
X63174999Y-54541928D01*
X63154190Y-54543978D01*
X63154190Y-51417190D01*
X63158955Y-51368810D01*
X63149306Y-51270841D01*
X63139937Y-51175716D01*
X63083614Y-50990043D01*
X62992150Y-50818926D01*
X62869060Y-50668940D01*
X62719074Y-50545850D01*
X62547957Y-50454386D01*
X62362284Y-50398063D01*
X62357000Y-50397543D01*
X62357000Y-44859168D01*
X62375333Y-44533342D01*
X62429505Y-44215136D01*
X62519031Y-43905017D01*
X62642778Y-43606903D01*
X62799185Y-43324555D01*
X62986289Y-43061522D01*
X63201701Y-42821156D01*
X63442731Y-42606462D01*
X63706322Y-42420162D01*
X63989141Y-42264612D01*
X64287633Y-42141767D01*
X64598019Y-42053182D01*
X64916388Y-41999975D01*
X65242276Y-41982628D01*
X80190140Y-42027925D01*
X80190140Y-42027925D01*
G37*
X80190140Y-42027925D02*
X80514681Y-42047102D01*
X80831530Y-42101820D01*
X81140283Y-42191603D01*
X81437058Y-42315322D01*
X81718158Y-42471435D01*
X81980049Y-42657983D01*
X82219455Y-42872629D01*
X82433367Y-43112675D01*
X82619124Y-43375138D01*
X82774380Y-43656697D01*
X82897204Y-43953859D01*
X82986049Y-44262876D01*
X83039807Y-44579894D01*
X83058000Y-44904480D01*
X83058000Y-89526672D01*
X83039631Y-89666197D01*
X82988990Y-89788454D01*
X82908436Y-89893436D01*
X82803454Y-89973990D01*
X82681197Y-90024631D01*
X82541672Y-90043000D01*
X56343560Y-90043000D01*
X56018354Y-90024737D01*
X55700734Y-89970772D01*
X55391182Y-89881591D01*
X55093532Y-89758300D01*
X54811579Y-89602471D01*
X54548844Y-89416049D01*
X54308624Y-89201376D01*
X54093951Y-88961156D01*
X53907529Y-88698421D01*
X53751700Y-88416468D01*
X53628409Y-88118818D01*
X53539228Y-87809266D01*
X53485263Y-87491646D01*
X53467000Y-87166440D01*
X53467000Y-74931000D01*
X54215131Y-74182869D01*
X54218286Y-74186714D01*
X54467248Y-74391031D01*
X54751285Y-74542852D01*
X55059484Y-74636343D01*
X55299678Y-74660000D01*
X56460322Y-74660000D01*
X56700516Y-74636343D01*
X57008715Y-74542852D01*
X57292752Y-74391031D01*
X57541714Y-74186714D01*
X57746031Y-73937752D01*
X57897852Y-73653715D01*
X57991343Y-73345516D01*
X58022911Y-73025000D01*
X57991343Y-72704484D01*
X57897852Y-72396285D01*
X57746031Y-72112248D01*
X57541714Y-71863286D01*
X57292752Y-71658969D01*
X57008715Y-71507148D01*
X56700516Y-71413657D01*
X56460322Y-71390000D01*
X55299678Y-71390000D01*
X55059484Y-71413657D01*
X54751285Y-71507148D01*
X54467248Y-71658969D01*
X54218286Y-71863286D01*
X54073261Y-72040000D01*
X54028379Y-72040000D01*
X53979999Y-72035235D01*
X53786905Y-72054253D01*
X53743691Y-72067362D01*
X53601233Y-72110576D01*
X53467000Y-72182325D01*
X53467000Y-65847194D01*
X53485098Y-65523456D01*
X53505131Y-65405000D01*
X53737089Y-65405000D01*
X53768657Y-65725516D01*
X53862148Y-66033715D01*
X54013969Y-66317752D01*
X54218286Y-66566714D01*
X54467248Y-66771031D01*
X54751285Y-66922852D01*
X55059484Y-67016343D01*
X55299678Y-67040000D01*
X56460322Y-67040000D01*
X56700516Y-67016343D01*
X57008715Y-66922852D01*
X57292752Y-66771031D01*
X57541714Y-66566714D01*
X57746031Y-66317752D01*
X57897852Y-66033715D01*
X57991343Y-65725516D01*
X58022911Y-65405000D01*
X57991343Y-65084484D01*
X57897852Y-64776285D01*
X57746031Y-64492248D01*
X57541714Y-64243286D01*
X57292752Y-64038969D01*
X57008715Y-63887148D01*
X56700516Y-63793657D01*
X56460322Y-63770000D01*
X55299678Y-63770000D01*
X55059484Y-63793657D01*
X54751285Y-63887148D01*
X54467248Y-64038969D01*
X54218286Y-64243286D01*
X54013969Y-64492248D01*
X53862148Y-64776285D01*
X53768657Y-65084484D01*
X53737089Y-65405000D01*
X53505131Y-65405000D01*
X53538576Y-65207243D01*
X53626961Y-64898973D01*
X53749156Y-64602472D01*
X53903639Y-64321434D01*
X54088480Y-64059370D01*
X54301379Y-63819539D01*
X54539683Y-63604933D01*
X54800432Y-63418216D01*
X55080342Y-63261739D01*
X55375977Y-63137424D01*
X55683608Y-63046839D01*
X55999419Y-62991106D01*
X56323019Y-62970696D01*
X59252335Y-62949773D01*
X59259422Y-62949524D01*
X59593652Y-62928443D01*
X59607729Y-62926762D01*
X59937528Y-62868561D01*
X59951330Y-62865322D01*
X60272586Y-62770725D01*
X60285942Y-62765968D01*
X60594653Y-62636154D01*
X60607394Y-62629937D01*
X60899713Y-62466523D01*
X60911683Y-62458926D01*
X61183967Y-62263950D01*
X61184191Y-62263770D01*
X61184190Y-71907810D01*
X56625072Y-76466928D01*
X54380000Y-76466928D01*
X54255518Y-76479188D01*
X54135820Y-76515498D01*
X54025506Y-76574463D01*
X53928815Y-76653815D01*
X53849463Y-76750506D01*
X53790498Y-76860820D01*
X53754188Y-76980518D01*
X53741928Y-77105000D01*
X53741928Y-79105000D01*
X53754188Y-79229482D01*
X53790498Y-79349180D01*
X53849463Y-79459494D01*
X53928815Y-79556185D01*
X54025506Y-79635537D01*
X54135820Y-79694502D01*
X54255518Y-79730812D01*
X54380000Y-79743072D01*
X57380000Y-79743072D01*
X57504482Y-79730812D01*
X57624180Y-79694502D01*
X57734494Y-79635537D01*
X57831185Y-79556185D01*
X57910537Y-79459494D01*
X57969502Y-79349180D01*
X58005812Y-79229482D01*
X58018072Y-79105000D01*
X58018072Y-77859928D01*
X62831474Y-73046526D01*
X62869060Y-73015680D01*
X62992150Y-72865694D01*
X63083614Y-72694577D01*
X63139937Y-72508904D01*
X63154190Y-72364190D01*
X63154190Y-72364189D01*
X63158955Y-72315811D01*
X63154190Y-72267431D01*
X63154190Y-60123072D01*
X63249362Y-60123072D01*
X75165001Y-72038712D01*
X75165000Y-74018720D01*
X75071285Y-74047148D01*
X74787248Y-74198969D01*
X74538286Y-74403286D01*
X74333969Y-74652248D01*
X74182148Y-74936285D01*
X74088657Y-75244484D01*
X74057089Y-75565000D01*
X74088657Y-75885516D01*
X74182148Y-76193715D01*
X74333969Y-76477752D01*
X74538286Y-76726714D01*
X74787248Y-76931031D01*
X75071285Y-77082852D01*
X75379484Y-77176343D01*
X75619678Y-77200000D01*
X76780322Y-77200000D01*
X77020516Y-77176343D01*
X77328715Y-77082852D01*
X77612752Y-76931031D01*
X77861714Y-76726714D01*
X78066031Y-76477752D01*
X78217852Y-76193715D01*
X78311343Y-75885516D01*
X78342911Y-75565000D01*
X78311343Y-75244484D01*
X78217852Y-74936285D01*
X78066031Y-74652248D01*
X77861714Y-74403286D01*
X77612752Y-74198969D01*
X77328715Y-74047148D01*
X77235000Y-74018720D01*
X77235000Y-71660827D01*
X77240006Y-71609999D01*
X77235000Y-71559171D01*
X77235000Y-71559162D01*
X77220024Y-71407105D01*
X77160841Y-71212007D01*
X77116104Y-71128309D01*
X77064734Y-71032202D01*
X76967803Y-70914092D01*
X76935396Y-70874604D01*
X76895908Y-70842197D01*
X71458711Y-65405000D01*
X74057089Y-65405000D01*
X74088657Y-65725516D01*
X74182148Y-66033715D01*
X74333969Y-66317752D01*
X74538286Y-66566714D01*
X74787248Y-66771031D01*
X75071285Y-66922852D01*
X75379484Y-67016343D01*
X75619678Y-67040000D01*
X76780322Y-67040000D01*
X77020516Y-67016343D01*
X77328715Y-66922852D01*
X77612752Y-66771031D01*
X77861714Y-66566714D01*
X78066031Y-66317752D01*
X78217852Y-66033715D01*
X78311343Y-65725516D01*
X78342911Y-65405000D01*
X78311343Y-65084484D01*
X78217852Y-64776285D01*
X78066031Y-64492248D01*
X77861714Y-64243286D01*
X77612752Y-64038969D01*
X77328715Y-63887148D01*
X77020516Y-63793657D01*
X76780322Y-63770000D01*
X75619678Y-63770000D01*
X75379484Y-63793657D01*
X75071285Y-63887148D01*
X74787248Y-64038969D01*
X74538286Y-64243286D01*
X74333969Y-64492248D01*
X74182148Y-64776285D01*
X74088657Y-65084484D01*
X74057089Y-65405000D01*
X71458711Y-65405000D01*
X64838072Y-58784362D01*
X64838072Y-58584999D01*
X64821008Y-58411745D01*
X64770472Y-58245149D01*
X64688405Y-58091613D01*
X64577962Y-57957038D01*
X64535000Y-57921780D01*
X64535000Y-56882369D01*
X64597038Y-56957962D01*
X64731613Y-57068405D01*
X64885149Y-57150472D01*
X65051745Y-57201008D01*
X65224999Y-57218072D01*
X65875001Y-57218072D01*
X66048255Y-57201008D01*
X66214851Y-57150472D01*
X66368387Y-57068405D01*
X66502962Y-56957962D01*
X66613405Y-56823387D01*
X66695472Y-56669851D01*
X66746008Y-56503255D01*
X66763072Y-56330001D01*
X66763072Y-56130638D01*
X71815908Y-51077803D01*
X71855396Y-51045396D01*
X71900823Y-50990043D01*
X71984734Y-50887798D01*
X72080841Y-50707994D01*
X72102043Y-50638100D01*
X72124218Y-50565000D01*
X72974172Y-50565000D01*
X73025000Y-50570006D01*
X73075828Y-50565000D01*
X73075838Y-50565000D01*
X73227895Y-50550024D01*
X73422993Y-50490841D01*
X73602797Y-50394734D01*
X73760396Y-50265396D01*
X73792807Y-50225903D01*
X74335197Y-49683513D01*
X74719721Y-49760000D01*
X75140279Y-49760000D01*
X75552756Y-49677953D01*
X75941302Y-49517012D01*
X76290983Y-49283363D01*
X76588363Y-48985983D01*
X76822012Y-48636302D01*
X76982953Y-48247756D01*
X77065000Y-47835279D01*
X77065000Y-47414721D01*
X76982953Y-47002244D01*
X76822012Y-46613698D01*
X76588363Y-46264017D01*
X76290983Y-45966637D01*
X75941302Y-45732988D01*
X75552756Y-45572047D01*
X75140279Y-45490000D01*
X74719721Y-45490000D01*
X74307244Y-45572047D01*
X73918698Y-45732988D01*
X73569017Y-45966637D01*
X73271637Y-46264017D01*
X73037988Y-46613698D01*
X72877047Y-47002244D01*
X72795000Y-47414721D01*
X72795000Y-47835279D01*
X72871487Y-48219803D01*
X72596290Y-48495000D01*
X71548711Y-48495000D01*
X69982807Y-46929097D01*
X69950396Y-46889604D01*
X69792797Y-46760266D01*
X69612993Y-46664159D01*
X69417895Y-46604976D01*
X69265838Y-46590000D01*
X69265828Y-46590000D01*
X69215000Y-46584994D01*
X69164172Y-46590000D01*
X67558938Y-46590000D01*
X67537567Y-46578577D01*
X67373316Y-46528752D01*
X67202500Y-46511928D01*
X66627500Y-46511928D01*
X66456684Y-46528752D01*
X66292433Y-46578577D01*
X66141058Y-46659488D01*
X66040000Y-46742425D01*
X65938942Y-46659488D01*
X65787567Y-46578577D01*
X65623316Y-46528752D01*
X65452500Y-46511928D01*
X64877500Y-46511928D01*
X64706684Y-46528752D01*
X64542433Y-46578577D01*
X64391058Y-46659488D01*
X64258377Y-46768377D01*
X64149488Y-46901058D01*
X64068577Y-47052433D01*
X64018752Y-47216684D01*
X64001928Y-47387500D01*
X64001928Y-47862500D01*
X64018752Y-48033316D01*
X64068577Y-48197567D01*
X64130000Y-48312483D01*
X64130001Y-49484163D01*
X64124994Y-49535000D01*
X64144977Y-49737895D01*
X64204160Y-49932993D01*
X64300266Y-50112797D01*
X64342721Y-50164528D01*
X64429605Y-50270396D01*
X64469092Y-50302802D01*
X65851928Y-51685639D01*
X65851928Y-51885001D01*
X65868992Y-52058255D01*
X65919528Y-52224851D01*
X66001595Y-52378387D01*
X66112038Y-52512962D01*
X66246613Y-52623405D01*
X66400149Y-52705472D01*
X66566745Y-52756008D01*
X66739999Y-52773072D01*
X67193218Y-52773072D01*
X65424362Y-54541928D01*
X65224999Y-54541928D01*
X65051745Y-54558992D01*
X64885149Y-54609528D01*
X64731613Y-54691595D01*
X64597038Y-54802038D01*
X64525000Y-54889816D01*
X64452962Y-54802038D01*
X64318387Y-54691595D01*
X64164851Y-54609528D01*
X63998255Y-54558992D01*
X63825001Y-54541928D01*
X63174999Y-54541928D01*
X63154190Y-54543978D01*
X63154190Y-51417190D01*
X63158955Y-51368810D01*
X63149306Y-51270841D01*
X63139937Y-51175716D01*
X63083614Y-50990043D01*
X62992150Y-50818926D01*
X62869060Y-50668940D01*
X62719074Y-50545850D01*
X62547957Y-50454386D01*
X62362284Y-50398063D01*
X62357000Y-50397543D01*
X62357000Y-44859168D01*
X62375333Y-44533342D01*
X62429505Y-44215136D01*
X62519031Y-43905017D01*
X62642778Y-43606903D01*
X62799185Y-43324555D01*
X62986289Y-43061522D01*
X63201701Y-42821156D01*
X63442731Y-42606462D01*
X63706322Y-42420162D01*
X63989141Y-42264612D01*
X64287633Y-42141767D01*
X64598019Y-42053182D01*
X64916388Y-41999975D01*
X65242276Y-41982628D01*
X80190140Y-42027925D01*
M02*
