G04 #@! TF.GenerationSoftware,KiCad,Pcbnew,(5.1.0-0)*
G04 #@! TF.CreationDate,2019-04-24T02:20:35-07:00*
G04 #@! TF.ProjectId,power board,706f7765-7220-4626-9f61-72642e6b6963,rev?*
G04 #@! TF.SameCoordinates,Original*
G04 #@! TF.FileFunction,Paste,Top*
G04 #@! TF.FilePolarity,Positive*
%FSLAX46Y46*%
G04 Gerber Fmt 4.6, Leading zero omitted, Abs format (unit mm)*
G04 Created by KiCad (PCBNEW (5.1.0-0)) date 2019-04-24 02:20:35*
%MOMM*%
%LPD*%
G04 APERTURE LIST*
%ADD10R,5.500000X1.430000*%
%ADD11C,0.100000*%
%ADD12C,1.150000*%
%ADD13C,0.950000*%
G04 APERTURE END LIST*
D10*
X57150000Y-51955000D03*
X57150000Y-55995000D03*
D11*
G36*
X67414505Y-50736204D02*
G01*
X67438773Y-50739804D01*
X67462572Y-50745765D01*
X67485671Y-50754030D01*
X67507850Y-50764520D01*
X67528893Y-50777132D01*
X67548599Y-50791747D01*
X67566777Y-50808223D01*
X67583253Y-50826401D01*
X67597868Y-50846107D01*
X67610480Y-50867150D01*
X67620970Y-50889329D01*
X67629235Y-50912428D01*
X67635196Y-50936227D01*
X67638796Y-50960495D01*
X67640000Y-50984999D01*
X67640000Y-51885001D01*
X67638796Y-51909505D01*
X67635196Y-51933773D01*
X67629235Y-51957572D01*
X67620970Y-51980671D01*
X67610480Y-52002850D01*
X67597868Y-52023893D01*
X67583253Y-52043599D01*
X67566777Y-52061777D01*
X67548599Y-52078253D01*
X67528893Y-52092868D01*
X67507850Y-52105480D01*
X67485671Y-52115970D01*
X67462572Y-52124235D01*
X67438773Y-52130196D01*
X67414505Y-52133796D01*
X67390001Y-52135000D01*
X66739999Y-52135000D01*
X66715495Y-52133796D01*
X66691227Y-52130196D01*
X66667428Y-52124235D01*
X66644329Y-52115970D01*
X66622150Y-52105480D01*
X66601107Y-52092868D01*
X66581401Y-52078253D01*
X66563223Y-52061777D01*
X66546747Y-52043599D01*
X66532132Y-52023893D01*
X66519520Y-52002850D01*
X66509030Y-51980671D01*
X66500765Y-51957572D01*
X66494804Y-51933773D01*
X66491204Y-51909505D01*
X66490000Y-51885001D01*
X66490000Y-50984999D01*
X66491204Y-50960495D01*
X66494804Y-50936227D01*
X66500765Y-50912428D01*
X66509030Y-50889329D01*
X66519520Y-50867150D01*
X66532132Y-50846107D01*
X66546747Y-50826401D01*
X66563223Y-50808223D01*
X66581401Y-50791747D01*
X66601107Y-50777132D01*
X66622150Y-50764520D01*
X66644329Y-50754030D01*
X66667428Y-50745765D01*
X66691227Y-50739804D01*
X66715495Y-50736204D01*
X66739999Y-50735000D01*
X67390001Y-50735000D01*
X67414505Y-50736204D01*
X67414505Y-50736204D01*
G37*
D12*
X67065000Y-51435000D03*
D11*
G36*
X65364505Y-50736204D02*
G01*
X65388773Y-50739804D01*
X65412572Y-50745765D01*
X65435671Y-50754030D01*
X65457850Y-50764520D01*
X65478893Y-50777132D01*
X65498599Y-50791747D01*
X65516777Y-50808223D01*
X65533253Y-50826401D01*
X65547868Y-50846107D01*
X65560480Y-50867150D01*
X65570970Y-50889329D01*
X65579235Y-50912428D01*
X65585196Y-50936227D01*
X65588796Y-50960495D01*
X65590000Y-50984999D01*
X65590000Y-51885001D01*
X65588796Y-51909505D01*
X65585196Y-51933773D01*
X65579235Y-51957572D01*
X65570970Y-51980671D01*
X65560480Y-52002850D01*
X65547868Y-52023893D01*
X65533253Y-52043599D01*
X65516777Y-52061777D01*
X65498599Y-52078253D01*
X65478893Y-52092868D01*
X65457850Y-52105480D01*
X65435671Y-52115970D01*
X65412572Y-52124235D01*
X65388773Y-52130196D01*
X65364505Y-52133796D01*
X65340001Y-52135000D01*
X64689999Y-52135000D01*
X64665495Y-52133796D01*
X64641227Y-52130196D01*
X64617428Y-52124235D01*
X64594329Y-52115970D01*
X64572150Y-52105480D01*
X64551107Y-52092868D01*
X64531401Y-52078253D01*
X64513223Y-52061777D01*
X64496747Y-52043599D01*
X64482132Y-52023893D01*
X64469520Y-52002850D01*
X64459030Y-51980671D01*
X64450765Y-51957572D01*
X64444804Y-51933773D01*
X64441204Y-51909505D01*
X64440000Y-51885001D01*
X64440000Y-50984999D01*
X64441204Y-50960495D01*
X64444804Y-50936227D01*
X64450765Y-50912428D01*
X64459030Y-50889329D01*
X64469520Y-50867150D01*
X64482132Y-50846107D01*
X64496747Y-50826401D01*
X64513223Y-50808223D01*
X64531401Y-50791747D01*
X64551107Y-50777132D01*
X64572150Y-50764520D01*
X64594329Y-50754030D01*
X64617428Y-50745765D01*
X64641227Y-50739804D01*
X64665495Y-50736204D01*
X64689999Y-50735000D01*
X65340001Y-50735000D01*
X65364505Y-50736204D01*
X65364505Y-50736204D01*
G37*
D12*
X65015000Y-51435000D03*
D11*
G36*
X65475779Y-47151144D02*
G01*
X65498834Y-47154563D01*
X65521443Y-47160227D01*
X65543387Y-47168079D01*
X65564457Y-47178044D01*
X65584448Y-47190026D01*
X65603168Y-47203910D01*
X65620438Y-47219562D01*
X65636090Y-47236832D01*
X65649974Y-47255552D01*
X65661956Y-47275543D01*
X65671921Y-47296613D01*
X65679773Y-47318557D01*
X65685437Y-47341166D01*
X65688856Y-47364221D01*
X65690000Y-47387500D01*
X65690000Y-47862500D01*
X65688856Y-47885779D01*
X65685437Y-47908834D01*
X65679773Y-47931443D01*
X65671921Y-47953387D01*
X65661956Y-47974457D01*
X65649974Y-47994448D01*
X65636090Y-48013168D01*
X65620438Y-48030438D01*
X65603168Y-48046090D01*
X65584448Y-48059974D01*
X65564457Y-48071956D01*
X65543387Y-48081921D01*
X65521443Y-48089773D01*
X65498834Y-48095437D01*
X65475779Y-48098856D01*
X65452500Y-48100000D01*
X64877500Y-48100000D01*
X64854221Y-48098856D01*
X64831166Y-48095437D01*
X64808557Y-48089773D01*
X64786613Y-48081921D01*
X64765543Y-48071956D01*
X64745552Y-48059974D01*
X64726832Y-48046090D01*
X64709562Y-48030438D01*
X64693910Y-48013168D01*
X64680026Y-47994448D01*
X64668044Y-47974457D01*
X64658079Y-47953387D01*
X64650227Y-47931443D01*
X64644563Y-47908834D01*
X64641144Y-47885779D01*
X64640000Y-47862500D01*
X64640000Y-47387500D01*
X64641144Y-47364221D01*
X64644563Y-47341166D01*
X64650227Y-47318557D01*
X64658079Y-47296613D01*
X64668044Y-47275543D01*
X64680026Y-47255552D01*
X64693910Y-47236832D01*
X64709562Y-47219562D01*
X64726832Y-47203910D01*
X64745552Y-47190026D01*
X64765543Y-47178044D01*
X64786613Y-47168079D01*
X64808557Y-47160227D01*
X64831166Y-47154563D01*
X64854221Y-47151144D01*
X64877500Y-47150000D01*
X65452500Y-47150000D01*
X65475779Y-47151144D01*
X65475779Y-47151144D01*
G37*
D13*
X65165000Y-47625000D03*
D11*
G36*
X67225779Y-47151144D02*
G01*
X67248834Y-47154563D01*
X67271443Y-47160227D01*
X67293387Y-47168079D01*
X67314457Y-47178044D01*
X67334448Y-47190026D01*
X67353168Y-47203910D01*
X67370438Y-47219562D01*
X67386090Y-47236832D01*
X67399974Y-47255552D01*
X67411956Y-47275543D01*
X67421921Y-47296613D01*
X67429773Y-47318557D01*
X67435437Y-47341166D01*
X67438856Y-47364221D01*
X67440000Y-47387500D01*
X67440000Y-47862500D01*
X67438856Y-47885779D01*
X67435437Y-47908834D01*
X67429773Y-47931443D01*
X67421921Y-47953387D01*
X67411956Y-47974457D01*
X67399974Y-47994448D01*
X67386090Y-48013168D01*
X67370438Y-48030438D01*
X67353168Y-48046090D01*
X67334448Y-48059974D01*
X67314457Y-48071956D01*
X67293387Y-48081921D01*
X67271443Y-48089773D01*
X67248834Y-48095437D01*
X67225779Y-48098856D01*
X67202500Y-48100000D01*
X66627500Y-48100000D01*
X66604221Y-48098856D01*
X66581166Y-48095437D01*
X66558557Y-48089773D01*
X66536613Y-48081921D01*
X66515543Y-48071956D01*
X66495552Y-48059974D01*
X66476832Y-48046090D01*
X66459562Y-48030438D01*
X66443910Y-48013168D01*
X66430026Y-47994448D01*
X66418044Y-47974457D01*
X66408079Y-47953387D01*
X66400227Y-47931443D01*
X66394563Y-47908834D01*
X66391144Y-47885779D01*
X66390000Y-47862500D01*
X66390000Y-47387500D01*
X66391144Y-47364221D01*
X66394563Y-47341166D01*
X66400227Y-47318557D01*
X66408079Y-47296613D01*
X66418044Y-47275543D01*
X66430026Y-47255552D01*
X66443910Y-47236832D01*
X66459562Y-47219562D01*
X66476832Y-47203910D01*
X66495552Y-47190026D01*
X66515543Y-47178044D01*
X66536613Y-47168079D01*
X66558557Y-47160227D01*
X66581166Y-47154563D01*
X66604221Y-47151144D01*
X66627500Y-47150000D01*
X67202500Y-47150000D01*
X67225779Y-47151144D01*
X67225779Y-47151144D01*
G37*
D13*
X66915000Y-47625000D03*
D11*
G36*
X63974505Y-60386204D02*
G01*
X63998773Y-60389804D01*
X64022572Y-60395765D01*
X64045671Y-60404030D01*
X64067850Y-60414520D01*
X64088893Y-60427132D01*
X64108599Y-60441747D01*
X64126777Y-60458223D01*
X64143253Y-60476401D01*
X64157868Y-60496107D01*
X64170480Y-60517150D01*
X64180970Y-60539329D01*
X64189235Y-60562428D01*
X64195196Y-60586227D01*
X64198796Y-60610495D01*
X64200000Y-60634999D01*
X64200000Y-61285001D01*
X64198796Y-61309505D01*
X64195196Y-61333773D01*
X64189235Y-61357572D01*
X64180970Y-61380671D01*
X64170480Y-61402850D01*
X64157868Y-61423893D01*
X64143253Y-61443599D01*
X64126777Y-61461777D01*
X64108599Y-61478253D01*
X64088893Y-61492868D01*
X64067850Y-61505480D01*
X64045671Y-61515970D01*
X64022572Y-61524235D01*
X63998773Y-61530196D01*
X63974505Y-61533796D01*
X63950001Y-61535000D01*
X63049999Y-61535000D01*
X63025495Y-61533796D01*
X63001227Y-61530196D01*
X62977428Y-61524235D01*
X62954329Y-61515970D01*
X62932150Y-61505480D01*
X62911107Y-61492868D01*
X62891401Y-61478253D01*
X62873223Y-61461777D01*
X62856747Y-61443599D01*
X62842132Y-61423893D01*
X62829520Y-61402850D01*
X62819030Y-61380671D01*
X62810765Y-61357572D01*
X62804804Y-61333773D01*
X62801204Y-61309505D01*
X62800000Y-61285001D01*
X62800000Y-60634999D01*
X62801204Y-60610495D01*
X62804804Y-60586227D01*
X62810765Y-60562428D01*
X62819030Y-60539329D01*
X62829520Y-60517150D01*
X62842132Y-60496107D01*
X62856747Y-60476401D01*
X62873223Y-60458223D01*
X62891401Y-60441747D01*
X62911107Y-60427132D01*
X62932150Y-60414520D01*
X62954329Y-60404030D01*
X62977428Y-60395765D01*
X63001227Y-60389804D01*
X63025495Y-60386204D01*
X63049999Y-60385000D01*
X63950001Y-60385000D01*
X63974505Y-60386204D01*
X63974505Y-60386204D01*
G37*
D12*
X63500000Y-60960000D03*
D11*
G36*
X63974505Y-58336204D02*
G01*
X63998773Y-58339804D01*
X64022572Y-58345765D01*
X64045671Y-58354030D01*
X64067850Y-58364520D01*
X64088893Y-58377132D01*
X64108599Y-58391747D01*
X64126777Y-58408223D01*
X64143253Y-58426401D01*
X64157868Y-58446107D01*
X64170480Y-58467150D01*
X64180970Y-58489329D01*
X64189235Y-58512428D01*
X64195196Y-58536227D01*
X64198796Y-58560495D01*
X64200000Y-58584999D01*
X64200000Y-59235001D01*
X64198796Y-59259505D01*
X64195196Y-59283773D01*
X64189235Y-59307572D01*
X64180970Y-59330671D01*
X64170480Y-59352850D01*
X64157868Y-59373893D01*
X64143253Y-59393599D01*
X64126777Y-59411777D01*
X64108599Y-59428253D01*
X64088893Y-59442868D01*
X64067850Y-59455480D01*
X64045671Y-59465970D01*
X64022572Y-59474235D01*
X63998773Y-59480196D01*
X63974505Y-59483796D01*
X63950001Y-59485000D01*
X63049999Y-59485000D01*
X63025495Y-59483796D01*
X63001227Y-59480196D01*
X62977428Y-59474235D01*
X62954329Y-59465970D01*
X62932150Y-59455480D01*
X62911107Y-59442868D01*
X62891401Y-59428253D01*
X62873223Y-59411777D01*
X62856747Y-59393599D01*
X62842132Y-59373893D01*
X62829520Y-59352850D01*
X62819030Y-59330671D01*
X62810765Y-59307572D01*
X62804804Y-59283773D01*
X62801204Y-59259505D01*
X62800000Y-59235001D01*
X62800000Y-58584999D01*
X62801204Y-58560495D01*
X62804804Y-58536227D01*
X62810765Y-58512428D01*
X62819030Y-58489329D01*
X62829520Y-58467150D01*
X62842132Y-58446107D01*
X62856747Y-58426401D01*
X62873223Y-58408223D01*
X62891401Y-58391747D01*
X62911107Y-58377132D01*
X62932150Y-58364520D01*
X62954329Y-58354030D01*
X62977428Y-58345765D01*
X63001227Y-58339804D01*
X63025495Y-58336204D01*
X63049999Y-58335000D01*
X63950001Y-58335000D01*
X63974505Y-58336204D01*
X63974505Y-58336204D01*
G37*
D12*
X63500000Y-58910000D03*
D11*
G36*
X65899505Y-55181204D02*
G01*
X65923773Y-55184804D01*
X65947572Y-55190765D01*
X65970671Y-55199030D01*
X65992850Y-55209520D01*
X66013893Y-55222132D01*
X66033599Y-55236747D01*
X66051777Y-55253223D01*
X66068253Y-55271401D01*
X66082868Y-55291107D01*
X66095480Y-55312150D01*
X66105970Y-55334329D01*
X66114235Y-55357428D01*
X66120196Y-55381227D01*
X66123796Y-55405495D01*
X66125000Y-55429999D01*
X66125000Y-56330001D01*
X66123796Y-56354505D01*
X66120196Y-56378773D01*
X66114235Y-56402572D01*
X66105970Y-56425671D01*
X66095480Y-56447850D01*
X66082868Y-56468893D01*
X66068253Y-56488599D01*
X66051777Y-56506777D01*
X66033599Y-56523253D01*
X66013893Y-56537868D01*
X65992850Y-56550480D01*
X65970671Y-56560970D01*
X65947572Y-56569235D01*
X65923773Y-56575196D01*
X65899505Y-56578796D01*
X65875001Y-56580000D01*
X65224999Y-56580000D01*
X65200495Y-56578796D01*
X65176227Y-56575196D01*
X65152428Y-56569235D01*
X65129329Y-56560970D01*
X65107150Y-56550480D01*
X65086107Y-56537868D01*
X65066401Y-56523253D01*
X65048223Y-56506777D01*
X65031747Y-56488599D01*
X65017132Y-56468893D01*
X65004520Y-56447850D01*
X64994030Y-56425671D01*
X64985765Y-56402572D01*
X64979804Y-56378773D01*
X64976204Y-56354505D01*
X64975000Y-56330001D01*
X64975000Y-55429999D01*
X64976204Y-55405495D01*
X64979804Y-55381227D01*
X64985765Y-55357428D01*
X64994030Y-55334329D01*
X65004520Y-55312150D01*
X65017132Y-55291107D01*
X65031747Y-55271401D01*
X65048223Y-55253223D01*
X65066401Y-55236747D01*
X65086107Y-55222132D01*
X65107150Y-55209520D01*
X65129329Y-55199030D01*
X65152428Y-55190765D01*
X65176227Y-55184804D01*
X65200495Y-55181204D01*
X65224999Y-55180000D01*
X65875001Y-55180000D01*
X65899505Y-55181204D01*
X65899505Y-55181204D01*
G37*
D12*
X65550000Y-55880000D03*
D11*
G36*
X63849505Y-55181204D02*
G01*
X63873773Y-55184804D01*
X63897572Y-55190765D01*
X63920671Y-55199030D01*
X63942850Y-55209520D01*
X63963893Y-55222132D01*
X63983599Y-55236747D01*
X64001777Y-55253223D01*
X64018253Y-55271401D01*
X64032868Y-55291107D01*
X64045480Y-55312150D01*
X64055970Y-55334329D01*
X64064235Y-55357428D01*
X64070196Y-55381227D01*
X64073796Y-55405495D01*
X64075000Y-55429999D01*
X64075000Y-56330001D01*
X64073796Y-56354505D01*
X64070196Y-56378773D01*
X64064235Y-56402572D01*
X64055970Y-56425671D01*
X64045480Y-56447850D01*
X64032868Y-56468893D01*
X64018253Y-56488599D01*
X64001777Y-56506777D01*
X63983599Y-56523253D01*
X63963893Y-56537868D01*
X63942850Y-56550480D01*
X63920671Y-56560970D01*
X63897572Y-56569235D01*
X63873773Y-56575196D01*
X63849505Y-56578796D01*
X63825001Y-56580000D01*
X63174999Y-56580000D01*
X63150495Y-56578796D01*
X63126227Y-56575196D01*
X63102428Y-56569235D01*
X63079329Y-56560970D01*
X63057150Y-56550480D01*
X63036107Y-56537868D01*
X63016401Y-56523253D01*
X62998223Y-56506777D01*
X62981747Y-56488599D01*
X62967132Y-56468893D01*
X62954520Y-56447850D01*
X62944030Y-56425671D01*
X62935765Y-56402572D01*
X62929804Y-56378773D01*
X62926204Y-56354505D01*
X62925000Y-56330001D01*
X62925000Y-55429999D01*
X62926204Y-55405495D01*
X62929804Y-55381227D01*
X62935765Y-55357428D01*
X62944030Y-55334329D01*
X62954520Y-55312150D01*
X62967132Y-55291107D01*
X62981747Y-55271401D01*
X62998223Y-55253223D01*
X63016401Y-55236747D01*
X63036107Y-55222132D01*
X63057150Y-55209520D01*
X63079329Y-55199030D01*
X63102428Y-55190765D01*
X63126227Y-55184804D01*
X63150495Y-55181204D01*
X63174999Y-55180000D01*
X63825001Y-55180000D01*
X63849505Y-55181204D01*
X63849505Y-55181204D01*
G37*
D12*
X63500000Y-55880000D03*
D11*
G36*
X35870779Y-78266144D02*
G01*
X35893834Y-78269563D01*
X35916443Y-78275227D01*
X35938387Y-78283079D01*
X35959457Y-78293044D01*
X35979448Y-78305026D01*
X35998168Y-78318910D01*
X36015438Y-78334562D01*
X36031090Y-78351832D01*
X36044974Y-78370552D01*
X36056956Y-78390543D01*
X36066921Y-78411613D01*
X36074773Y-78433557D01*
X36080437Y-78456166D01*
X36083856Y-78479221D01*
X36085000Y-78502500D01*
X36085000Y-78977500D01*
X36083856Y-79000779D01*
X36080437Y-79023834D01*
X36074773Y-79046443D01*
X36066921Y-79068387D01*
X36056956Y-79089457D01*
X36044974Y-79109448D01*
X36031090Y-79128168D01*
X36015438Y-79145438D01*
X35998168Y-79161090D01*
X35979448Y-79174974D01*
X35959457Y-79186956D01*
X35938387Y-79196921D01*
X35916443Y-79204773D01*
X35893834Y-79210437D01*
X35870779Y-79213856D01*
X35847500Y-79215000D01*
X35272500Y-79215000D01*
X35249221Y-79213856D01*
X35226166Y-79210437D01*
X35203557Y-79204773D01*
X35181613Y-79196921D01*
X35160543Y-79186956D01*
X35140552Y-79174974D01*
X35121832Y-79161090D01*
X35104562Y-79145438D01*
X35088910Y-79128168D01*
X35075026Y-79109448D01*
X35063044Y-79089457D01*
X35053079Y-79068387D01*
X35045227Y-79046443D01*
X35039563Y-79023834D01*
X35036144Y-79000779D01*
X35035000Y-78977500D01*
X35035000Y-78502500D01*
X35036144Y-78479221D01*
X35039563Y-78456166D01*
X35045227Y-78433557D01*
X35053079Y-78411613D01*
X35063044Y-78390543D01*
X35075026Y-78370552D01*
X35088910Y-78351832D01*
X35104562Y-78334562D01*
X35121832Y-78318910D01*
X35140552Y-78305026D01*
X35160543Y-78293044D01*
X35181613Y-78283079D01*
X35203557Y-78275227D01*
X35226166Y-78269563D01*
X35249221Y-78266144D01*
X35272500Y-78265000D01*
X35847500Y-78265000D01*
X35870779Y-78266144D01*
X35870779Y-78266144D01*
G37*
D13*
X35560000Y-78740000D03*
D11*
G36*
X34120779Y-78266144D02*
G01*
X34143834Y-78269563D01*
X34166443Y-78275227D01*
X34188387Y-78283079D01*
X34209457Y-78293044D01*
X34229448Y-78305026D01*
X34248168Y-78318910D01*
X34265438Y-78334562D01*
X34281090Y-78351832D01*
X34294974Y-78370552D01*
X34306956Y-78390543D01*
X34316921Y-78411613D01*
X34324773Y-78433557D01*
X34330437Y-78456166D01*
X34333856Y-78479221D01*
X34335000Y-78502500D01*
X34335000Y-78977500D01*
X34333856Y-79000779D01*
X34330437Y-79023834D01*
X34324773Y-79046443D01*
X34316921Y-79068387D01*
X34306956Y-79089457D01*
X34294974Y-79109448D01*
X34281090Y-79128168D01*
X34265438Y-79145438D01*
X34248168Y-79161090D01*
X34229448Y-79174974D01*
X34209457Y-79186956D01*
X34188387Y-79196921D01*
X34166443Y-79204773D01*
X34143834Y-79210437D01*
X34120779Y-79213856D01*
X34097500Y-79215000D01*
X33522500Y-79215000D01*
X33499221Y-79213856D01*
X33476166Y-79210437D01*
X33453557Y-79204773D01*
X33431613Y-79196921D01*
X33410543Y-79186956D01*
X33390552Y-79174974D01*
X33371832Y-79161090D01*
X33354562Y-79145438D01*
X33338910Y-79128168D01*
X33325026Y-79109448D01*
X33313044Y-79089457D01*
X33303079Y-79068387D01*
X33295227Y-79046443D01*
X33289563Y-79023834D01*
X33286144Y-79000779D01*
X33285000Y-78977500D01*
X33285000Y-78502500D01*
X33286144Y-78479221D01*
X33289563Y-78456166D01*
X33295227Y-78433557D01*
X33303079Y-78411613D01*
X33313044Y-78390543D01*
X33325026Y-78370552D01*
X33338910Y-78351832D01*
X33354562Y-78334562D01*
X33371832Y-78318910D01*
X33390552Y-78305026D01*
X33410543Y-78293044D01*
X33431613Y-78283079D01*
X33453557Y-78275227D01*
X33476166Y-78269563D01*
X33499221Y-78266144D01*
X33522500Y-78265000D01*
X34097500Y-78265000D01*
X34120779Y-78266144D01*
X34120779Y-78266144D01*
G37*
D13*
X33810000Y-78740000D03*
D11*
G36*
X36054505Y-75501204D02*
G01*
X36078773Y-75504804D01*
X36102572Y-75510765D01*
X36125671Y-75519030D01*
X36147850Y-75529520D01*
X36168893Y-75542132D01*
X36188599Y-75556747D01*
X36206777Y-75573223D01*
X36223253Y-75591401D01*
X36237868Y-75611107D01*
X36250480Y-75632150D01*
X36260970Y-75654329D01*
X36269235Y-75677428D01*
X36275196Y-75701227D01*
X36278796Y-75725495D01*
X36280000Y-75749999D01*
X36280000Y-76650001D01*
X36278796Y-76674505D01*
X36275196Y-76698773D01*
X36269235Y-76722572D01*
X36260970Y-76745671D01*
X36250480Y-76767850D01*
X36237868Y-76788893D01*
X36223253Y-76808599D01*
X36206777Y-76826777D01*
X36188599Y-76843253D01*
X36168893Y-76857868D01*
X36147850Y-76870480D01*
X36125671Y-76880970D01*
X36102572Y-76889235D01*
X36078773Y-76895196D01*
X36054505Y-76898796D01*
X36030001Y-76900000D01*
X35379999Y-76900000D01*
X35355495Y-76898796D01*
X35331227Y-76895196D01*
X35307428Y-76889235D01*
X35284329Y-76880970D01*
X35262150Y-76870480D01*
X35241107Y-76857868D01*
X35221401Y-76843253D01*
X35203223Y-76826777D01*
X35186747Y-76808599D01*
X35172132Y-76788893D01*
X35159520Y-76767850D01*
X35149030Y-76745671D01*
X35140765Y-76722572D01*
X35134804Y-76698773D01*
X35131204Y-76674505D01*
X35130000Y-76650001D01*
X35130000Y-75749999D01*
X35131204Y-75725495D01*
X35134804Y-75701227D01*
X35140765Y-75677428D01*
X35149030Y-75654329D01*
X35159520Y-75632150D01*
X35172132Y-75611107D01*
X35186747Y-75591401D01*
X35203223Y-75573223D01*
X35221401Y-75556747D01*
X35241107Y-75542132D01*
X35262150Y-75529520D01*
X35284329Y-75519030D01*
X35307428Y-75510765D01*
X35331227Y-75504804D01*
X35355495Y-75501204D01*
X35379999Y-75500000D01*
X36030001Y-75500000D01*
X36054505Y-75501204D01*
X36054505Y-75501204D01*
G37*
D12*
X35705000Y-76200000D03*
D11*
G36*
X34004505Y-75501204D02*
G01*
X34028773Y-75504804D01*
X34052572Y-75510765D01*
X34075671Y-75519030D01*
X34097850Y-75529520D01*
X34118893Y-75542132D01*
X34138599Y-75556747D01*
X34156777Y-75573223D01*
X34173253Y-75591401D01*
X34187868Y-75611107D01*
X34200480Y-75632150D01*
X34210970Y-75654329D01*
X34219235Y-75677428D01*
X34225196Y-75701227D01*
X34228796Y-75725495D01*
X34230000Y-75749999D01*
X34230000Y-76650001D01*
X34228796Y-76674505D01*
X34225196Y-76698773D01*
X34219235Y-76722572D01*
X34210970Y-76745671D01*
X34200480Y-76767850D01*
X34187868Y-76788893D01*
X34173253Y-76808599D01*
X34156777Y-76826777D01*
X34138599Y-76843253D01*
X34118893Y-76857868D01*
X34097850Y-76870480D01*
X34075671Y-76880970D01*
X34052572Y-76889235D01*
X34028773Y-76895196D01*
X34004505Y-76898796D01*
X33980001Y-76900000D01*
X33329999Y-76900000D01*
X33305495Y-76898796D01*
X33281227Y-76895196D01*
X33257428Y-76889235D01*
X33234329Y-76880970D01*
X33212150Y-76870480D01*
X33191107Y-76857868D01*
X33171401Y-76843253D01*
X33153223Y-76826777D01*
X33136747Y-76808599D01*
X33122132Y-76788893D01*
X33109520Y-76767850D01*
X33099030Y-76745671D01*
X33090765Y-76722572D01*
X33084804Y-76698773D01*
X33081204Y-76674505D01*
X33080000Y-76650001D01*
X33080000Y-75749999D01*
X33081204Y-75725495D01*
X33084804Y-75701227D01*
X33090765Y-75677428D01*
X33099030Y-75654329D01*
X33109520Y-75632150D01*
X33122132Y-75611107D01*
X33136747Y-75591401D01*
X33153223Y-75573223D01*
X33171401Y-75556747D01*
X33191107Y-75542132D01*
X33212150Y-75529520D01*
X33234329Y-75519030D01*
X33257428Y-75510765D01*
X33281227Y-75504804D01*
X33305495Y-75501204D01*
X33329999Y-75500000D01*
X33980001Y-75500000D01*
X34004505Y-75501204D01*
X34004505Y-75501204D01*
G37*
D12*
X33655000Y-76200000D03*
D11*
G36*
X60164505Y-58336204D02*
G01*
X60188773Y-58339804D01*
X60212572Y-58345765D01*
X60235671Y-58354030D01*
X60257850Y-58364520D01*
X60278893Y-58377132D01*
X60298599Y-58391747D01*
X60316777Y-58408223D01*
X60333253Y-58426401D01*
X60347868Y-58446107D01*
X60360480Y-58467150D01*
X60370970Y-58489329D01*
X60379235Y-58512428D01*
X60385196Y-58536227D01*
X60388796Y-58560495D01*
X60390000Y-58584999D01*
X60390000Y-59235001D01*
X60388796Y-59259505D01*
X60385196Y-59283773D01*
X60379235Y-59307572D01*
X60370970Y-59330671D01*
X60360480Y-59352850D01*
X60347868Y-59373893D01*
X60333253Y-59393599D01*
X60316777Y-59411777D01*
X60298599Y-59428253D01*
X60278893Y-59442868D01*
X60257850Y-59455480D01*
X60235671Y-59465970D01*
X60212572Y-59474235D01*
X60188773Y-59480196D01*
X60164505Y-59483796D01*
X60140001Y-59485000D01*
X59239999Y-59485000D01*
X59215495Y-59483796D01*
X59191227Y-59480196D01*
X59167428Y-59474235D01*
X59144329Y-59465970D01*
X59122150Y-59455480D01*
X59101107Y-59442868D01*
X59081401Y-59428253D01*
X59063223Y-59411777D01*
X59046747Y-59393599D01*
X59032132Y-59373893D01*
X59019520Y-59352850D01*
X59009030Y-59330671D01*
X59000765Y-59307572D01*
X58994804Y-59283773D01*
X58991204Y-59259505D01*
X58990000Y-59235001D01*
X58990000Y-58584999D01*
X58991204Y-58560495D01*
X58994804Y-58536227D01*
X59000765Y-58512428D01*
X59009030Y-58489329D01*
X59019520Y-58467150D01*
X59032132Y-58446107D01*
X59046747Y-58426401D01*
X59063223Y-58408223D01*
X59081401Y-58391747D01*
X59101107Y-58377132D01*
X59122150Y-58364520D01*
X59144329Y-58354030D01*
X59167428Y-58345765D01*
X59191227Y-58339804D01*
X59215495Y-58336204D01*
X59239999Y-58335000D01*
X60140001Y-58335000D01*
X60164505Y-58336204D01*
X60164505Y-58336204D01*
G37*
D12*
X59690000Y-58910000D03*
D11*
G36*
X60164505Y-60386204D02*
G01*
X60188773Y-60389804D01*
X60212572Y-60395765D01*
X60235671Y-60404030D01*
X60257850Y-60414520D01*
X60278893Y-60427132D01*
X60298599Y-60441747D01*
X60316777Y-60458223D01*
X60333253Y-60476401D01*
X60347868Y-60496107D01*
X60360480Y-60517150D01*
X60370970Y-60539329D01*
X60379235Y-60562428D01*
X60385196Y-60586227D01*
X60388796Y-60610495D01*
X60390000Y-60634999D01*
X60390000Y-61285001D01*
X60388796Y-61309505D01*
X60385196Y-61333773D01*
X60379235Y-61357572D01*
X60370970Y-61380671D01*
X60360480Y-61402850D01*
X60347868Y-61423893D01*
X60333253Y-61443599D01*
X60316777Y-61461777D01*
X60298599Y-61478253D01*
X60278893Y-61492868D01*
X60257850Y-61505480D01*
X60235671Y-61515970D01*
X60212572Y-61524235D01*
X60188773Y-61530196D01*
X60164505Y-61533796D01*
X60140001Y-61535000D01*
X59239999Y-61535000D01*
X59215495Y-61533796D01*
X59191227Y-61530196D01*
X59167428Y-61524235D01*
X59144329Y-61515970D01*
X59122150Y-61505480D01*
X59101107Y-61492868D01*
X59081401Y-61478253D01*
X59063223Y-61461777D01*
X59046747Y-61443599D01*
X59032132Y-61423893D01*
X59019520Y-61402850D01*
X59009030Y-61380671D01*
X59000765Y-61357572D01*
X58994804Y-61333773D01*
X58991204Y-61309505D01*
X58990000Y-61285001D01*
X58990000Y-60634999D01*
X58991204Y-60610495D01*
X58994804Y-60586227D01*
X59000765Y-60562428D01*
X59009030Y-60539329D01*
X59019520Y-60517150D01*
X59032132Y-60496107D01*
X59046747Y-60476401D01*
X59063223Y-60458223D01*
X59081401Y-60441747D01*
X59101107Y-60427132D01*
X59122150Y-60414520D01*
X59144329Y-60404030D01*
X59167428Y-60395765D01*
X59191227Y-60389804D01*
X59215495Y-60386204D01*
X59239999Y-60385000D01*
X60140001Y-60385000D01*
X60164505Y-60386204D01*
X60164505Y-60386204D01*
G37*
D12*
X59690000Y-60960000D03*
D11*
G36*
X58894505Y-104346204D02*
G01*
X58918773Y-104349804D01*
X58942572Y-104355765D01*
X58965671Y-104364030D01*
X58987850Y-104374520D01*
X59008893Y-104387132D01*
X59028599Y-104401747D01*
X59046777Y-104418223D01*
X59063253Y-104436401D01*
X59077868Y-104456107D01*
X59090480Y-104477150D01*
X59100970Y-104499329D01*
X59109235Y-104522428D01*
X59115196Y-104546227D01*
X59118796Y-104570495D01*
X59120000Y-104594999D01*
X59120000Y-105245001D01*
X59118796Y-105269505D01*
X59115196Y-105293773D01*
X59109235Y-105317572D01*
X59100970Y-105340671D01*
X59090480Y-105362850D01*
X59077868Y-105383893D01*
X59063253Y-105403599D01*
X59046777Y-105421777D01*
X59028599Y-105438253D01*
X59008893Y-105452868D01*
X58987850Y-105465480D01*
X58965671Y-105475970D01*
X58942572Y-105484235D01*
X58918773Y-105490196D01*
X58894505Y-105493796D01*
X58870001Y-105495000D01*
X57969999Y-105495000D01*
X57945495Y-105493796D01*
X57921227Y-105490196D01*
X57897428Y-105484235D01*
X57874329Y-105475970D01*
X57852150Y-105465480D01*
X57831107Y-105452868D01*
X57811401Y-105438253D01*
X57793223Y-105421777D01*
X57776747Y-105403599D01*
X57762132Y-105383893D01*
X57749520Y-105362850D01*
X57739030Y-105340671D01*
X57730765Y-105317572D01*
X57724804Y-105293773D01*
X57721204Y-105269505D01*
X57720000Y-105245001D01*
X57720000Y-104594999D01*
X57721204Y-104570495D01*
X57724804Y-104546227D01*
X57730765Y-104522428D01*
X57739030Y-104499329D01*
X57749520Y-104477150D01*
X57762132Y-104456107D01*
X57776747Y-104436401D01*
X57793223Y-104418223D01*
X57811401Y-104401747D01*
X57831107Y-104387132D01*
X57852150Y-104374520D01*
X57874329Y-104364030D01*
X57897428Y-104355765D01*
X57921227Y-104349804D01*
X57945495Y-104346204D01*
X57969999Y-104345000D01*
X58870001Y-104345000D01*
X58894505Y-104346204D01*
X58894505Y-104346204D01*
G37*
D12*
X58420000Y-104920000D03*
D11*
G36*
X58894505Y-102296204D02*
G01*
X58918773Y-102299804D01*
X58942572Y-102305765D01*
X58965671Y-102314030D01*
X58987850Y-102324520D01*
X59008893Y-102337132D01*
X59028599Y-102351747D01*
X59046777Y-102368223D01*
X59063253Y-102386401D01*
X59077868Y-102406107D01*
X59090480Y-102427150D01*
X59100970Y-102449329D01*
X59109235Y-102472428D01*
X59115196Y-102496227D01*
X59118796Y-102520495D01*
X59120000Y-102544999D01*
X59120000Y-103195001D01*
X59118796Y-103219505D01*
X59115196Y-103243773D01*
X59109235Y-103267572D01*
X59100970Y-103290671D01*
X59090480Y-103312850D01*
X59077868Y-103333893D01*
X59063253Y-103353599D01*
X59046777Y-103371777D01*
X59028599Y-103388253D01*
X59008893Y-103402868D01*
X58987850Y-103415480D01*
X58965671Y-103425970D01*
X58942572Y-103434235D01*
X58918773Y-103440196D01*
X58894505Y-103443796D01*
X58870001Y-103445000D01*
X57969999Y-103445000D01*
X57945495Y-103443796D01*
X57921227Y-103440196D01*
X57897428Y-103434235D01*
X57874329Y-103425970D01*
X57852150Y-103415480D01*
X57831107Y-103402868D01*
X57811401Y-103388253D01*
X57793223Y-103371777D01*
X57776747Y-103353599D01*
X57762132Y-103333893D01*
X57749520Y-103312850D01*
X57739030Y-103290671D01*
X57730765Y-103267572D01*
X57724804Y-103243773D01*
X57721204Y-103219505D01*
X57720000Y-103195001D01*
X57720000Y-102544999D01*
X57721204Y-102520495D01*
X57724804Y-102496227D01*
X57730765Y-102472428D01*
X57739030Y-102449329D01*
X57749520Y-102427150D01*
X57762132Y-102406107D01*
X57776747Y-102386401D01*
X57793223Y-102368223D01*
X57811401Y-102351747D01*
X57831107Y-102337132D01*
X57852150Y-102324520D01*
X57874329Y-102314030D01*
X57897428Y-102305765D01*
X57921227Y-102299804D01*
X57945495Y-102296204D01*
X57969999Y-102295000D01*
X58870001Y-102295000D01*
X58894505Y-102296204D01*
X58894505Y-102296204D01*
G37*
D12*
X58420000Y-102870000D03*
D11*
G36*
X54449505Y-97706204D02*
G01*
X54473773Y-97709804D01*
X54497572Y-97715765D01*
X54520671Y-97724030D01*
X54542850Y-97734520D01*
X54563893Y-97747132D01*
X54583599Y-97761747D01*
X54601777Y-97778223D01*
X54618253Y-97796401D01*
X54632868Y-97816107D01*
X54645480Y-97837150D01*
X54655970Y-97859329D01*
X54664235Y-97882428D01*
X54670196Y-97906227D01*
X54673796Y-97930495D01*
X54675000Y-97954999D01*
X54675000Y-98605001D01*
X54673796Y-98629505D01*
X54670196Y-98653773D01*
X54664235Y-98677572D01*
X54655970Y-98700671D01*
X54645480Y-98722850D01*
X54632868Y-98743893D01*
X54618253Y-98763599D01*
X54601777Y-98781777D01*
X54583599Y-98798253D01*
X54563893Y-98812868D01*
X54542850Y-98825480D01*
X54520671Y-98835970D01*
X54497572Y-98844235D01*
X54473773Y-98850196D01*
X54449505Y-98853796D01*
X54425001Y-98855000D01*
X53524999Y-98855000D01*
X53500495Y-98853796D01*
X53476227Y-98850196D01*
X53452428Y-98844235D01*
X53429329Y-98835970D01*
X53407150Y-98825480D01*
X53386107Y-98812868D01*
X53366401Y-98798253D01*
X53348223Y-98781777D01*
X53331747Y-98763599D01*
X53317132Y-98743893D01*
X53304520Y-98722850D01*
X53294030Y-98700671D01*
X53285765Y-98677572D01*
X53279804Y-98653773D01*
X53276204Y-98629505D01*
X53275000Y-98605001D01*
X53275000Y-97954999D01*
X53276204Y-97930495D01*
X53279804Y-97906227D01*
X53285765Y-97882428D01*
X53294030Y-97859329D01*
X53304520Y-97837150D01*
X53317132Y-97816107D01*
X53331747Y-97796401D01*
X53348223Y-97778223D01*
X53366401Y-97761747D01*
X53386107Y-97747132D01*
X53407150Y-97734520D01*
X53429329Y-97724030D01*
X53452428Y-97715765D01*
X53476227Y-97709804D01*
X53500495Y-97706204D01*
X53524999Y-97705000D01*
X54425001Y-97705000D01*
X54449505Y-97706204D01*
X54449505Y-97706204D01*
G37*
D12*
X53975000Y-98280000D03*
D11*
G36*
X54449505Y-99756204D02*
G01*
X54473773Y-99759804D01*
X54497572Y-99765765D01*
X54520671Y-99774030D01*
X54542850Y-99784520D01*
X54563893Y-99797132D01*
X54583599Y-99811747D01*
X54601777Y-99828223D01*
X54618253Y-99846401D01*
X54632868Y-99866107D01*
X54645480Y-99887150D01*
X54655970Y-99909329D01*
X54664235Y-99932428D01*
X54670196Y-99956227D01*
X54673796Y-99980495D01*
X54675000Y-100004999D01*
X54675000Y-100655001D01*
X54673796Y-100679505D01*
X54670196Y-100703773D01*
X54664235Y-100727572D01*
X54655970Y-100750671D01*
X54645480Y-100772850D01*
X54632868Y-100793893D01*
X54618253Y-100813599D01*
X54601777Y-100831777D01*
X54583599Y-100848253D01*
X54563893Y-100862868D01*
X54542850Y-100875480D01*
X54520671Y-100885970D01*
X54497572Y-100894235D01*
X54473773Y-100900196D01*
X54449505Y-100903796D01*
X54425001Y-100905000D01*
X53524999Y-100905000D01*
X53500495Y-100903796D01*
X53476227Y-100900196D01*
X53452428Y-100894235D01*
X53429329Y-100885970D01*
X53407150Y-100875480D01*
X53386107Y-100862868D01*
X53366401Y-100848253D01*
X53348223Y-100831777D01*
X53331747Y-100813599D01*
X53317132Y-100793893D01*
X53304520Y-100772850D01*
X53294030Y-100750671D01*
X53285765Y-100727572D01*
X53279804Y-100703773D01*
X53276204Y-100679505D01*
X53275000Y-100655001D01*
X53275000Y-100004999D01*
X53276204Y-99980495D01*
X53279804Y-99956227D01*
X53285765Y-99932428D01*
X53294030Y-99909329D01*
X53304520Y-99887150D01*
X53317132Y-99866107D01*
X53331747Y-99846401D01*
X53348223Y-99828223D01*
X53366401Y-99811747D01*
X53386107Y-99797132D01*
X53407150Y-99784520D01*
X53429329Y-99774030D01*
X53452428Y-99765765D01*
X53476227Y-99759804D01*
X53500495Y-99756204D01*
X53524999Y-99755000D01*
X54425001Y-99755000D01*
X54449505Y-99756204D01*
X54449505Y-99756204D01*
G37*
D12*
X53975000Y-100330000D03*
D11*
G36*
X55084505Y-58336204D02*
G01*
X55108773Y-58339804D01*
X55132572Y-58345765D01*
X55155671Y-58354030D01*
X55177850Y-58364520D01*
X55198893Y-58377132D01*
X55218599Y-58391747D01*
X55236777Y-58408223D01*
X55253253Y-58426401D01*
X55267868Y-58446107D01*
X55280480Y-58467150D01*
X55290970Y-58489329D01*
X55299235Y-58512428D01*
X55305196Y-58536227D01*
X55308796Y-58560495D01*
X55310000Y-58584999D01*
X55310000Y-59235001D01*
X55308796Y-59259505D01*
X55305196Y-59283773D01*
X55299235Y-59307572D01*
X55290970Y-59330671D01*
X55280480Y-59352850D01*
X55267868Y-59373893D01*
X55253253Y-59393599D01*
X55236777Y-59411777D01*
X55218599Y-59428253D01*
X55198893Y-59442868D01*
X55177850Y-59455480D01*
X55155671Y-59465970D01*
X55132572Y-59474235D01*
X55108773Y-59480196D01*
X55084505Y-59483796D01*
X55060001Y-59485000D01*
X54159999Y-59485000D01*
X54135495Y-59483796D01*
X54111227Y-59480196D01*
X54087428Y-59474235D01*
X54064329Y-59465970D01*
X54042150Y-59455480D01*
X54021107Y-59442868D01*
X54001401Y-59428253D01*
X53983223Y-59411777D01*
X53966747Y-59393599D01*
X53952132Y-59373893D01*
X53939520Y-59352850D01*
X53929030Y-59330671D01*
X53920765Y-59307572D01*
X53914804Y-59283773D01*
X53911204Y-59259505D01*
X53910000Y-59235001D01*
X53910000Y-58584999D01*
X53911204Y-58560495D01*
X53914804Y-58536227D01*
X53920765Y-58512428D01*
X53929030Y-58489329D01*
X53939520Y-58467150D01*
X53952132Y-58446107D01*
X53966747Y-58426401D01*
X53983223Y-58408223D01*
X54001401Y-58391747D01*
X54021107Y-58377132D01*
X54042150Y-58364520D01*
X54064329Y-58354030D01*
X54087428Y-58345765D01*
X54111227Y-58339804D01*
X54135495Y-58336204D01*
X54159999Y-58335000D01*
X55060001Y-58335000D01*
X55084505Y-58336204D01*
X55084505Y-58336204D01*
G37*
D12*
X54610000Y-58910000D03*
D11*
G36*
X55084505Y-60386204D02*
G01*
X55108773Y-60389804D01*
X55132572Y-60395765D01*
X55155671Y-60404030D01*
X55177850Y-60414520D01*
X55198893Y-60427132D01*
X55218599Y-60441747D01*
X55236777Y-60458223D01*
X55253253Y-60476401D01*
X55267868Y-60496107D01*
X55280480Y-60517150D01*
X55290970Y-60539329D01*
X55299235Y-60562428D01*
X55305196Y-60586227D01*
X55308796Y-60610495D01*
X55310000Y-60634999D01*
X55310000Y-61285001D01*
X55308796Y-61309505D01*
X55305196Y-61333773D01*
X55299235Y-61357572D01*
X55290970Y-61380671D01*
X55280480Y-61402850D01*
X55267868Y-61423893D01*
X55253253Y-61443599D01*
X55236777Y-61461777D01*
X55218599Y-61478253D01*
X55198893Y-61492868D01*
X55177850Y-61505480D01*
X55155671Y-61515970D01*
X55132572Y-61524235D01*
X55108773Y-61530196D01*
X55084505Y-61533796D01*
X55060001Y-61535000D01*
X54159999Y-61535000D01*
X54135495Y-61533796D01*
X54111227Y-61530196D01*
X54087428Y-61524235D01*
X54064329Y-61515970D01*
X54042150Y-61505480D01*
X54021107Y-61492868D01*
X54001401Y-61478253D01*
X53983223Y-61461777D01*
X53966747Y-61443599D01*
X53952132Y-61423893D01*
X53939520Y-61402850D01*
X53929030Y-61380671D01*
X53920765Y-61357572D01*
X53914804Y-61333773D01*
X53911204Y-61309505D01*
X53910000Y-61285001D01*
X53910000Y-60634999D01*
X53911204Y-60610495D01*
X53914804Y-60586227D01*
X53920765Y-60562428D01*
X53929030Y-60539329D01*
X53939520Y-60517150D01*
X53952132Y-60496107D01*
X53966747Y-60476401D01*
X53983223Y-60458223D01*
X54001401Y-60441747D01*
X54021107Y-60427132D01*
X54042150Y-60414520D01*
X54064329Y-60404030D01*
X54087428Y-60395765D01*
X54111227Y-60389804D01*
X54135495Y-60386204D01*
X54159999Y-60385000D01*
X55060001Y-60385000D01*
X55084505Y-60386204D01*
X55084505Y-60386204D01*
G37*
D12*
X54610000Y-60960000D03*
D11*
G36*
X54324505Y-102171204D02*
G01*
X54348773Y-102174804D01*
X54372572Y-102180765D01*
X54395671Y-102189030D01*
X54417850Y-102199520D01*
X54438893Y-102212132D01*
X54458599Y-102226747D01*
X54476777Y-102243223D01*
X54493253Y-102261401D01*
X54507868Y-102281107D01*
X54520480Y-102302150D01*
X54530970Y-102324329D01*
X54539235Y-102347428D01*
X54545196Y-102371227D01*
X54548796Y-102395495D01*
X54550000Y-102419999D01*
X54550000Y-103320001D01*
X54548796Y-103344505D01*
X54545196Y-103368773D01*
X54539235Y-103392572D01*
X54530970Y-103415671D01*
X54520480Y-103437850D01*
X54507868Y-103458893D01*
X54493253Y-103478599D01*
X54476777Y-103496777D01*
X54458599Y-103513253D01*
X54438893Y-103527868D01*
X54417850Y-103540480D01*
X54395671Y-103550970D01*
X54372572Y-103559235D01*
X54348773Y-103565196D01*
X54324505Y-103568796D01*
X54300001Y-103570000D01*
X53649999Y-103570000D01*
X53625495Y-103568796D01*
X53601227Y-103565196D01*
X53577428Y-103559235D01*
X53554329Y-103550970D01*
X53532150Y-103540480D01*
X53511107Y-103527868D01*
X53491401Y-103513253D01*
X53473223Y-103496777D01*
X53456747Y-103478599D01*
X53442132Y-103458893D01*
X53429520Y-103437850D01*
X53419030Y-103415671D01*
X53410765Y-103392572D01*
X53404804Y-103368773D01*
X53401204Y-103344505D01*
X53400000Y-103320001D01*
X53400000Y-102419999D01*
X53401204Y-102395495D01*
X53404804Y-102371227D01*
X53410765Y-102347428D01*
X53419030Y-102324329D01*
X53429520Y-102302150D01*
X53442132Y-102281107D01*
X53456747Y-102261401D01*
X53473223Y-102243223D01*
X53491401Y-102226747D01*
X53511107Y-102212132D01*
X53532150Y-102199520D01*
X53554329Y-102189030D01*
X53577428Y-102180765D01*
X53601227Y-102174804D01*
X53625495Y-102171204D01*
X53649999Y-102170000D01*
X54300001Y-102170000D01*
X54324505Y-102171204D01*
X54324505Y-102171204D01*
G37*
D12*
X53975000Y-102870000D03*
D11*
G36*
X56374505Y-102171204D02*
G01*
X56398773Y-102174804D01*
X56422572Y-102180765D01*
X56445671Y-102189030D01*
X56467850Y-102199520D01*
X56488893Y-102212132D01*
X56508599Y-102226747D01*
X56526777Y-102243223D01*
X56543253Y-102261401D01*
X56557868Y-102281107D01*
X56570480Y-102302150D01*
X56580970Y-102324329D01*
X56589235Y-102347428D01*
X56595196Y-102371227D01*
X56598796Y-102395495D01*
X56600000Y-102419999D01*
X56600000Y-103320001D01*
X56598796Y-103344505D01*
X56595196Y-103368773D01*
X56589235Y-103392572D01*
X56580970Y-103415671D01*
X56570480Y-103437850D01*
X56557868Y-103458893D01*
X56543253Y-103478599D01*
X56526777Y-103496777D01*
X56508599Y-103513253D01*
X56488893Y-103527868D01*
X56467850Y-103540480D01*
X56445671Y-103550970D01*
X56422572Y-103559235D01*
X56398773Y-103565196D01*
X56374505Y-103568796D01*
X56350001Y-103570000D01*
X55699999Y-103570000D01*
X55675495Y-103568796D01*
X55651227Y-103565196D01*
X55627428Y-103559235D01*
X55604329Y-103550970D01*
X55582150Y-103540480D01*
X55561107Y-103527868D01*
X55541401Y-103513253D01*
X55523223Y-103496777D01*
X55506747Y-103478599D01*
X55492132Y-103458893D01*
X55479520Y-103437850D01*
X55469030Y-103415671D01*
X55460765Y-103392572D01*
X55454804Y-103368773D01*
X55451204Y-103344505D01*
X55450000Y-103320001D01*
X55450000Y-102419999D01*
X55451204Y-102395495D01*
X55454804Y-102371227D01*
X55460765Y-102347428D01*
X55469030Y-102324329D01*
X55479520Y-102302150D01*
X55492132Y-102281107D01*
X55506747Y-102261401D01*
X55523223Y-102243223D01*
X55541401Y-102226747D01*
X55561107Y-102212132D01*
X55582150Y-102199520D01*
X55604329Y-102189030D01*
X55627428Y-102180765D01*
X55651227Y-102174804D01*
X55675495Y-102171204D01*
X55699999Y-102170000D01*
X56350001Y-102170000D01*
X56374505Y-102171204D01*
X56374505Y-102171204D01*
G37*
D12*
X56025000Y-102870000D03*
M02*
