M48
; DRILL file {KiCad (5.1.0-0)} date Wednesday, May 08, 2019 at 06:23:56 PM
; FORMAT={-:-/ absolute / inch / decimal}
; #@! TF.CreationDate,2019-05-08T18:23:56-07:00
; #@! TF.GenerationSoftware,Kicad,Pcbnew,(5.1.0-0)
; #@! TF.FileFunction,Plated,1,2,PTH
FMAT,2
INCH
T1C0.0197
T2C0.0315
T3C0.0354
T4C0.0394
T5C0.0500
T6C0.0512
T7C0.0591
T8C0.1063
T9C0.1260
T10C0.1575
%
G90
G05
T1
X0.928Y-4.67
X0.9557Y-4.6032
X0.9557Y-4.7368
X1.0225Y-4.5755
X1.0225Y-4.7645
X1.0893Y-4.6032
X1.0893Y-4.7368
X1.117Y-4.67
X3.033Y-1.5025
X3.0607Y-1.4357
X3.0607Y-1.5693
X3.1275Y-1.408
X3.1275Y-1.597
X3.1943Y-1.4357
X3.1943Y-1.5693
X3.222Y-1.5025
X3.023Y-4.66
X3.0507Y-4.5932
X3.0507Y-4.7268
X3.1175Y-4.5655
X3.1175Y-4.7545
X3.1843Y-4.5932
X3.1843Y-4.7268
X3.212Y-4.66
X0.943Y-1.4975
X0.9707Y-1.4307
X0.9707Y-1.5643
X1.0375Y-1.403
X1.0375Y-1.592
X1.1043Y-1.4307
X1.1043Y-1.5643
X1.132Y-1.4975
T2
X2.325Y-1.9325
T3
X1.7081Y-4.1425
X1.8066Y-4.1425
X1.905Y-4.1425
T4
X1.725Y-3.54
X1.9219Y-3.54
X1.75Y-2.67
X1.9469Y-2.67
X1.6625Y-1.8475
X1.8594Y-1.8475
T5
X2.34Y-4.102
X2.34Y-4.3
X2.335Y-3.612
X2.335Y-3.81
T6
X1.2256Y-2.6715
X1.4225Y-2.6715
X1.2256Y-3.5377
X1.4225Y-3.5377
T7
X2.2Y-2.575
X2.2Y-2.875
X2.2Y-3.075
X3.0Y-2.575
X3.0Y-2.975
X3.0Y-3.375
T8
X2.4975Y-1.5
X2.6944Y-1.5
X1.9531Y-4.675
X2.15Y-4.675
X1.7456Y-4.3825
X1.9425Y-4.3825
X1.3781Y-4.675
X1.575Y-4.675
X1.3531Y-1.495
X1.55Y-1.495
X2.5281Y-4.675
X2.725Y-4.675
X1.9275Y-1.5
X2.1244Y-1.5
T9
X1.0375Y-1.4975
X3.1175Y-4.66
X1.0225Y-4.67
X3.1275Y-1.5025
T10
X1.055Y-4.305
X1.3286Y-4.305
X1.065Y-1.82
X1.3386Y-1.82
T4
G00X2.8288Y-2.0294
M15
G01X2.8288Y-1.9506
M16
G05
G00X3.065Y-2.0156
M15
G01X3.065Y-1.9644
M16
G05
G00X3.0748Y-1.8128
M15
G01X3.1339Y-1.8128
M16
G05
G00X3.0748Y-2.1672
M15
G01X3.1339Y-2.1672
M16
G05
T0
M30
