G04 #@! TF.GenerationSoftware,KiCad,Pcbnew,(5.1.0-0)*
G04 #@! TF.CreationDate,2019-05-08T18:24:01-07:00*
G04 #@! TF.ProjectId,power board,706f7765-7220-4626-9f61-72642e6b6963,rev?*
G04 #@! TF.SameCoordinates,Original*
G04 #@! TF.FileFunction,Soldermask,Top*
G04 #@! TF.FilePolarity,Negative*
%FSLAX46Y46*%
G04 Gerber Fmt 4.6, Leading zero omitted, Abs format (unit mm)*
G04 Created by KiCad (PCBNEW (5.1.0-0)) date 2019-05-08 18:24:01*
%MOMM*%
%LPD*%
G04 APERTURE LIST*
%ADD10C,0.100000*%
G04 APERTURE END LIST*
D10*
G36*
X26605739Y-115429467D02*
G01*
X26919782Y-115491934D01*
X27511426Y-115737001D01*
X28043892Y-116092784D01*
X28496716Y-116545608D01*
X28852499Y-117078074D01*
X29097566Y-117669718D01*
X29097566Y-117669719D01*
X29222500Y-118297803D01*
X29222500Y-118938197D01*
X29160033Y-119252239D01*
X29097566Y-119566282D01*
X28852499Y-120157926D01*
X28496716Y-120690392D01*
X28043892Y-121143216D01*
X27511426Y-121498999D01*
X26919782Y-121744066D01*
X26605739Y-121806533D01*
X26291697Y-121869000D01*
X25651303Y-121869000D01*
X25337261Y-121806533D01*
X25023218Y-121744066D01*
X24431574Y-121498999D01*
X23899108Y-121143216D01*
X23446284Y-120690392D01*
X23090501Y-120157926D01*
X22845434Y-119566282D01*
X22782967Y-119252239D01*
X22720500Y-118938197D01*
X22720500Y-118297803D01*
X22845434Y-117669719D01*
X22845434Y-117669718D01*
X23090501Y-117078074D01*
X23446284Y-116545608D01*
X23899108Y-116092784D01*
X24431574Y-115737001D01*
X25023218Y-115491934D01*
X25337261Y-115429467D01*
X25651303Y-115367000D01*
X26291697Y-115367000D01*
X26605739Y-115429467D01*
X26605739Y-115429467D01*
G37*
G36*
X79818739Y-115175467D02*
G01*
X80132782Y-115237934D01*
X80724426Y-115483001D01*
X81256892Y-115838784D01*
X81709716Y-116291608D01*
X82065499Y-116824074D01*
X82271173Y-117320615D01*
X82310566Y-117415719D01*
X82435500Y-118043803D01*
X82435500Y-118684197D01*
X82406174Y-118831629D01*
X82310566Y-119312282D01*
X82065499Y-119903926D01*
X81709716Y-120436392D01*
X81256892Y-120889216D01*
X80724426Y-121244999D01*
X80132782Y-121490066D01*
X79818739Y-121552533D01*
X79504697Y-121615000D01*
X78864303Y-121615000D01*
X78550261Y-121552533D01*
X78236218Y-121490066D01*
X77644574Y-121244999D01*
X77112108Y-120889216D01*
X76659284Y-120436392D01*
X76303501Y-119903926D01*
X76058434Y-119312282D01*
X75962826Y-118831629D01*
X75933500Y-118684197D01*
X75933500Y-118043803D01*
X76058434Y-117415719D01*
X76097827Y-117320615D01*
X76303501Y-116824074D01*
X76659284Y-116291608D01*
X77112108Y-115838784D01*
X77644574Y-115483001D01*
X78236218Y-115237934D01*
X78550261Y-115175467D01*
X78864303Y-115113000D01*
X79504697Y-115113000D01*
X79818739Y-115175467D01*
X79818739Y-115175467D01*
G37*
G36*
X64813254Y-116772818D02*
G01*
X65186511Y-116927426D01*
X65186513Y-116927427D01*
X65522436Y-117151884D01*
X65808116Y-117437564D01*
X65963237Y-117669718D01*
X66032574Y-117773489D01*
X66187182Y-118146746D01*
X66266000Y-118542993D01*
X66266000Y-118947007D01*
X66187182Y-119343254D01*
X66032574Y-119716511D01*
X66032573Y-119716513D01*
X65808116Y-120052436D01*
X65522436Y-120338116D01*
X65186513Y-120562573D01*
X65186512Y-120562574D01*
X65186511Y-120562574D01*
X64813254Y-120717182D01*
X64417007Y-120796000D01*
X64012993Y-120796000D01*
X63616746Y-120717182D01*
X63243489Y-120562574D01*
X63243488Y-120562574D01*
X63243487Y-120562573D01*
X62907564Y-120338116D01*
X62621884Y-120052436D01*
X62397427Y-119716513D01*
X62397426Y-119716511D01*
X62242818Y-119343254D01*
X62164000Y-118947007D01*
X62164000Y-118542993D01*
X62242818Y-118146746D01*
X62397426Y-117773489D01*
X62466764Y-117669718D01*
X62621884Y-117437564D01*
X62907564Y-117151884D01*
X63243487Y-116927427D01*
X63243489Y-116927426D01*
X63616746Y-116772818D01*
X64012993Y-116694000D01*
X64417007Y-116694000D01*
X64813254Y-116772818D01*
X64813254Y-116772818D01*
G37*
G36*
X35603254Y-116772818D02*
G01*
X35976511Y-116927426D01*
X35976513Y-116927427D01*
X36312436Y-117151884D01*
X36598116Y-117437564D01*
X36753237Y-117669718D01*
X36822574Y-117773489D01*
X36977182Y-118146746D01*
X37056000Y-118542993D01*
X37056000Y-118947007D01*
X36977182Y-119343254D01*
X36822574Y-119716511D01*
X36822573Y-119716513D01*
X36598116Y-120052436D01*
X36312436Y-120338116D01*
X35976513Y-120562573D01*
X35976512Y-120562574D01*
X35976511Y-120562574D01*
X35603254Y-120717182D01*
X35207007Y-120796000D01*
X34802993Y-120796000D01*
X34406746Y-120717182D01*
X34033489Y-120562574D01*
X34033488Y-120562574D01*
X34033487Y-120562573D01*
X33697564Y-120338116D01*
X33411884Y-120052436D01*
X33187427Y-119716513D01*
X33187426Y-119716511D01*
X33032818Y-119343254D01*
X32954000Y-118947007D01*
X32954000Y-118542993D01*
X33032818Y-118146746D01*
X33187426Y-117773489D01*
X33256764Y-117669718D01*
X33411884Y-117437564D01*
X33697564Y-117151884D01*
X34033487Y-116927427D01*
X34033489Y-116927426D01*
X34406746Y-116772818D01*
X34802993Y-116694000D01*
X35207007Y-116694000D01*
X35603254Y-116772818D01*
X35603254Y-116772818D01*
G37*
G36*
X50208254Y-116772818D02*
G01*
X50581511Y-116927426D01*
X50581513Y-116927427D01*
X50917436Y-117151884D01*
X51203116Y-117437564D01*
X51358237Y-117669718D01*
X51427574Y-117773489D01*
X51582182Y-118146746D01*
X51661000Y-118542993D01*
X51661000Y-118947007D01*
X51582182Y-119343254D01*
X51427574Y-119716511D01*
X51427573Y-119716513D01*
X51203116Y-120052436D01*
X50917436Y-120338116D01*
X50581513Y-120562573D01*
X50581512Y-120562574D01*
X50581511Y-120562574D01*
X50208254Y-120717182D01*
X49812007Y-120796000D01*
X49407993Y-120796000D01*
X49011746Y-120717182D01*
X48638489Y-120562574D01*
X48638488Y-120562574D01*
X48638487Y-120562573D01*
X48302564Y-120338116D01*
X48016884Y-120052436D01*
X47792427Y-119716513D01*
X47792426Y-119716511D01*
X47637818Y-119343254D01*
X47559000Y-118947007D01*
X47559000Y-118542993D01*
X47637818Y-118146746D01*
X47792426Y-117773489D01*
X47861764Y-117669718D01*
X48016884Y-117437564D01*
X48302564Y-117151884D01*
X48638487Y-116927427D01*
X48638489Y-116927426D01*
X49011746Y-116772818D01*
X49407993Y-116694000D01*
X49812007Y-116694000D01*
X50208254Y-116772818D01*
X50208254Y-116772818D01*
G37*
G36*
X41956000Y-120696000D02*
G01*
X38054000Y-120696000D01*
X38054000Y-116794000D01*
X41956000Y-116794000D01*
X41956000Y-120696000D01*
X41956000Y-120696000D01*
G37*
G36*
X71166000Y-120696000D02*
G01*
X67264000Y-120696000D01*
X67264000Y-116794000D01*
X71166000Y-116794000D01*
X71166000Y-120696000D01*
X71166000Y-120696000D01*
G37*
G36*
X56561000Y-120696000D02*
G01*
X52659000Y-120696000D01*
X52659000Y-116794000D01*
X56561000Y-116794000D01*
X56561000Y-120696000D01*
X56561000Y-120696000D01*
G37*
G36*
X44937754Y-109343318D02*
G01*
X45311011Y-109497926D01*
X45311013Y-109497927D01*
X45646936Y-109722384D01*
X45932616Y-110008064D01*
X46066680Y-110208704D01*
X46157074Y-110343989D01*
X46311682Y-110717246D01*
X46390500Y-111113493D01*
X46390500Y-111517507D01*
X46311682Y-111913754D01*
X46163164Y-112272308D01*
X46157073Y-112287013D01*
X45932616Y-112622936D01*
X45646936Y-112908616D01*
X45311013Y-113133073D01*
X45311012Y-113133074D01*
X45311011Y-113133074D01*
X44937754Y-113287682D01*
X44541507Y-113366500D01*
X44137493Y-113366500D01*
X43741246Y-113287682D01*
X43367989Y-113133074D01*
X43367988Y-113133074D01*
X43367987Y-113133073D01*
X43032064Y-112908616D01*
X42746384Y-112622936D01*
X42521927Y-112287013D01*
X42515836Y-112272308D01*
X42367318Y-111913754D01*
X42288500Y-111517507D01*
X42288500Y-111113493D01*
X42367318Y-110717246D01*
X42521926Y-110343989D01*
X42612321Y-110208704D01*
X42746384Y-110008064D01*
X43032064Y-109722384D01*
X43367987Y-109497927D01*
X43367989Y-109497926D01*
X43741246Y-109343318D01*
X44137493Y-109264500D01*
X44541507Y-109264500D01*
X44937754Y-109343318D01*
X44937754Y-109343318D01*
G37*
G36*
X51290500Y-113266500D02*
G01*
X47388500Y-113266500D01*
X47388500Y-109364500D01*
X51290500Y-109364500D01*
X51290500Y-113266500D01*
X51290500Y-113266500D01*
G37*
G36*
X34709865Y-106172855D02*
G01*
X35310608Y-106421691D01*
X35310610Y-106421692D01*
X35851265Y-106782946D01*
X36311054Y-107242735D01*
X36595875Y-107669000D01*
X36672309Y-107783392D01*
X36921145Y-108384135D01*
X37048000Y-109021879D01*
X37048000Y-109672121D01*
X36921145Y-110309865D01*
X36672309Y-110910608D01*
X36672308Y-110910610D01*
X36311054Y-111451265D01*
X35851265Y-111911054D01*
X35310610Y-112272308D01*
X35310609Y-112272309D01*
X35310608Y-112272309D01*
X34709865Y-112521145D01*
X34072121Y-112648000D01*
X33421879Y-112648000D01*
X32784135Y-112521145D01*
X32183392Y-112272309D01*
X32183391Y-112272309D01*
X32183390Y-112272308D01*
X31642735Y-111911054D01*
X31182946Y-111451265D01*
X30821692Y-110910610D01*
X30821691Y-110910608D01*
X30572855Y-110309865D01*
X30446000Y-109672121D01*
X30446000Y-109021879D01*
X30572855Y-108384135D01*
X30821691Y-107783392D01*
X30898125Y-107669000D01*
X31182946Y-107242735D01*
X31642735Y-106782946D01*
X32183390Y-106421692D01*
X32183392Y-106421691D01*
X32784135Y-106172855D01*
X33421879Y-106046000D01*
X34072121Y-106046000D01*
X34709865Y-106172855D01*
X34709865Y-106172855D01*
G37*
G36*
X27759865Y-106172855D02*
G01*
X28360608Y-106421691D01*
X28360610Y-106421692D01*
X28901265Y-106782946D01*
X29361054Y-107242735D01*
X29645875Y-107669000D01*
X29722309Y-107783392D01*
X29971145Y-108384135D01*
X30098000Y-109021879D01*
X30098000Y-109672121D01*
X29971145Y-110309865D01*
X29722309Y-110910608D01*
X29722308Y-110910610D01*
X29361054Y-111451265D01*
X28901265Y-111911054D01*
X28360610Y-112272308D01*
X28360609Y-112272309D01*
X28360608Y-112272309D01*
X27759865Y-112521145D01*
X27122121Y-112648000D01*
X26471879Y-112648000D01*
X25834135Y-112521145D01*
X25233392Y-112272309D01*
X25233391Y-112272309D01*
X25233390Y-112272308D01*
X24692735Y-111911054D01*
X24232946Y-111451265D01*
X23871692Y-110910610D01*
X23871691Y-110910608D01*
X23622855Y-110309865D01*
X23496000Y-109672121D01*
X23496000Y-109021879D01*
X23622855Y-108384135D01*
X23871691Y-107783392D01*
X23948125Y-107669000D01*
X24232946Y-107242735D01*
X24692735Y-106782946D01*
X25233390Y-106421692D01*
X25233392Y-106421691D01*
X25834135Y-106172855D01*
X26471879Y-106046000D01*
X27122121Y-106046000D01*
X27759865Y-106172855D01*
X27759865Y-106172855D01*
G37*
G36*
X80758500Y-111667500D02*
G01*
X64656500Y-111667500D01*
X64656500Y-101565500D01*
X80758500Y-101565500D01*
X80758500Y-111667500D01*
X80758500Y-111667500D01*
G37*
G36*
X59738585Y-107698802D02*
G01*
X59888410Y-107728604D01*
X60170674Y-107845521D01*
X60424705Y-108015259D01*
X60640741Y-108231295D01*
X60810479Y-108485326D01*
X60927396Y-108767590D01*
X60987000Y-109067240D01*
X60987000Y-109372760D01*
X60927396Y-109672410D01*
X60810479Y-109954674D01*
X60640741Y-110208705D01*
X60424705Y-110424741D01*
X60170674Y-110594479D01*
X59888410Y-110711396D01*
X59738585Y-110741198D01*
X59588761Y-110771000D01*
X59283239Y-110771000D01*
X59133415Y-110741198D01*
X58983590Y-110711396D01*
X58701326Y-110594479D01*
X58447295Y-110424741D01*
X58231259Y-110208705D01*
X58061521Y-109954674D01*
X57944604Y-109672410D01*
X57885000Y-109372760D01*
X57885000Y-109067240D01*
X57944604Y-108767590D01*
X58061521Y-108485326D01*
X58231259Y-108231295D01*
X58447295Y-108015259D01*
X58701326Y-107845521D01*
X58983590Y-107728604D01*
X59133415Y-107698802D01*
X59283239Y-107669000D01*
X59588761Y-107669000D01*
X59738585Y-107698802D01*
X59738585Y-107698802D01*
G37*
G36*
X44388000Y-106220500D02*
G01*
X42386000Y-106220500D01*
X42386000Y-104218500D01*
X44388000Y-104218500D01*
X44388000Y-106220500D01*
X44388000Y-106220500D01*
G37*
G36*
X46082285Y-104237734D02*
G01*
X46178981Y-104256968D01*
X46361151Y-104332426D01*
X46525100Y-104441973D01*
X46664527Y-104581400D01*
X46774074Y-104745349D01*
X46849532Y-104927519D01*
X46888000Y-105120910D01*
X46888000Y-105318090D01*
X46849532Y-105511481D01*
X46774074Y-105693651D01*
X46664527Y-105857600D01*
X46525100Y-105997027D01*
X46361151Y-106106574D01*
X46178981Y-106182032D01*
X46082285Y-106201266D01*
X45985591Y-106220500D01*
X45788409Y-106220500D01*
X45691715Y-106201266D01*
X45595019Y-106182032D01*
X45412849Y-106106574D01*
X45248900Y-105997027D01*
X45109473Y-105857600D01*
X44999926Y-105693651D01*
X44924468Y-105511481D01*
X44886000Y-105318090D01*
X44886000Y-105120910D01*
X44924468Y-104927519D01*
X44999926Y-104745349D01*
X45109473Y-104581400D01*
X45248900Y-104441973D01*
X45412849Y-104332426D01*
X45595019Y-104256968D01*
X45788409Y-104218500D01*
X45985591Y-104218500D01*
X46082285Y-104237734D01*
X46082285Y-104237734D01*
G37*
G36*
X48582285Y-104237734D02*
G01*
X48678981Y-104256968D01*
X48861151Y-104332426D01*
X49025100Y-104441973D01*
X49164527Y-104581400D01*
X49274074Y-104745349D01*
X49349532Y-104927519D01*
X49388000Y-105120910D01*
X49388000Y-105318090D01*
X49349532Y-105511481D01*
X49274074Y-105693651D01*
X49164527Y-105857600D01*
X49025100Y-105997027D01*
X48861151Y-106106574D01*
X48678981Y-106182032D01*
X48582285Y-106201266D01*
X48485591Y-106220500D01*
X48288409Y-106220500D01*
X48191715Y-106201266D01*
X48095019Y-106182032D01*
X47912849Y-106106574D01*
X47748900Y-105997027D01*
X47609473Y-105857600D01*
X47499926Y-105693651D01*
X47424468Y-105511481D01*
X47386000Y-105318090D01*
X47386000Y-105120910D01*
X47424468Y-104927519D01*
X47499926Y-104745349D01*
X47609473Y-104581400D01*
X47748900Y-104441973D01*
X47912849Y-104332426D01*
X48095019Y-104256968D01*
X48288409Y-104218500D01*
X48485591Y-104218500D01*
X48582285Y-104237734D01*
X48582285Y-104237734D01*
G37*
G36*
X59738585Y-102669602D02*
G01*
X59888410Y-102699404D01*
X60170674Y-102816321D01*
X60424705Y-102986059D01*
X60640741Y-103202095D01*
X60810479Y-103456126D01*
X60927396Y-103738390D01*
X60927396Y-103738391D01*
X60987000Y-104038039D01*
X60987000Y-104343561D01*
X60957198Y-104493385D01*
X60927396Y-104643210D01*
X60810479Y-104925474D01*
X60640741Y-105179505D01*
X60424705Y-105395541D01*
X60170674Y-105565279D01*
X59888410Y-105682196D01*
X59738585Y-105711998D01*
X59588761Y-105741800D01*
X59283239Y-105741800D01*
X59133415Y-105711998D01*
X58983590Y-105682196D01*
X58701326Y-105565279D01*
X58447295Y-105395541D01*
X58231259Y-105179505D01*
X58061521Y-104925474D01*
X57944604Y-104643210D01*
X57914802Y-104493385D01*
X57885000Y-104343561D01*
X57885000Y-104038039D01*
X57944604Y-103738391D01*
X57944604Y-103738390D01*
X58061521Y-103456126D01*
X58231259Y-103202095D01*
X58447295Y-102986059D01*
X58701326Y-102816321D01*
X58983590Y-102699404D01*
X59133415Y-102669602D01*
X59283239Y-102639800D01*
X59588761Y-102639800D01*
X59738585Y-102669602D01*
X59738585Y-102669602D01*
G37*
G36*
X38307674Y-102184965D02*
G01*
X38345367Y-102196399D01*
X38380103Y-102214966D01*
X38410548Y-102239952D01*
X38435534Y-102270397D01*
X38454101Y-102305133D01*
X38465535Y-102342826D01*
X38470000Y-102388161D01*
X38470000Y-103224839D01*
X38465535Y-103270174D01*
X38454101Y-103307867D01*
X38435534Y-103342603D01*
X38410548Y-103373048D01*
X38380103Y-103398034D01*
X38345367Y-103416601D01*
X38307674Y-103428035D01*
X38262339Y-103432500D01*
X37175661Y-103432500D01*
X37130326Y-103428035D01*
X37092633Y-103416601D01*
X37057897Y-103398034D01*
X37027452Y-103373048D01*
X37002466Y-103342603D01*
X36983899Y-103307867D01*
X36972465Y-103270174D01*
X36968000Y-103224839D01*
X36968000Y-102388161D01*
X36972465Y-102342826D01*
X36983899Y-102305133D01*
X37002466Y-102270397D01*
X37027452Y-102239952D01*
X37057897Y-102214966D01*
X37092633Y-102196399D01*
X37130326Y-102184965D01*
X37175661Y-102180500D01*
X38262339Y-102180500D01*
X38307674Y-102184965D01*
X38307674Y-102184965D01*
G37*
G36*
X38307674Y-100134965D02*
G01*
X38345367Y-100146399D01*
X38380103Y-100164966D01*
X38410548Y-100189952D01*
X38435534Y-100220397D01*
X38454101Y-100255133D01*
X38465535Y-100292826D01*
X38470000Y-100338161D01*
X38470000Y-101174839D01*
X38465535Y-101220174D01*
X38454101Y-101257867D01*
X38435534Y-101292603D01*
X38410548Y-101323048D01*
X38380103Y-101348034D01*
X38345367Y-101366601D01*
X38307674Y-101378035D01*
X38262339Y-101382500D01*
X37175661Y-101382500D01*
X37130326Y-101378035D01*
X37092633Y-101366601D01*
X37057897Y-101348034D01*
X37027452Y-101323048D01*
X37002466Y-101292603D01*
X36983899Y-101257867D01*
X36972465Y-101220174D01*
X36968000Y-101174839D01*
X36968000Y-100338161D01*
X36972465Y-100292826D01*
X36983899Y-100255133D01*
X37002466Y-100220397D01*
X37027452Y-100189952D01*
X37057897Y-100164966D01*
X37092633Y-100146399D01*
X37130326Y-100134965D01*
X37175661Y-100130500D01*
X38262339Y-100130500D01*
X38307674Y-100134965D01*
X38307674Y-100134965D01*
G37*
G36*
X44467174Y-99708465D02*
G01*
X44504867Y-99719899D01*
X44539603Y-99738466D01*
X44570048Y-99763452D01*
X44595034Y-99793897D01*
X44613601Y-99828633D01*
X44625035Y-99866326D01*
X44629500Y-99911661D01*
X44629500Y-100748339D01*
X44625035Y-100793674D01*
X44613601Y-100831367D01*
X44595034Y-100866103D01*
X44570048Y-100896548D01*
X44539603Y-100921534D01*
X44504867Y-100940101D01*
X44467174Y-100951535D01*
X44421839Y-100956000D01*
X43335161Y-100956000D01*
X43289826Y-100951535D01*
X43252133Y-100940101D01*
X43217397Y-100921534D01*
X43186952Y-100896548D01*
X43161966Y-100866103D01*
X43143399Y-100831367D01*
X43131965Y-100793674D01*
X43127500Y-100748339D01*
X43127500Y-99911661D01*
X43131965Y-99866326D01*
X43143399Y-99828633D01*
X43161966Y-99793897D01*
X43186952Y-99763452D01*
X43217397Y-99738466D01*
X43252133Y-99719899D01*
X43289826Y-99708465D01*
X43335161Y-99704000D01*
X44421839Y-99704000D01*
X44467174Y-99708465D01*
X44467174Y-99708465D01*
G37*
G36*
X80631500Y-99221500D02*
G01*
X64529500Y-99221500D01*
X64529500Y-89119500D01*
X80631500Y-89119500D01*
X80631500Y-99221500D01*
X80631500Y-99221500D01*
G37*
G36*
X41800174Y-97676465D02*
G01*
X41837867Y-97687899D01*
X41872603Y-97706466D01*
X41903048Y-97731452D01*
X41928034Y-97761897D01*
X41946601Y-97796633D01*
X41958035Y-97834326D01*
X41962500Y-97879661D01*
X41962500Y-98716339D01*
X41958035Y-98761674D01*
X41946601Y-98799367D01*
X41928034Y-98834103D01*
X41903048Y-98864548D01*
X41872603Y-98889534D01*
X41837867Y-98908101D01*
X41800174Y-98919535D01*
X41754839Y-98924000D01*
X40668161Y-98924000D01*
X40622826Y-98919535D01*
X40585133Y-98908101D01*
X40550397Y-98889534D01*
X40519952Y-98864548D01*
X40494966Y-98834103D01*
X40476399Y-98799367D01*
X40464965Y-98761674D01*
X40460500Y-98716339D01*
X40460500Y-97879661D01*
X40464965Y-97834326D01*
X40476399Y-97796633D01*
X40494966Y-97761897D01*
X40519952Y-97731452D01*
X40550397Y-97706466D01*
X40585133Y-97687899D01*
X40622826Y-97676465D01*
X40668161Y-97672000D01*
X41754839Y-97672000D01*
X41800174Y-97676465D01*
X41800174Y-97676465D01*
G37*
G36*
X38371174Y-97676465D02*
G01*
X38408867Y-97687899D01*
X38443603Y-97706466D01*
X38474048Y-97731452D01*
X38499034Y-97761897D01*
X38517601Y-97796633D01*
X38529035Y-97834326D01*
X38533500Y-97879661D01*
X38533500Y-98716339D01*
X38529035Y-98761674D01*
X38517601Y-98799367D01*
X38499034Y-98834103D01*
X38474048Y-98864548D01*
X38443603Y-98889534D01*
X38408867Y-98908101D01*
X38371174Y-98919535D01*
X38325839Y-98924000D01*
X37239161Y-98924000D01*
X37193826Y-98919535D01*
X37156133Y-98908101D01*
X37121397Y-98889534D01*
X37090952Y-98864548D01*
X37065966Y-98834103D01*
X37047399Y-98799367D01*
X37035965Y-98761674D01*
X37031500Y-98716339D01*
X37031500Y-97879661D01*
X37035965Y-97834326D01*
X37047399Y-97796633D01*
X37065966Y-97761897D01*
X37090952Y-97731452D01*
X37121397Y-97706466D01*
X37156133Y-97687899D01*
X37193826Y-97676465D01*
X37239161Y-97672000D01*
X38325839Y-97672000D01*
X38371174Y-97676465D01*
X38371174Y-97676465D01*
G37*
G36*
X44467174Y-97658465D02*
G01*
X44504867Y-97669899D01*
X44539603Y-97688466D01*
X44570048Y-97713452D01*
X44595034Y-97743897D01*
X44613601Y-97778633D01*
X44625035Y-97816326D01*
X44629500Y-97861661D01*
X44629500Y-98698339D01*
X44625035Y-98743674D01*
X44613601Y-98781367D01*
X44595034Y-98816103D01*
X44570048Y-98846548D01*
X44539603Y-98871534D01*
X44504867Y-98890101D01*
X44467174Y-98901535D01*
X44421839Y-98906000D01*
X43335161Y-98906000D01*
X43289826Y-98901535D01*
X43252133Y-98890101D01*
X43217397Y-98871534D01*
X43186952Y-98846548D01*
X43161966Y-98816103D01*
X43143399Y-98781367D01*
X43131965Y-98743674D01*
X43127500Y-98698339D01*
X43127500Y-97861661D01*
X43131965Y-97816326D01*
X43143399Y-97778633D01*
X43161966Y-97743897D01*
X43186952Y-97713452D01*
X43217397Y-97688466D01*
X43252133Y-97669899D01*
X43289826Y-97658465D01*
X43335161Y-97654000D01*
X44421839Y-97654000D01*
X44467174Y-97658465D01*
X44467174Y-97658465D01*
G37*
G36*
X59611585Y-95252802D02*
G01*
X59761410Y-95282604D01*
X60043674Y-95399521D01*
X60297705Y-95569259D01*
X60513741Y-95785295D01*
X60683479Y-96039326D01*
X60800396Y-96321590D01*
X60860000Y-96621240D01*
X60860000Y-96926760D01*
X60800396Y-97226410D01*
X60683479Y-97508674D01*
X60513741Y-97762705D01*
X60297705Y-97978741D01*
X60043674Y-98148479D01*
X59761410Y-98265396D01*
X59611585Y-98295198D01*
X59461761Y-98325000D01*
X59156239Y-98325000D01*
X59006415Y-98295198D01*
X58856590Y-98265396D01*
X58574326Y-98148479D01*
X58320295Y-97978741D01*
X58104259Y-97762705D01*
X57934521Y-97508674D01*
X57817604Y-97226410D01*
X57758000Y-96926760D01*
X57758000Y-96621240D01*
X57817604Y-96321590D01*
X57934521Y-96039326D01*
X58104259Y-95785295D01*
X58320295Y-95569259D01*
X58574326Y-95399521D01*
X58856590Y-95282604D01*
X59006415Y-95252802D01*
X59156239Y-95223000D01*
X59461761Y-95223000D01*
X59611585Y-95252802D01*
X59611585Y-95252802D01*
G37*
G36*
X41800174Y-95626465D02*
G01*
X41837867Y-95637899D01*
X41872603Y-95656466D01*
X41903048Y-95681452D01*
X41928034Y-95711897D01*
X41946601Y-95746633D01*
X41958035Y-95784326D01*
X41962500Y-95829661D01*
X41962500Y-96666339D01*
X41958035Y-96711674D01*
X41946601Y-96749367D01*
X41928034Y-96784103D01*
X41903048Y-96814548D01*
X41872603Y-96839534D01*
X41837867Y-96858101D01*
X41800174Y-96869535D01*
X41754839Y-96874000D01*
X40668161Y-96874000D01*
X40622826Y-96869535D01*
X40585133Y-96858101D01*
X40550397Y-96839534D01*
X40519952Y-96814548D01*
X40494966Y-96784103D01*
X40476399Y-96749367D01*
X40464965Y-96711674D01*
X40460500Y-96666339D01*
X40460500Y-95829661D01*
X40464965Y-95784326D01*
X40476399Y-95746633D01*
X40494966Y-95711897D01*
X40519952Y-95681452D01*
X40550397Y-95656466D01*
X40585133Y-95637899D01*
X40622826Y-95626465D01*
X40668161Y-95622000D01*
X41754839Y-95622000D01*
X41800174Y-95626465D01*
X41800174Y-95626465D01*
G37*
G36*
X38371174Y-95626465D02*
G01*
X38408867Y-95637899D01*
X38443603Y-95656466D01*
X38474048Y-95681452D01*
X38499034Y-95711897D01*
X38517601Y-95746633D01*
X38529035Y-95784326D01*
X38533500Y-95829661D01*
X38533500Y-96666339D01*
X38529035Y-96711674D01*
X38517601Y-96749367D01*
X38499034Y-96784103D01*
X38474048Y-96814548D01*
X38443603Y-96839534D01*
X38408867Y-96858101D01*
X38371174Y-96869535D01*
X38325839Y-96874000D01*
X37239161Y-96874000D01*
X37193826Y-96869535D01*
X37156133Y-96858101D01*
X37121397Y-96839534D01*
X37090952Y-96814548D01*
X37065966Y-96784103D01*
X37047399Y-96749367D01*
X37035965Y-96711674D01*
X37031500Y-96666339D01*
X37031500Y-95829661D01*
X37035965Y-95784326D01*
X37047399Y-95746633D01*
X37065966Y-95711897D01*
X37090952Y-95681452D01*
X37121397Y-95656466D01*
X37156133Y-95637899D01*
X37193826Y-95626465D01*
X37239161Y-95622000D01*
X38325839Y-95622000D01*
X38371174Y-95626465D01*
X38371174Y-95626465D01*
G37*
G36*
X59606367Y-90222564D02*
G01*
X59761410Y-90253404D01*
X60043674Y-90370321D01*
X60297705Y-90540059D01*
X60513741Y-90756095D01*
X60683479Y-91010126D01*
X60800396Y-91292390D01*
X60860000Y-91592040D01*
X60860000Y-91897560D01*
X60800396Y-92197210D01*
X60683479Y-92479474D01*
X60513741Y-92733505D01*
X60297705Y-92949541D01*
X60043674Y-93119279D01*
X59761410Y-93236196D01*
X59611585Y-93265998D01*
X59461761Y-93295800D01*
X59156239Y-93295800D01*
X59006415Y-93265998D01*
X58856590Y-93236196D01*
X58574326Y-93119279D01*
X58320295Y-92949541D01*
X58104259Y-92733505D01*
X57934521Y-92479474D01*
X57817604Y-92197210D01*
X57758000Y-91897560D01*
X57758000Y-91592040D01*
X57817604Y-91292390D01*
X57934521Y-91010126D01*
X58104259Y-90756095D01*
X58320295Y-90540059D01*
X58574326Y-90370321D01*
X58856590Y-90253404D01*
X59011633Y-90222564D01*
X59156239Y-90193800D01*
X59461761Y-90193800D01*
X59606367Y-90222564D01*
X59606367Y-90222564D01*
G37*
G36*
X31434085Y-88335802D02*
G01*
X31583910Y-88365604D01*
X31866174Y-88482521D01*
X32120205Y-88652259D01*
X32336241Y-88868295D01*
X32505979Y-89122326D01*
X32622896Y-89404590D01*
X32652698Y-89554415D01*
X32682500Y-89704239D01*
X32682500Y-90009761D01*
X32652698Y-90159585D01*
X32622896Y-90309410D01*
X32505979Y-90591674D01*
X32336241Y-90845705D01*
X32120205Y-91061741D01*
X31866174Y-91231479D01*
X31583910Y-91348396D01*
X31434085Y-91378198D01*
X31284261Y-91408000D01*
X30978739Y-91408000D01*
X30828915Y-91378198D01*
X30679090Y-91348396D01*
X30396826Y-91231479D01*
X30142795Y-91061741D01*
X29926759Y-90845705D01*
X29757021Y-90591674D01*
X29640104Y-90309410D01*
X29610302Y-90159585D01*
X29580500Y-90009761D01*
X29580500Y-89704239D01*
X29610302Y-89554415D01*
X29640104Y-89404590D01*
X29757021Y-89122326D01*
X29926759Y-88868295D01*
X30142795Y-88652259D01*
X30396826Y-88482521D01*
X30679090Y-88365604D01*
X30828915Y-88335802D01*
X30978739Y-88306000D01*
X31284261Y-88306000D01*
X31434085Y-88335802D01*
X31434085Y-88335802D01*
G37*
G36*
X36434085Y-88335802D02*
G01*
X36583910Y-88365604D01*
X36866174Y-88482521D01*
X37120205Y-88652259D01*
X37336241Y-88868295D01*
X37505979Y-89122326D01*
X37622896Y-89404590D01*
X37652698Y-89554415D01*
X37682500Y-89704239D01*
X37682500Y-90009761D01*
X37652698Y-90159585D01*
X37622896Y-90309410D01*
X37505979Y-90591674D01*
X37336241Y-90845705D01*
X37120205Y-91061741D01*
X36866174Y-91231479D01*
X36583910Y-91348396D01*
X36434085Y-91378198D01*
X36284261Y-91408000D01*
X35978739Y-91408000D01*
X35828915Y-91378198D01*
X35679090Y-91348396D01*
X35396826Y-91231479D01*
X35142795Y-91061741D01*
X34926759Y-90845705D01*
X34757021Y-90591674D01*
X34640104Y-90309410D01*
X34610302Y-90159585D01*
X34580500Y-90009761D01*
X34580500Y-89704239D01*
X34610302Y-89554415D01*
X34640104Y-89404590D01*
X34757021Y-89122326D01*
X34926759Y-88868295D01*
X35142795Y-88652259D01*
X35396826Y-88482521D01*
X35679090Y-88365604D01*
X35828915Y-88335802D01*
X35978739Y-88306000D01*
X36284261Y-88306000D01*
X36434085Y-88335802D01*
X36434085Y-88335802D01*
G37*
G36*
X44866000Y-90967000D02*
G01*
X42764000Y-90967000D01*
X42764000Y-88865000D01*
X44866000Y-88865000D01*
X44866000Y-90967000D01*
X44866000Y-90967000D01*
G37*
G36*
X49121564Y-88905389D02*
G01*
X49312833Y-88984615D01*
X49312835Y-88984616D01*
X49484973Y-89099635D01*
X49631365Y-89246027D01*
X49746385Y-89418167D01*
X49825611Y-89609436D01*
X49866000Y-89812484D01*
X49866000Y-90019516D01*
X49825611Y-90222564D01*
X49789638Y-90309410D01*
X49746384Y-90413835D01*
X49631365Y-90585973D01*
X49484973Y-90732365D01*
X49312835Y-90847384D01*
X49312834Y-90847385D01*
X49312833Y-90847385D01*
X49121564Y-90926611D01*
X48918516Y-90967000D01*
X48711484Y-90967000D01*
X48508436Y-90926611D01*
X48317167Y-90847385D01*
X48317166Y-90847385D01*
X48317165Y-90847384D01*
X48145027Y-90732365D01*
X47998635Y-90585973D01*
X47883616Y-90413835D01*
X47840362Y-90309410D01*
X47804389Y-90222564D01*
X47764000Y-90019516D01*
X47764000Y-89812484D01*
X47804389Y-89609436D01*
X47883615Y-89418167D01*
X47998635Y-89246027D01*
X48145027Y-89099635D01*
X48317165Y-88984616D01*
X48317167Y-88984615D01*
X48508436Y-88905389D01*
X48711484Y-88865000D01*
X48918516Y-88865000D01*
X49121564Y-88905389D01*
X49121564Y-88905389D01*
G37*
G36*
X76803097Y-84679069D02*
G01*
X76906032Y-84689207D01*
X77104146Y-84749305D01*
X77104149Y-84749306D01*
X77200975Y-84801061D01*
X77286729Y-84846897D01*
X77446765Y-84978235D01*
X77578103Y-85138271D01*
X77623939Y-85224025D01*
X77675694Y-85320851D01*
X77675695Y-85320854D01*
X77735793Y-85518968D01*
X77756085Y-85725000D01*
X77735793Y-85931032D01*
X77675695Y-86129146D01*
X77675694Y-86129149D01*
X77623939Y-86225975D01*
X77578103Y-86311729D01*
X77446765Y-86471765D01*
X77286729Y-86603103D01*
X77200975Y-86648939D01*
X77104149Y-86700694D01*
X77104146Y-86700695D01*
X76906032Y-86760793D01*
X76803097Y-86770931D01*
X76751631Y-86776000D01*
X75648369Y-86776000D01*
X75596903Y-86770931D01*
X75493968Y-86760793D01*
X75295854Y-86700695D01*
X75295851Y-86700694D01*
X75199025Y-86648939D01*
X75113271Y-86603103D01*
X74953235Y-86471765D01*
X74821897Y-86311729D01*
X74776061Y-86225975D01*
X74724306Y-86129149D01*
X74724305Y-86129146D01*
X74664207Y-85931032D01*
X74643915Y-85725000D01*
X74664207Y-85518968D01*
X74724305Y-85320854D01*
X74724306Y-85320851D01*
X74776061Y-85224025D01*
X74821897Y-85138271D01*
X74953235Y-84978235D01*
X75113271Y-84846897D01*
X75199025Y-84801061D01*
X75295851Y-84749306D01*
X75295854Y-84749305D01*
X75493968Y-84689207D01*
X75596903Y-84679069D01*
X75648369Y-84674000D01*
X76751631Y-84674000D01*
X76803097Y-84679069D01*
X76803097Y-84679069D01*
G37*
G36*
X35974499Y-78218445D02*
G01*
X36011995Y-78229820D01*
X36046554Y-78248292D01*
X36076847Y-78273153D01*
X36101708Y-78303446D01*
X36120180Y-78338005D01*
X36131555Y-78375501D01*
X36136000Y-78420638D01*
X36136000Y-79059362D01*
X36131555Y-79104499D01*
X36120180Y-79141995D01*
X36101708Y-79176554D01*
X36076847Y-79206847D01*
X36046554Y-79231708D01*
X36011995Y-79250180D01*
X35974499Y-79261555D01*
X35929362Y-79266000D01*
X35190638Y-79266000D01*
X35145501Y-79261555D01*
X35108005Y-79250180D01*
X35073446Y-79231708D01*
X35043153Y-79206847D01*
X35018292Y-79176554D01*
X34999820Y-79141995D01*
X34988445Y-79104499D01*
X34984000Y-79059362D01*
X34984000Y-78420638D01*
X34988445Y-78375501D01*
X34999820Y-78338005D01*
X35018292Y-78303446D01*
X35043153Y-78273153D01*
X35073446Y-78248292D01*
X35108005Y-78229820D01*
X35145501Y-78218445D01*
X35190638Y-78214000D01*
X35929362Y-78214000D01*
X35974499Y-78218445D01*
X35974499Y-78218445D01*
G37*
G36*
X34224499Y-78218445D02*
G01*
X34261995Y-78229820D01*
X34296554Y-78248292D01*
X34326847Y-78273153D01*
X34351708Y-78303446D01*
X34370180Y-78338005D01*
X34381555Y-78375501D01*
X34386000Y-78420638D01*
X34386000Y-79059362D01*
X34381555Y-79104499D01*
X34370180Y-79141995D01*
X34351708Y-79176554D01*
X34326847Y-79206847D01*
X34296554Y-79231708D01*
X34261995Y-79250180D01*
X34224499Y-79261555D01*
X34179362Y-79266000D01*
X33440638Y-79266000D01*
X33395501Y-79261555D01*
X33358005Y-79250180D01*
X33323446Y-79231708D01*
X33293153Y-79206847D01*
X33268292Y-79176554D01*
X33249820Y-79141995D01*
X33238445Y-79104499D01*
X33234000Y-79059362D01*
X33234000Y-78420638D01*
X33238445Y-78375501D01*
X33249820Y-78338005D01*
X33268292Y-78303446D01*
X33293153Y-78273153D01*
X33323446Y-78248292D01*
X33358005Y-78229820D01*
X33395501Y-78218445D01*
X33440638Y-78214000D01*
X34179362Y-78214000D01*
X34224499Y-78218445D01*
X34224499Y-78218445D01*
G37*
G36*
X57431000Y-79156000D02*
G01*
X54329000Y-79156000D01*
X54329000Y-77054000D01*
X57431000Y-77054000D01*
X57431000Y-79156000D01*
X57431000Y-79156000D01*
G37*
G36*
X46165674Y-77548965D02*
G01*
X46203367Y-77560399D01*
X46238103Y-77578966D01*
X46268548Y-77603952D01*
X46293534Y-77634397D01*
X46312101Y-77669133D01*
X46323535Y-77706826D01*
X46328000Y-77752161D01*
X46328000Y-78838839D01*
X46323535Y-78884174D01*
X46312101Y-78921867D01*
X46293534Y-78956603D01*
X46268548Y-78987048D01*
X46238103Y-79012034D01*
X46203367Y-79030601D01*
X46165674Y-79042035D01*
X46120339Y-79046500D01*
X45283661Y-79046500D01*
X45238326Y-79042035D01*
X45200633Y-79030601D01*
X45165897Y-79012034D01*
X45135452Y-78987048D01*
X45110466Y-78956603D01*
X45091899Y-78921867D01*
X45080465Y-78884174D01*
X45076000Y-78838839D01*
X45076000Y-77752161D01*
X45080465Y-77706826D01*
X45091899Y-77669133D01*
X45110466Y-77634397D01*
X45135452Y-77603952D01*
X45165897Y-77578966D01*
X45200633Y-77560399D01*
X45238326Y-77548965D01*
X45283661Y-77544500D01*
X46120339Y-77544500D01*
X46165674Y-77548965D01*
X46165674Y-77548965D01*
G37*
G36*
X48215674Y-77548965D02*
G01*
X48253367Y-77560399D01*
X48288103Y-77578966D01*
X48318548Y-77603952D01*
X48343534Y-77634397D01*
X48362101Y-77669133D01*
X48373535Y-77706826D01*
X48378000Y-77752161D01*
X48378000Y-78838839D01*
X48373535Y-78884174D01*
X48362101Y-78921867D01*
X48343534Y-78956603D01*
X48318548Y-78987048D01*
X48288103Y-79012034D01*
X48253367Y-79030601D01*
X48215674Y-79042035D01*
X48170339Y-79046500D01*
X47333661Y-79046500D01*
X47288326Y-79042035D01*
X47250633Y-79030601D01*
X47215897Y-79012034D01*
X47185452Y-78987048D01*
X47160466Y-78956603D01*
X47141899Y-78921867D01*
X47130465Y-78884174D01*
X47126000Y-78838839D01*
X47126000Y-77752161D01*
X47130465Y-77706826D01*
X47141899Y-77669133D01*
X47160466Y-77634397D01*
X47185452Y-77603952D01*
X47215897Y-77578966D01*
X47250633Y-77560399D01*
X47288326Y-77548965D01*
X47333661Y-77544500D01*
X48170339Y-77544500D01*
X48215674Y-77548965D01*
X48215674Y-77548965D01*
G37*
G36*
X34118674Y-75453465D02*
G01*
X34156367Y-75464899D01*
X34191103Y-75483466D01*
X34221548Y-75508452D01*
X34246534Y-75538897D01*
X34265101Y-75573633D01*
X34276535Y-75611326D01*
X34281000Y-75656661D01*
X34281000Y-76743339D01*
X34276535Y-76788674D01*
X34265101Y-76826367D01*
X34246534Y-76861103D01*
X34221548Y-76891548D01*
X34191103Y-76916534D01*
X34156367Y-76935101D01*
X34118674Y-76946535D01*
X34073339Y-76951000D01*
X33236661Y-76951000D01*
X33191326Y-76946535D01*
X33153633Y-76935101D01*
X33118897Y-76916534D01*
X33088452Y-76891548D01*
X33063466Y-76861103D01*
X33044899Y-76826367D01*
X33033465Y-76788674D01*
X33029000Y-76743339D01*
X33029000Y-75656661D01*
X33033465Y-75611326D01*
X33044899Y-75573633D01*
X33063466Y-75538897D01*
X33088452Y-75508452D01*
X33118897Y-75483466D01*
X33153633Y-75464899D01*
X33191326Y-75453465D01*
X33236661Y-75449000D01*
X34073339Y-75449000D01*
X34118674Y-75453465D01*
X34118674Y-75453465D01*
G37*
G36*
X36168674Y-75453465D02*
G01*
X36206367Y-75464899D01*
X36241103Y-75483466D01*
X36271548Y-75508452D01*
X36296534Y-75538897D01*
X36315101Y-75573633D01*
X36326535Y-75611326D01*
X36331000Y-75656661D01*
X36331000Y-76743339D01*
X36326535Y-76788674D01*
X36315101Y-76826367D01*
X36296534Y-76861103D01*
X36271548Y-76891548D01*
X36241103Y-76916534D01*
X36206367Y-76935101D01*
X36168674Y-76946535D01*
X36123339Y-76951000D01*
X35286661Y-76951000D01*
X35241326Y-76946535D01*
X35203633Y-76935101D01*
X35168897Y-76916534D01*
X35138452Y-76891548D01*
X35113466Y-76861103D01*
X35094899Y-76826367D01*
X35083465Y-76788674D01*
X35079000Y-76743339D01*
X35079000Y-75656661D01*
X35083465Y-75611326D01*
X35094899Y-75573633D01*
X35113466Y-75538897D01*
X35138452Y-75508452D01*
X35168897Y-75483466D01*
X35203633Y-75464899D01*
X35241326Y-75453465D01*
X35286661Y-75449000D01*
X36123339Y-75449000D01*
X36168674Y-75453465D01*
X36168674Y-75453465D01*
G37*
G36*
X76803097Y-74519069D02*
G01*
X76906032Y-74529207D01*
X77104146Y-74589305D01*
X77104149Y-74589306D01*
X77200975Y-74641061D01*
X77286729Y-74686897D01*
X77446765Y-74818235D01*
X77578103Y-74978271D01*
X77623939Y-75064025D01*
X77675694Y-75160851D01*
X77675695Y-75160854D01*
X77735793Y-75358968D01*
X77756085Y-75565000D01*
X77735793Y-75771032D01*
X77675695Y-75969146D01*
X77675694Y-75969149D01*
X77623939Y-76065975D01*
X77578103Y-76151729D01*
X77446765Y-76311765D01*
X77286729Y-76443103D01*
X77200975Y-76488939D01*
X77104149Y-76540694D01*
X77104146Y-76540695D01*
X76906032Y-76600793D01*
X76803097Y-76610931D01*
X76751631Y-76616000D01*
X75648369Y-76616000D01*
X75596903Y-76610931D01*
X75493968Y-76600793D01*
X75295854Y-76540695D01*
X75295851Y-76540694D01*
X75199025Y-76488939D01*
X75113271Y-76443103D01*
X74953235Y-76311765D01*
X74821897Y-76151729D01*
X74776061Y-76065975D01*
X74724306Y-75969149D01*
X74724305Y-75969146D01*
X74664207Y-75771032D01*
X74643915Y-75565000D01*
X74664207Y-75358968D01*
X74724305Y-75160854D01*
X74724306Y-75160851D01*
X74776061Y-75064025D01*
X74821897Y-74978271D01*
X74953235Y-74818235D01*
X75113271Y-74686897D01*
X75199025Y-74641061D01*
X75295851Y-74589306D01*
X75295854Y-74589305D01*
X75493968Y-74529207D01*
X75596903Y-74519069D01*
X75648369Y-74514000D01*
X76751631Y-74514000D01*
X76803097Y-74519069D01*
X76803097Y-74519069D01*
G37*
G36*
X56483097Y-71979069D02*
G01*
X56586032Y-71989207D01*
X56784146Y-72049305D01*
X56784149Y-72049306D01*
X56880975Y-72101061D01*
X56966729Y-72146897D01*
X57126765Y-72278235D01*
X57258103Y-72438271D01*
X57303939Y-72524025D01*
X57355694Y-72620851D01*
X57355695Y-72620854D01*
X57415793Y-72818968D01*
X57436085Y-73025000D01*
X57415793Y-73231032D01*
X57355695Y-73429146D01*
X57355694Y-73429149D01*
X57303939Y-73525975D01*
X57258103Y-73611729D01*
X57126765Y-73771765D01*
X56966729Y-73903103D01*
X56880975Y-73948939D01*
X56784149Y-74000694D01*
X56784146Y-74000695D01*
X56586032Y-74060793D01*
X56483097Y-74070931D01*
X56431631Y-74076000D01*
X55328369Y-74076000D01*
X55276903Y-74070931D01*
X55173968Y-74060793D01*
X54975854Y-74000695D01*
X54975851Y-74000694D01*
X54879025Y-73948939D01*
X54793271Y-73903103D01*
X54633235Y-73771765D01*
X54501897Y-73611729D01*
X54456061Y-73525975D01*
X54404306Y-73429149D01*
X54404305Y-73429146D01*
X54344207Y-73231032D01*
X54323915Y-73025000D01*
X54344207Y-72818968D01*
X54404305Y-72620854D01*
X54404306Y-72620851D01*
X54456061Y-72524025D01*
X54501897Y-72438271D01*
X54633235Y-72278235D01*
X54793271Y-72146897D01*
X54879025Y-72101061D01*
X54975851Y-72049306D01*
X54975854Y-72049305D01*
X55173968Y-71989207D01*
X55276903Y-71979069D01*
X55328369Y-71974000D01*
X56431631Y-71974000D01*
X56483097Y-71979069D01*
X56483097Y-71979069D01*
G37*
G36*
X36434085Y-66335802D02*
G01*
X36583910Y-66365604D01*
X36866174Y-66482521D01*
X37120205Y-66652259D01*
X37336241Y-66868295D01*
X37505979Y-67122326D01*
X37622896Y-67404590D01*
X37682500Y-67704240D01*
X37682500Y-68009760D01*
X37622896Y-68309410D01*
X37505979Y-68591674D01*
X37336241Y-68845705D01*
X37120205Y-69061741D01*
X36866174Y-69231479D01*
X36583910Y-69348396D01*
X36434085Y-69378198D01*
X36284261Y-69408000D01*
X35978739Y-69408000D01*
X35828915Y-69378198D01*
X35679090Y-69348396D01*
X35396826Y-69231479D01*
X35142795Y-69061741D01*
X34926759Y-68845705D01*
X34757021Y-68591674D01*
X34640104Y-68309410D01*
X34580500Y-68009760D01*
X34580500Y-67704240D01*
X34640104Y-67404590D01*
X34757021Y-67122326D01*
X34926759Y-66868295D01*
X35142795Y-66652259D01*
X35396826Y-66482521D01*
X35679090Y-66365604D01*
X35828915Y-66335802D01*
X35978739Y-66306000D01*
X36284261Y-66306000D01*
X36434085Y-66335802D01*
X36434085Y-66335802D01*
G37*
G36*
X31434085Y-66335802D02*
G01*
X31583910Y-66365604D01*
X31866174Y-66482521D01*
X32120205Y-66652259D01*
X32336241Y-66868295D01*
X32505979Y-67122326D01*
X32622896Y-67404590D01*
X32682500Y-67704240D01*
X32682500Y-68009760D01*
X32622896Y-68309410D01*
X32505979Y-68591674D01*
X32336241Y-68845705D01*
X32120205Y-69061741D01*
X31866174Y-69231479D01*
X31583910Y-69348396D01*
X31434085Y-69378198D01*
X31284261Y-69408000D01*
X30978739Y-69408000D01*
X30828915Y-69378198D01*
X30679090Y-69348396D01*
X30396826Y-69231479D01*
X30142795Y-69061741D01*
X29926759Y-68845705D01*
X29757021Y-68591674D01*
X29640104Y-68309410D01*
X29580500Y-68009760D01*
X29580500Y-67704240D01*
X29640104Y-67404590D01*
X29757021Y-67122326D01*
X29926759Y-66868295D01*
X30142795Y-66652259D01*
X30396826Y-66482521D01*
X30679090Y-66365604D01*
X30828915Y-66335802D01*
X30978739Y-66306000D01*
X31284261Y-66306000D01*
X31434085Y-66335802D01*
X31434085Y-66335802D01*
G37*
G36*
X49756564Y-66807389D02*
G01*
X49947833Y-66886615D01*
X49947835Y-66886616D01*
X50119973Y-67001635D01*
X50266365Y-67148027D01*
X50381385Y-67320167D01*
X50460611Y-67511436D01*
X50501000Y-67714484D01*
X50501000Y-67921516D01*
X50460611Y-68124564D01*
X50384046Y-68309409D01*
X50381384Y-68315835D01*
X50266365Y-68487973D01*
X50119973Y-68634365D01*
X49947835Y-68749384D01*
X49947834Y-68749385D01*
X49947833Y-68749385D01*
X49756564Y-68828611D01*
X49553516Y-68869000D01*
X49346484Y-68869000D01*
X49143436Y-68828611D01*
X48952167Y-68749385D01*
X48952166Y-68749385D01*
X48952165Y-68749384D01*
X48780027Y-68634365D01*
X48633635Y-68487973D01*
X48518616Y-68315835D01*
X48515954Y-68309409D01*
X48439389Y-68124564D01*
X48399000Y-67921516D01*
X48399000Y-67714484D01*
X48439389Y-67511436D01*
X48518615Y-67320167D01*
X48633635Y-67148027D01*
X48780027Y-67001635D01*
X48952165Y-66886616D01*
X48952167Y-66886615D01*
X49143436Y-66807389D01*
X49346484Y-66767000D01*
X49553516Y-66767000D01*
X49756564Y-66807389D01*
X49756564Y-66807389D01*
G37*
G36*
X45501000Y-68869000D02*
G01*
X43399000Y-68869000D01*
X43399000Y-66767000D01*
X45501000Y-66767000D01*
X45501000Y-68869000D01*
X45501000Y-68869000D01*
G37*
G36*
X76803097Y-64359069D02*
G01*
X76906032Y-64369207D01*
X77104146Y-64429305D01*
X77104149Y-64429306D01*
X77200975Y-64481061D01*
X77286729Y-64526897D01*
X77446765Y-64658235D01*
X77578103Y-64818271D01*
X77623939Y-64904025D01*
X77675694Y-65000851D01*
X77675695Y-65000854D01*
X77735793Y-65198968D01*
X77756085Y-65405000D01*
X77735793Y-65611032D01*
X77675695Y-65809146D01*
X77675694Y-65809149D01*
X77623939Y-65905975D01*
X77578103Y-65991729D01*
X77446765Y-66151765D01*
X77286729Y-66283103D01*
X77243891Y-66306000D01*
X77104149Y-66380694D01*
X77104146Y-66380695D01*
X76906032Y-66440793D01*
X76803097Y-66450931D01*
X76751631Y-66456000D01*
X75648369Y-66456000D01*
X75596903Y-66450931D01*
X75493968Y-66440793D01*
X75295854Y-66380695D01*
X75295851Y-66380694D01*
X75156109Y-66306000D01*
X75113271Y-66283103D01*
X74953235Y-66151765D01*
X74821897Y-65991729D01*
X74776061Y-65905975D01*
X74724306Y-65809149D01*
X74724305Y-65809146D01*
X74664207Y-65611032D01*
X74643915Y-65405000D01*
X74664207Y-65198968D01*
X74724305Y-65000854D01*
X74724306Y-65000851D01*
X74776061Y-64904025D01*
X74821897Y-64818271D01*
X74953235Y-64658235D01*
X75113271Y-64526897D01*
X75199025Y-64481061D01*
X75295851Y-64429306D01*
X75295854Y-64429305D01*
X75493968Y-64369207D01*
X75596903Y-64359069D01*
X75648369Y-64354000D01*
X76751631Y-64354000D01*
X76803097Y-64359069D01*
X76803097Y-64359069D01*
G37*
G36*
X56483097Y-64359069D02*
G01*
X56586032Y-64369207D01*
X56784146Y-64429305D01*
X56784149Y-64429306D01*
X56880975Y-64481061D01*
X56966729Y-64526897D01*
X57126765Y-64658235D01*
X57258103Y-64818271D01*
X57303939Y-64904025D01*
X57355694Y-65000851D01*
X57355695Y-65000854D01*
X57415793Y-65198968D01*
X57436085Y-65405000D01*
X57415793Y-65611032D01*
X57355695Y-65809146D01*
X57355694Y-65809149D01*
X57303939Y-65905975D01*
X57258103Y-65991729D01*
X57126765Y-66151765D01*
X56966729Y-66283103D01*
X56923891Y-66306000D01*
X56784149Y-66380694D01*
X56784146Y-66380695D01*
X56586032Y-66440793D01*
X56483097Y-66450931D01*
X56431631Y-66456000D01*
X55328369Y-66456000D01*
X55276903Y-66450931D01*
X55173968Y-66440793D01*
X54975854Y-66380695D01*
X54975851Y-66380694D01*
X54836109Y-66306000D01*
X54793271Y-66283103D01*
X54633235Y-66151765D01*
X54501897Y-65991729D01*
X54456061Y-65905975D01*
X54404306Y-65809149D01*
X54404305Y-65809146D01*
X54344207Y-65611032D01*
X54323915Y-65405000D01*
X54344207Y-65198968D01*
X54404305Y-65000854D01*
X54404306Y-65000851D01*
X54456061Y-64904025D01*
X54501897Y-64818271D01*
X54633235Y-64658235D01*
X54793271Y-64526897D01*
X54879025Y-64481061D01*
X54975851Y-64429306D01*
X54975854Y-64429305D01*
X55173968Y-64369207D01*
X55276903Y-64359069D01*
X55328369Y-64354000D01*
X56431631Y-64354000D01*
X56483097Y-64359069D01*
X56483097Y-64359069D01*
G37*
G36*
X55198674Y-60338465D02*
G01*
X55236367Y-60349899D01*
X55271103Y-60368466D01*
X55301548Y-60393452D01*
X55326534Y-60423897D01*
X55345101Y-60458633D01*
X55356535Y-60496326D01*
X55361000Y-60541661D01*
X55361000Y-61378339D01*
X55356535Y-61423674D01*
X55345101Y-61461367D01*
X55326534Y-61496103D01*
X55301548Y-61526548D01*
X55271103Y-61551534D01*
X55236367Y-61570101D01*
X55198674Y-61581535D01*
X55153339Y-61586000D01*
X54066661Y-61586000D01*
X54021326Y-61581535D01*
X53983633Y-61570101D01*
X53948897Y-61551534D01*
X53918452Y-61526548D01*
X53893466Y-61496103D01*
X53874899Y-61461367D01*
X53863465Y-61423674D01*
X53859000Y-61378339D01*
X53859000Y-60541661D01*
X53863465Y-60496326D01*
X53874899Y-60458633D01*
X53893466Y-60423897D01*
X53918452Y-60393452D01*
X53948897Y-60368466D01*
X53983633Y-60349899D01*
X54021326Y-60338465D01*
X54066661Y-60334000D01*
X55153339Y-60334000D01*
X55198674Y-60338465D01*
X55198674Y-60338465D01*
G37*
G36*
X60278674Y-60338465D02*
G01*
X60316367Y-60349899D01*
X60351103Y-60368466D01*
X60381548Y-60393452D01*
X60406534Y-60423897D01*
X60425101Y-60458633D01*
X60436535Y-60496326D01*
X60441000Y-60541661D01*
X60441000Y-61378339D01*
X60436535Y-61423674D01*
X60425101Y-61461367D01*
X60406534Y-61496103D01*
X60381548Y-61526548D01*
X60351103Y-61551534D01*
X60316367Y-61570101D01*
X60278674Y-61581535D01*
X60233339Y-61586000D01*
X59146661Y-61586000D01*
X59101326Y-61581535D01*
X59063633Y-61570101D01*
X59028897Y-61551534D01*
X58998452Y-61526548D01*
X58973466Y-61496103D01*
X58954899Y-61461367D01*
X58943465Y-61423674D01*
X58939000Y-61378339D01*
X58939000Y-60541661D01*
X58943465Y-60496326D01*
X58954899Y-60458633D01*
X58973466Y-60423897D01*
X58998452Y-60393452D01*
X59028897Y-60368466D01*
X59063633Y-60349899D01*
X59101326Y-60338465D01*
X59146661Y-60334000D01*
X60233339Y-60334000D01*
X60278674Y-60338465D01*
X60278674Y-60338465D01*
G37*
G36*
X64088674Y-60338465D02*
G01*
X64126367Y-60349899D01*
X64161103Y-60368466D01*
X64191548Y-60393452D01*
X64216534Y-60423897D01*
X64235101Y-60458633D01*
X64246535Y-60496326D01*
X64251000Y-60541661D01*
X64251000Y-61378339D01*
X64246535Y-61423674D01*
X64235101Y-61461367D01*
X64216534Y-61496103D01*
X64191548Y-61526548D01*
X64161103Y-61551534D01*
X64126367Y-61570101D01*
X64088674Y-61581535D01*
X64043339Y-61586000D01*
X62956661Y-61586000D01*
X62911326Y-61581535D01*
X62873633Y-61570101D01*
X62838897Y-61551534D01*
X62808452Y-61526548D01*
X62783466Y-61496103D01*
X62764899Y-61461367D01*
X62753465Y-61423674D01*
X62749000Y-61378339D01*
X62749000Y-60541661D01*
X62753465Y-60496326D01*
X62764899Y-60458633D01*
X62783466Y-60423897D01*
X62808452Y-60393452D01*
X62838897Y-60368466D01*
X62873633Y-60349899D01*
X62911326Y-60338465D01*
X62956661Y-60334000D01*
X64043339Y-60334000D01*
X64088674Y-60338465D01*
X64088674Y-60338465D01*
G37*
G36*
X60278674Y-58288465D02*
G01*
X60316367Y-58299899D01*
X60351103Y-58318466D01*
X60381548Y-58343452D01*
X60406534Y-58373897D01*
X60425101Y-58408633D01*
X60436535Y-58446326D01*
X60441000Y-58491661D01*
X60441000Y-59328339D01*
X60436535Y-59373674D01*
X60425101Y-59411367D01*
X60406534Y-59446103D01*
X60381548Y-59476548D01*
X60351103Y-59501534D01*
X60316367Y-59520101D01*
X60278674Y-59531535D01*
X60233339Y-59536000D01*
X59146661Y-59536000D01*
X59101326Y-59531535D01*
X59063633Y-59520101D01*
X59028897Y-59501534D01*
X58998452Y-59476548D01*
X58973466Y-59446103D01*
X58954899Y-59411367D01*
X58943465Y-59373674D01*
X58939000Y-59328339D01*
X58939000Y-58491661D01*
X58943465Y-58446326D01*
X58954899Y-58408633D01*
X58973466Y-58373897D01*
X58998452Y-58343452D01*
X59028897Y-58318466D01*
X59063633Y-58299899D01*
X59101326Y-58288465D01*
X59146661Y-58284000D01*
X60233339Y-58284000D01*
X60278674Y-58288465D01*
X60278674Y-58288465D01*
G37*
G36*
X64088674Y-58288465D02*
G01*
X64126367Y-58299899D01*
X64161103Y-58318466D01*
X64191548Y-58343452D01*
X64216534Y-58373897D01*
X64235101Y-58408633D01*
X64246535Y-58446326D01*
X64251000Y-58491661D01*
X64251000Y-59328339D01*
X64246535Y-59373674D01*
X64235101Y-59411367D01*
X64216534Y-59446103D01*
X64191548Y-59476548D01*
X64161103Y-59501534D01*
X64126367Y-59520101D01*
X64088674Y-59531535D01*
X64043339Y-59536000D01*
X62956661Y-59536000D01*
X62911326Y-59531535D01*
X62873633Y-59520101D01*
X62838897Y-59501534D01*
X62808452Y-59476548D01*
X62783466Y-59446103D01*
X62764899Y-59411367D01*
X62753465Y-59373674D01*
X62749000Y-59328339D01*
X62749000Y-58491661D01*
X62753465Y-58446326D01*
X62764899Y-58408633D01*
X62783466Y-58373897D01*
X62808452Y-58343452D01*
X62838897Y-58318466D01*
X62873633Y-58299899D01*
X62911326Y-58288465D01*
X62956661Y-58284000D01*
X64043339Y-58284000D01*
X64088674Y-58288465D01*
X64088674Y-58288465D01*
G37*
G36*
X55198674Y-58288465D02*
G01*
X55236367Y-58299899D01*
X55271103Y-58318466D01*
X55301548Y-58343452D01*
X55326534Y-58373897D01*
X55345101Y-58408633D01*
X55356535Y-58446326D01*
X55361000Y-58491661D01*
X55361000Y-59328339D01*
X55356535Y-59373674D01*
X55345101Y-59411367D01*
X55326534Y-59446103D01*
X55301548Y-59476548D01*
X55271103Y-59501534D01*
X55236367Y-59520101D01*
X55198674Y-59531535D01*
X55153339Y-59536000D01*
X54066661Y-59536000D01*
X54021326Y-59531535D01*
X53983633Y-59520101D01*
X53948897Y-59501534D01*
X53918452Y-59476548D01*
X53893466Y-59446103D01*
X53874899Y-59411367D01*
X53863465Y-59373674D01*
X53859000Y-59328339D01*
X53859000Y-58491661D01*
X53863465Y-58446326D01*
X53874899Y-58408633D01*
X53893466Y-58373897D01*
X53918452Y-58343452D01*
X53948897Y-58318466D01*
X53983633Y-58299899D01*
X54021326Y-58288465D01*
X54066661Y-58284000D01*
X55153339Y-58284000D01*
X55198674Y-58288465D01*
X55198674Y-58288465D01*
G37*
G36*
X75393674Y-57609965D02*
G01*
X75431367Y-57621399D01*
X75466103Y-57639966D01*
X75496548Y-57664952D01*
X75521534Y-57695397D01*
X75540101Y-57730133D01*
X75551535Y-57767826D01*
X75556000Y-57813161D01*
X75556000Y-58899839D01*
X75551535Y-58945174D01*
X75540101Y-58982867D01*
X75521534Y-59017603D01*
X75496548Y-59048048D01*
X75466103Y-59073034D01*
X75431367Y-59091601D01*
X75393674Y-59103035D01*
X75348339Y-59107500D01*
X74511661Y-59107500D01*
X74466326Y-59103035D01*
X74428633Y-59091601D01*
X74393897Y-59073034D01*
X74363452Y-59048048D01*
X74338466Y-59017603D01*
X74319899Y-58982867D01*
X74308465Y-58945174D01*
X74304000Y-58899839D01*
X74304000Y-57813161D01*
X74308465Y-57767826D01*
X74319899Y-57730133D01*
X74338466Y-57695397D01*
X74363452Y-57664952D01*
X74393897Y-57639966D01*
X74428633Y-57621399D01*
X74466326Y-57609965D01*
X74511661Y-57605500D01*
X75348339Y-57605500D01*
X75393674Y-57609965D01*
X75393674Y-57609965D01*
G37*
G36*
X77443674Y-57609965D02*
G01*
X77481367Y-57621399D01*
X77516103Y-57639966D01*
X77546548Y-57664952D01*
X77571534Y-57695397D01*
X77590101Y-57730133D01*
X77601535Y-57767826D01*
X77606000Y-57813161D01*
X77606000Y-58899839D01*
X77601535Y-58945174D01*
X77590101Y-58982867D01*
X77571534Y-59017603D01*
X77546548Y-59048048D01*
X77516103Y-59073034D01*
X77481367Y-59091601D01*
X77443674Y-59103035D01*
X77398339Y-59107500D01*
X76561661Y-59107500D01*
X76516326Y-59103035D01*
X76478633Y-59091601D01*
X76443897Y-59073034D01*
X76413452Y-59048048D01*
X76388466Y-59017603D01*
X76369899Y-58982867D01*
X76358465Y-58945174D01*
X76354000Y-58899839D01*
X76354000Y-57813161D01*
X76358465Y-57767826D01*
X76369899Y-57730133D01*
X76388466Y-57695397D01*
X76413452Y-57664952D01*
X76443897Y-57639966D01*
X76478633Y-57621399D01*
X76516326Y-57609965D01*
X76561661Y-57605500D01*
X77398339Y-57605500D01*
X77443674Y-57609965D01*
X77443674Y-57609965D01*
G37*
G36*
X59951000Y-56761000D02*
G01*
X54349000Y-56761000D01*
X54349000Y-55229000D01*
X59951000Y-55229000D01*
X59951000Y-56761000D01*
X59951000Y-56761000D01*
G37*
G36*
X66013674Y-55133465D02*
G01*
X66051367Y-55144899D01*
X66086103Y-55163466D01*
X66116548Y-55188452D01*
X66141534Y-55218897D01*
X66160101Y-55253633D01*
X66171535Y-55291326D01*
X66176000Y-55336661D01*
X66176000Y-56423339D01*
X66171535Y-56468674D01*
X66160101Y-56506367D01*
X66141534Y-56541103D01*
X66116548Y-56571548D01*
X66086103Y-56596534D01*
X66051367Y-56615101D01*
X66013674Y-56626535D01*
X65968339Y-56631000D01*
X65131661Y-56631000D01*
X65086326Y-56626535D01*
X65048633Y-56615101D01*
X65013897Y-56596534D01*
X64983452Y-56571548D01*
X64958466Y-56541103D01*
X64939899Y-56506367D01*
X64928465Y-56468674D01*
X64924000Y-56423339D01*
X64924000Y-55336661D01*
X64928465Y-55291326D01*
X64939899Y-55253633D01*
X64958466Y-55218897D01*
X64983452Y-55188452D01*
X65013897Y-55163466D01*
X65048633Y-55144899D01*
X65086326Y-55133465D01*
X65131661Y-55129000D01*
X65968339Y-55129000D01*
X66013674Y-55133465D01*
X66013674Y-55133465D01*
G37*
G36*
X63963674Y-55133465D02*
G01*
X64001367Y-55144899D01*
X64036103Y-55163466D01*
X64066548Y-55188452D01*
X64091534Y-55218897D01*
X64110101Y-55253633D01*
X64121535Y-55291326D01*
X64126000Y-55336661D01*
X64126000Y-56423339D01*
X64121535Y-56468674D01*
X64110101Y-56506367D01*
X64091534Y-56541103D01*
X64066548Y-56571548D01*
X64036103Y-56596534D01*
X64001367Y-56615101D01*
X63963674Y-56626535D01*
X63918339Y-56631000D01*
X63081661Y-56631000D01*
X63036326Y-56626535D01*
X62998633Y-56615101D01*
X62963897Y-56596534D01*
X62933452Y-56571548D01*
X62908466Y-56541103D01*
X62889899Y-56506367D01*
X62878465Y-56468674D01*
X62874000Y-56423339D01*
X62874000Y-55336661D01*
X62878465Y-55291326D01*
X62889899Y-55253633D01*
X62908466Y-55218897D01*
X62933452Y-55188452D01*
X62963897Y-55163466D01*
X62998633Y-55144899D01*
X63036326Y-55133465D01*
X63081661Y-55129000D01*
X63918339Y-55129000D01*
X63963674Y-55133465D01*
X63963674Y-55133465D01*
G37*
G36*
X68753999Y-54976945D02*
G01*
X68791495Y-54988320D01*
X68826054Y-55006792D01*
X68856347Y-55031653D01*
X68881208Y-55061946D01*
X68899680Y-55096505D01*
X68911055Y-55134001D01*
X68915500Y-55179138D01*
X68915500Y-55917862D01*
X68911055Y-55962999D01*
X68899680Y-56000495D01*
X68881208Y-56035054D01*
X68856347Y-56065347D01*
X68826054Y-56090208D01*
X68791495Y-56108680D01*
X68753999Y-56120055D01*
X68708862Y-56124500D01*
X68070138Y-56124500D01*
X68025001Y-56120055D01*
X67987505Y-56108680D01*
X67952946Y-56090208D01*
X67922653Y-56065347D01*
X67897792Y-56035054D01*
X67879320Y-56000495D01*
X67867945Y-55962999D01*
X67863500Y-55917862D01*
X67863500Y-55179138D01*
X67867945Y-55134001D01*
X67879320Y-55096505D01*
X67897792Y-55061946D01*
X67922653Y-55031653D01*
X67952946Y-55006792D01*
X67987505Y-54988320D01*
X68025001Y-54976945D01*
X68070138Y-54972500D01*
X68708862Y-54972500D01*
X68753999Y-54976945D01*
X68753999Y-54976945D01*
G37*
G36*
X79704097Y-54000069D02*
G01*
X79807032Y-54010207D01*
X80005146Y-54070305D01*
X80005149Y-54070306D01*
X80082217Y-54111500D01*
X80187729Y-54167897D01*
X80347765Y-54299235D01*
X80479103Y-54459271D01*
X80524939Y-54545025D01*
X80576694Y-54641851D01*
X80576695Y-54641854D01*
X80636793Y-54839968D01*
X80657085Y-55046000D01*
X80636793Y-55252032D01*
X80607658Y-55348075D01*
X80576694Y-55450149D01*
X80524939Y-55546975D01*
X80479103Y-55632729D01*
X80347765Y-55792765D01*
X80187729Y-55924103D01*
X80116555Y-55962146D01*
X80005149Y-56021694D01*
X80005146Y-56021695D01*
X79807032Y-56081793D01*
X79704097Y-56091931D01*
X79652631Y-56097000D01*
X78049369Y-56097000D01*
X77997903Y-56091931D01*
X77894968Y-56081793D01*
X77696854Y-56021695D01*
X77696851Y-56021694D01*
X77585445Y-55962146D01*
X77514271Y-55924103D01*
X77354235Y-55792765D01*
X77222897Y-55632729D01*
X77177061Y-55546975D01*
X77125306Y-55450149D01*
X77094342Y-55348075D01*
X77065207Y-55252032D01*
X77044915Y-55046000D01*
X77065207Y-54839968D01*
X77125305Y-54641854D01*
X77125306Y-54641851D01*
X77177061Y-54545025D01*
X77222897Y-54459271D01*
X77354235Y-54299235D01*
X77514271Y-54167897D01*
X77619783Y-54111500D01*
X77696851Y-54070306D01*
X77696854Y-54070305D01*
X77894968Y-54010207D01*
X77997903Y-54000069D01*
X78049369Y-53995000D01*
X79652631Y-53995000D01*
X79704097Y-54000069D01*
X79704097Y-54000069D01*
G37*
G36*
X68753999Y-53226945D02*
G01*
X68791495Y-53238320D01*
X68826054Y-53256792D01*
X68856347Y-53281653D01*
X68881208Y-53311946D01*
X68899680Y-53346505D01*
X68911055Y-53384001D01*
X68915500Y-53429138D01*
X68915500Y-54167862D01*
X68911055Y-54212999D01*
X68899680Y-54250495D01*
X68881208Y-54285054D01*
X68856347Y-54315347D01*
X68826054Y-54340208D01*
X68791495Y-54358680D01*
X68753999Y-54370055D01*
X68708862Y-54374500D01*
X68070138Y-54374500D01*
X68025001Y-54370055D01*
X67987505Y-54358680D01*
X67952946Y-54340208D01*
X67922653Y-54315347D01*
X67897792Y-54285054D01*
X67879320Y-54250495D01*
X67867945Y-54212999D01*
X67863500Y-54167862D01*
X67863500Y-53429138D01*
X67867945Y-53384001D01*
X67879320Y-53346505D01*
X67897792Y-53311946D01*
X67922653Y-53281653D01*
X67952946Y-53256792D01*
X67987505Y-53238320D01*
X68025001Y-53226945D01*
X68070138Y-53222500D01*
X68708862Y-53222500D01*
X68753999Y-53226945D01*
X68753999Y-53226945D01*
G37*
G36*
X59951000Y-52721000D02*
G01*
X54349000Y-52721000D01*
X54349000Y-51189000D01*
X59951000Y-51189000D01*
X59951000Y-52721000D01*
X59951000Y-52721000D01*
G37*
G36*
X72902000Y-52597000D02*
G01*
X70800000Y-52597000D01*
X70800000Y-48495000D01*
X72902000Y-48495000D01*
X72902000Y-52597000D01*
X72902000Y-52597000D01*
G37*
G36*
X78057031Y-48860207D02*
G01*
X78255145Y-48920305D01*
X78255148Y-48920306D01*
X78321030Y-48955521D01*
X78437729Y-49017897D01*
X78597765Y-49149235D01*
X78729103Y-49309271D01*
X78729104Y-49309273D01*
X78826694Y-49491851D01*
X78826694Y-49491852D01*
X78826695Y-49491854D01*
X78886793Y-49689968D01*
X78902000Y-49844370D01*
X78902000Y-51247630D01*
X78886793Y-51402032D01*
X78826695Y-51600146D01*
X78826694Y-51600149D01*
X78774939Y-51696975D01*
X78729103Y-51782729D01*
X78597765Y-51942765D01*
X78437729Y-52074103D01*
X78377526Y-52106282D01*
X78255149Y-52171694D01*
X78255146Y-52171695D01*
X78057032Y-52231793D01*
X77851000Y-52252085D01*
X77644969Y-52231793D01*
X77446855Y-52171695D01*
X77446852Y-52171694D01*
X77324475Y-52106282D01*
X77264272Y-52074103D01*
X77104236Y-51942765D01*
X76972898Y-51782729D01*
X76950184Y-51740234D01*
X76875305Y-51600147D01*
X76815207Y-51402030D01*
X76800000Y-51247631D01*
X76800000Y-49844370D01*
X76805173Y-49791852D01*
X76815207Y-49689969D01*
X76875305Y-49491855D01*
X76875306Y-49491852D01*
X76910521Y-49425970D01*
X76972897Y-49309271D01*
X77104235Y-49149235D01*
X77264271Y-49017897D01*
X77350025Y-48972061D01*
X77446851Y-48920306D01*
X77446854Y-48920305D01*
X77644968Y-48860207D01*
X77851000Y-48839915D01*
X78057031Y-48860207D01*
X78057031Y-48860207D01*
G37*
G36*
X67528674Y-50688465D02*
G01*
X67566367Y-50699899D01*
X67601103Y-50718466D01*
X67631548Y-50743452D01*
X67656534Y-50773897D01*
X67675101Y-50808633D01*
X67686535Y-50846326D01*
X67691000Y-50891661D01*
X67691000Y-51978339D01*
X67686535Y-52023674D01*
X67675101Y-52061367D01*
X67656534Y-52096103D01*
X67631548Y-52126548D01*
X67601103Y-52151534D01*
X67566367Y-52170101D01*
X67528674Y-52181535D01*
X67483339Y-52186000D01*
X66646661Y-52186000D01*
X66601326Y-52181535D01*
X66563633Y-52170101D01*
X66528897Y-52151534D01*
X66498452Y-52126548D01*
X66473466Y-52096103D01*
X66454899Y-52061367D01*
X66443465Y-52023674D01*
X66439000Y-51978339D01*
X66439000Y-50891661D01*
X66443465Y-50846326D01*
X66454899Y-50808633D01*
X66473466Y-50773897D01*
X66498452Y-50743452D01*
X66528897Y-50718466D01*
X66563633Y-50699899D01*
X66601326Y-50688465D01*
X66646661Y-50684000D01*
X67483339Y-50684000D01*
X67528674Y-50688465D01*
X67528674Y-50688465D01*
G37*
G36*
X65478674Y-50688465D02*
G01*
X65516367Y-50699899D01*
X65551103Y-50718466D01*
X65581548Y-50743452D01*
X65606534Y-50773897D01*
X65625101Y-50808633D01*
X65636535Y-50846326D01*
X65641000Y-50891661D01*
X65641000Y-51978339D01*
X65636535Y-52023674D01*
X65625101Y-52061367D01*
X65606534Y-52096103D01*
X65581548Y-52126548D01*
X65551103Y-52151534D01*
X65516367Y-52170101D01*
X65478674Y-52181535D01*
X65433339Y-52186000D01*
X64596661Y-52186000D01*
X64551326Y-52181535D01*
X64513633Y-52170101D01*
X64478897Y-52151534D01*
X64448452Y-52126548D01*
X64423466Y-52096103D01*
X64404899Y-52061367D01*
X64393465Y-52023674D01*
X64389000Y-51978339D01*
X64389000Y-50891661D01*
X64393465Y-50846326D01*
X64404899Y-50808633D01*
X64423466Y-50773897D01*
X64448452Y-50743452D01*
X64478897Y-50718466D01*
X64513633Y-50699899D01*
X64551326Y-50688465D01*
X64596661Y-50684000D01*
X65433339Y-50684000D01*
X65478674Y-50688465D01*
X65478674Y-50688465D01*
G37*
G36*
X81099228Y-49727703D02*
G01*
X81254100Y-49791853D01*
X81393481Y-49884985D01*
X81512015Y-50003519D01*
X81605147Y-50142900D01*
X81669297Y-50297772D01*
X81702000Y-50462184D01*
X81702000Y-50629816D01*
X81669297Y-50794228D01*
X81605147Y-50949100D01*
X81512015Y-51088481D01*
X81393481Y-51207015D01*
X81254100Y-51300147D01*
X81099228Y-51364297D01*
X80934816Y-51397000D01*
X80767184Y-51397000D01*
X80602772Y-51364297D01*
X80447900Y-51300147D01*
X80308519Y-51207015D01*
X80189985Y-51088481D01*
X80096853Y-50949100D01*
X80032703Y-50794228D01*
X80000000Y-50629816D01*
X80000000Y-50462184D01*
X80032703Y-50297772D01*
X80096853Y-50142900D01*
X80189985Y-50003519D01*
X80308519Y-49884985D01*
X80447900Y-49791853D01*
X80602772Y-49727703D01*
X80767184Y-49695000D01*
X80934816Y-49695000D01*
X81099228Y-49727703D01*
X81099228Y-49727703D01*
G37*
G36*
X28013865Y-43053855D02*
G01*
X28386392Y-43208161D01*
X28614610Y-43302692D01*
X29155265Y-43663946D01*
X29615054Y-44123735D01*
X29976308Y-44664390D01*
X29976309Y-44664392D01*
X30225145Y-45265135D01*
X30352000Y-45902879D01*
X30352000Y-46553121D01*
X30225145Y-47190865D01*
X29996499Y-47742865D01*
X29976308Y-47791610D01*
X29615054Y-48332265D01*
X29155265Y-48792054D01*
X28614610Y-49153308D01*
X28614609Y-49153309D01*
X28614608Y-49153309D01*
X28013865Y-49402145D01*
X27376121Y-49529000D01*
X26725879Y-49529000D01*
X26088135Y-49402145D01*
X25487392Y-49153309D01*
X25487391Y-49153309D01*
X25487390Y-49153308D01*
X24946735Y-48792054D01*
X24486946Y-48332265D01*
X24125692Y-47791610D01*
X24105501Y-47742865D01*
X23876855Y-47190865D01*
X23750000Y-46553121D01*
X23750000Y-45902879D01*
X23876855Y-45265135D01*
X24125691Y-44664392D01*
X24125692Y-44664390D01*
X24486946Y-44123735D01*
X24946735Y-43663946D01*
X25487390Y-43302692D01*
X25715608Y-43208161D01*
X26088135Y-43053855D01*
X26725879Y-42927000D01*
X27376121Y-42927000D01*
X28013865Y-43053855D01*
X28013865Y-43053855D01*
G37*
G36*
X34963865Y-43053855D02*
G01*
X35336392Y-43208161D01*
X35564610Y-43302692D01*
X36105265Y-43663946D01*
X36565054Y-44123735D01*
X36926308Y-44664390D01*
X36926309Y-44664392D01*
X37175145Y-45265135D01*
X37302000Y-45902879D01*
X37302000Y-46553121D01*
X37175145Y-47190865D01*
X36946499Y-47742865D01*
X36926308Y-47791610D01*
X36565054Y-48332265D01*
X36105265Y-48792054D01*
X35564610Y-49153308D01*
X35564609Y-49153309D01*
X35564608Y-49153309D01*
X34963865Y-49402145D01*
X34326121Y-49529000D01*
X33675879Y-49529000D01*
X33038135Y-49402145D01*
X32437392Y-49153309D01*
X32437391Y-49153309D01*
X32437390Y-49153308D01*
X31896735Y-48792054D01*
X31436946Y-48332265D01*
X31075692Y-47791610D01*
X31055501Y-47742865D01*
X30826855Y-47190865D01*
X30700000Y-46553121D01*
X30700000Y-45902879D01*
X30826855Y-45265135D01*
X31075691Y-44664392D01*
X31075692Y-44664390D01*
X31436946Y-44123735D01*
X31896735Y-43663946D01*
X32437390Y-43302692D01*
X32665608Y-43208161D01*
X33038135Y-43053855D01*
X33675879Y-42927000D01*
X34326121Y-42927000D01*
X34963865Y-43053855D01*
X34963865Y-43053855D01*
G37*
G36*
X47534064Y-45915889D02*
G01*
X47725333Y-45995115D01*
X47725335Y-45995116D01*
X47801488Y-46046000D01*
X47897473Y-46110135D01*
X48043865Y-46256527D01*
X48158885Y-46428667D01*
X48238111Y-46619936D01*
X48278500Y-46822984D01*
X48278500Y-47030016D01*
X48238111Y-47233064D01*
X48158885Y-47424333D01*
X48158884Y-47424335D01*
X48043865Y-47596473D01*
X47897473Y-47742865D01*
X47725335Y-47857884D01*
X47725334Y-47857885D01*
X47725333Y-47857885D01*
X47534064Y-47937111D01*
X47331016Y-47977500D01*
X47123984Y-47977500D01*
X46920936Y-47937111D01*
X46729667Y-47857885D01*
X46729666Y-47857885D01*
X46729665Y-47857884D01*
X46557527Y-47742865D01*
X46411135Y-47596473D01*
X46296116Y-47424335D01*
X46296115Y-47424333D01*
X46216889Y-47233064D01*
X46176500Y-47030016D01*
X46176500Y-46822984D01*
X46216889Y-46619936D01*
X46296115Y-46428667D01*
X46411135Y-46256527D01*
X46557527Y-46110135D01*
X46653512Y-46046000D01*
X46729665Y-45995116D01*
X46729667Y-45995115D01*
X46920936Y-45915889D01*
X47123984Y-45875500D01*
X47331016Y-45875500D01*
X47534064Y-45915889D01*
X47534064Y-45915889D01*
G37*
G36*
X43278500Y-47977500D02*
G01*
X41176500Y-47977500D01*
X41176500Y-45875500D01*
X43278500Y-45875500D01*
X43278500Y-47977500D01*
X43278500Y-47977500D01*
G37*
G36*
X79704097Y-45000069D02*
G01*
X79807032Y-45010207D01*
X80005146Y-45070305D01*
X80005149Y-45070306D01*
X80101975Y-45122061D01*
X80187729Y-45167897D01*
X80347765Y-45299235D01*
X80479103Y-45459271D01*
X80524939Y-45545025D01*
X80576694Y-45641851D01*
X80576695Y-45641854D01*
X80636793Y-45839968D01*
X80657085Y-46046000D01*
X80636793Y-46252032D01*
X80635429Y-46256527D01*
X80576694Y-46450149D01*
X80524939Y-46546975D01*
X80479103Y-46632729D01*
X80347765Y-46792765D01*
X80187729Y-46924103D01*
X80101975Y-46969939D01*
X80005149Y-47021694D01*
X80005146Y-47021695D01*
X79807032Y-47081793D01*
X79704097Y-47091931D01*
X79652631Y-47097000D01*
X78049369Y-47097000D01*
X77997903Y-47091931D01*
X77894968Y-47081793D01*
X77696854Y-47021695D01*
X77696851Y-47021694D01*
X77600025Y-46969939D01*
X77514271Y-46924103D01*
X77354235Y-46792765D01*
X77222897Y-46632729D01*
X77177061Y-46546975D01*
X77125306Y-46450149D01*
X77066571Y-46256527D01*
X77065207Y-46252032D01*
X77044915Y-46046000D01*
X77065207Y-45839968D01*
X77125305Y-45641854D01*
X77125306Y-45641851D01*
X77177061Y-45545025D01*
X77222897Y-45459271D01*
X77354235Y-45299235D01*
X77514271Y-45167897D01*
X77600025Y-45122061D01*
X77696851Y-45070306D01*
X77696854Y-45070305D01*
X77894968Y-45010207D01*
X77997903Y-45000069D01*
X78049369Y-44995000D01*
X79652631Y-44995000D01*
X79704097Y-45000069D01*
X79704097Y-45000069D01*
G37*
G36*
X66485674Y-43004965D02*
G01*
X66523367Y-43016399D01*
X66558103Y-43034966D01*
X66588548Y-43059952D01*
X66613534Y-43090397D01*
X66632101Y-43125133D01*
X66643535Y-43162826D01*
X66648000Y-43208161D01*
X66648000Y-44294839D01*
X66643535Y-44340174D01*
X66632101Y-44377867D01*
X66613534Y-44412603D01*
X66588548Y-44443048D01*
X66558103Y-44468034D01*
X66523367Y-44486601D01*
X66485674Y-44498035D01*
X66440339Y-44502500D01*
X65603661Y-44502500D01*
X65558326Y-44498035D01*
X65520633Y-44486601D01*
X65485897Y-44468034D01*
X65455452Y-44443048D01*
X65430466Y-44412603D01*
X65411899Y-44377867D01*
X65400465Y-44340174D01*
X65396000Y-44294839D01*
X65396000Y-43208161D01*
X65400465Y-43162826D01*
X65411899Y-43125133D01*
X65430466Y-43090397D01*
X65455452Y-43059952D01*
X65485897Y-43034966D01*
X65520633Y-43016399D01*
X65558326Y-43004965D01*
X65603661Y-43000500D01*
X66440339Y-43000500D01*
X66485674Y-43004965D01*
X66485674Y-43004965D01*
G37*
G36*
X68535674Y-43004965D02*
G01*
X68573367Y-43016399D01*
X68608103Y-43034966D01*
X68638548Y-43059952D01*
X68663534Y-43090397D01*
X68682101Y-43125133D01*
X68693535Y-43162826D01*
X68698000Y-43208161D01*
X68698000Y-44294839D01*
X68693535Y-44340174D01*
X68682101Y-44377867D01*
X68663534Y-44412603D01*
X68638548Y-44443048D01*
X68608103Y-44468034D01*
X68573367Y-44486601D01*
X68535674Y-44498035D01*
X68490339Y-44502500D01*
X67653661Y-44502500D01*
X67608326Y-44498035D01*
X67570633Y-44486601D01*
X67535897Y-44468034D01*
X67505452Y-44443048D01*
X67480466Y-44412603D01*
X67461899Y-44377867D01*
X67450465Y-44340174D01*
X67446000Y-44294839D01*
X67446000Y-43208161D01*
X67450465Y-43162826D01*
X67461899Y-43125133D01*
X67480466Y-43090397D01*
X67505452Y-43059952D01*
X67535897Y-43034966D01*
X67570633Y-43016399D01*
X67608326Y-43004965D01*
X67653661Y-43000500D01*
X68490339Y-43000500D01*
X68535674Y-43004965D01*
X68535674Y-43004965D01*
G37*
G36*
X80072739Y-34974967D02*
G01*
X80386782Y-35037434D01*
X80978426Y-35282501D01*
X81510892Y-35638284D01*
X81963716Y-36091108D01*
X82319499Y-36623574D01*
X82564566Y-37215218D01*
X82564566Y-37215219D01*
X82689500Y-37843303D01*
X82689500Y-38483697D01*
X82646822Y-38698254D01*
X82564566Y-39111782D01*
X82319499Y-39703426D01*
X82048575Y-40108891D01*
X81972417Y-40222871D01*
X81963716Y-40235892D01*
X81510892Y-40688716D01*
X80978426Y-41044499D01*
X80386782Y-41289566D01*
X80072739Y-41352033D01*
X79758697Y-41414500D01*
X79118303Y-41414500D01*
X78804261Y-41352033D01*
X78490218Y-41289566D01*
X77898574Y-41044499D01*
X77366108Y-40688716D01*
X76913284Y-40235892D01*
X76904584Y-40222871D01*
X76828425Y-40108891D01*
X76557501Y-39703426D01*
X76312434Y-39111782D01*
X76230178Y-38698254D01*
X76187500Y-38483697D01*
X76187500Y-37843303D01*
X76312434Y-37215219D01*
X76312434Y-37215218D01*
X76557501Y-36623574D01*
X76913284Y-36091108D01*
X77366108Y-35638284D01*
X77898574Y-35282501D01*
X78490218Y-35037434D01*
X78804261Y-34974967D01*
X79118303Y-34912500D01*
X79758697Y-34912500D01*
X80072739Y-34974967D01*
X80072739Y-34974967D01*
G37*
G36*
X26986739Y-34847967D02*
G01*
X27300782Y-34910434D01*
X27892426Y-35155501D01*
X28153330Y-35329832D01*
X28424891Y-35511283D01*
X28877717Y-35964109D01*
X28892888Y-35986814D01*
X29233499Y-36496574D01*
X29478566Y-37088218D01*
X29478566Y-37088219D01*
X29603500Y-37716303D01*
X29603500Y-38356697D01*
X29572247Y-38513814D01*
X29478566Y-38984782D01*
X29233499Y-39576426D01*
X28877716Y-40108892D01*
X28424892Y-40561716D01*
X27892426Y-40917499D01*
X27300782Y-41162566D01*
X26986739Y-41225033D01*
X26672697Y-41287500D01*
X26032303Y-41287500D01*
X25718261Y-41225033D01*
X25404218Y-41162566D01*
X24812574Y-40917499D01*
X24280108Y-40561716D01*
X23827284Y-40108892D01*
X23471501Y-39576426D01*
X23226434Y-38984782D01*
X23132753Y-38513814D01*
X23101500Y-38356697D01*
X23101500Y-37716303D01*
X23226434Y-37088219D01*
X23226434Y-37088218D01*
X23471501Y-36496574D01*
X23812112Y-35986814D01*
X23827283Y-35964109D01*
X24280109Y-35511283D01*
X24551670Y-35329832D01*
X24812574Y-35155501D01*
X25404218Y-34910434D01*
X25718261Y-34847967D01*
X26032303Y-34785500D01*
X26672697Y-34785500D01*
X26986739Y-34847967D01*
X26986739Y-34847967D01*
G37*
G36*
X49556754Y-36127818D02*
G01*
X49930011Y-36282426D01*
X49930013Y-36282427D01*
X50265936Y-36506884D01*
X50551616Y-36792564D01*
X50749167Y-37088219D01*
X50776074Y-37128489D01*
X50930682Y-37501746D01*
X51009500Y-37897993D01*
X51009500Y-38302007D01*
X50930682Y-38698254D01*
X50811998Y-38984782D01*
X50776073Y-39071513D01*
X50551616Y-39407436D01*
X50265936Y-39693116D01*
X49930013Y-39917573D01*
X49930012Y-39917574D01*
X49930011Y-39917574D01*
X49556754Y-40072182D01*
X49160507Y-40151000D01*
X48756493Y-40151000D01*
X48360246Y-40072182D01*
X47986989Y-39917574D01*
X47986988Y-39917574D01*
X47986987Y-39917573D01*
X47651064Y-39693116D01*
X47365384Y-39407436D01*
X47140927Y-39071513D01*
X47105002Y-38984782D01*
X46986318Y-38698254D01*
X46907500Y-38302007D01*
X46907500Y-37897993D01*
X46986318Y-37501746D01*
X47140926Y-37128489D01*
X47167834Y-37088219D01*
X47365384Y-36792564D01*
X47651064Y-36506884D01*
X47986987Y-36282427D01*
X47986989Y-36282426D01*
X48360246Y-36127818D01*
X48756493Y-36049000D01*
X49160507Y-36049000D01*
X49556754Y-36127818D01*
X49556754Y-36127818D01*
G37*
G36*
X64034754Y-36127818D02*
G01*
X64408011Y-36282426D01*
X64408013Y-36282427D01*
X64743936Y-36506884D01*
X65029616Y-36792564D01*
X65227167Y-37088219D01*
X65254074Y-37128489D01*
X65408682Y-37501746D01*
X65487500Y-37897993D01*
X65487500Y-38302007D01*
X65408682Y-38698254D01*
X65289998Y-38984782D01*
X65254073Y-39071513D01*
X65029616Y-39407436D01*
X64743936Y-39693116D01*
X64408013Y-39917573D01*
X64408012Y-39917574D01*
X64408011Y-39917574D01*
X64034754Y-40072182D01*
X63638507Y-40151000D01*
X63234493Y-40151000D01*
X62838246Y-40072182D01*
X62464989Y-39917574D01*
X62464988Y-39917574D01*
X62464987Y-39917573D01*
X62129064Y-39693116D01*
X61843384Y-39407436D01*
X61618927Y-39071513D01*
X61583002Y-38984782D01*
X61464318Y-38698254D01*
X61385500Y-38302007D01*
X61385500Y-37897993D01*
X61464318Y-37501746D01*
X61618926Y-37128489D01*
X61645834Y-37088219D01*
X61843384Y-36792564D01*
X62129064Y-36506884D01*
X62464987Y-36282427D01*
X62464989Y-36282426D01*
X62838246Y-36127818D01*
X63234493Y-36049000D01*
X63638507Y-36049000D01*
X64034754Y-36127818D01*
X64034754Y-36127818D01*
G37*
G36*
X55909500Y-40051000D02*
G01*
X52007500Y-40051000D01*
X52007500Y-36149000D01*
X55909500Y-36149000D01*
X55909500Y-40051000D01*
X55909500Y-40051000D01*
G37*
G36*
X70387500Y-40051000D02*
G01*
X66485500Y-40051000D01*
X66485500Y-36149000D01*
X70387500Y-36149000D01*
X70387500Y-40051000D01*
X70387500Y-40051000D01*
G37*
G36*
X34968254Y-36000818D02*
G01*
X35325997Y-36149000D01*
X35341513Y-36155427D01*
X35550434Y-36295024D01*
X35677436Y-36379884D01*
X35963116Y-36665564D01*
X36187574Y-37001489D01*
X36342182Y-37374746D01*
X36421000Y-37770993D01*
X36421000Y-38175007D01*
X36342182Y-38571254D01*
X36187574Y-38944511D01*
X36187573Y-38944513D01*
X35963116Y-39280436D01*
X35677436Y-39566116D01*
X35341513Y-39790573D01*
X35341512Y-39790574D01*
X35341511Y-39790574D01*
X34968254Y-39945182D01*
X34572007Y-40024000D01*
X34167993Y-40024000D01*
X33771746Y-39945182D01*
X33398489Y-39790574D01*
X33398488Y-39790574D01*
X33398487Y-39790573D01*
X33062564Y-39566116D01*
X32776884Y-39280436D01*
X32552427Y-38944513D01*
X32552426Y-38944511D01*
X32397818Y-38571254D01*
X32319000Y-38175007D01*
X32319000Y-37770993D01*
X32397818Y-37374746D01*
X32552426Y-37001489D01*
X32776884Y-36665564D01*
X33062564Y-36379884D01*
X33189566Y-36295024D01*
X33398487Y-36155427D01*
X33414003Y-36149000D01*
X33771746Y-36000818D01*
X34167993Y-35922000D01*
X34572007Y-35922000D01*
X34968254Y-36000818D01*
X34968254Y-36000818D01*
G37*
G36*
X41321000Y-39924000D02*
G01*
X37419000Y-39924000D01*
X37419000Y-36022000D01*
X41321000Y-36022000D01*
X41321000Y-39924000D01*
X41321000Y-39924000D01*
G37*
M02*
