G04 #@! TF.GenerationSoftware,KiCad,Pcbnew,(5.1.0-0)*
G04 #@! TF.CreationDate,2019-05-08T18:24:01-07:00*
G04 #@! TF.ProjectId,power board,706f7765-7220-4626-9f61-72642e6b6963,rev?*
G04 #@! TF.SameCoordinates,Original*
G04 #@! TF.FileFunction,Paste,Top*
G04 #@! TF.FilePolarity,Positive*
%FSLAX46Y46*%
G04 Gerber Fmt 4.6, Leading zero omitted, Abs format (unit mm)*
G04 Created by KiCad (PCBNEW (5.1.0-0)) date 2019-05-08 18:24:01*
%MOMM*%
%LPD*%
G04 APERTURE LIST*
%ADD10R,16.000000X10.000000*%
%ADD11C,0.100000*%
%ADD12C,1.150000*%
%ADD13R,5.500000X1.430000*%
%ADD14C,0.950000*%
G04 APERTURE END LIST*
D10*
X72580500Y-94170500D03*
X72707500Y-106616500D03*
D11*
G36*
X48101505Y-77596704D02*
G01*
X48125773Y-77600304D01*
X48149572Y-77606265D01*
X48172671Y-77614530D01*
X48194850Y-77625020D01*
X48215893Y-77637632D01*
X48235599Y-77652247D01*
X48253777Y-77668723D01*
X48270253Y-77686901D01*
X48284868Y-77706607D01*
X48297480Y-77727650D01*
X48307970Y-77749829D01*
X48316235Y-77772928D01*
X48322196Y-77796727D01*
X48325796Y-77820995D01*
X48327000Y-77845499D01*
X48327000Y-78745501D01*
X48325796Y-78770005D01*
X48322196Y-78794273D01*
X48316235Y-78818072D01*
X48307970Y-78841171D01*
X48297480Y-78863350D01*
X48284868Y-78884393D01*
X48270253Y-78904099D01*
X48253777Y-78922277D01*
X48235599Y-78938753D01*
X48215893Y-78953368D01*
X48194850Y-78965980D01*
X48172671Y-78976470D01*
X48149572Y-78984735D01*
X48125773Y-78990696D01*
X48101505Y-78994296D01*
X48077001Y-78995500D01*
X47426999Y-78995500D01*
X47402495Y-78994296D01*
X47378227Y-78990696D01*
X47354428Y-78984735D01*
X47331329Y-78976470D01*
X47309150Y-78965980D01*
X47288107Y-78953368D01*
X47268401Y-78938753D01*
X47250223Y-78922277D01*
X47233747Y-78904099D01*
X47219132Y-78884393D01*
X47206520Y-78863350D01*
X47196030Y-78841171D01*
X47187765Y-78818072D01*
X47181804Y-78794273D01*
X47178204Y-78770005D01*
X47177000Y-78745501D01*
X47177000Y-77845499D01*
X47178204Y-77820995D01*
X47181804Y-77796727D01*
X47187765Y-77772928D01*
X47196030Y-77749829D01*
X47206520Y-77727650D01*
X47219132Y-77706607D01*
X47233747Y-77686901D01*
X47250223Y-77668723D01*
X47268401Y-77652247D01*
X47288107Y-77637632D01*
X47309150Y-77625020D01*
X47331329Y-77614530D01*
X47354428Y-77606265D01*
X47378227Y-77600304D01*
X47402495Y-77596704D01*
X47426999Y-77595500D01*
X48077001Y-77595500D01*
X48101505Y-77596704D01*
X48101505Y-77596704D01*
G37*
D12*
X47752000Y-78295500D03*
D11*
G36*
X46051505Y-77596704D02*
G01*
X46075773Y-77600304D01*
X46099572Y-77606265D01*
X46122671Y-77614530D01*
X46144850Y-77625020D01*
X46165893Y-77637632D01*
X46185599Y-77652247D01*
X46203777Y-77668723D01*
X46220253Y-77686901D01*
X46234868Y-77706607D01*
X46247480Y-77727650D01*
X46257970Y-77749829D01*
X46266235Y-77772928D01*
X46272196Y-77796727D01*
X46275796Y-77820995D01*
X46277000Y-77845499D01*
X46277000Y-78745501D01*
X46275796Y-78770005D01*
X46272196Y-78794273D01*
X46266235Y-78818072D01*
X46257970Y-78841171D01*
X46247480Y-78863350D01*
X46234868Y-78884393D01*
X46220253Y-78904099D01*
X46203777Y-78922277D01*
X46185599Y-78938753D01*
X46165893Y-78953368D01*
X46144850Y-78965980D01*
X46122671Y-78976470D01*
X46099572Y-78984735D01*
X46075773Y-78990696D01*
X46051505Y-78994296D01*
X46027001Y-78995500D01*
X45376999Y-78995500D01*
X45352495Y-78994296D01*
X45328227Y-78990696D01*
X45304428Y-78984735D01*
X45281329Y-78976470D01*
X45259150Y-78965980D01*
X45238107Y-78953368D01*
X45218401Y-78938753D01*
X45200223Y-78922277D01*
X45183747Y-78904099D01*
X45169132Y-78884393D01*
X45156520Y-78863350D01*
X45146030Y-78841171D01*
X45137765Y-78818072D01*
X45131804Y-78794273D01*
X45128204Y-78770005D01*
X45127000Y-78745501D01*
X45127000Y-77845499D01*
X45128204Y-77820995D01*
X45131804Y-77796727D01*
X45137765Y-77772928D01*
X45146030Y-77749829D01*
X45156520Y-77727650D01*
X45169132Y-77706607D01*
X45183747Y-77686901D01*
X45200223Y-77668723D01*
X45218401Y-77652247D01*
X45238107Y-77637632D01*
X45259150Y-77625020D01*
X45281329Y-77614530D01*
X45304428Y-77606265D01*
X45328227Y-77600304D01*
X45352495Y-77596704D01*
X45376999Y-77595500D01*
X46027001Y-77595500D01*
X46051505Y-77596704D01*
X46051505Y-77596704D01*
G37*
D12*
X45702000Y-78295500D03*
D11*
G36*
X77329505Y-57657704D02*
G01*
X77353773Y-57661304D01*
X77377572Y-57667265D01*
X77400671Y-57675530D01*
X77422850Y-57686020D01*
X77443893Y-57698632D01*
X77463599Y-57713247D01*
X77481777Y-57729723D01*
X77498253Y-57747901D01*
X77512868Y-57767607D01*
X77525480Y-57788650D01*
X77535970Y-57810829D01*
X77544235Y-57833928D01*
X77550196Y-57857727D01*
X77553796Y-57881995D01*
X77555000Y-57906499D01*
X77555000Y-58806501D01*
X77553796Y-58831005D01*
X77550196Y-58855273D01*
X77544235Y-58879072D01*
X77535970Y-58902171D01*
X77525480Y-58924350D01*
X77512868Y-58945393D01*
X77498253Y-58965099D01*
X77481777Y-58983277D01*
X77463599Y-58999753D01*
X77443893Y-59014368D01*
X77422850Y-59026980D01*
X77400671Y-59037470D01*
X77377572Y-59045735D01*
X77353773Y-59051696D01*
X77329505Y-59055296D01*
X77305001Y-59056500D01*
X76654999Y-59056500D01*
X76630495Y-59055296D01*
X76606227Y-59051696D01*
X76582428Y-59045735D01*
X76559329Y-59037470D01*
X76537150Y-59026980D01*
X76516107Y-59014368D01*
X76496401Y-58999753D01*
X76478223Y-58983277D01*
X76461747Y-58965099D01*
X76447132Y-58945393D01*
X76434520Y-58924350D01*
X76424030Y-58902171D01*
X76415765Y-58879072D01*
X76409804Y-58855273D01*
X76406204Y-58831005D01*
X76405000Y-58806501D01*
X76405000Y-57906499D01*
X76406204Y-57881995D01*
X76409804Y-57857727D01*
X76415765Y-57833928D01*
X76424030Y-57810829D01*
X76434520Y-57788650D01*
X76447132Y-57767607D01*
X76461747Y-57747901D01*
X76478223Y-57729723D01*
X76496401Y-57713247D01*
X76516107Y-57698632D01*
X76537150Y-57686020D01*
X76559329Y-57675530D01*
X76582428Y-57667265D01*
X76606227Y-57661304D01*
X76630495Y-57657704D01*
X76654999Y-57656500D01*
X77305001Y-57656500D01*
X77329505Y-57657704D01*
X77329505Y-57657704D01*
G37*
D12*
X76980000Y-58356500D03*
D11*
G36*
X75279505Y-57657704D02*
G01*
X75303773Y-57661304D01*
X75327572Y-57667265D01*
X75350671Y-57675530D01*
X75372850Y-57686020D01*
X75393893Y-57698632D01*
X75413599Y-57713247D01*
X75431777Y-57729723D01*
X75448253Y-57747901D01*
X75462868Y-57767607D01*
X75475480Y-57788650D01*
X75485970Y-57810829D01*
X75494235Y-57833928D01*
X75500196Y-57857727D01*
X75503796Y-57881995D01*
X75505000Y-57906499D01*
X75505000Y-58806501D01*
X75503796Y-58831005D01*
X75500196Y-58855273D01*
X75494235Y-58879072D01*
X75485970Y-58902171D01*
X75475480Y-58924350D01*
X75462868Y-58945393D01*
X75448253Y-58965099D01*
X75431777Y-58983277D01*
X75413599Y-58999753D01*
X75393893Y-59014368D01*
X75372850Y-59026980D01*
X75350671Y-59037470D01*
X75327572Y-59045735D01*
X75303773Y-59051696D01*
X75279505Y-59055296D01*
X75255001Y-59056500D01*
X74604999Y-59056500D01*
X74580495Y-59055296D01*
X74556227Y-59051696D01*
X74532428Y-59045735D01*
X74509329Y-59037470D01*
X74487150Y-59026980D01*
X74466107Y-59014368D01*
X74446401Y-58999753D01*
X74428223Y-58983277D01*
X74411747Y-58965099D01*
X74397132Y-58945393D01*
X74384520Y-58924350D01*
X74374030Y-58902171D01*
X74365765Y-58879072D01*
X74359804Y-58855273D01*
X74356204Y-58831005D01*
X74355000Y-58806501D01*
X74355000Y-57906499D01*
X74356204Y-57881995D01*
X74359804Y-57857727D01*
X74365765Y-57833928D01*
X74374030Y-57810829D01*
X74384520Y-57788650D01*
X74397132Y-57767607D01*
X74411747Y-57747901D01*
X74428223Y-57729723D01*
X74446401Y-57713247D01*
X74466107Y-57698632D01*
X74487150Y-57686020D01*
X74509329Y-57675530D01*
X74532428Y-57667265D01*
X74556227Y-57661304D01*
X74580495Y-57657704D01*
X74604999Y-57656500D01*
X75255001Y-57656500D01*
X75279505Y-57657704D01*
X75279505Y-57657704D01*
G37*
D12*
X74930000Y-58356500D03*
D11*
G36*
X68421505Y-43052704D02*
G01*
X68445773Y-43056304D01*
X68469572Y-43062265D01*
X68492671Y-43070530D01*
X68514850Y-43081020D01*
X68535893Y-43093632D01*
X68555599Y-43108247D01*
X68573777Y-43124723D01*
X68590253Y-43142901D01*
X68604868Y-43162607D01*
X68617480Y-43183650D01*
X68627970Y-43205829D01*
X68636235Y-43228928D01*
X68642196Y-43252727D01*
X68645796Y-43276995D01*
X68647000Y-43301499D01*
X68647000Y-44201501D01*
X68645796Y-44226005D01*
X68642196Y-44250273D01*
X68636235Y-44274072D01*
X68627970Y-44297171D01*
X68617480Y-44319350D01*
X68604868Y-44340393D01*
X68590253Y-44360099D01*
X68573777Y-44378277D01*
X68555599Y-44394753D01*
X68535893Y-44409368D01*
X68514850Y-44421980D01*
X68492671Y-44432470D01*
X68469572Y-44440735D01*
X68445773Y-44446696D01*
X68421505Y-44450296D01*
X68397001Y-44451500D01*
X67746999Y-44451500D01*
X67722495Y-44450296D01*
X67698227Y-44446696D01*
X67674428Y-44440735D01*
X67651329Y-44432470D01*
X67629150Y-44421980D01*
X67608107Y-44409368D01*
X67588401Y-44394753D01*
X67570223Y-44378277D01*
X67553747Y-44360099D01*
X67539132Y-44340393D01*
X67526520Y-44319350D01*
X67516030Y-44297171D01*
X67507765Y-44274072D01*
X67501804Y-44250273D01*
X67498204Y-44226005D01*
X67497000Y-44201501D01*
X67497000Y-43301499D01*
X67498204Y-43276995D01*
X67501804Y-43252727D01*
X67507765Y-43228928D01*
X67516030Y-43205829D01*
X67526520Y-43183650D01*
X67539132Y-43162607D01*
X67553747Y-43142901D01*
X67570223Y-43124723D01*
X67588401Y-43108247D01*
X67608107Y-43093632D01*
X67629150Y-43081020D01*
X67651329Y-43070530D01*
X67674428Y-43062265D01*
X67698227Y-43056304D01*
X67722495Y-43052704D01*
X67746999Y-43051500D01*
X68397001Y-43051500D01*
X68421505Y-43052704D01*
X68421505Y-43052704D01*
G37*
D12*
X68072000Y-43751500D03*
D11*
G36*
X66371505Y-43052704D02*
G01*
X66395773Y-43056304D01*
X66419572Y-43062265D01*
X66442671Y-43070530D01*
X66464850Y-43081020D01*
X66485893Y-43093632D01*
X66505599Y-43108247D01*
X66523777Y-43124723D01*
X66540253Y-43142901D01*
X66554868Y-43162607D01*
X66567480Y-43183650D01*
X66577970Y-43205829D01*
X66586235Y-43228928D01*
X66592196Y-43252727D01*
X66595796Y-43276995D01*
X66597000Y-43301499D01*
X66597000Y-44201501D01*
X66595796Y-44226005D01*
X66592196Y-44250273D01*
X66586235Y-44274072D01*
X66577970Y-44297171D01*
X66567480Y-44319350D01*
X66554868Y-44340393D01*
X66540253Y-44360099D01*
X66523777Y-44378277D01*
X66505599Y-44394753D01*
X66485893Y-44409368D01*
X66464850Y-44421980D01*
X66442671Y-44432470D01*
X66419572Y-44440735D01*
X66395773Y-44446696D01*
X66371505Y-44450296D01*
X66347001Y-44451500D01*
X65696999Y-44451500D01*
X65672495Y-44450296D01*
X65648227Y-44446696D01*
X65624428Y-44440735D01*
X65601329Y-44432470D01*
X65579150Y-44421980D01*
X65558107Y-44409368D01*
X65538401Y-44394753D01*
X65520223Y-44378277D01*
X65503747Y-44360099D01*
X65489132Y-44340393D01*
X65476520Y-44319350D01*
X65466030Y-44297171D01*
X65457765Y-44274072D01*
X65451804Y-44250273D01*
X65448204Y-44226005D01*
X65447000Y-44201501D01*
X65447000Y-43301499D01*
X65448204Y-43276995D01*
X65451804Y-43252727D01*
X65457765Y-43228928D01*
X65466030Y-43205829D01*
X65476520Y-43183650D01*
X65489132Y-43162607D01*
X65503747Y-43142901D01*
X65520223Y-43124723D01*
X65538401Y-43108247D01*
X65558107Y-43093632D01*
X65579150Y-43081020D01*
X65601329Y-43070530D01*
X65624428Y-43062265D01*
X65648227Y-43056304D01*
X65672495Y-43052704D01*
X65696999Y-43051500D01*
X66347001Y-43051500D01*
X66371505Y-43052704D01*
X66371505Y-43052704D01*
G37*
D12*
X66022000Y-43751500D03*
D11*
G36*
X44353005Y-99756204D02*
G01*
X44377273Y-99759804D01*
X44401072Y-99765765D01*
X44424171Y-99774030D01*
X44446350Y-99784520D01*
X44467393Y-99797132D01*
X44487099Y-99811747D01*
X44505277Y-99828223D01*
X44521753Y-99846401D01*
X44536368Y-99866107D01*
X44548980Y-99887150D01*
X44559470Y-99909329D01*
X44567735Y-99932428D01*
X44573696Y-99956227D01*
X44577296Y-99980495D01*
X44578500Y-100004999D01*
X44578500Y-100655001D01*
X44577296Y-100679505D01*
X44573696Y-100703773D01*
X44567735Y-100727572D01*
X44559470Y-100750671D01*
X44548980Y-100772850D01*
X44536368Y-100793893D01*
X44521753Y-100813599D01*
X44505277Y-100831777D01*
X44487099Y-100848253D01*
X44467393Y-100862868D01*
X44446350Y-100875480D01*
X44424171Y-100885970D01*
X44401072Y-100894235D01*
X44377273Y-100900196D01*
X44353005Y-100903796D01*
X44328501Y-100905000D01*
X43428499Y-100905000D01*
X43403995Y-100903796D01*
X43379727Y-100900196D01*
X43355928Y-100894235D01*
X43332829Y-100885970D01*
X43310650Y-100875480D01*
X43289607Y-100862868D01*
X43269901Y-100848253D01*
X43251723Y-100831777D01*
X43235247Y-100813599D01*
X43220632Y-100793893D01*
X43208020Y-100772850D01*
X43197530Y-100750671D01*
X43189265Y-100727572D01*
X43183304Y-100703773D01*
X43179704Y-100679505D01*
X43178500Y-100655001D01*
X43178500Y-100004999D01*
X43179704Y-99980495D01*
X43183304Y-99956227D01*
X43189265Y-99932428D01*
X43197530Y-99909329D01*
X43208020Y-99887150D01*
X43220632Y-99866107D01*
X43235247Y-99846401D01*
X43251723Y-99828223D01*
X43269901Y-99811747D01*
X43289607Y-99797132D01*
X43310650Y-99784520D01*
X43332829Y-99774030D01*
X43355928Y-99765765D01*
X43379727Y-99759804D01*
X43403995Y-99756204D01*
X43428499Y-99755000D01*
X44328501Y-99755000D01*
X44353005Y-99756204D01*
X44353005Y-99756204D01*
G37*
D12*
X43878500Y-100330000D03*
D11*
G36*
X44353005Y-97706204D02*
G01*
X44377273Y-97709804D01*
X44401072Y-97715765D01*
X44424171Y-97724030D01*
X44446350Y-97734520D01*
X44467393Y-97747132D01*
X44487099Y-97761747D01*
X44505277Y-97778223D01*
X44521753Y-97796401D01*
X44536368Y-97816107D01*
X44548980Y-97837150D01*
X44559470Y-97859329D01*
X44567735Y-97882428D01*
X44573696Y-97906227D01*
X44577296Y-97930495D01*
X44578500Y-97954999D01*
X44578500Y-98605001D01*
X44577296Y-98629505D01*
X44573696Y-98653773D01*
X44567735Y-98677572D01*
X44559470Y-98700671D01*
X44548980Y-98722850D01*
X44536368Y-98743893D01*
X44521753Y-98763599D01*
X44505277Y-98781777D01*
X44487099Y-98798253D01*
X44467393Y-98812868D01*
X44446350Y-98825480D01*
X44424171Y-98835970D01*
X44401072Y-98844235D01*
X44377273Y-98850196D01*
X44353005Y-98853796D01*
X44328501Y-98855000D01*
X43428499Y-98855000D01*
X43403995Y-98853796D01*
X43379727Y-98850196D01*
X43355928Y-98844235D01*
X43332829Y-98835970D01*
X43310650Y-98825480D01*
X43289607Y-98812868D01*
X43269901Y-98798253D01*
X43251723Y-98781777D01*
X43235247Y-98763599D01*
X43220632Y-98743893D01*
X43208020Y-98722850D01*
X43197530Y-98700671D01*
X43189265Y-98677572D01*
X43183304Y-98653773D01*
X43179704Y-98629505D01*
X43178500Y-98605001D01*
X43178500Y-97954999D01*
X43179704Y-97930495D01*
X43183304Y-97906227D01*
X43189265Y-97882428D01*
X43197530Y-97859329D01*
X43208020Y-97837150D01*
X43220632Y-97816107D01*
X43235247Y-97796401D01*
X43251723Y-97778223D01*
X43269901Y-97761747D01*
X43289607Y-97747132D01*
X43310650Y-97734520D01*
X43332829Y-97724030D01*
X43355928Y-97715765D01*
X43379727Y-97709804D01*
X43403995Y-97706204D01*
X43428499Y-97705000D01*
X44328501Y-97705000D01*
X44353005Y-97706204D01*
X44353005Y-97706204D01*
G37*
D12*
X43878500Y-98280000D03*
D13*
X57150000Y-51955000D03*
X57150000Y-55995000D03*
D11*
G36*
X67414505Y-50736204D02*
G01*
X67438773Y-50739804D01*
X67462572Y-50745765D01*
X67485671Y-50754030D01*
X67507850Y-50764520D01*
X67528893Y-50777132D01*
X67548599Y-50791747D01*
X67566777Y-50808223D01*
X67583253Y-50826401D01*
X67597868Y-50846107D01*
X67610480Y-50867150D01*
X67620970Y-50889329D01*
X67629235Y-50912428D01*
X67635196Y-50936227D01*
X67638796Y-50960495D01*
X67640000Y-50984999D01*
X67640000Y-51885001D01*
X67638796Y-51909505D01*
X67635196Y-51933773D01*
X67629235Y-51957572D01*
X67620970Y-51980671D01*
X67610480Y-52002850D01*
X67597868Y-52023893D01*
X67583253Y-52043599D01*
X67566777Y-52061777D01*
X67548599Y-52078253D01*
X67528893Y-52092868D01*
X67507850Y-52105480D01*
X67485671Y-52115970D01*
X67462572Y-52124235D01*
X67438773Y-52130196D01*
X67414505Y-52133796D01*
X67390001Y-52135000D01*
X66739999Y-52135000D01*
X66715495Y-52133796D01*
X66691227Y-52130196D01*
X66667428Y-52124235D01*
X66644329Y-52115970D01*
X66622150Y-52105480D01*
X66601107Y-52092868D01*
X66581401Y-52078253D01*
X66563223Y-52061777D01*
X66546747Y-52043599D01*
X66532132Y-52023893D01*
X66519520Y-52002850D01*
X66509030Y-51980671D01*
X66500765Y-51957572D01*
X66494804Y-51933773D01*
X66491204Y-51909505D01*
X66490000Y-51885001D01*
X66490000Y-50984999D01*
X66491204Y-50960495D01*
X66494804Y-50936227D01*
X66500765Y-50912428D01*
X66509030Y-50889329D01*
X66519520Y-50867150D01*
X66532132Y-50846107D01*
X66546747Y-50826401D01*
X66563223Y-50808223D01*
X66581401Y-50791747D01*
X66601107Y-50777132D01*
X66622150Y-50764520D01*
X66644329Y-50754030D01*
X66667428Y-50745765D01*
X66691227Y-50739804D01*
X66715495Y-50736204D01*
X66739999Y-50735000D01*
X67390001Y-50735000D01*
X67414505Y-50736204D01*
X67414505Y-50736204D01*
G37*
D12*
X67065000Y-51435000D03*
D11*
G36*
X65364505Y-50736204D02*
G01*
X65388773Y-50739804D01*
X65412572Y-50745765D01*
X65435671Y-50754030D01*
X65457850Y-50764520D01*
X65478893Y-50777132D01*
X65498599Y-50791747D01*
X65516777Y-50808223D01*
X65533253Y-50826401D01*
X65547868Y-50846107D01*
X65560480Y-50867150D01*
X65570970Y-50889329D01*
X65579235Y-50912428D01*
X65585196Y-50936227D01*
X65588796Y-50960495D01*
X65590000Y-50984999D01*
X65590000Y-51885001D01*
X65588796Y-51909505D01*
X65585196Y-51933773D01*
X65579235Y-51957572D01*
X65570970Y-51980671D01*
X65560480Y-52002850D01*
X65547868Y-52023893D01*
X65533253Y-52043599D01*
X65516777Y-52061777D01*
X65498599Y-52078253D01*
X65478893Y-52092868D01*
X65457850Y-52105480D01*
X65435671Y-52115970D01*
X65412572Y-52124235D01*
X65388773Y-52130196D01*
X65364505Y-52133796D01*
X65340001Y-52135000D01*
X64689999Y-52135000D01*
X64665495Y-52133796D01*
X64641227Y-52130196D01*
X64617428Y-52124235D01*
X64594329Y-52115970D01*
X64572150Y-52105480D01*
X64551107Y-52092868D01*
X64531401Y-52078253D01*
X64513223Y-52061777D01*
X64496747Y-52043599D01*
X64482132Y-52023893D01*
X64469520Y-52002850D01*
X64459030Y-51980671D01*
X64450765Y-51957572D01*
X64444804Y-51933773D01*
X64441204Y-51909505D01*
X64440000Y-51885001D01*
X64440000Y-50984999D01*
X64441204Y-50960495D01*
X64444804Y-50936227D01*
X64450765Y-50912428D01*
X64459030Y-50889329D01*
X64469520Y-50867150D01*
X64482132Y-50846107D01*
X64496747Y-50826401D01*
X64513223Y-50808223D01*
X64531401Y-50791747D01*
X64551107Y-50777132D01*
X64572150Y-50764520D01*
X64594329Y-50754030D01*
X64617428Y-50745765D01*
X64641227Y-50739804D01*
X64665495Y-50736204D01*
X64689999Y-50735000D01*
X65340001Y-50735000D01*
X65364505Y-50736204D01*
X65364505Y-50736204D01*
G37*
D12*
X65015000Y-51435000D03*
D11*
G36*
X68650279Y-53274644D02*
G01*
X68673334Y-53278063D01*
X68695943Y-53283727D01*
X68717887Y-53291579D01*
X68738957Y-53301544D01*
X68758948Y-53313526D01*
X68777668Y-53327410D01*
X68794938Y-53343062D01*
X68810590Y-53360332D01*
X68824474Y-53379052D01*
X68836456Y-53399043D01*
X68846421Y-53420113D01*
X68854273Y-53442057D01*
X68859937Y-53464666D01*
X68863356Y-53487721D01*
X68864500Y-53511000D01*
X68864500Y-54086000D01*
X68863356Y-54109279D01*
X68859937Y-54132334D01*
X68854273Y-54154943D01*
X68846421Y-54176887D01*
X68836456Y-54197957D01*
X68824474Y-54217948D01*
X68810590Y-54236668D01*
X68794938Y-54253938D01*
X68777668Y-54269590D01*
X68758948Y-54283474D01*
X68738957Y-54295456D01*
X68717887Y-54305421D01*
X68695943Y-54313273D01*
X68673334Y-54318937D01*
X68650279Y-54322356D01*
X68627000Y-54323500D01*
X68152000Y-54323500D01*
X68128721Y-54322356D01*
X68105666Y-54318937D01*
X68083057Y-54313273D01*
X68061113Y-54305421D01*
X68040043Y-54295456D01*
X68020052Y-54283474D01*
X68001332Y-54269590D01*
X67984062Y-54253938D01*
X67968410Y-54236668D01*
X67954526Y-54217948D01*
X67942544Y-54197957D01*
X67932579Y-54176887D01*
X67924727Y-54154943D01*
X67919063Y-54132334D01*
X67915644Y-54109279D01*
X67914500Y-54086000D01*
X67914500Y-53511000D01*
X67915644Y-53487721D01*
X67919063Y-53464666D01*
X67924727Y-53442057D01*
X67932579Y-53420113D01*
X67942544Y-53399043D01*
X67954526Y-53379052D01*
X67968410Y-53360332D01*
X67984062Y-53343062D01*
X68001332Y-53327410D01*
X68020052Y-53313526D01*
X68040043Y-53301544D01*
X68061113Y-53291579D01*
X68083057Y-53283727D01*
X68105666Y-53278063D01*
X68128721Y-53274644D01*
X68152000Y-53273500D01*
X68627000Y-53273500D01*
X68650279Y-53274644D01*
X68650279Y-53274644D01*
G37*
D14*
X68389500Y-53798500D03*
D11*
G36*
X68650279Y-55024644D02*
G01*
X68673334Y-55028063D01*
X68695943Y-55033727D01*
X68717887Y-55041579D01*
X68738957Y-55051544D01*
X68758948Y-55063526D01*
X68777668Y-55077410D01*
X68794938Y-55093062D01*
X68810590Y-55110332D01*
X68824474Y-55129052D01*
X68836456Y-55149043D01*
X68846421Y-55170113D01*
X68854273Y-55192057D01*
X68859937Y-55214666D01*
X68863356Y-55237721D01*
X68864500Y-55261000D01*
X68864500Y-55836000D01*
X68863356Y-55859279D01*
X68859937Y-55882334D01*
X68854273Y-55904943D01*
X68846421Y-55926887D01*
X68836456Y-55947957D01*
X68824474Y-55967948D01*
X68810590Y-55986668D01*
X68794938Y-56003938D01*
X68777668Y-56019590D01*
X68758948Y-56033474D01*
X68738957Y-56045456D01*
X68717887Y-56055421D01*
X68695943Y-56063273D01*
X68673334Y-56068937D01*
X68650279Y-56072356D01*
X68627000Y-56073500D01*
X68152000Y-56073500D01*
X68128721Y-56072356D01*
X68105666Y-56068937D01*
X68083057Y-56063273D01*
X68061113Y-56055421D01*
X68040043Y-56045456D01*
X68020052Y-56033474D01*
X68001332Y-56019590D01*
X67984062Y-56003938D01*
X67968410Y-55986668D01*
X67954526Y-55967948D01*
X67942544Y-55947957D01*
X67932579Y-55926887D01*
X67924727Y-55904943D01*
X67919063Y-55882334D01*
X67915644Y-55859279D01*
X67914500Y-55836000D01*
X67914500Y-55261000D01*
X67915644Y-55237721D01*
X67919063Y-55214666D01*
X67924727Y-55192057D01*
X67932579Y-55170113D01*
X67942544Y-55149043D01*
X67954526Y-55129052D01*
X67968410Y-55110332D01*
X67984062Y-55093062D01*
X68001332Y-55077410D01*
X68020052Y-55063526D01*
X68040043Y-55051544D01*
X68061113Y-55041579D01*
X68083057Y-55033727D01*
X68105666Y-55028063D01*
X68128721Y-55024644D01*
X68152000Y-55023500D01*
X68627000Y-55023500D01*
X68650279Y-55024644D01*
X68650279Y-55024644D01*
G37*
D14*
X68389500Y-55548500D03*
D11*
G36*
X63974505Y-60386204D02*
G01*
X63998773Y-60389804D01*
X64022572Y-60395765D01*
X64045671Y-60404030D01*
X64067850Y-60414520D01*
X64088893Y-60427132D01*
X64108599Y-60441747D01*
X64126777Y-60458223D01*
X64143253Y-60476401D01*
X64157868Y-60496107D01*
X64170480Y-60517150D01*
X64180970Y-60539329D01*
X64189235Y-60562428D01*
X64195196Y-60586227D01*
X64198796Y-60610495D01*
X64200000Y-60634999D01*
X64200000Y-61285001D01*
X64198796Y-61309505D01*
X64195196Y-61333773D01*
X64189235Y-61357572D01*
X64180970Y-61380671D01*
X64170480Y-61402850D01*
X64157868Y-61423893D01*
X64143253Y-61443599D01*
X64126777Y-61461777D01*
X64108599Y-61478253D01*
X64088893Y-61492868D01*
X64067850Y-61505480D01*
X64045671Y-61515970D01*
X64022572Y-61524235D01*
X63998773Y-61530196D01*
X63974505Y-61533796D01*
X63950001Y-61535000D01*
X63049999Y-61535000D01*
X63025495Y-61533796D01*
X63001227Y-61530196D01*
X62977428Y-61524235D01*
X62954329Y-61515970D01*
X62932150Y-61505480D01*
X62911107Y-61492868D01*
X62891401Y-61478253D01*
X62873223Y-61461777D01*
X62856747Y-61443599D01*
X62842132Y-61423893D01*
X62829520Y-61402850D01*
X62819030Y-61380671D01*
X62810765Y-61357572D01*
X62804804Y-61333773D01*
X62801204Y-61309505D01*
X62800000Y-61285001D01*
X62800000Y-60634999D01*
X62801204Y-60610495D01*
X62804804Y-60586227D01*
X62810765Y-60562428D01*
X62819030Y-60539329D01*
X62829520Y-60517150D01*
X62842132Y-60496107D01*
X62856747Y-60476401D01*
X62873223Y-60458223D01*
X62891401Y-60441747D01*
X62911107Y-60427132D01*
X62932150Y-60414520D01*
X62954329Y-60404030D01*
X62977428Y-60395765D01*
X63001227Y-60389804D01*
X63025495Y-60386204D01*
X63049999Y-60385000D01*
X63950001Y-60385000D01*
X63974505Y-60386204D01*
X63974505Y-60386204D01*
G37*
D12*
X63500000Y-60960000D03*
D11*
G36*
X63974505Y-58336204D02*
G01*
X63998773Y-58339804D01*
X64022572Y-58345765D01*
X64045671Y-58354030D01*
X64067850Y-58364520D01*
X64088893Y-58377132D01*
X64108599Y-58391747D01*
X64126777Y-58408223D01*
X64143253Y-58426401D01*
X64157868Y-58446107D01*
X64170480Y-58467150D01*
X64180970Y-58489329D01*
X64189235Y-58512428D01*
X64195196Y-58536227D01*
X64198796Y-58560495D01*
X64200000Y-58584999D01*
X64200000Y-59235001D01*
X64198796Y-59259505D01*
X64195196Y-59283773D01*
X64189235Y-59307572D01*
X64180970Y-59330671D01*
X64170480Y-59352850D01*
X64157868Y-59373893D01*
X64143253Y-59393599D01*
X64126777Y-59411777D01*
X64108599Y-59428253D01*
X64088893Y-59442868D01*
X64067850Y-59455480D01*
X64045671Y-59465970D01*
X64022572Y-59474235D01*
X63998773Y-59480196D01*
X63974505Y-59483796D01*
X63950001Y-59485000D01*
X63049999Y-59485000D01*
X63025495Y-59483796D01*
X63001227Y-59480196D01*
X62977428Y-59474235D01*
X62954329Y-59465970D01*
X62932150Y-59455480D01*
X62911107Y-59442868D01*
X62891401Y-59428253D01*
X62873223Y-59411777D01*
X62856747Y-59393599D01*
X62842132Y-59373893D01*
X62829520Y-59352850D01*
X62819030Y-59330671D01*
X62810765Y-59307572D01*
X62804804Y-59283773D01*
X62801204Y-59259505D01*
X62800000Y-59235001D01*
X62800000Y-58584999D01*
X62801204Y-58560495D01*
X62804804Y-58536227D01*
X62810765Y-58512428D01*
X62819030Y-58489329D01*
X62829520Y-58467150D01*
X62842132Y-58446107D01*
X62856747Y-58426401D01*
X62873223Y-58408223D01*
X62891401Y-58391747D01*
X62911107Y-58377132D01*
X62932150Y-58364520D01*
X62954329Y-58354030D01*
X62977428Y-58345765D01*
X63001227Y-58339804D01*
X63025495Y-58336204D01*
X63049999Y-58335000D01*
X63950001Y-58335000D01*
X63974505Y-58336204D01*
X63974505Y-58336204D01*
G37*
D12*
X63500000Y-58910000D03*
D11*
G36*
X65899505Y-55181204D02*
G01*
X65923773Y-55184804D01*
X65947572Y-55190765D01*
X65970671Y-55199030D01*
X65992850Y-55209520D01*
X66013893Y-55222132D01*
X66033599Y-55236747D01*
X66051777Y-55253223D01*
X66068253Y-55271401D01*
X66082868Y-55291107D01*
X66095480Y-55312150D01*
X66105970Y-55334329D01*
X66114235Y-55357428D01*
X66120196Y-55381227D01*
X66123796Y-55405495D01*
X66125000Y-55429999D01*
X66125000Y-56330001D01*
X66123796Y-56354505D01*
X66120196Y-56378773D01*
X66114235Y-56402572D01*
X66105970Y-56425671D01*
X66095480Y-56447850D01*
X66082868Y-56468893D01*
X66068253Y-56488599D01*
X66051777Y-56506777D01*
X66033599Y-56523253D01*
X66013893Y-56537868D01*
X65992850Y-56550480D01*
X65970671Y-56560970D01*
X65947572Y-56569235D01*
X65923773Y-56575196D01*
X65899505Y-56578796D01*
X65875001Y-56580000D01*
X65224999Y-56580000D01*
X65200495Y-56578796D01*
X65176227Y-56575196D01*
X65152428Y-56569235D01*
X65129329Y-56560970D01*
X65107150Y-56550480D01*
X65086107Y-56537868D01*
X65066401Y-56523253D01*
X65048223Y-56506777D01*
X65031747Y-56488599D01*
X65017132Y-56468893D01*
X65004520Y-56447850D01*
X64994030Y-56425671D01*
X64985765Y-56402572D01*
X64979804Y-56378773D01*
X64976204Y-56354505D01*
X64975000Y-56330001D01*
X64975000Y-55429999D01*
X64976204Y-55405495D01*
X64979804Y-55381227D01*
X64985765Y-55357428D01*
X64994030Y-55334329D01*
X65004520Y-55312150D01*
X65017132Y-55291107D01*
X65031747Y-55271401D01*
X65048223Y-55253223D01*
X65066401Y-55236747D01*
X65086107Y-55222132D01*
X65107150Y-55209520D01*
X65129329Y-55199030D01*
X65152428Y-55190765D01*
X65176227Y-55184804D01*
X65200495Y-55181204D01*
X65224999Y-55180000D01*
X65875001Y-55180000D01*
X65899505Y-55181204D01*
X65899505Y-55181204D01*
G37*
D12*
X65550000Y-55880000D03*
D11*
G36*
X63849505Y-55181204D02*
G01*
X63873773Y-55184804D01*
X63897572Y-55190765D01*
X63920671Y-55199030D01*
X63942850Y-55209520D01*
X63963893Y-55222132D01*
X63983599Y-55236747D01*
X64001777Y-55253223D01*
X64018253Y-55271401D01*
X64032868Y-55291107D01*
X64045480Y-55312150D01*
X64055970Y-55334329D01*
X64064235Y-55357428D01*
X64070196Y-55381227D01*
X64073796Y-55405495D01*
X64075000Y-55429999D01*
X64075000Y-56330001D01*
X64073796Y-56354505D01*
X64070196Y-56378773D01*
X64064235Y-56402572D01*
X64055970Y-56425671D01*
X64045480Y-56447850D01*
X64032868Y-56468893D01*
X64018253Y-56488599D01*
X64001777Y-56506777D01*
X63983599Y-56523253D01*
X63963893Y-56537868D01*
X63942850Y-56550480D01*
X63920671Y-56560970D01*
X63897572Y-56569235D01*
X63873773Y-56575196D01*
X63849505Y-56578796D01*
X63825001Y-56580000D01*
X63174999Y-56580000D01*
X63150495Y-56578796D01*
X63126227Y-56575196D01*
X63102428Y-56569235D01*
X63079329Y-56560970D01*
X63057150Y-56550480D01*
X63036107Y-56537868D01*
X63016401Y-56523253D01*
X62998223Y-56506777D01*
X62981747Y-56488599D01*
X62967132Y-56468893D01*
X62954520Y-56447850D01*
X62944030Y-56425671D01*
X62935765Y-56402572D01*
X62929804Y-56378773D01*
X62926204Y-56354505D01*
X62925000Y-56330001D01*
X62925000Y-55429999D01*
X62926204Y-55405495D01*
X62929804Y-55381227D01*
X62935765Y-55357428D01*
X62944030Y-55334329D01*
X62954520Y-55312150D01*
X62967132Y-55291107D01*
X62981747Y-55271401D01*
X62998223Y-55253223D01*
X63016401Y-55236747D01*
X63036107Y-55222132D01*
X63057150Y-55209520D01*
X63079329Y-55199030D01*
X63102428Y-55190765D01*
X63126227Y-55184804D01*
X63150495Y-55181204D01*
X63174999Y-55180000D01*
X63825001Y-55180000D01*
X63849505Y-55181204D01*
X63849505Y-55181204D01*
G37*
D12*
X63500000Y-55880000D03*
D11*
G36*
X35870779Y-78266144D02*
G01*
X35893834Y-78269563D01*
X35916443Y-78275227D01*
X35938387Y-78283079D01*
X35959457Y-78293044D01*
X35979448Y-78305026D01*
X35998168Y-78318910D01*
X36015438Y-78334562D01*
X36031090Y-78351832D01*
X36044974Y-78370552D01*
X36056956Y-78390543D01*
X36066921Y-78411613D01*
X36074773Y-78433557D01*
X36080437Y-78456166D01*
X36083856Y-78479221D01*
X36085000Y-78502500D01*
X36085000Y-78977500D01*
X36083856Y-79000779D01*
X36080437Y-79023834D01*
X36074773Y-79046443D01*
X36066921Y-79068387D01*
X36056956Y-79089457D01*
X36044974Y-79109448D01*
X36031090Y-79128168D01*
X36015438Y-79145438D01*
X35998168Y-79161090D01*
X35979448Y-79174974D01*
X35959457Y-79186956D01*
X35938387Y-79196921D01*
X35916443Y-79204773D01*
X35893834Y-79210437D01*
X35870779Y-79213856D01*
X35847500Y-79215000D01*
X35272500Y-79215000D01*
X35249221Y-79213856D01*
X35226166Y-79210437D01*
X35203557Y-79204773D01*
X35181613Y-79196921D01*
X35160543Y-79186956D01*
X35140552Y-79174974D01*
X35121832Y-79161090D01*
X35104562Y-79145438D01*
X35088910Y-79128168D01*
X35075026Y-79109448D01*
X35063044Y-79089457D01*
X35053079Y-79068387D01*
X35045227Y-79046443D01*
X35039563Y-79023834D01*
X35036144Y-79000779D01*
X35035000Y-78977500D01*
X35035000Y-78502500D01*
X35036144Y-78479221D01*
X35039563Y-78456166D01*
X35045227Y-78433557D01*
X35053079Y-78411613D01*
X35063044Y-78390543D01*
X35075026Y-78370552D01*
X35088910Y-78351832D01*
X35104562Y-78334562D01*
X35121832Y-78318910D01*
X35140552Y-78305026D01*
X35160543Y-78293044D01*
X35181613Y-78283079D01*
X35203557Y-78275227D01*
X35226166Y-78269563D01*
X35249221Y-78266144D01*
X35272500Y-78265000D01*
X35847500Y-78265000D01*
X35870779Y-78266144D01*
X35870779Y-78266144D01*
G37*
D14*
X35560000Y-78740000D03*
D11*
G36*
X34120779Y-78266144D02*
G01*
X34143834Y-78269563D01*
X34166443Y-78275227D01*
X34188387Y-78283079D01*
X34209457Y-78293044D01*
X34229448Y-78305026D01*
X34248168Y-78318910D01*
X34265438Y-78334562D01*
X34281090Y-78351832D01*
X34294974Y-78370552D01*
X34306956Y-78390543D01*
X34316921Y-78411613D01*
X34324773Y-78433557D01*
X34330437Y-78456166D01*
X34333856Y-78479221D01*
X34335000Y-78502500D01*
X34335000Y-78977500D01*
X34333856Y-79000779D01*
X34330437Y-79023834D01*
X34324773Y-79046443D01*
X34316921Y-79068387D01*
X34306956Y-79089457D01*
X34294974Y-79109448D01*
X34281090Y-79128168D01*
X34265438Y-79145438D01*
X34248168Y-79161090D01*
X34229448Y-79174974D01*
X34209457Y-79186956D01*
X34188387Y-79196921D01*
X34166443Y-79204773D01*
X34143834Y-79210437D01*
X34120779Y-79213856D01*
X34097500Y-79215000D01*
X33522500Y-79215000D01*
X33499221Y-79213856D01*
X33476166Y-79210437D01*
X33453557Y-79204773D01*
X33431613Y-79196921D01*
X33410543Y-79186956D01*
X33390552Y-79174974D01*
X33371832Y-79161090D01*
X33354562Y-79145438D01*
X33338910Y-79128168D01*
X33325026Y-79109448D01*
X33313044Y-79089457D01*
X33303079Y-79068387D01*
X33295227Y-79046443D01*
X33289563Y-79023834D01*
X33286144Y-79000779D01*
X33285000Y-78977500D01*
X33285000Y-78502500D01*
X33286144Y-78479221D01*
X33289563Y-78456166D01*
X33295227Y-78433557D01*
X33303079Y-78411613D01*
X33313044Y-78390543D01*
X33325026Y-78370552D01*
X33338910Y-78351832D01*
X33354562Y-78334562D01*
X33371832Y-78318910D01*
X33390552Y-78305026D01*
X33410543Y-78293044D01*
X33431613Y-78283079D01*
X33453557Y-78275227D01*
X33476166Y-78269563D01*
X33499221Y-78266144D01*
X33522500Y-78265000D01*
X34097500Y-78265000D01*
X34120779Y-78266144D01*
X34120779Y-78266144D01*
G37*
D14*
X33810000Y-78740000D03*
D11*
G36*
X36054505Y-75501204D02*
G01*
X36078773Y-75504804D01*
X36102572Y-75510765D01*
X36125671Y-75519030D01*
X36147850Y-75529520D01*
X36168893Y-75542132D01*
X36188599Y-75556747D01*
X36206777Y-75573223D01*
X36223253Y-75591401D01*
X36237868Y-75611107D01*
X36250480Y-75632150D01*
X36260970Y-75654329D01*
X36269235Y-75677428D01*
X36275196Y-75701227D01*
X36278796Y-75725495D01*
X36280000Y-75749999D01*
X36280000Y-76650001D01*
X36278796Y-76674505D01*
X36275196Y-76698773D01*
X36269235Y-76722572D01*
X36260970Y-76745671D01*
X36250480Y-76767850D01*
X36237868Y-76788893D01*
X36223253Y-76808599D01*
X36206777Y-76826777D01*
X36188599Y-76843253D01*
X36168893Y-76857868D01*
X36147850Y-76870480D01*
X36125671Y-76880970D01*
X36102572Y-76889235D01*
X36078773Y-76895196D01*
X36054505Y-76898796D01*
X36030001Y-76900000D01*
X35379999Y-76900000D01*
X35355495Y-76898796D01*
X35331227Y-76895196D01*
X35307428Y-76889235D01*
X35284329Y-76880970D01*
X35262150Y-76870480D01*
X35241107Y-76857868D01*
X35221401Y-76843253D01*
X35203223Y-76826777D01*
X35186747Y-76808599D01*
X35172132Y-76788893D01*
X35159520Y-76767850D01*
X35149030Y-76745671D01*
X35140765Y-76722572D01*
X35134804Y-76698773D01*
X35131204Y-76674505D01*
X35130000Y-76650001D01*
X35130000Y-75749999D01*
X35131204Y-75725495D01*
X35134804Y-75701227D01*
X35140765Y-75677428D01*
X35149030Y-75654329D01*
X35159520Y-75632150D01*
X35172132Y-75611107D01*
X35186747Y-75591401D01*
X35203223Y-75573223D01*
X35221401Y-75556747D01*
X35241107Y-75542132D01*
X35262150Y-75529520D01*
X35284329Y-75519030D01*
X35307428Y-75510765D01*
X35331227Y-75504804D01*
X35355495Y-75501204D01*
X35379999Y-75500000D01*
X36030001Y-75500000D01*
X36054505Y-75501204D01*
X36054505Y-75501204D01*
G37*
D12*
X35705000Y-76200000D03*
D11*
G36*
X34004505Y-75501204D02*
G01*
X34028773Y-75504804D01*
X34052572Y-75510765D01*
X34075671Y-75519030D01*
X34097850Y-75529520D01*
X34118893Y-75542132D01*
X34138599Y-75556747D01*
X34156777Y-75573223D01*
X34173253Y-75591401D01*
X34187868Y-75611107D01*
X34200480Y-75632150D01*
X34210970Y-75654329D01*
X34219235Y-75677428D01*
X34225196Y-75701227D01*
X34228796Y-75725495D01*
X34230000Y-75749999D01*
X34230000Y-76650001D01*
X34228796Y-76674505D01*
X34225196Y-76698773D01*
X34219235Y-76722572D01*
X34210970Y-76745671D01*
X34200480Y-76767850D01*
X34187868Y-76788893D01*
X34173253Y-76808599D01*
X34156777Y-76826777D01*
X34138599Y-76843253D01*
X34118893Y-76857868D01*
X34097850Y-76870480D01*
X34075671Y-76880970D01*
X34052572Y-76889235D01*
X34028773Y-76895196D01*
X34004505Y-76898796D01*
X33980001Y-76900000D01*
X33329999Y-76900000D01*
X33305495Y-76898796D01*
X33281227Y-76895196D01*
X33257428Y-76889235D01*
X33234329Y-76880970D01*
X33212150Y-76870480D01*
X33191107Y-76857868D01*
X33171401Y-76843253D01*
X33153223Y-76826777D01*
X33136747Y-76808599D01*
X33122132Y-76788893D01*
X33109520Y-76767850D01*
X33099030Y-76745671D01*
X33090765Y-76722572D01*
X33084804Y-76698773D01*
X33081204Y-76674505D01*
X33080000Y-76650001D01*
X33080000Y-75749999D01*
X33081204Y-75725495D01*
X33084804Y-75701227D01*
X33090765Y-75677428D01*
X33099030Y-75654329D01*
X33109520Y-75632150D01*
X33122132Y-75611107D01*
X33136747Y-75591401D01*
X33153223Y-75573223D01*
X33171401Y-75556747D01*
X33191107Y-75542132D01*
X33212150Y-75529520D01*
X33234329Y-75519030D01*
X33257428Y-75510765D01*
X33281227Y-75504804D01*
X33305495Y-75501204D01*
X33329999Y-75500000D01*
X33980001Y-75500000D01*
X34004505Y-75501204D01*
X34004505Y-75501204D01*
G37*
D12*
X33655000Y-76200000D03*
D11*
G36*
X60164505Y-58336204D02*
G01*
X60188773Y-58339804D01*
X60212572Y-58345765D01*
X60235671Y-58354030D01*
X60257850Y-58364520D01*
X60278893Y-58377132D01*
X60298599Y-58391747D01*
X60316777Y-58408223D01*
X60333253Y-58426401D01*
X60347868Y-58446107D01*
X60360480Y-58467150D01*
X60370970Y-58489329D01*
X60379235Y-58512428D01*
X60385196Y-58536227D01*
X60388796Y-58560495D01*
X60390000Y-58584999D01*
X60390000Y-59235001D01*
X60388796Y-59259505D01*
X60385196Y-59283773D01*
X60379235Y-59307572D01*
X60370970Y-59330671D01*
X60360480Y-59352850D01*
X60347868Y-59373893D01*
X60333253Y-59393599D01*
X60316777Y-59411777D01*
X60298599Y-59428253D01*
X60278893Y-59442868D01*
X60257850Y-59455480D01*
X60235671Y-59465970D01*
X60212572Y-59474235D01*
X60188773Y-59480196D01*
X60164505Y-59483796D01*
X60140001Y-59485000D01*
X59239999Y-59485000D01*
X59215495Y-59483796D01*
X59191227Y-59480196D01*
X59167428Y-59474235D01*
X59144329Y-59465970D01*
X59122150Y-59455480D01*
X59101107Y-59442868D01*
X59081401Y-59428253D01*
X59063223Y-59411777D01*
X59046747Y-59393599D01*
X59032132Y-59373893D01*
X59019520Y-59352850D01*
X59009030Y-59330671D01*
X59000765Y-59307572D01*
X58994804Y-59283773D01*
X58991204Y-59259505D01*
X58990000Y-59235001D01*
X58990000Y-58584999D01*
X58991204Y-58560495D01*
X58994804Y-58536227D01*
X59000765Y-58512428D01*
X59009030Y-58489329D01*
X59019520Y-58467150D01*
X59032132Y-58446107D01*
X59046747Y-58426401D01*
X59063223Y-58408223D01*
X59081401Y-58391747D01*
X59101107Y-58377132D01*
X59122150Y-58364520D01*
X59144329Y-58354030D01*
X59167428Y-58345765D01*
X59191227Y-58339804D01*
X59215495Y-58336204D01*
X59239999Y-58335000D01*
X60140001Y-58335000D01*
X60164505Y-58336204D01*
X60164505Y-58336204D01*
G37*
D12*
X59690000Y-58910000D03*
D11*
G36*
X60164505Y-60386204D02*
G01*
X60188773Y-60389804D01*
X60212572Y-60395765D01*
X60235671Y-60404030D01*
X60257850Y-60414520D01*
X60278893Y-60427132D01*
X60298599Y-60441747D01*
X60316777Y-60458223D01*
X60333253Y-60476401D01*
X60347868Y-60496107D01*
X60360480Y-60517150D01*
X60370970Y-60539329D01*
X60379235Y-60562428D01*
X60385196Y-60586227D01*
X60388796Y-60610495D01*
X60390000Y-60634999D01*
X60390000Y-61285001D01*
X60388796Y-61309505D01*
X60385196Y-61333773D01*
X60379235Y-61357572D01*
X60370970Y-61380671D01*
X60360480Y-61402850D01*
X60347868Y-61423893D01*
X60333253Y-61443599D01*
X60316777Y-61461777D01*
X60298599Y-61478253D01*
X60278893Y-61492868D01*
X60257850Y-61505480D01*
X60235671Y-61515970D01*
X60212572Y-61524235D01*
X60188773Y-61530196D01*
X60164505Y-61533796D01*
X60140001Y-61535000D01*
X59239999Y-61535000D01*
X59215495Y-61533796D01*
X59191227Y-61530196D01*
X59167428Y-61524235D01*
X59144329Y-61515970D01*
X59122150Y-61505480D01*
X59101107Y-61492868D01*
X59081401Y-61478253D01*
X59063223Y-61461777D01*
X59046747Y-61443599D01*
X59032132Y-61423893D01*
X59019520Y-61402850D01*
X59009030Y-61380671D01*
X59000765Y-61357572D01*
X58994804Y-61333773D01*
X58991204Y-61309505D01*
X58990000Y-61285001D01*
X58990000Y-60634999D01*
X58991204Y-60610495D01*
X58994804Y-60586227D01*
X59000765Y-60562428D01*
X59009030Y-60539329D01*
X59019520Y-60517150D01*
X59032132Y-60496107D01*
X59046747Y-60476401D01*
X59063223Y-60458223D01*
X59081401Y-60441747D01*
X59101107Y-60427132D01*
X59122150Y-60414520D01*
X59144329Y-60404030D01*
X59167428Y-60395765D01*
X59191227Y-60389804D01*
X59215495Y-60386204D01*
X59239999Y-60385000D01*
X60140001Y-60385000D01*
X60164505Y-60386204D01*
X60164505Y-60386204D01*
G37*
D12*
X59690000Y-60960000D03*
D11*
G36*
X38257005Y-95674204D02*
G01*
X38281273Y-95677804D01*
X38305072Y-95683765D01*
X38328171Y-95692030D01*
X38350350Y-95702520D01*
X38371393Y-95715132D01*
X38391099Y-95729747D01*
X38409277Y-95746223D01*
X38425753Y-95764401D01*
X38440368Y-95784107D01*
X38452980Y-95805150D01*
X38463470Y-95827329D01*
X38471735Y-95850428D01*
X38477696Y-95874227D01*
X38481296Y-95898495D01*
X38482500Y-95922999D01*
X38482500Y-96573001D01*
X38481296Y-96597505D01*
X38477696Y-96621773D01*
X38471735Y-96645572D01*
X38463470Y-96668671D01*
X38452980Y-96690850D01*
X38440368Y-96711893D01*
X38425753Y-96731599D01*
X38409277Y-96749777D01*
X38391099Y-96766253D01*
X38371393Y-96780868D01*
X38350350Y-96793480D01*
X38328171Y-96803970D01*
X38305072Y-96812235D01*
X38281273Y-96818196D01*
X38257005Y-96821796D01*
X38232501Y-96823000D01*
X37332499Y-96823000D01*
X37307995Y-96821796D01*
X37283727Y-96818196D01*
X37259928Y-96812235D01*
X37236829Y-96803970D01*
X37214650Y-96793480D01*
X37193607Y-96780868D01*
X37173901Y-96766253D01*
X37155723Y-96749777D01*
X37139247Y-96731599D01*
X37124632Y-96711893D01*
X37112020Y-96690850D01*
X37101530Y-96668671D01*
X37093265Y-96645572D01*
X37087304Y-96621773D01*
X37083704Y-96597505D01*
X37082500Y-96573001D01*
X37082500Y-95922999D01*
X37083704Y-95898495D01*
X37087304Y-95874227D01*
X37093265Y-95850428D01*
X37101530Y-95827329D01*
X37112020Y-95805150D01*
X37124632Y-95784107D01*
X37139247Y-95764401D01*
X37155723Y-95746223D01*
X37173901Y-95729747D01*
X37193607Y-95715132D01*
X37214650Y-95702520D01*
X37236829Y-95692030D01*
X37259928Y-95683765D01*
X37283727Y-95677804D01*
X37307995Y-95674204D01*
X37332499Y-95673000D01*
X38232501Y-95673000D01*
X38257005Y-95674204D01*
X38257005Y-95674204D01*
G37*
D12*
X37782500Y-96248000D03*
D11*
G36*
X38257005Y-97724204D02*
G01*
X38281273Y-97727804D01*
X38305072Y-97733765D01*
X38328171Y-97742030D01*
X38350350Y-97752520D01*
X38371393Y-97765132D01*
X38391099Y-97779747D01*
X38409277Y-97796223D01*
X38425753Y-97814401D01*
X38440368Y-97834107D01*
X38452980Y-97855150D01*
X38463470Y-97877329D01*
X38471735Y-97900428D01*
X38477696Y-97924227D01*
X38481296Y-97948495D01*
X38482500Y-97972999D01*
X38482500Y-98623001D01*
X38481296Y-98647505D01*
X38477696Y-98671773D01*
X38471735Y-98695572D01*
X38463470Y-98718671D01*
X38452980Y-98740850D01*
X38440368Y-98761893D01*
X38425753Y-98781599D01*
X38409277Y-98799777D01*
X38391099Y-98816253D01*
X38371393Y-98830868D01*
X38350350Y-98843480D01*
X38328171Y-98853970D01*
X38305072Y-98862235D01*
X38281273Y-98868196D01*
X38257005Y-98871796D01*
X38232501Y-98873000D01*
X37332499Y-98873000D01*
X37307995Y-98871796D01*
X37283727Y-98868196D01*
X37259928Y-98862235D01*
X37236829Y-98853970D01*
X37214650Y-98843480D01*
X37193607Y-98830868D01*
X37173901Y-98816253D01*
X37155723Y-98799777D01*
X37139247Y-98781599D01*
X37124632Y-98761893D01*
X37112020Y-98740850D01*
X37101530Y-98718671D01*
X37093265Y-98695572D01*
X37087304Y-98671773D01*
X37083704Y-98647505D01*
X37082500Y-98623001D01*
X37082500Y-97972999D01*
X37083704Y-97948495D01*
X37087304Y-97924227D01*
X37093265Y-97900428D01*
X37101530Y-97877329D01*
X37112020Y-97855150D01*
X37124632Y-97834107D01*
X37139247Y-97814401D01*
X37155723Y-97796223D01*
X37173901Y-97779747D01*
X37193607Y-97765132D01*
X37214650Y-97752520D01*
X37236829Y-97742030D01*
X37259928Y-97733765D01*
X37283727Y-97727804D01*
X37307995Y-97724204D01*
X37332499Y-97723000D01*
X38232501Y-97723000D01*
X38257005Y-97724204D01*
X38257005Y-97724204D01*
G37*
D12*
X37782500Y-98298000D03*
D11*
G36*
X38193505Y-100182704D02*
G01*
X38217773Y-100186304D01*
X38241572Y-100192265D01*
X38264671Y-100200530D01*
X38286850Y-100211020D01*
X38307893Y-100223632D01*
X38327599Y-100238247D01*
X38345777Y-100254723D01*
X38362253Y-100272901D01*
X38376868Y-100292607D01*
X38389480Y-100313650D01*
X38399970Y-100335829D01*
X38408235Y-100358928D01*
X38414196Y-100382727D01*
X38417796Y-100406995D01*
X38419000Y-100431499D01*
X38419000Y-101081501D01*
X38417796Y-101106005D01*
X38414196Y-101130273D01*
X38408235Y-101154072D01*
X38399970Y-101177171D01*
X38389480Y-101199350D01*
X38376868Y-101220393D01*
X38362253Y-101240099D01*
X38345777Y-101258277D01*
X38327599Y-101274753D01*
X38307893Y-101289368D01*
X38286850Y-101301980D01*
X38264671Y-101312470D01*
X38241572Y-101320735D01*
X38217773Y-101326696D01*
X38193505Y-101330296D01*
X38169001Y-101331500D01*
X37268999Y-101331500D01*
X37244495Y-101330296D01*
X37220227Y-101326696D01*
X37196428Y-101320735D01*
X37173329Y-101312470D01*
X37151150Y-101301980D01*
X37130107Y-101289368D01*
X37110401Y-101274753D01*
X37092223Y-101258277D01*
X37075747Y-101240099D01*
X37061132Y-101220393D01*
X37048520Y-101199350D01*
X37038030Y-101177171D01*
X37029765Y-101154072D01*
X37023804Y-101130273D01*
X37020204Y-101106005D01*
X37019000Y-101081501D01*
X37019000Y-100431499D01*
X37020204Y-100406995D01*
X37023804Y-100382727D01*
X37029765Y-100358928D01*
X37038030Y-100335829D01*
X37048520Y-100313650D01*
X37061132Y-100292607D01*
X37075747Y-100272901D01*
X37092223Y-100254723D01*
X37110401Y-100238247D01*
X37130107Y-100223632D01*
X37151150Y-100211020D01*
X37173329Y-100200530D01*
X37196428Y-100192265D01*
X37220227Y-100186304D01*
X37244495Y-100182704D01*
X37268999Y-100181500D01*
X38169001Y-100181500D01*
X38193505Y-100182704D01*
X38193505Y-100182704D01*
G37*
D12*
X37719000Y-100756500D03*
D11*
G36*
X38193505Y-102232704D02*
G01*
X38217773Y-102236304D01*
X38241572Y-102242265D01*
X38264671Y-102250530D01*
X38286850Y-102261020D01*
X38307893Y-102273632D01*
X38327599Y-102288247D01*
X38345777Y-102304723D01*
X38362253Y-102322901D01*
X38376868Y-102342607D01*
X38389480Y-102363650D01*
X38399970Y-102385829D01*
X38408235Y-102408928D01*
X38414196Y-102432727D01*
X38417796Y-102456995D01*
X38419000Y-102481499D01*
X38419000Y-103131501D01*
X38417796Y-103156005D01*
X38414196Y-103180273D01*
X38408235Y-103204072D01*
X38399970Y-103227171D01*
X38389480Y-103249350D01*
X38376868Y-103270393D01*
X38362253Y-103290099D01*
X38345777Y-103308277D01*
X38327599Y-103324753D01*
X38307893Y-103339368D01*
X38286850Y-103351980D01*
X38264671Y-103362470D01*
X38241572Y-103370735D01*
X38217773Y-103376696D01*
X38193505Y-103380296D01*
X38169001Y-103381500D01*
X37268999Y-103381500D01*
X37244495Y-103380296D01*
X37220227Y-103376696D01*
X37196428Y-103370735D01*
X37173329Y-103362470D01*
X37151150Y-103351980D01*
X37130107Y-103339368D01*
X37110401Y-103324753D01*
X37092223Y-103308277D01*
X37075747Y-103290099D01*
X37061132Y-103270393D01*
X37048520Y-103249350D01*
X37038030Y-103227171D01*
X37029765Y-103204072D01*
X37023804Y-103180273D01*
X37020204Y-103156005D01*
X37019000Y-103131501D01*
X37019000Y-102481499D01*
X37020204Y-102456995D01*
X37023804Y-102432727D01*
X37029765Y-102408928D01*
X37038030Y-102385829D01*
X37048520Y-102363650D01*
X37061132Y-102342607D01*
X37075747Y-102322901D01*
X37092223Y-102304723D01*
X37110401Y-102288247D01*
X37130107Y-102273632D01*
X37151150Y-102261020D01*
X37173329Y-102250530D01*
X37196428Y-102242265D01*
X37220227Y-102236304D01*
X37244495Y-102232704D01*
X37268999Y-102231500D01*
X38169001Y-102231500D01*
X38193505Y-102232704D01*
X38193505Y-102232704D01*
G37*
D12*
X37719000Y-102806500D03*
D11*
G36*
X55084505Y-58336204D02*
G01*
X55108773Y-58339804D01*
X55132572Y-58345765D01*
X55155671Y-58354030D01*
X55177850Y-58364520D01*
X55198893Y-58377132D01*
X55218599Y-58391747D01*
X55236777Y-58408223D01*
X55253253Y-58426401D01*
X55267868Y-58446107D01*
X55280480Y-58467150D01*
X55290970Y-58489329D01*
X55299235Y-58512428D01*
X55305196Y-58536227D01*
X55308796Y-58560495D01*
X55310000Y-58584999D01*
X55310000Y-59235001D01*
X55308796Y-59259505D01*
X55305196Y-59283773D01*
X55299235Y-59307572D01*
X55290970Y-59330671D01*
X55280480Y-59352850D01*
X55267868Y-59373893D01*
X55253253Y-59393599D01*
X55236777Y-59411777D01*
X55218599Y-59428253D01*
X55198893Y-59442868D01*
X55177850Y-59455480D01*
X55155671Y-59465970D01*
X55132572Y-59474235D01*
X55108773Y-59480196D01*
X55084505Y-59483796D01*
X55060001Y-59485000D01*
X54159999Y-59485000D01*
X54135495Y-59483796D01*
X54111227Y-59480196D01*
X54087428Y-59474235D01*
X54064329Y-59465970D01*
X54042150Y-59455480D01*
X54021107Y-59442868D01*
X54001401Y-59428253D01*
X53983223Y-59411777D01*
X53966747Y-59393599D01*
X53952132Y-59373893D01*
X53939520Y-59352850D01*
X53929030Y-59330671D01*
X53920765Y-59307572D01*
X53914804Y-59283773D01*
X53911204Y-59259505D01*
X53910000Y-59235001D01*
X53910000Y-58584999D01*
X53911204Y-58560495D01*
X53914804Y-58536227D01*
X53920765Y-58512428D01*
X53929030Y-58489329D01*
X53939520Y-58467150D01*
X53952132Y-58446107D01*
X53966747Y-58426401D01*
X53983223Y-58408223D01*
X54001401Y-58391747D01*
X54021107Y-58377132D01*
X54042150Y-58364520D01*
X54064329Y-58354030D01*
X54087428Y-58345765D01*
X54111227Y-58339804D01*
X54135495Y-58336204D01*
X54159999Y-58335000D01*
X55060001Y-58335000D01*
X55084505Y-58336204D01*
X55084505Y-58336204D01*
G37*
D12*
X54610000Y-58910000D03*
D11*
G36*
X55084505Y-60386204D02*
G01*
X55108773Y-60389804D01*
X55132572Y-60395765D01*
X55155671Y-60404030D01*
X55177850Y-60414520D01*
X55198893Y-60427132D01*
X55218599Y-60441747D01*
X55236777Y-60458223D01*
X55253253Y-60476401D01*
X55267868Y-60496107D01*
X55280480Y-60517150D01*
X55290970Y-60539329D01*
X55299235Y-60562428D01*
X55305196Y-60586227D01*
X55308796Y-60610495D01*
X55310000Y-60634999D01*
X55310000Y-61285001D01*
X55308796Y-61309505D01*
X55305196Y-61333773D01*
X55299235Y-61357572D01*
X55290970Y-61380671D01*
X55280480Y-61402850D01*
X55267868Y-61423893D01*
X55253253Y-61443599D01*
X55236777Y-61461777D01*
X55218599Y-61478253D01*
X55198893Y-61492868D01*
X55177850Y-61505480D01*
X55155671Y-61515970D01*
X55132572Y-61524235D01*
X55108773Y-61530196D01*
X55084505Y-61533796D01*
X55060001Y-61535000D01*
X54159999Y-61535000D01*
X54135495Y-61533796D01*
X54111227Y-61530196D01*
X54087428Y-61524235D01*
X54064329Y-61515970D01*
X54042150Y-61505480D01*
X54021107Y-61492868D01*
X54001401Y-61478253D01*
X53983223Y-61461777D01*
X53966747Y-61443599D01*
X53952132Y-61423893D01*
X53939520Y-61402850D01*
X53929030Y-61380671D01*
X53920765Y-61357572D01*
X53914804Y-61333773D01*
X53911204Y-61309505D01*
X53910000Y-61285001D01*
X53910000Y-60634999D01*
X53911204Y-60610495D01*
X53914804Y-60586227D01*
X53920765Y-60562428D01*
X53929030Y-60539329D01*
X53939520Y-60517150D01*
X53952132Y-60496107D01*
X53966747Y-60476401D01*
X53983223Y-60458223D01*
X54001401Y-60441747D01*
X54021107Y-60427132D01*
X54042150Y-60414520D01*
X54064329Y-60404030D01*
X54087428Y-60395765D01*
X54111227Y-60389804D01*
X54135495Y-60386204D01*
X54159999Y-60385000D01*
X55060001Y-60385000D01*
X55084505Y-60386204D01*
X55084505Y-60386204D01*
G37*
D12*
X54610000Y-60960000D03*
D11*
G36*
X41686005Y-95674204D02*
G01*
X41710273Y-95677804D01*
X41734072Y-95683765D01*
X41757171Y-95692030D01*
X41779350Y-95702520D01*
X41800393Y-95715132D01*
X41820099Y-95729747D01*
X41838277Y-95746223D01*
X41854753Y-95764401D01*
X41869368Y-95784107D01*
X41881980Y-95805150D01*
X41892470Y-95827329D01*
X41900735Y-95850428D01*
X41906696Y-95874227D01*
X41910296Y-95898495D01*
X41911500Y-95922999D01*
X41911500Y-96573001D01*
X41910296Y-96597505D01*
X41906696Y-96621773D01*
X41900735Y-96645572D01*
X41892470Y-96668671D01*
X41881980Y-96690850D01*
X41869368Y-96711893D01*
X41854753Y-96731599D01*
X41838277Y-96749777D01*
X41820099Y-96766253D01*
X41800393Y-96780868D01*
X41779350Y-96793480D01*
X41757171Y-96803970D01*
X41734072Y-96812235D01*
X41710273Y-96818196D01*
X41686005Y-96821796D01*
X41661501Y-96823000D01*
X40761499Y-96823000D01*
X40736995Y-96821796D01*
X40712727Y-96818196D01*
X40688928Y-96812235D01*
X40665829Y-96803970D01*
X40643650Y-96793480D01*
X40622607Y-96780868D01*
X40602901Y-96766253D01*
X40584723Y-96749777D01*
X40568247Y-96731599D01*
X40553632Y-96711893D01*
X40541020Y-96690850D01*
X40530530Y-96668671D01*
X40522265Y-96645572D01*
X40516304Y-96621773D01*
X40512704Y-96597505D01*
X40511500Y-96573001D01*
X40511500Y-95922999D01*
X40512704Y-95898495D01*
X40516304Y-95874227D01*
X40522265Y-95850428D01*
X40530530Y-95827329D01*
X40541020Y-95805150D01*
X40553632Y-95784107D01*
X40568247Y-95764401D01*
X40584723Y-95746223D01*
X40602901Y-95729747D01*
X40622607Y-95715132D01*
X40643650Y-95702520D01*
X40665829Y-95692030D01*
X40688928Y-95683765D01*
X40712727Y-95677804D01*
X40736995Y-95674204D01*
X40761499Y-95673000D01*
X41661501Y-95673000D01*
X41686005Y-95674204D01*
X41686005Y-95674204D01*
G37*
D12*
X41211500Y-96248000D03*
D11*
G36*
X41686005Y-97724204D02*
G01*
X41710273Y-97727804D01*
X41734072Y-97733765D01*
X41757171Y-97742030D01*
X41779350Y-97752520D01*
X41800393Y-97765132D01*
X41820099Y-97779747D01*
X41838277Y-97796223D01*
X41854753Y-97814401D01*
X41869368Y-97834107D01*
X41881980Y-97855150D01*
X41892470Y-97877329D01*
X41900735Y-97900428D01*
X41906696Y-97924227D01*
X41910296Y-97948495D01*
X41911500Y-97972999D01*
X41911500Y-98623001D01*
X41910296Y-98647505D01*
X41906696Y-98671773D01*
X41900735Y-98695572D01*
X41892470Y-98718671D01*
X41881980Y-98740850D01*
X41869368Y-98761893D01*
X41854753Y-98781599D01*
X41838277Y-98799777D01*
X41820099Y-98816253D01*
X41800393Y-98830868D01*
X41779350Y-98843480D01*
X41757171Y-98853970D01*
X41734072Y-98862235D01*
X41710273Y-98868196D01*
X41686005Y-98871796D01*
X41661501Y-98873000D01*
X40761499Y-98873000D01*
X40736995Y-98871796D01*
X40712727Y-98868196D01*
X40688928Y-98862235D01*
X40665829Y-98853970D01*
X40643650Y-98843480D01*
X40622607Y-98830868D01*
X40602901Y-98816253D01*
X40584723Y-98799777D01*
X40568247Y-98781599D01*
X40553632Y-98761893D01*
X40541020Y-98740850D01*
X40530530Y-98718671D01*
X40522265Y-98695572D01*
X40516304Y-98671773D01*
X40512704Y-98647505D01*
X40511500Y-98623001D01*
X40511500Y-97972999D01*
X40512704Y-97948495D01*
X40516304Y-97924227D01*
X40522265Y-97900428D01*
X40530530Y-97877329D01*
X40541020Y-97855150D01*
X40553632Y-97834107D01*
X40568247Y-97814401D01*
X40584723Y-97796223D01*
X40602901Y-97779747D01*
X40622607Y-97765132D01*
X40643650Y-97752520D01*
X40665829Y-97742030D01*
X40688928Y-97733765D01*
X40712727Y-97727804D01*
X40736995Y-97724204D01*
X40761499Y-97723000D01*
X41661501Y-97723000D01*
X41686005Y-97724204D01*
X41686005Y-97724204D01*
G37*
D12*
X41211500Y-98298000D03*
M02*
