G04 #@! TF.GenerationSoftware,KiCad,Pcbnew,(5.1.0-0)*
G04 #@! TF.CreationDate,2019-05-08T18:24:01-07:00*
G04 #@! TF.ProjectId,power board,706f7765-7220-4626-9f61-72642e6b6963,rev?*
G04 #@! TF.SameCoordinates,Original*
G04 #@! TF.FileFunction,Copper,L1,Top*
G04 #@! TF.FilePolarity,Positive*
%FSLAX46Y46*%
G04 Gerber Fmt 4.6, Leading zero omitted, Abs format (unit mm)*
G04 Created by KiCad (PCBNEW (5.1.0-0)) date 2019-05-08 18:24:01*
%MOMM*%
%LPD*%
G04 APERTURE LIST*
%ADD10R,16.000000X10.000000*%
%ADD11C,3.000000*%
%ADD12C,1.900000*%
%ADD13R,1.900000X1.900000*%
%ADD14C,0.100000*%
%ADD15C,1.150000*%
%ADD16O,3.500000X2.000000*%
%ADD17O,2.000000X3.300000*%
%ADD18R,2.000000X4.000000*%
%ADD19C,0.800000*%
%ADD20C,6.400000*%
%ADD21C,2.000000*%
%ADD22R,2.000000X2.000000*%
%ADD23R,5.500000X1.430000*%
%ADD24C,6.500000*%
%ADD25C,0.950000*%
%ADD26O,3.000000X2.000000*%
%ADD27R,3.000000X2.000000*%
%ADD28C,4.000000*%
%ADD29R,3.800000X3.800000*%
%ADD30C,4.000000*%
%ADD31C,2.000000*%
%ADD32C,1.000000*%
%ADD33C,0.254000*%
G04 APERTURE END LIST*
D10*
X72580500Y-94170500D03*
D11*
X59309000Y-91744800D03*
X59309000Y-96774000D03*
D10*
X72707500Y-106616500D03*
D11*
X59436000Y-104190800D03*
X59436000Y-109220000D03*
D12*
X48387000Y-105219500D03*
X45887000Y-105219500D03*
D13*
X43387000Y-105219500D03*
D14*
G36*
X48101505Y-77596704D02*
G01*
X48125773Y-77600304D01*
X48149572Y-77606265D01*
X48172671Y-77614530D01*
X48194850Y-77625020D01*
X48215893Y-77637632D01*
X48235599Y-77652247D01*
X48253777Y-77668723D01*
X48270253Y-77686901D01*
X48284868Y-77706607D01*
X48297480Y-77727650D01*
X48307970Y-77749829D01*
X48316235Y-77772928D01*
X48322196Y-77796727D01*
X48325796Y-77820995D01*
X48327000Y-77845499D01*
X48327000Y-78745501D01*
X48325796Y-78770005D01*
X48322196Y-78794273D01*
X48316235Y-78818072D01*
X48307970Y-78841171D01*
X48297480Y-78863350D01*
X48284868Y-78884393D01*
X48270253Y-78904099D01*
X48253777Y-78922277D01*
X48235599Y-78938753D01*
X48215893Y-78953368D01*
X48194850Y-78965980D01*
X48172671Y-78976470D01*
X48149572Y-78984735D01*
X48125773Y-78990696D01*
X48101505Y-78994296D01*
X48077001Y-78995500D01*
X47426999Y-78995500D01*
X47402495Y-78994296D01*
X47378227Y-78990696D01*
X47354428Y-78984735D01*
X47331329Y-78976470D01*
X47309150Y-78965980D01*
X47288107Y-78953368D01*
X47268401Y-78938753D01*
X47250223Y-78922277D01*
X47233747Y-78904099D01*
X47219132Y-78884393D01*
X47206520Y-78863350D01*
X47196030Y-78841171D01*
X47187765Y-78818072D01*
X47181804Y-78794273D01*
X47178204Y-78770005D01*
X47177000Y-78745501D01*
X47177000Y-77845499D01*
X47178204Y-77820995D01*
X47181804Y-77796727D01*
X47187765Y-77772928D01*
X47196030Y-77749829D01*
X47206520Y-77727650D01*
X47219132Y-77706607D01*
X47233747Y-77686901D01*
X47250223Y-77668723D01*
X47268401Y-77652247D01*
X47288107Y-77637632D01*
X47309150Y-77625020D01*
X47331329Y-77614530D01*
X47354428Y-77606265D01*
X47378227Y-77600304D01*
X47402495Y-77596704D01*
X47426999Y-77595500D01*
X48077001Y-77595500D01*
X48101505Y-77596704D01*
X48101505Y-77596704D01*
G37*
D15*
X47752000Y-78295500D03*
D14*
G36*
X46051505Y-77596704D02*
G01*
X46075773Y-77600304D01*
X46099572Y-77606265D01*
X46122671Y-77614530D01*
X46144850Y-77625020D01*
X46165893Y-77637632D01*
X46185599Y-77652247D01*
X46203777Y-77668723D01*
X46220253Y-77686901D01*
X46234868Y-77706607D01*
X46247480Y-77727650D01*
X46257970Y-77749829D01*
X46266235Y-77772928D01*
X46272196Y-77796727D01*
X46275796Y-77820995D01*
X46277000Y-77845499D01*
X46277000Y-78745501D01*
X46275796Y-78770005D01*
X46272196Y-78794273D01*
X46266235Y-78818072D01*
X46257970Y-78841171D01*
X46247480Y-78863350D01*
X46234868Y-78884393D01*
X46220253Y-78904099D01*
X46203777Y-78922277D01*
X46185599Y-78938753D01*
X46165893Y-78953368D01*
X46144850Y-78965980D01*
X46122671Y-78976470D01*
X46099572Y-78984735D01*
X46075773Y-78990696D01*
X46051505Y-78994296D01*
X46027001Y-78995500D01*
X45376999Y-78995500D01*
X45352495Y-78994296D01*
X45328227Y-78990696D01*
X45304428Y-78984735D01*
X45281329Y-78976470D01*
X45259150Y-78965980D01*
X45238107Y-78953368D01*
X45218401Y-78938753D01*
X45200223Y-78922277D01*
X45183747Y-78904099D01*
X45169132Y-78884393D01*
X45156520Y-78863350D01*
X45146030Y-78841171D01*
X45137765Y-78818072D01*
X45131804Y-78794273D01*
X45128204Y-78770005D01*
X45127000Y-78745501D01*
X45127000Y-77845499D01*
X45128204Y-77820995D01*
X45131804Y-77796727D01*
X45137765Y-77772928D01*
X45146030Y-77749829D01*
X45156520Y-77727650D01*
X45169132Y-77706607D01*
X45183747Y-77686901D01*
X45200223Y-77668723D01*
X45218401Y-77652247D01*
X45238107Y-77637632D01*
X45259150Y-77625020D01*
X45281329Y-77614530D01*
X45304428Y-77606265D01*
X45328227Y-77600304D01*
X45352495Y-77596704D01*
X45376999Y-77595500D01*
X46027001Y-77595500D01*
X46051505Y-77596704D01*
X46051505Y-77596704D01*
G37*
D15*
X45702000Y-78295500D03*
D16*
X78851000Y-46046000D03*
X78851000Y-55046000D03*
D17*
X77851000Y-50546000D03*
D18*
X71851000Y-50546000D03*
D19*
X81135556Y-36466444D03*
X79438500Y-35763500D03*
X77741444Y-36466444D03*
X77038500Y-38163500D03*
X77741444Y-39860556D03*
X79438500Y-40563500D03*
X81135556Y-39860556D03*
X81838500Y-38163500D03*
D20*
X79438500Y-38163500D03*
D19*
X27668556Y-116920944D03*
X25971500Y-116218000D03*
X24274444Y-116920944D03*
X23571500Y-118618000D03*
X24274444Y-120315056D03*
X25971500Y-121018000D03*
X27668556Y-120315056D03*
X28371500Y-118618000D03*
D20*
X25971500Y-118618000D03*
D19*
X28049556Y-36339444D03*
X26352500Y-35636500D03*
X24655444Y-36339444D03*
X23952500Y-38036500D03*
X24655444Y-39733556D03*
X26352500Y-40436500D03*
X28049556Y-39733556D03*
X28752500Y-38036500D03*
D20*
X26352500Y-38036500D03*
D19*
X80881556Y-116666944D03*
X79184500Y-115964000D03*
X77487444Y-116666944D03*
X76784500Y-118364000D03*
X77487444Y-120061056D03*
X79184500Y-120764000D03*
X80881556Y-120061056D03*
X81584500Y-118364000D03*
D20*
X79184500Y-118364000D03*
D14*
G36*
X77329505Y-57657704D02*
G01*
X77353773Y-57661304D01*
X77377572Y-57667265D01*
X77400671Y-57675530D01*
X77422850Y-57686020D01*
X77443893Y-57698632D01*
X77463599Y-57713247D01*
X77481777Y-57729723D01*
X77498253Y-57747901D01*
X77512868Y-57767607D01*
X77525480Y-57788650D01*
X77535970Y-57810829D01*
X77544235Y-57833928D01*
X77550196Y-57857727D01*
X77553796Y-57881995D01*
X77555000Y-57906499D01*
X77555000Y-58806501D01*
X77553796Y-58831005D01*
X77550196Y-58855273D01*
X77544235Y-58879072D01*
X77535970Y-58902171D01*
X77525480Y-58924350D01*
X77512868Y-58945393D01*
X77498253Y-58965099D01*
X77481777Y-58983277D01*
X77463599Y-58999753D01*
X77443893Y-59014368D01*
X77422850Y-59026980D01*
X77400671Y-59037470D01*
X77377572Y-59045735D01*
X77353773Y-59051696D01*
X77329505Y-59055296D01*
X77305001Y-59056500D01*
X76654999Y-59056500D01*
X76630495Y-59055296D01*
X76606227Y-59051696D01*
X76582428Y-59045735D01*
X76559329Y-59037470D01*
X76537150Y-59026980D01*
X76516107Y-59014368D01*
X76496401Y-58999753D01*
X76478223Y-58983277D01*
X76461747Y-58965099D01*
X76447132Y-58945393D01*
X76434520Y-58924350D01*
X76424030Y-58902171D01*
X76415765Y-58879072D01*
X76409804Y-58855273D01*
X76406204Y-58831005D01*
X76405000Y-58806501D01*
X76405000Y-57906499D01*
X76406204Y-57881995D01*
X76409804Y-57857727D01*
X76415765Y-57833928D01*
X76424030Y-57810829D01*
X76434520Y-57788650D01*
X76447132Y-57767607D01*
X76461747Y-57747901D01*
X76478223Y-57729723D01*
X76496401Y-57713247D01*
X76516107Y-57698632D01*
X76537150Y-57686020D01*
X76559329Y-57675530D01*
X76582428Y-57667265D01*
X76606227Y-57661304D01*
X76630495Y-57657704D01*
X76654999Y-57656500D01*
X77305001Y-57656500D01*
X77329505Y-57657704D01*
X77329505Y-57657704D01*
G37*
D15*
X76980000Y-58356500D03*
D14*
G36*
X75279505Y-57657704D02*
G01*
X75303773Y-57661304D01*
X75327572Y-57667265D01*
X75350671Y-57675530D01*
X75372850Y-57686020D01*
X75393893Y-57698632D01*
X75413599Y-57713247D01*
X75431777Y-57729723D01*
X75448253Y-57747901D01*
X75462868Y-57767607D01*
X75475480Y-57788650D01*
X75485970Y-57810829D01*
X75494235Y-57833928D01*
X75500196Y-57857727D01*
X75503796Y-57881995D01*
X75505000Y-57906499D01*
X75505000Y-58806501D01*
X75503796Y-58831005D01*
X75500196Y-58855273D01*
X75494235Y-58879072D01*
X75485970Y-58902171D01*
X75475480Y-58924350D01*
X75462868Y-58945393D01*
X75448253Y-58965099D01*
X75431777Y-58983277D01*
X75413599Y-58999753D01*
X75393893Y-59014368D01*
X75372850Y-59026980D01*
X75350671Y-59037470D01*
X75327572Y-59045735D01*
X75303773Y-59051696D01*
X75279505Y-59055296D01*
X75255001Y-59056500D01*
X74604999Y-59056500D01*
X74580495Y-59055296D01*
X74556227Y-59051696D01*
X74532428Y-59045735D01*
X74509329Y-59037470D01*
X74487150Y-59026980D01*
X74466107Y-59014368D01*
X74446401Y-58999753D01*
X74428223Y-58983277D01*
X74411747Y-58965099D01*
X74397132Y-58945393D01*
X74384520Y-58924350D01*
X74374030Y-58902171D01*
X74365765Y-58879072D01*
X74359804Y-58855273D01*
X74356204Y-58831005D01*
X74355000Y-58806501D01*
X74355000Y-57906499D01*
X74356204Y-57881995D01*
X74359804Y-57857727D01*
X74365765Y-57833928D01*
X74374030Y-57810829D01*
X74384520Y-57788650D01*
X74397132Y-57767607D01*
X74411747Y-57747901D01*
X74428223Y-57729723D01*
X74446401Y-57713247D01*
X74466107Y-57698632D01*
X74487150Y-57686020D01*
X74509329Y-57675530D01*
X74532428Y-57667265D01*
X74556227Y-57661304D01*
X74580495Y-57657704D01*
X74604999Y-57656500D01*
X75255001Y-57656500D01*
X75279505Y-57657704D01*
X75279505Y-57657704D01*
G37*
D15*
X74930000Y-58356500D03*
D14*
G36*
X68421505Y-43052704D02*
G01*
X68445773Y-43056304D01*
X68469572Y-43062265D01*
X68492671Y-43070530D01*
X68514850Y-43081020D01*
X68535893Y-43093632D01*
X68555599Y-43108247D01*
X68573777Y-43124723D01*
X68590253Y-43142901D01*
X68604868Y-43162607D01*
X68617480Y-43183650D01*
X68627970Y-43205829D01*
X68636235Y-43228928D01*
X68642196Y-43252727D01*
X68645796Y-43276995D01*
X68647000Y-43301499D01*
X68647000Y-44201501D01*
X68645796Y-44226005D01*
X68642196Y-44250273D01*
X68636235Y-44274072D01*
X68627970Y-44297171D01*
X68617480Y-44319350D01*
X68604868Y-44340393D01*
X68590253Y-44360099D01*
X68573777Y-44378277D01*
X68555599Y-44394753D01*
X68535893Y-44409368D01*
X68514850Y-44421980D01*
X68492671Y-44432470D01*
X68469572Y-44440735D01*
X68445773Y-44446696D01*
X68421505Y-44450296D01*
X68397001Y-44451500D01*
X67746999Y-44451500D01*
X67722495Y-44450296D01*
X67698227Y-44446696D01*
X67674428Y-44440735D01*
X67651329Y-44432470D01*
X67629150Y-44421980D01*
X67608107Y-44409368D01*
X67588401Y-44394753D01*
X67570223Y-44378277D01*
X67553747Y-44360099D01*
X67539132Y-44340393D01*
X67526520Y-44319350D01*
X67516030Y-44297171D01*
X67507765Y-44274072D01*
X67501804Y-44250273D01*
X67498204Y-44226005D01*
X67497000Y-44201501D01*
X67497000Y-43301499D01*
X67498204Y-43276995D01*
X67501804Y-43252727D01*
X67507765Y-43228928D01*
X67516030Y-43205829D01*
X67526520Y-43183650D01*
X67539132Y-43162607D01*
X67553747Y-43142901D01*
X67570223Y-43124723D01*
X67588401Y-43108247D01*
X67608107Y-43093632D01*
X67629150Y-43081020D01*
X67651329Y-43070530D01*
X67674428Y-43062265D01*
X67698227Y-43056304D01*
X67722495Y-43052704D01*
X67746999Y-43051500D01*
X68397001Y-43051500D01*
X68421505Y-43052704D01*
X68421505Y-43052704D01*
G37*
D15*
X68072000Y-43751500D03*
D14*
G36*
X66371505Y-43052704D02*
G01*
X66395773Y-43056304D01*
X66419572Y-43062265D01*
X66442671Y-43070530D01*
X66464850Y-43081020D01*
X66485893Y-43093632D01*
X66505599Y-43108247D01*
X66523777Y-43124723D01*
X66540253Y-43142901D01*
X66554868Y-43162607D01*
X66567480Y-43183650D01*
X66577970Y-43205829D01*
X66586235Y-43228928D01*
X66592196Y-43252727D01*
X66595796Y-43276995D01*
X66597000Y-43301499D01*
X66597000Y-44201501D01*
X66595796Y-44226005D01*
X66592196Y-44250273D01*
X66586235Y-44274072D01*
X66577970Y-44297171D01*
X66567480Y-44319350D01*
X66554868Y-44340393D01*
X66540253Y-44360099D01*
X66523777Y-44378277D01*
X66505599Y-44394753D01*
X66485893Y-44409368D01*
X66464850Y-44421980D01*
X66442671Y-44432470D01*
X66419572Y-44440735D01*
X66395773Y-44446696D01*
X66371505Y-44450296D01*
X66347001Y-44451500D01*
X65696999Y-44451500D01*
X65672495Y-44450296D01*
X65648227Y-44446696D01*
X65624428Y-44440735D01*
X65601329Y-44432470D01*
X65579150Y-44421980D01*
X65558107Y-44409368D01*
X65538401Y-44394753D01*
X65520223Y-44378277D01*
X65503747Y-44360099D01*
X65489132Y-44340393D01*
X65476520Y-44319350D01*
X65466030Y-44297171D01*
X65457765Y-44274072D01*
X65451804Y-44250273D01*
X65448204Y-44226005D01*
X65447000Y-44201501D01*
X65447000Y-43301499D01*
X65448204Y-43276995D01*
X65451804Y-43252727D01*
X65457765Y-43228928D01*
X65466030Y-43205829D01*
X65476520Y-43183650D01*
X65489132Y-43162607D01*
X65503747Y-43142901D01*
X65520223Y-43124723D01*
X65538401Y-43108247D01*
X65558107Y-43093632D01*
X65579150Y-43081020D01*
X65601329Y-43070530D01*
X65624428Y-43062265D01*
X65648227Y-43056304D01*
X65672495Y-43052704D01*
X65696999Y-43051500D01*
X66347001Y-43051500D01*
X66371505Y-43052704D01*
X66371505Y-43052704D01*
G37*
D15*
X66022000Y-43751500D03*
D14*
G36*
X44353005Y-99756204D02*
G01*
X44377273Y-99759804D01*
X44401072Y-99765765D01*
X44424171Y-99774030D01*
X44446350Y-99784520D01*
X44467393Y-99797132D01*
X44487099Y-99811747D01*
X44505277Y-99828223D01*
X44521753Y-99846401D01*
X44536368Y-99866107D01*
X44548980Y-99887150D01*
X44559470Y-99909329D01*
X44567735Y-99932428D01*
X44573696Y-99956227D01*
X44577296Y-99980495D01*
X44578500Y-100004999D01*
X44578500Y-100655001D01*
X44577296Y-100679505D01*
X44573696Y-100703773D01*
X44567735Y-100727572D01*
X44559470Y-100750671D01*
X44548980Y-100772850D01*
X44536368Y-100793893D01*
X44521753Y-100813599D01*
X44505277Y-100831777D01*
X44487099Y-100848253D01*
X44467393Y-100862868D01*
X44446350Y-100875480D01*
X44424171Y-100885970D01*
X44401072Y-100894235D01*
X44377273Y-100900196D01*
X44353005Y-100903796D01*
X44328501Y-100905000D01*
X43428499Y-100905000D01*
X43403995Y-100903796D01*
X43379727Y-100900196D01*
X43355928Y-100894235D01*
X43332829Y-100885970D01*
X43310650Y-100875480D01*
X43289607Y-100862868D01*
X43269901Y-100848253D01*
X43251723Y-100831777D01*
X43235247Y-100813599D01*
X43220632Y-100793893D01*
X43208020Y-100772850D01*
X43197530Y-100750671D01*
X43189265Y-100727572D01*
X43183304Y-100703773D01*
X43179704Y-100679505D01*
X43178500Y-100655001D01*
X43178500Y-100004999D01*
X43179704Y-99980495D01*
X43183304Y-99956227D01*
X43189265Y-99932428D01*
X43197530Y-99909329D01*
X43208020Y-99887150D01*
X43220632Y-99866107D01*
X43235247Y-99846401D01*
X43251723Y-99828223D01*
X43269901Y-99811747D01*
X43289607Y-99797132D01*
X43310650Y-99784520D01*
X43332829Y-99774030D01*
X43355928Y-99765765D01*
X43379727Y-99759804D01*
X43403995Y-99756204D01*
X43428499Y-99755000D01*
X44328501Y-99755000D01*
X44353005Y-99756204D01*
X44353005Y-99756204D01*
G37*
D15*
X43878500Y-100330000D03*
D14*
G36*
X44353005Y-97706204D02*
G01*
X44377273Y-97709804D01*
X44401072Y-97715765D01*
X44424171Y-97724030D01*
X44446350Y-97734520D01*
X44467393Y-97747132D01*
X44487099Y-97761747D01*
X44505277Y-97778223D01*
X44521753Y-97796401D01*
X44536368Y-97816107D01*
X44548980Y-97837150D01*
X44559470Y-97859329D01*
X44567735Y-97882428D01*
X44573696Y-97906227D01*
X44577296Y-97930495D01*
X44578500Y-97954999D01*
X44578500Y-98605001D01*
X44577296Y-98629505D01*
X44573696Y-98653773D01*
X44567735Y-98677572D01*
X44559470Y-98700671D01*
X44548980Y-98722850D01*
X44536368Y-98743893D01*
X44521753Y-98763599D01*
X44505277Y-98781777D01*
X44487099Y-98798253D01*
X44467393Y-98812868D01*
X44446350Y-98825480D01*
X44424171Y-98835970D01*
X44401072Y-98844235D01*
X44377273Y-98850196D01*
X44353005Y-98853796D01*
X44328501Y-98855000D01*
X43428499Y-98855000D01*
X43403995Y-98853796D01*
X43379727Y-98850196D01*
X43355928Y-98844235D01*
X43332829Y-98835970D01*
X43310650Y-98825480D01*
X43289607Y-98812868D01*
X43269901Y-98798253D01*
X43251723Y-98781777D01*
X43235247Y-98763599D01*
X43220632Y-98743893D01*
X43208020Y-98722850D01*
X43197530Y-98700671D01*
X43189265Y-98677572D01*
X43183304Y-98653773D01*
X43179704Y-98629505D01*
X43178500Y-98605001D01*
X43178500Y-97954999D01*
X43179704Y-97930495D01*
X43183304Y-97906227D01*
X43189265Y-97882428D01*
X43197530Y-97859329D01*
X43208020Y-97837150D01*
X43220632Y-97816107D01*
X43235247Y-97796401D01*
X43251723Y-97778223D01*
X43269901Y-97761747D01*
X43289607Y-97747132D01*
X43310650Y-97734520D01*
X43332829Y-97724030D01*
X43355928Y-97715765D01*
X43379727Y-97709804D01*
X43403995Y-97706204D01*
X43428499Y-97705000D01*
X44328501Y-97705000D01*
X44353005Y-97706204D01*
X44353005Y-97706204D01*
G37*
D15*
X43878500Y-98280000D03*
D21*
X47227500Y-46926500D03*
D22*
X42227500Y-46926500D03*
D11*
X36131500Y-89857000D03*
X31131500Y-89857000D03*
X31131500Y-67857000D03*
X36131500Y-67857000D03*
D23*
X57150000Y-51955000D03*
X57150000Y-55995000D03*
D14*
G36*
X67414505Y-50736204D02*
G01*
X67438773Y-50739804D01*
X67462572Y-50745765D01*
X67485671Y-50754030D01*
X67507850Y-50764520D01*
X67528893Y-50777132D01*
X67548599Y-50791747D01*
X67566777Y-50808223D01*
X67583253Y-50826401D01*
X67597868Y-50846107D01*
X67610480Y-50867150D01*
X67620970Y-50889329D01*
X67629235Y-50912428D01*
X67635196Y-50936227D01*
X67638796Y-50960495D01*
X67640000Y-50984999D01*
X67640000Y-51885001D01*
X67638796Y-51909505D01*
X67635196Y-51933773D01*
X67629235Y-51957572D01*
X67620970Y-51980671D01*
X67610480Y-52002850D01*
X67597868Y-52023893D01*
X67583253Y-52043599D01*
X67566777Y-52061777D01*
X67548599Y-52078253D01*
X67528893Y-52092868D01*
X67507850Y-52105480D01*
X67485671Y-52115970D01*
X67462572Y-52124235D01*
X67438773Y-52130196D01*
X67414505Y-52133796D01*
X67390001Y-52135000D01*
X66739999Y-52135000D01*
X66715495Y-52133796D01*
X66691227Y-52130196D01*
X66667428Y-52124235D01*
X66644329Y-52115970D01*
X66622150Y-52105480D01*
X66601107Y-52092868D01*
X66581401Y-52078253D01*
X66563223Y-52061777D01*
X66546747Y-52043599D01*
X66532132Y-52023893D01*
X66519520Y-52002850D01*
X66509030Y-51980671D01*
X66500765Y-51957572D01*
X66494804Y-51933773D01*
X66491204Y-51909505D01*
X66490000Y-51885001D01*
X66490000Y-50984999D01*
X66491204Y-50960495D01*
X66494804Y-50936227D01*
X66500765Y-50912428D01*
X66509030Y-50889329D01*
X66519520Y-50867150D01*
X66532132Y-50846107D01*
X66546747Y-50826401D01*
X66563223Y-50808223D01*
X66581401Y-50791747D01*
X66601107Y-50777132D01*
X66622150Y-50764520D01*
X66644329Y-50754030D01*
X66667428Y-50745765D01*
X66691227Y-50739804D01*
X66715495Y-50736204D01*
X66739999Y-50735000D01*
X67390001Y-50735000D01*
X67414505Y-50736204D01*
X67414505Y-50736204D01*
G37*
D15*
X67065000Y-51435000D03*
D14*
G36*
X65364505Y-50736204D02*
G01*
X65388773Y-50739804D01*
X65412572Y-50745765D01*
X65435671Y-50754030D01*
X65457850Y-50764520D01*
X65478893Y-50777132D01*
X65498599Y-50791747D01*
X65516777Y-50808223D01*
X65533253Y-50826401D01*
X65547868Y-50846107D01*
X65560480Y-50867150D01*
X65570970Y-50889329D01*
X65579235Y-50912428D01*
X65585196Y-50936227D01*
X65588796Y-50960495D01*
X65590000Y-50984999D01*
X65590000Y-51885001D01*
X65588796Y-51909505D01*
X65585196Y-51933773D01*
X65579235Y-51957572D01*
X65570970Y-51980671D01*
X65560480Y-52002850D01*
X65547868Y-52023893D01*
X65533253Y-52043599D01*
X65516777Y-52061777D01*
X65498599Y-52078253D01*
X65478893Y-52092868D01*
X65457850Y-52105480D01*
X65435671Y-52115970D01*
X65412572Y-52124235D01*
X65388773Y-52130196D01*
X65364505Y-52133796D01*
X65340001Y-52135000D01*
X64689999Y-52135000D01*
X64665495Y-52133796D01*
X64641227Y-52130196D01*
X64617428Y-52124235D01*
X64594329Y-52115970D01*
X64572150Y-52105480D01*
X64551107Y-52092868D01*
X64531401Y-52078253D01*
X64513223Y-52061777D01*
X64496747Y-52043599D01*
X64482132Y-52023893D01*
X64469520Y-52002850D01*
X64459030Y-51980671D01*
X64450765Y-51957572D01*
X64444804Y-51933773D01*
X64441204Y-51909505D01*
X64440000Y-51885001D01*
X64440000Y-50984999D01*
X64441204Y-50960495D01*
X64444804Y-50936227D01*
X64450765Y-50912428D01*
X64459030Y-50889329D01*
X64469520Y-50867150D01*
X64482132Y-50846107D01*
X64496747Y-50826401D01*
X64513223Y-50808223D01*
X64531401Y-50791747D01*
X64551107Y-50777132D01*
X64572150Y-50764520D01*
X64594329Y-50754030D01*
X64617428Y-50745765D01*
X64641227Y-50739804D01*
X64665495Y-50736204D01*
X64689999Y-50735000D01*
X65340001Y-50735000D01*
X65364505Y-50736204D01*
X65364505Y-50736204D01*
G37*
D15*
X65015000Y-51435000D03*
D24*
X27051000Y-46228000D03*
X34001000Y-46228000D03*
D14*
G36*
X68650279Y-53274644D02*
G01*
X68673334Y-53278063D01*
X68695943Y-53283727D01*
X68717887Y-53291579D01*
X68738957Y-53301544D01*
X68758948Y-53313526D01*
X68777668Y-53327410D01*
X68794938Y-53343062D01*
X68810590Y-53360332D01*
X68824474Y-53379052D01*
X68836456Y-53399043D01*
X68846421Y-53420113D01*
X68854273Y-53442057D01*
X68859937Y-53464666D01*
X68863356Y-53487721D01*
X68864500Y-53511000D01*
X68864500Y-54086000D01*
X68863356Y-54109279D01*
X68859937Y-54132334D01*
X68854273Y-54154943D01*
X68846421Y-54176887D01*
X68836456Y-54197957D01*
X68824474Y-54217948D01*
X68810590Y-54236668D01*
X68794938Y-54253938D01*
X68777668Y-54269590D01*
X68758948Y-54283474D01*
X68738957Y-54295456D01*
X68717887Y-54305421D01*
X68695943Y-54313273D01*
X68673334Y-54318937D01*
X68650279Y-54322356D01*
X68627000Y-54323500D01*
X68152000Y-54323500D01*
X68128721Y-54322356D01*
X68105666Y-54318937D01*
X68083057Y-54313273D01*
X68061113Y-54305421D01*
X68040043Y-54295456D01*
X68020052Y-54283474D01*
X68001332Y-54269590D01*
X67984062Y-54253938D01*
X67968410Y-54236668D01*
X67954526Y-54217948D01*
X67942544Y-54197957D01*
X67932579Y-54176887D01*
X67924727Y-54154943D01*
X67919063Y-54132334D01*
X67915644Y-54109279D01*
X67914500Y-54086000D01*
X67914500Y-53511000D01*
X67915644Y-53487721D01*
X67919063Y-53464666D01*
X67924727Y-53442057D01*
X67932579Y-53420113D01*
X67942544Y-53399043D01*
X67954526Y-53379052D01*
X67968410Y-53360332D01*
X67984062Y-53343062D01*
X68001332Y-53327410D01*
X68020052Y-53313526D01*
X68040043Y-53301544D01*
X68061113Y-53291579D01*
X68083057Y-53283727D01*
X68105666Y-53278063D01*
X68128721Y-53274644D01*
X68152000Y-53273500D01*
X68627000Y-53273500D01*
X68650279Y-53274644D01*
X68650279Y-53274644D01*
G37*
D25*
X68389500Y-53798500D03*
D14*
G36*
X68650279Y-55024644D02*
G01*
X68673334Y-55028063D01*
X68695943Y-55033727D01*
X68717887Y-55041579D01*
X68738957Y-55051544D01*
X68758948Y-55063526D01*
X68777668Y-55077410D01*
X68794938Y-55093062D01*
X68810590Y-55110332D01*
X68824474Y-55129052D01*
X68836456Y-55149043D01*
X68846421Y-55170113D01*
X68854273Y-55192057D01*
X68859937Y-55214666D01*
X68863356Y-55237721D01*
X68864500Y-55261000D01*
X68864500Y-55836000D01*
X68863356Y-55859279D01*
X68859937Y-55882334D01*
X68854273Y-55904943D01*
X68846421Y-55926887D01*
X68836456Y-55947957D01*
X68824474Y-55967948D01*
X68810590Y-55986668D01*
X68794938Y-56003938D01*
X68777668Y-56019590D01*
X68758948Y-56033474D01*
X68738957Y-56045456D01*
X68717887Y-56055421D01*
X68695943Y-56063273D01*
X68673334Y-56068937D01*
X68650279Y-56072356D01*
X68627000Y-56073500D01*
X68152000Y-56073500D01*
X68128721Y-56072356D01*
X68105666Y-56068937D01*
X68083057Y-56063273D01*
X68061113Y-56055421D01*
X68040043Y-56045456D01*
X68020052Y-56033474D01*
X68001332Y-56019590D01*
X67984062Y-56003938D01*
X67968410Y-55986668D01*
X67954526Y-55967948D01*
X67942544Y-55947957D01*
X67932579Y-55926887D01*
X67924727Y-55904943D01*
X67919063Y-55882334D01*
X67915644Y-55859279D01*
X67914500Y-55836000D01*
X67914500Y-55261000D01*
X67915644Y-55237721D01*
X67919063Y-55214666D01*
X67924727Y-55192057D01*
X67932579Y-55170113D01*
X67942544Y-55149043D01*
X67954526Y-55129052D01*
X67968410Y-55110332D01*
X67984062Y-55093062D01*
X68001332Y-55077410D01*
X68020052Y-55063526D01*
X68040043Y-55051544D01*
X68061113Y-55041579D01*
X68083057Y-55033727D01*
X68105666Y-55028063D01*
X68128721Y-55024644D01*
X68152000Y-55023500D01*
X68627000Y-55023500D01*
X68650279Y-55024644D01*
X68650279Y-55024644D01*
G37*
D25*
X68389500Y-55548500D03*
D26*
X55880000Y-65405000D03*
X76200000Y-75565000D03*
D27*
X55880000Y-78105000D03*
D26*
X55880000Y-73025000D03*
X76200000Y-85725000D03*
X76200000Y-65405000D03*
D14*
G36*
X63974505Y-60386204D02*
G01*
X63998773Y-60389804D01*
X64022572Y-60395765D01*
X64045671Y-60404030D01*
X64067850Y-60414520D01*
X64088893Y-60427132D01*
X64108599Y-60441747D01*
X64126777Y-60458223D01*
X64143253Y-60476401D01*
X64157868Y-60496107D01*
X64170480Y-60517150D01*
X64180970Y-60539329D01*
X64189235Y-60562428D01*
X64195196Y-60586227D01*
X64198796Y-60610495D01*
X64200000Y-60634999D01*
X64200000Y-61285001D01*
X64198796Y-61309505D01*
X64195196Y-61333773D01*
X64189235Y-61357572D01*
X64180970Y-61380671D01*
X64170480Y-61402850D01*
X64157868Y-61423893D01*
X64143253Y-61443599D01*
X64126777Y-61461777D01*
X64108599Y-61478253D01*
X64088893Y-61492868D01*
X64067850Y-61505480D01*
X64045671Y-61515970D01*
X64022572Y-61524235D01*
X63998773Y-61530196D01*
X63974505Y-61533796D01*
X63950001Y-61535000D01*
X63049999Y-61535000D01*
X63025495Y-61533796D01*
X63001227Y-61530196D01*
X62977428Y-61524235D01*
X62954329Y-61515970D01*
X62932150Y-61505480D01*
X62911107Y-61492868D01*
X62891401Y-61478253D01*
X62873223Y-61461777D01*
X62856747Y-61443599D01*
X62842132Y-61423893D01*
X62829520Y-61402850D01*
X62819030Y-61380671D01*
X62810765Y-61357572D01*
X62804804Y-61333773D01*
X62801204Y-61309505D01*
X62800000Y-61285001D01*
X62800000Y-60634999D01*
X62801204Y-60610495D01*
X62804804Y-60586227D01*
X62810765Y-60562428D01*
X62819030Y-60539329D01*
X62829520Y-60517150D01*
X62842132Y-60496107D01*
X62856747Y-60476401D01*
X62873223Y-60458223D01*
X62891401Y-60441747D01*
X62911107Y-60427132D01*
X62932150Y-60414520D01*
X62954329Y-60404030D01*
X62977428Y-60395765D01*
X63001227Y-60389804D01*
X63025495Y-60386204D01*
X63049999Y-60385000D01*
X63950001Y-60385000D01*
X63974505Y-60386204D01*
X63974505Y-60386204D01*
G37*
D15*
X63500000Y-60960000D03*
D14*
G36*
X63974505Y-58336204D02*
G01*
X63998773Y-58339804D01*
X64022572Y-58345765D01*
X64045671Y-58354030D01*
X64067850Y-58364520D01*
X64088893Y-58377132D01*
X64108599Y-58391747D01*
X64126777Y-58408223D01*
X64143253Y-58426401D01*
X64157868Y-58446107D01*
X64170480Y-58467150D01*
X64180970Y-58489329D01*
X64189235Y-58512428D01*
X64195196Y-58536227D01*
X64198796Y-58560495D01*
X64200000Y-58584999D01*
X64200000Y-59235001D01*
X64198796Y-59259505D01*
X64195196Y-59283773D01*
X64189235Y-59307572D01*
X64180970Y-59330671D01*
X64170480Y-59352850D01*
X64157868Y-59373893D01*
X64143253Y-59393599D01*
X64126777Y-59411777D01*
X64108599Y-59428253D01*
X64088893Y-59442868D01*
X64067850Y-59455480D01*
X64045671Y-59465970D01*
X64022572Y-59474235D01*
X63998773Y-59480196D01*
X63974505Y-59483796D01*
X63950001Y-59485000D01*
X63049999Y-59485000D01*
X63025495Y-59483796D01*
X63001227Y-59480196D01*
X62977428Y-59474235D01*
X62954329Y-59465970D01*
X62932150Y-59455480D01*
X62911107Y-59442868D01*
X62891401Y-59428253D01*
X62873223Y-59411777D01*
X62856747Y-59393599D01*
X62842132Y-59373893D01*
X62829520Y-59352850D01*
X62819030Y-59330671D01*
X62810765Y-59307572D01*
X62804804Y-59283773D01*
X62801204Y-59259505D01*
X62800000Y-59235001D01*
X62800000Y-58584999D01*
X62801204Y-58560495D01*
X62804804Y-58536227D01*
X62810765Y-58512428D01*
X62819030Y-58489329D01*
X62829520Y-58467150D01*
X62842132Y-58446107D01*
X62856747Y-58426401D01*
X62873223Y-58408223D01*
X62891401Y-58391747D01*
X62911107Y-58377132D01*
X62932150Y-58364520D01*
X62954329Y-58354030D01*
X62977428Y-58345765D01*
X63001227Y-58339804D01*
X63025495Y-58336204D01*
X63049999Y-58335000D01*
X63950001Y-58335000D01*
X63974505Y-58336204D01*
X63974505Y-58336204D01*
G37*
D15*
X63500000Y-58910000D03*
D14*
G36*
X65899505Y-55181204D02*
G01*
X65923773Y-55184804D01*
X65947572Y-55190765D01*
X65970671Y-55199030D01*
X65992850Y-55209520D01*
X66013893Y-55222132D01*
X66033599Y-55236747D01*
X66051777Y-55253223D01*
X66068253Y-55271401D01*
X66082868Y-55291107D01*
X66095480Y-55312150D01*
X66105970Y-55334329D01*
X66114235Y-55357428D01*
X66120196Y-55381227D01*
X66123796Y-55405495D01*
X66125000Y-55429999D01*
X66125000Y-56330001D01*
X66123796Y-56354505D01*
X66120196Y-56378773D01*
X66114235Y-56402572D01*
X66105970Y-56425671D01*
X66095480Y-56447850D01*
X66082868Y-56468893D01*
X66068253Y-56488599D01*
X66051777Y-56506777D01*
X66033599Y-56523253D01*
X66013893Y-56537868D01*
X65992850Y-56550480D01*
X65970671Y-56560970D01*
X65947572Y-56569235D01*
X65923773Y-56575196D01*
X65899505Y-56578796D01*
X65875001Y-56580000D01*
X65224999Y-56580000D01*
X65200495Y-56578796D01*
X65176227Y-56575196D01*
X65152428Y-56569235D01*
X65129329Y-56560970D01*
X65107150Y-56550480D01*
X65086107Y-56537868D01*
X65066401Y-56523253D01*
X65048223Y-56506777D01*
X65031747Y-56488599D01*
X65017132Y-56468893D01*
X65004520Y-56447850D01*
X64994030Y-56425671D01*
X64985765Y-56402572D01*
X64979804Y-56378773D01*
X64976204Y-56354505D01*
X64975000Y-56330001D01*
X64975000Y-55429999D01*
X64976204Y-55405495D01*
X64979804Y-55381227D01*
X64985765Y-55357428D01*
X64994030Y-55334329D01*
X65004520Y-55312150D01*
X65017132Y-55291107D01*
X65031747Y-55271401D01*
X65048223Y-55253223D01*
X65066401Y-55236747D01*
X65086107Y-55222132D01*
X65107150Y-55209520D01*
X65129329Y-55199030D01*
X65152428Y-55190765D01*
X65176227Y-55184804D01*
X65200495Y-55181204D01*
X65224999Y-55180000D01*
X65875001Y-55180000D01*
X65899505Y-55181204D01*
X65899505Y-55181204D01*
G37*
D15*
X65550000Y-55880000D03*
D14*
G36*
X63849505Y-55181204D02*
G01*
X63873773Y-55184804D01*
X63897572Y-55190765D01*
X63920671Y-55199030D01*
X63942850Y-55209520D01*
X63963893Y-55222132D01*
X63983599Y-55236747D01*
X64001777Y-55253223D01*
X64018253Y-55271401D01*
X64032868Y-55291107D01*
X64045480Y-55312150D01*
X64055970Y-55334329D01*
X64064235Y-55357428D01*
X64070196Y-55381227D01*
X64073796Y-55405495D01*
X64075000Y-55429999D01*
X64075000Y-56330001D01*
X64073796Y-56354505D01*
X64070196Y-56378773D01*
X64064235Y-56402572D01*
X64055970Y-56425671D01*
X64045480Y-56447850D01*
X64032868Y-56468893D01*
X64018253Y-56488599D01*
X64001777Y-56506777D01*
X63983599Y-56523253D01*
X63963893Y-56537868D01*
X63942850Y-56550480D01*
X63920671Y-56560970D01*
X63897572Y-56569235D01*
X63873773Y-56575196D01*
X63849505Y-56578796D01*
X63825001Y-56580000D01*
X63174999Y-56580000D01*
X63150495Y-56578796D01*
X63126227Y-56575196D01*
X63102428Y-56569235D01*
X63079329Y-56560970D01*
X63057150Y-56550480D01*
X63036107Y-56537868D01*
X63016401Y-56523253D01*
X62998223Y-56506777D01*
X62981747Y-56488599D01*
X62967132Y-56468893D01*
X62954520Y-56447850D01*
X62944030Y-56425671D01*
X62935765Y-56402572D01*
X62929804Y-56378773D01*
X62926204Y-56354505D01*
X62925000Y-56330001D01*
X62925000Y-55429999D01*
X62926204Y-55405495D01*
X62929804Y-55381227D01*
X62935765Y-55357428D01*
X62944030Y-55334329D01*
X62954520Y-55312150D01*
X62967132Y-55291107D01*
X62981747Y-55271401D01*
X62998223Y-55253223D01*
X63016401Y-55236747D01*
X63036107Y-55222132D01*
X63057150Y-55209520D01*
X63079329Y-55199030D01*
X63102428Y-55190765D01*
X63126227Y-55184804D01*
X63150495Y-55181204D01*
X63174999Y-55180000D01*
X63825001Y-55180000D01*
X63849505Y-55181204D01*
X63849505Y-55181204D01*
G37*
D15*
X63500000Y-55880000D03*
D14*
G36*
X35870779Y-78266144D02*
G01*
X35893834Y-78269563D01*
X35916443Y-78275227D01*
X35938387Y-78283079D01*
X35959457Y-78293044D01*
X35979448Y-78305026D01*
X35998168Y-78318910D01*
X36015438Y-78334562D01*
X36031090Y-78351832D01*
X36044974Y-78370552D01*
X36056956Y-78390543D01*
X36066921Y-78411613D01*
X36074773Y-78433557D01*
X36080437Y-78456166D01*
X36083856Y-78479221D01*
X36085000Y-78502500D01*
X36085000Y-78977500D01*
X36083856Y-79000779D01*
X36080437Y-79023834D01*
X36074773Y-79046443D01*
X36066921Y-79068387D01*
X36056956Y-79089457D01*
X36044974Y-79109448D01*
X36031090Y-79128168D01*
X36015438Y-79145438D01*
X35998168Y-79161090D01*
X35979448Y-79174974D01*
X35959457Y-79186956D01*
X35938387Y-79196921D01*
X35916443Y-79204773D01*
X35893834Y-79210437D01*
X35870779Y-79213856D01*
X35847500Y-79215000D01*
X35272500Y-79215000D01*
X35249221Y-79213856D01*
X35226166Y-79210437D01*
X35203557Y-79204773D01*
X35181613Y-79196921D01*
X35160543Y-79186956D01*
X35140552Y-79174974D01*
X35121832Y-79161090D01*
X35104562Y-79145438D01*
X35088910Y-79128168D01*
X35075026Y-79109448D01*
X35063044Y-79089457D01*
X35053079Y-79068387D01*
X35045227Y-79046443D01*
X35039563Y-79023834D01*
X35036144Y-79000779D01*
X35035000Y-78977500D01*
X35035000Y-78502500D01*
X35036144Y-78479221D01*
X35039563Y-78456166D01*
X35045227Y-78433557D01*
X35053079Y-78411613D01*
X35063044Y-78390543D01*
X35075026Y-78370552D01*
X35088910Y-78351832D01*
X35104562Y-78334562D01*
X35121832Y-78318910D01*
X35140552Y-78305026D01*
X35160543Y-78293044D01*
X35181613Y-78283079D01*
X35203557Y-78275227D01*
X35226166Y-78269563D01*
X35249221Y-78266144D01*
X35272500Y-78265000D01*
X35847500Y-78265000D01*
X35870779Y-78266144D01*
X35870779Y-78266144D01*
G37*
D25*
X35560000Y-78740000D03*
D14*
G36*
X34120779Y-78266144D02*
G01*
X34143834Y-78269563D01*
X34166443Y-78275227D01*
X34188387Y-78283079D01*
X34209457Y-78293044D01*
X34229448Y-78305026D01*
X34248168Y-78318910D01*
X34265438Y-78334562D01*
X34281090Y-78351832D01*
X34294974Y-78370552D01*
X34306956Y-78390543D01*
X34316921Y-78411613D01*
X34324773Y-78433557D01*
X34330437Y-78456166D01*
X34333856Y-78479221D01*
X34335000Y-78502500D01*
X34335000Y-78977500D01*
X34333856Y-79000779D01*
X34330437Y-79023834D01*
X34324773Y-79046443D01*
X34316921Y-79068387D01*
X34306956Y-79089457D01*
X34294974Y-79109448D01*
X34281090Y-79128168D01*
X34265438Y-79145438D01*
X34248168Y-79161090D01*
X34229448Y-79174974D01*
X34209457Y-79186956D01*
X34188387Y-79196921D01*
X34166443Y-79204773D01*
X34143834Y-79210437D01*
X34120779Y-79213856D01*
X34097500Y-79215000D01*
X33522500Y-79215000D01*
X33499221Y-79213856D01*
X33476166Y-79210437D01*
X33453557Y-79204773D01*
X33431613Y-79196921D01*
X33410543Y-79186956D01*
X33390552Y-79174974D01*
X33371832Y-79161090D01*
X33354562Y-79145438D01*
X33338910Y-79128168D01*
X33325026Y-79109448D01*
X33313044Y-79089457D01*
X33303079Y-79068387D01*
X33295227Y-79046443D01*
X33289563Y-79023834D01*
X33286144Y-79000779D01*
X33285000Y-78977500D01*
X33285000Y-78502500D01*
X33286144Y-78479221D01*
X33289563Y-78456166D01*
X33295227Y-78433557D01*
X33303079Y-78411613D01*
X33313044Y-78390543D01*
X33325026Y-78370552D01*
X33338910Y-78351832D01*
X33354562Y-78334562D01*
X33371832Y-78318910D01*
X33390552Y-78305026D01*
X33410543Y-78293044D01*
X33431613Y-78283079D01*
X33453557Y-78275227D01*
X33476166Y-78269563D01*
X33499221Y-78266144D01*
X33522500Y-78265000D01*
X34097500Y-78265000D01*
X34120779Y-78266144D01*
X34120779Y-78266144D01*
G37*
D25*
X33810000Y-78740000D03*
D14*
G36*
X36054505Y-75501204D02*
G01*
X36078773Y-75504804D01*
X36102572Y-75510765D01*
X36125671Y-75519030D01*
X36147850Y-75529520D01*
X36168893Y-75542132D01*
X36188599Y-75556747D01*
X36206777Y-75573223D01*
X36223253Y-75591401D01*
X36237868Y-75611107D01*
X36250480Y-75632150D01*
X36260970Y-75654329D01*
X36269235Y-75677428D01*
X36275196Y-75701227D01*
X36278796Y-75725495D01*
X36280000Y-75749999D01*
X36280000Y-76650001D01*
X36278796Y-76674505D01*
X36275196Y-76698773D01*
X36269235Y-76722572D01*
X36260970Y-76745671D01*
X36250480Y-76767850D01*
X36237868Y-76788893D01*
X36223253Y-76808599D01*
X36206777Y-76826777D01*
X36188599Y-76843253D01*
X36168893Y-76857868D01*
X36147850Y-76870480D01*
X36125671Y-76880970D01*
X36102572Y-76889235D01*
X36078773Y-76895196D01*
X36054505Y-76898796D01*
X36030001Y-76900000D01*
X35379999Y-76900000D01*
X35355495Y-76898796D01*
X35331227Y-76895196D01*
X35307428Y-76889235D01*
X35284329Y-76880970D01*
X35262150Y-76870480D01*
X35241107Y-76857868D01*
X35221401Y-76843253D01*
X35203223Y-76826777D01*
X35186747Y-76808599D01*
X35172132Y-76788893D01*
X35159520Y-76767850D01*
X35149030Y-76745671D01*
X35140765Y-76722572D01*
X35134804Y-76698773D01*
X35131204Y-76674505D01*
X35130000Y-76650001D01*
X35130000Y-75749999D01*
X35131204Y-75725495D01*
X35134804Y-75701227D01*
X35140765Y-75677428D01*
X35149030Y-75654329D01*
X35159520Y-75632150D01*
X35172132Y-75611107D01*
X35186747Y-75591401D01*
X35203223Y-75573223D01*
X35221401Y-75556747D01*
X35241107Y-75542132D01*
X35262150Y-75529520D01*
X35284329Y-75519030D01*
X35307428Y-75510765D01*
X35331227Y-75504804D01*
X35355495Y-75501204D01*
X35379999Y-75500000D01*
X36030001Y-75500000D01*
X36054505Y-75501204D01*
X36054505Y-75501204D01*
G37*
D15*
X35705000Y-76200000D03*
D14*
G36*
X34004505Y-75501204D02*
G01*
X34028773Y-75504804D01*
X34052572Y-75510765D01*
X34075671Y-75519030D01*
X34097850Y-75529520D01*
X34118893Y-75542132D01*
X34138599Y-75556747D01*
X34156777Y-75573223D01*
X34173253Y-75591401D01*
X34187868Y-75611107D01*
X34200480Y-75632150D01*
X34210970Y-75654329D01*
X34219235Y-75677428D01*
X34225196Y-75701227D01*
X34228796Y-75725495D01*
X34230000Y-75749999D01*
X34230000Y-76650001D01*
X34228796Y-76674505D01*
X34225196Y-76698773D01*
X34219235Y-76722572D01*
X34210970Y-76745671D01*
X34200480Y-76767850D01*
X34187868Y-76788893D01*
X34173253Y-76808599D01*
X34156777Y-76826777D01*
X34138599Y-76843253D01*
X34118893Y-76857868D01*
X34097850Y-76870480D01*
X34075671Y-76880970D01*
X34052572Y-76889235D01*
X34028773Y-76895196D01*
X34004505Y-76898796D01*
X33980001Y-76900000D01*
X33329999Y-76900000D01*
X33305495Y-76898796D01*
X33281227Y-76895196D01*
X33257428Y-76889235D01*
X33234329Y-76880970D01*
X33212150Y-76870480D01*
X33191107Y-76857868D01*
X33171401Y-76843253D01*
X33153223Y-76826777D01*
X33136747Y-76808599D01*
X33122132Y-76788893D01*
X33109520Y-76767850D01*
X33099030Y-76745671D01*
X33090765Y-76722572D01*
X33084804Y-76698773D01*
X33081204Y-76674505D01*
X33080000Y-76650001D01*
X33080000Y-75749999D01*
X33081204Y-75725495D01*
X33084804Y-75701227D01*
X33090765Y-75677428D01*
X33099030Y-75654329D01*
X33109520Y-75632150D01*
X33122132Y-75611107D01*
X33136747Y-75591401D01*
X33153223Y-75573223D01*
X33171401Y-75556747D01*
X33191107Y-75542132D01*
X33212150Y-75529520D01*
X33234329Y-75519030D01*
X33257428Y-75510765D01*
X33281227Y-75504804D01*
X33305495Y-75501204D01*
X33329999Y-75500000D01*
X33980001Y-75500000D01*
X34004505Y-75501204D01*
X34004505Y-75501204D01*
G37*
D15*
X33655000Y-76200000D03*
D14*
G36*
X60164505Y-58336204D02*
G01*
X60188773Y-58339804D01*
X60212572Y-58345765D01*
X60235671Y-58354030D01*
X60257850Y-58364520D01*
X60278893Y-58377132D01*
X60298599Y-58391747D01*
X60316777Y-58408223D01*
X60333253Y-58426401D01*
X60347868Y-58446107D01*
X60360480Y-58467150D01*
X60370970Y-58489329D01*
X60379235Y-58512428D01*
X60385196Y-58536227D01*
X60388796Y-58560495D01*
X60390000Y-58584999D01*
X60390000Y-59235001D01*
X60388796Y-59259505D01*
X60385196Y-59283773D01*
X60379235Y-59307572D01*
X60370970Y-59330671D01*
X60360480Y-59352850D01*
X60347868Y-59373893D01*
X60333253Y-59393599D01*
X60316777Y-59411777D01*
X60298599Y-59428253D01*
X60278893Y-59442868D01*
X60257850Y-59455480D01*
X60235671Y-59465970D01*
X60212572Y-59474235D01*
X60188773Y-59480196D01*
X60164505Y-59483796D01*
X60140001Y-59485000D01*
X59239999Y-59485000D01*
X59215495Y-59483796D01*
X59191227Y-59480196D01*
X59167428Y-59474235D01*
X59144329Y-59465970D01*
X59122150Y-59455480D01*
X59101107Y-59442868D01*
X59081401Y-59428253D01*
X59063223Y-59411777D01*
X59046747Y-59393599D01*
X59032132Y-59373893D01*
X59019520Y-59352850D01*
X59009030Y-59330671D01*
X59000765Y-59307572D01*
X58994804Y-59283773D01*
X58991204Y-59259505D01*
X58990000Y-59235001D01*
X58990000Y-58584999D01*
X58991204Y-58560495D01*
X58994804Y-58536227D01*
X59000765Y-58512428D01*
X59009030Y-58489329D01*
X59019520Y-58467150D01*
X59032132Y-58446107D01*
X59046747Y-58426401D01*
X59063223Y-58408223D01*
X59081401Y-58391747D01*
X59101107Y-58377132D01*
X59122150Y-58364520D01*
X59144329Y-58354030D01*
X59167428Y-58345765D01*
X59191227Y-58339804D01*
X59215495Y-58336204D01*
X59239999Y-58335000D01*
X60140001Y-58335000D01*
X60164505Y-58336204D01*
X60164505Y-58336204D01*
G37*
D15*
X59690000Y-58910000D03*
D14*
G36*
X60164505Y-60386204D02*
G01*
X60188773Y-60389804D01*
X60212572Y-60395765D01*
X60235671Y-60404030D01*
X60257850Y-60414520D01*
X60278893Y-60427132D01*
X60298599Y-60441747D01*
X60316777Y-60458223D01*
X60333253Y-60476401D01*
X60347868Y-60496107D01*
X60360480Y-60517150D01*
X60370970Y-60539329D01*
X60379235Y-60562428D01*
X60385196Y-60586227D01*
X60388796Y-60610495D01*
X60390000Y-60634999D01*
X60390000Y-61285001D01*
X60388796Y-61309505D01*
X60385196Y-61333773D01*
X60379235Y-61357572D01*
X60370970Y-61380671D01*
X60360480Y-61402850D01*
X60347868Y-61423893D01*
X60333253Y-61443599D01*
X60316777Y-61461777D01*
X60298599Y-61478253D01*
X60278893Y-61492868D01*
X60257850Y-61505480D01*
X60235671Y-61515970D01*
X60212572Y-61524235D01*
X60188773Y-61530196D01*
X60164505Y-61533796D01*
X60140001Y-61535000D01*
X59239999Y-61535000D01*
X59215495Y-61533796D01*
X59191227Y-61530196D01*
X59167428Y-61524235D01*
X59144329Y-61515970D01*
X59122150Y-61505480D01*
X59101107Y-61492868D01*
X59081401Y-61478253D01*
X59063223Y-61461777D01*
X59046747Y-61443599D01*
X59032132Y-61423893D01*
X59019520Y-61402850D01*
X59009030Y-61380671D01*
X59000765Y-61357572D01*
X58994804Y-61333773D01*
X58991204Y-61309505D01*
X58990000Y-61285001D01*
X58990000Y-60634999D01*
X58991204Y-60610495D01*
X58994804Y-60586227D01*
X59000765Y-60562428D01*
X59009030Y-60539329D01*
X59019520Y-60517150D01*
X59032132Y-60496107D01*
X59046747Y-60476401D01*
X59063223Y-60458223D01*
X59081401Y-60441747D01*
X59101107Y-60427132D01*
X59122150Y-60414520D01*
X59144329Y-60404030D01*
X59167428Y-60395765D01*
X59191227Y-60389804D01*
X59215495Y-60386204D01*
X59239999Y-60385000D01*
X60140001Y-60385000D01*
X60164505Y-60386204D01*
X60164505Y-60386204D01*
G37*
D15*
X59690000Y-60960000D03*
D14*
G36*
X38257005Y-95674204D02*
G01*
X38281273Y-95677804D01*
X38305072Y-95683765D01*
X38328171Y-95692030D01*
X38350350Y-95702520D01*
X38371393Y-95715132D01*
X38391099Y-95729747D01*
X38409277Y-95746223D01*
X38425753Y-95764401D01*
X38440368Y-95784107D01*
X38452980Y-95805150D01*
X38463470Y-95827329D01*
X38471735Y-95850428D01*
X38477696Y-95874227D01*
X38481296Y-95898495D01*
X38482500Y-95922999D01*
X38482500Y-96573001D01*
X38481296Y-96597505D01*
X38477696Y-96621773D01*
X38471735Y-96645572D01*
X38463470Y-96668671D01*
X38452980Y-96690850D01*
X38440368Y-96711893D01*
X38425753Y-96731599D01*
X38409277Y-96749777D01*
X38391099Y-96766253D01*
X38371393Y-96780868D01*
X38350350Y-96793480D01*
X38328171Y-96803970D01*
X38305072Y-96812235D01*
X38281273Y-96818196D01*
X38257005Y-96821796D01*
X38232501Y-96823000D01*
X37332499Y-96823000D01*
X37307995Y-96821796D01*
X37283727Y-96818196D01*
X37259928Y-96812235D01*
X37236829Y-96803970D01*
X37214650Y-96793480D01*
X37193607Y-96780868D01*
X37173901Y-96766253D01*
X37155723Y-96749777D01*
X37139247Y-96731599D01*
X37124632Y-96711893D01*
X37112020Y-96690850D01*
X37101530Y-96668671D01*
X37093265Y-96645572D01*
X37087304Y-96621773D01*
X37083704Y-96597505D01*
X37082500Y-96573001D01*
X37082500Y-95922999D01*
X37083704Y-95898495D01*
X37087304Y-95874227D01*
X37093265Y-95850428D01*
X37101530Y-95827329D01*
X37112020Y-95805150D01*
X37124632Y-95784107D01*
X37139247Y-95764401D01*
X37155723Y-95746223D01*
X37173901Y-95729747D01*
X37193607Y-95715132D01*
X37214650Y-95702520D01*
X37236829Y-95692030D01*
X37259928Y-95683765D01*
X37283727Y-95677804D01*
X37307995Y-95674204D01*
X37332499Y-95673000D01*
X38232501Y-95673000D01*
X38257005Y-95674204D01*
X38257005Y-95674204D01*
G37*
D15*
X37782500Y-96248000D03*
D14*
G36*
X38257005Y-97724204D02*
G01*
X38281273Y-97727804D01*
X38305072Y-97733765D01*
X38328171Y-97742030D01*
X38350350Y-97752520D01*
X38371393Y-97765132D01*
X38391099Y-97779747D01*
X38409277Y-97796223D01*
X38425753Y-97814401D01*
X38440368Y-97834107D01*
X38452980Y-97855150D01*
X38463470Y-97877329D01*
X38471735Y-97900428D01*
X38477696Y-97924227D01*
X38481296Y-97948495D01*
X38482500Y-97972999D01*
X38482500Y-98623001D01*
X38481296Y-98647505D01*
X38477696Y-98671773D01*
X38471735Y-98695572D01*
X38463470Y-98718671D01*
X38452980Y-98740850D01*
X38440368Y-98761893D01*
X38425753Y-98781599D01*
X38409277Y-98799777D01*
X38391099Y-98816253D01*
X38371393Y-98830868D01*
X38350350Y-98843480D01*
X38328171Y-98853970D01*
X38305072Y-98862235D01*
X38281273Y-98868196D01*
X38257005Y-98871796D01*
X38232501Y-98873000D01*
X37332499Y-98873000D01*
X37307995Y-98871796D01*
X37283727Y-98868196D01*
X37259928Y-98862235D01*
X37236829Y-98853970D01*
X37214650Y-98843480D01*
X37193607Y-98830868D01*
X37173901Y-98816253D01*
X37155723Y-98799777D01*
X37139247Y-98781599D01*
X37124632Y-98761893D01*
X37112020Y-98740850D01*
X37101530Y-98718671D01*
X37093265Y-98695572D01*
X37087304Y-98671773D01*
X37083704Y-98647505D01*
X37082500Y-98623001D01*
X37082500Y-97972999D01*
X37083704Y-97948495D01*
X37087304Y-97924227D01*
X37093265Y-97900428D01*
X37101530Y-97877329D01*
X37112020Y-97855150D01*
X37124632Y-97834107D01*
X37139247Y-97814401D01*
X37155723Y-97796223D01*
X37173901Y-97779747D01*
X37193607Y-97765132D01*
X37214650Y-97752520D01*
X37236829Y-97742030D01*
X37259928Y-97733765D01*
X37283727Y-97727804D01*
X37307995Y-97724204D01*
X37332499Y-97723000D01*
X38232501Y-97723000D01*
X38257005Y-97724204D01*
X38257005Y-97724204D01*
G37*
D15*
X37782500Y-98298000D03*
D14*
G36*
X38193505Y-100182704D02*
G01*
X38217773Y-100186304D01*
X38241572Y-100192265D01*
X38264671Y-100200530D01*
X38286850Y-100211020D01*
X38307893Y-100223632D01*
X38327599Y-100238247D01*
X38345777Y-100254723D01*
X38362253Y-100272901D01*
X38376868Y-100292607D01*
X38389480Y-100313650D01*
X38399970Y-100335829D01*
X38408235Y-100358928D01*
X38414196Y-100382727D01*
X38417796Y-100406995D01*
X38419000Y-100431499D01*
X38419000Y-101081501D01*
X38417796Y-101106005D01*
X38414196Y-101130273D01*
X38408235Y-101154072D01*
X38399970Y-101177171D01*
X38389480Y-101199350D01*
X38376868Y-101220393D01*
X38362253Y-101240099D01*
X38345777Y-101258277D01*
X38327599Y-101274753D01*
X38307893Y-101289368D01*
X38286850Y-101301980D01*
X38264671Y-101312470D01*
X38241572Y-101320735D01*
X38217773Y-101326696D01*
X38193505Y-101330296D01*
X38169001Y-101331500D01*
X37268999Y-101331500D01*
X37244495Y-101330296D01*
X37220227Y-101326696D01*
X37196428Y-101320735D01*
X37173329Y-101312470D01*
X37151150Y-101301980D01*
X37130107Y-101289368D01*
X37110401Y-101274753D01*
X37092223Y-101258277D01*
X37075747Y-101240099D01*
X37061132Y-101220393D01*
X37048520Y-101199350D01*
X37038030Y-101177171D01*
X37029765Y-101154072D01*
X37023804Y-101130273D01*
X37020204Y-101106005D01*
X37019000Y-101081501D01*
X37019000Y-100431499D01*
X37020204Y-100406995D01*
X37023804Y-100382727D01*
X37029765Y-100358928D01*
X37038030Y-100335829D01*
X37048520Y-100313650D01*
X37061132Y-100292607D01*
X37075747Y-100272901D01*
X37092223Y-100254723D01*
X37110401Y-100238247D01*
X37130107Y-100223632D01*
X37151150Y-100211020D01*
X37173329Y-100200530D01*
X37196428Y-100192265D01*
X37220227Y-100186304D01*
X37244495Y-100182704D01*
X37268999Y-100181500D01*
X38169001Y-100181500D01*
X38193505Y-100182704D01*
X38193505Y-100182704D01*
G37*
D15*
X37719000Y-100756500D03*
D14*
G36*
X38193505Y-102232704D02*
G01*
X38217773Y-102236304D01*
X38241572Y-102242265D01*
X38264671Y-102250530D01*
X38286850Y-102261020D01*
X38307893Y-102273632D01*
X38327599Y-102288247D01*
X38345777Y-102304723D01*
X38362253Y-102322901D01*
X38376868Y-102342607D01*
X38389480Y-102363650D01*
X38399970Y-102385829D01*
X38408235Y-102408928D01*
X38414196Y-102432727D01*
X38417796Y-102456995D01*
X38419000Y-102481499D01*
X38419000Y-103131501D01*
X38417796Y-103156005D01*
X38414196Y-103180273D01*
X38408235Y-103204072D01*
X38399970Y-103227171D01*
X38389480Y-103249350D01*
X38376868Y-103270393D01*
X38362253Y-103290099D01*
X38345777Y-103308277D01*
X38327599Y-103324753D01*
X38307893Y-103339368D01*
X38286850Y-103351980D01*
X38264671Y-103362470D01*
X38241572Y-103370735D01*
X38217773Y-103376696D01*
X38193505Y-103380296D01*
X38169001Y-103381500D01*
X37268999Y-103381500D01*
X37244495Y-103380296D01*
X37220227Y-103376696D01*
X37196428Y-103370735D01*
X37173329Y-103362470D01*
X37151150Y-103351980D01*
X37130107Y-103339368D01*
X37110401Y-103324753D01*
X37092223Y-103308277D01*
X37075747Y-103290099D01*
X37061132Y-103270393D01*
X37048520Y-103249350D01*
X37038030Y-103227171D01*
X37029765Y-103204072D01*
X37023804Y-103180273D01*
X37020204Y-103156005D01*
X37019000Y-103131501D01*
X37019000Y-102481499D01*
X37020204Y-102456995D01*
X37023804Y-102432727D01*
X37029765Y-102408928D01*
X37038030Y-102385829D01*
X37048520Y-102363650D01*
X37061132Y-102342607D01*
X37075747Y-102322901D01*
X37092223Y-102304723D01*
X37110401Y-102288247D01*
X37130107Y-102273632D01*
X37151150Y-102261020D01*
X37173329Y-102250530D01*
X37196428Y-102242265D01*
X37220227Y-102236304D01*
X37244495Y-102232704D01*
X37268999Y-102231500D01*
X38169001Y-102231500D01*
X38193505Y-102232704D01*
X38193505Y-102232704D01*
G37*
D15*
X37719000Y-102806500D03*
D24*
X26797000Y-109347000D03*
X33747000Y-109347000D03*
D28*
X63436500Y-38100000D03*
D29*
X68436500Y-38100000D03*
D28*
X44339500Y-111315500D03*
D29*
X49339500Y-111315500D03*
D28*
X49610000Y-118745000D03*
D29*
X54610000Y-118745000D03*
D28*
X34370000Y-37973000D03*
D29*
X39370000Y-37973000D03*
D28*
X64215000Y-118745000D03*
D29*
X69215000Y-118745000D03*
D28*
X35005000Y-118745000D03*
D29*
X40005000Y-118745000D03*
D28*
X48958500Y-38100000D03*
D29*
X53958500Y-38100000D03*
D21*
X48815000Y-89916000D03*
D22*
X43815000Y-89916000D03*
D21*
X49450000Y-67818000D03*
D22*
X44450000Y-67818000D03*
D14*
G36*
X55084505Y-58336204D02*
G01*
X55108773Y-58339804D01*
X55132572Y-58345765D01*
X55155671Y-58354030D01*
X55177850Y-58364520D01*
X55198893Y-58377132D01*
X55218599Y-58391747D01*
X55236777Y-58408223D01*
X55253253Y-58426401D01*
X55267868Y-58446107D01*
X55280480Y-58467150D01*
X55290970Y-58489329D01*
X55299235Y-58512428D01*
X55305196Y-58536227D01*
X55308796Y-58560495D01*
X55310000Y-58584999D01*
X55310000Y-59235001D01*
X55308796Y-59259505D01*
X55305196Y-59283773D01*
X55299235Y-59307572D01*
X55290970Y-59330671D01*
X55280480Y-59352850D01*
X55267868Y-59373893D01*
X55253253Y-59393599D01*
X55236777Y-59411777D01*
X55218599Y-59428253D01*
X55198893Y-59442868D01*
X55177850Y-59455480D01*
X55155671Y-59465970D01*
X55132572Y-59474235D01*
X55108773Y-59480196D01*
X55084505Y-59483796D01*
X55060001Y-59485000D01*
X54159999Y-59485000D01*
X54135495Y-59483796D01*
X54111227Y-59480196D01*
X54087428Y-59474235D01*
X54064329Y-59465970D01*
X54042150Y-59455480D01*
X54021107Y-59442868D01*
X54001401Y-59428253D01*
X53983223Y-59411777D01*
X53966747Y-59393599D01*
X53952132Y-59373893D01*
X53939520Y-59352850D01*
X53929030Y-59330671D01*
X53920765Y-59307572D01*
X53914804Y-59283773D01*
X53911204Y-59259505D01*
X53910000Y-59235001D01*
X53910000Y-58584999D01*
X53911204Y-58560495D01*
X53914804Y-58536227D01*
X53920765Y-58512428D01*
X53929030Y-58489329D01*
X53939520Y-58467150D01*
X53952132Y-58446107D01*
X53966747Y-58426401D01*
X53983223Y-58408223D01*
X54001401Y-58391747D01*
X54021107Y-58377132D01*
X54042150Y-58364520D01*
X54064329Y-58354030D01*
X54087428Y-58345765D01*
X54111227Y-58339804D01*
X54135495Y-58336204D01*
X54159999Y-58335000D01*
X55060001Y-58335000D01*
X55084505Y-58336204D01*
X55084505Y-58336204D01*
G37*
D15*
X54610000Y-58910000D03*
D14*
G36*
X55084505Y-60386204D02*
G01*
X55108773Y-60389804D01*
X55132572Y-60395765D01*
X55155671Y-60404030D01*
X55177850Y-60414520D01*
X55198893Y-60427132D01*
X55218599Y-60441747D01*
X55236777Y-60458223D01*
X55253253Y-60476401D01*
X55267868Y-60496107D01*
X55280480Y-60517150D01*
X55290970Y-60539329D01*
X55299235Y-60562428D01*
X55305196Y-60586227D01*
X55308796Y-60610495D01*
X55310000Y-60634999D01*
X55310000Y-61285001D01*
X55308796Y-61309505D01*
X55305196Y-61333773D01*
X55299235Y-61357572D01*
X55290970Y-61380671D01*
X55280480Y-61402850D01*
X55267868Y-61423893D01*
X55253253Y-61443599D01*
X55236777Y-61461777D01*
X55218599Y-61478253D01*
X55198893Y-61492868D01*
X55177850Y-61505480D01*
X55155671Y-61515970D01*
X55132572Y-61524235D01*
X55108773Y-61530196D01*
X55084505Y-61533796D01*
X55060001Y-61535000D01*
X54159999Y-61535000D01*
X54135495Y-61533796D01*
X54111227Y-61530196D01*
X54087428Y-61524235D01*
X54064329Y-61515970D01*
X54042150Y-61505480D01*
X54021107Y-61492868D01*
X54001401Y-61478253D01*
X53983223Y-61461777D01*
X53966747Y-61443599D01*
X53952132Y-61423893D01*
X53939520Y-61402850D01*
X53929030Y-61380671D01*
X53920765Y-61357572D01*
X53914804Y-61333773D01*
X53911204Y-61309505D01*
X53910000Y-61285001D01*
X53910000Y-60634999D01*
X53911204Y-60610495D01*
X53914804Y-60586227D01*
X53920765Y-60562428D01*
X53929030Y-60539329D01*
X53939520Y-60517150D01*
X53952132Y-60496107D01*
X53966747Y-60476401D01*
X53983223Y-60458223D01*
X54001401Y-60441747D01*
X54021107Y-60427132D01*
X54042150Y-60414520D01*
X54064329Y-60404030D01*
X54087428Y-60395765D01*
X54111227Y-60389804D01*
X54135495Y-60386204D01*
X54159999Y-60385000D01*
X55060001Y-60385000D01*
X55084505Y-60386204D01*
X55084505Y-60386204D01*
G37*
D15*
X54610000Y-60960000D03*
D14*
G36*
X41686005Y-95674204D02*
G01*
X41710273Y-95677804D01*
X41734072Y-95683765D01*
X41757171Y-95692030D01*
X41779350Y-95702520D01*
X41800393Y-95715132D01*
X41820099Y-95729747D01*
X41838277Y-95746223D01*
X41854753Y-95764401D01*
X41869368Y-95784107D01*
X41881980Y-95805150D01*
X41892470Y-95827329D01*
X41900735Y-95850428D01*
X41906696Y-95874227D01*
X41910296Y-95898495D01*
X41911500Y-95922999D01*
X41911500Y-96573001D01*
X41910296Y-96597505D01*
X41906696Y-96621773D01*
X41900735Y-96645572D01*
X41892470Y-96668671D01*
X41881980Y-96690850D01*
X41869368Y-96711893D01*
X41854753Y-96731599D01*
X41838277Y-96749777D01*
X41820099Y-96766253D01*
X41800393Y-96780868D01*
X41779350Y-96793480D01*
X41757171Y-96803970D01*
X41734072Y-96812235D01*
X41710273Y-96818196D01*
X41686005Y-96821796D01*
X41661501Y-96823000D01*
X40761499Y-96823000D01*
X40736995Y-96821796D01*
X40712727Y-96818196D01*
X40688928Y-96812235D01*
X40665829Y-96803970D01*
X40643650Y-96793480D01*
X40622607Y-96780868D01*
X40602901Y-96766253D01*
X40584723Y-96749777D01*
X40568247Y-96731599D01*
X40553632Y-96711893D01*
X40541020Y-96690850D01*
X40530530Y-96668671D01*
X40522265Y-96645572D01*
X40516304Y-96621773D01*
X40512704Y-96597505D01*
X40511500Y-96573001D01*
X40511500Y-95922999D01*
X40512704Y-95898495D01*
X40516304Y-95874227D01*
X40522265Y-95850428D01*
X40530530Y-95827329D01*
X40541020Y-95805150D01*
X40553632Y-95784107D01*
X40568247Y-95764401D01*
X40584723Y-95746223D01*
X40602901Y-95729747D01*
X40622607Y-95715132D01*
X40643650Y-95702520D01*
X40665829Y-95692030D01*
X40688928Y-95683765D01*
X40712727Y-95677804D01*
X40736995Y-95674204D01*
X40761499Y-95673000D01*
X41661501Y-95673000D01*
X41686005Y-95674204D01*
X41686005Y-95674204D01*
G37*
D15*
X41211500Y-96248000D03*
D14*
G36*
X41686005Y-97724204D02*
G01*
X41710273Y-97727804D01*
X41734072Y-97733765D01*
X41757171Y-97742030D01*
X41779350Y-97752520D01*
X41800393Y-97765132D01*
X41820099Y-97779747D01*
X41838277Y-97796223D01*
X41854753Y-97814401D01*
X41869368Y-97834107D01*
X41881980Y-97855150D01*
X41892470Y-97877329D01*
X41900735Y-97900428D01*
X41906696Y-97924227D01*
X41910296Y-97948495D01*
X41911500Y-97972999D01*
X41911500Y-98623001D01*
X41910296Y-98647505D01*
X41906696Y-98671773D01*
X41900735Y-98695572D01*
X41892470Y-98718671D01*
X41881980Y-98740850D01*
X41869368Y-98761893D01*
X41854753Y-98781599D01*
X41838277Y-98799777D01*
X41820099Y-98816253D01*
X41800393Y-98830868D01*
X41779350Y-98843480D01*
X41757171Y-98853970D01*
X41734072Y-98862235D01*
X41710273Y-98868196D01*
X41686005Y-98871796D01*
X41661501Y-98873000D01*
X40761499Y-98873000D01*
X40736995Y-98871796D01*
X40712727Y-98868196D01*
X40688928Y-98862235D01*
X40665829Y-98853970D01*
X40643650Y-98843480D01*
X40622607Y-98830868D01*
X40602901Y-98816253D01*
X40584723Y-98799777D01*
X40568247Y-98781599D01*
X40553632Y-98761893D01*
X40541020Y-98740850D01*
X40530530Y-98718671D01*
X40522265Y-98695572D01*
X40516304Y-98671773D01*
X40512704Y-98647505D01*
X40511500Y-98623001D01*
X40511500Y-97972999D01*
X40512704Y-97948495D01*
X40516304Y-97924227D01*
X40522265Y-97900428D01*
X40530530Y-97877329D01*
X40541020Y-97855150D01*
X40553632Y-97834107D01*
X40568247Y-97814401D01*
X40584723Y-97796223D01*
X40602901Y-97779747D01*
X40622607Y-97765132D01*
X40643650Y-97752520D01*
X40665829Y-97742030D01*
X40688928Y-97733765D01*
X40712727Y-97727804D01*
X40736995Y-97724204D01*
X40761499Y-97723000D01*
X41661501Y-97723000D01*
X41686005Y-97724204D01*
X41686005Y-97724204D01*
G37*
D15*
X41211500Y-98298000D03*
D21*
X59055000Y-49085500D03*
D30*
X57314680Y-109220000D02*
X53467000Y-105372320D01*
X59436000Y-109220000D02*
X57314680Y-109220000D01*
X53467000Y-105372320D02*
X53467000Y-98425000D01*
X37631499Y-91356999D02*
X36131500Y-89857000D01*
X39145339Y-91356999D02*
X37631499Y-91356999D01*
X45959340Y-98171000D02*
X39145339Y-91356999D01*
X53213000Y-98171000D02*
X45959340Y-98171000D01*
X53467000Y-98425000D02*
X53213000Y-98171000D01*
D31*
X41211500Y-96248000D02*
X37782500Y-96248000D01*
D30*
X57658000Y-98425000D02*
X59309000Y-96774000D01*
X53467000Y-98425000D02*
X57658000Y-98425000D01*
D32*
X59690000Y-60960000D02*
X54610000Y-60960000D01*
D31*
X52380000Y-76025000D02*
X55380000Y-73025000D01*
X52380000Y-76525000D02*
X52380000Y-76025000D01*
X47117000Y-81788000D02*
X52380000Y-76525000D01*
X55380000Y-73025000D02*
X55880000Y-73025000D01*
X44200500Y-81788000D02*
X47117000Y-81788000D01*
X36131500Y-89857000D02*
X44200500Y-81788000D01*
X59690000Y-72715000D02*
X59690000Y-61110010D01*
X59380000Y-73025000D02*
X59690000Y-72715000D01*
X55880000Y-73025000D02*
X59380000Y-73025000D01*
D30*
X31131500Y-89857000D02*
X36131500Y-89857000D01*
D31*
X42957626Y-105219500D02*
X38769616Y-101031490D01*
X43387000Y-105219500D02*
X42957626Y-105219500D01*
X38519000Y-100756500D02*
X37719000Y-100756500D01*
X38769616Y-101007116D02*
X38519000Y-100756500D01*
X38769616Y-101031490D02*
X38769616Y-101007116D01*
X37719000Y-98511510D02*
X37782500Y-98448010D01*
X37719000Y-100756500D02*
X37719000Y-98511510D01*
X41061490Y-98448010D02*
X41211500Y-98448010D01*
X38769616Y-100739884D02*
X41061490Y-98448010D01*
X38769616Y-101031490D02*
X38769616Y-100739884D01*
X33655000Y-70333500D02*
X36131500Y-67857000D01*
X33655000Y-76200000D02*
X33655000Y-70333500D01*
X45702000Y-77427500D02*
X36131500Y-67857000D01*
X45702000Y-78295500D02*
X45702000Y-77427500D01*
D30*
X50400000Y-55995000D02*
X49967500Y-55562500D01*
X57150000Y-55995000D02*
X50400000Y-55995000D01*
X48426000Y-55562500D02*
X36131500Y-67857000D01*
X49967500Y-55562500D02*
X48426000Y-55562500D01*
D31*
X59690000Y-58535000D02*
X57150000Y-55995000D01*
X59690000Y-58910000D02*
X59690000Y-58535000D01*
X54610000Y-58535000D02*
X57150000Y-55995000D01*
X54610000Y-58910000D02*
X54610000Y-58535000D01*
X33187490Y-102956510D02*
X37568990Y-102956510D01*
X26797000Y-109347000D02*
X33187490Y-102956510D01*
D32*
X68058000Y-55880000D02*
X68389500Y-55548500D01*
X65550000Y-55880000D02*
X68058000Y-55880000D01*
D31*
X74930000Y-64135000D02*
X74930000Y-58356500D01*
X76200000Y-65405000D02*
X74930000Y-64135000D01*
X72122000Y-55548500D02*
X74930000Y-58356500D01*
D32*
X69589510Y-55464510D02*
X69673500Y-55548500D01*
D31*
X69673500Y-55548500D02*
X72122000Y-55548500D01*
X68389500Y-55548500D02*
X69673500Y-55548500D01*
D32*
X69673500Y-48203000D02*
X66022000Y-44551500D01*
X66022000Y-44551500D02*
X66022000Y-43751500D01*
X69673500Y-55548500D02*
X69673500Y-48203000D01*
D31*
X59055000Y-50050000D02*
X57150000Y-51955000D01*
X59055000Y-49085500D02*
X59055000Y-50050000D01*
X64300000Y-58910000D02*
X63500000Y-58910000D01*
X76200000Y-70810000D02*
X64300000Y-58910000D01*
X76200000Y-75565000D02*
X76200000Y-70810000D01*
X63500000Y-58910000D02*
X63500000Y-55880000D01*
D32*
X35560000Y-76345000D02*
X35705000Y-76200000D01*
X35560000Y-78740000D02*
X35560000Y-76345000D01*
X68389500Y-52759500D02*
X67065000Y-51435000D01*
X68389500Y-53798500D02*
X68389500Y-52759500D01*
D31*
X44633853Y-101371010D02*
X43735672Y-100472829D01*
X45882012Y-101371010D02*
X44633853Y-101371010D01*
X48387000Y-103875998D02*
X45882012Y-101371010D01*
X48387000Y-105219500D02*
X48387000Y-103875998D01*
D32*
X76980000Y-57556500D02*
X73914000Y-54490500D01*
X76980000Y-58356500D02*
X76980000Y-57556500D01*
X74556500Y-54490500D02*
X77851000Y-51196000D01*
X77851000Y-51196000D02*
X77851000Y-50546000D01*
X73914000Y-54490500D02*
X74556500Y-54490500D01*
D33*
G36*
X70005182Y-34886835D02*
G01*
X70262389Y-34940793D01*
X70509517Y-35030228D01*
X70741688Y-35153377D01*
X70954338Y-35307820D01*
X71143263Y-35490503D01*
X71304763Y-35697846D01*
X71435641Y-35925750D01*
X71533325Y-36169729D01*
X71595894Y-36424993D01*
X71622556Y-36690932D01*
X71694827Y-39124057D01*
X71683262Y-39397622D01*
X71633441Y-39662186D01*
X71546199Y-39916871D01*
X71423335Y-40156425D01*
X71267396Y-40375880D01*
X71081601Y-40570704D01*
X70869786Y-40736879D01*
X70636332Y-40870964D01*
X70386069Y-40970188D01*
X70124167Y-41032499D01*
X69851455Y-41057025D01*
X63086015Y-41177122D01*
X63077143Y-41177590D01*
X62798564Y-41202089D01*
X62781026Y-41204878D01*
X62508589Y-41267996D01*
X62491612Y-41273204D01*
X62230642Y-41373705D01*
X62214557Y-41381230D01*
X61970156Y-41517151D01*
X61955278Y-41526845D01*
X61732226Y-41695526D01*
X61718846Y-41707202D01*
X61521502Y-41905347D01*
X61509881Y-41918774D01*
X61342104Y-42142508D01*
X61332469Y-42157426D01*
X61197541Y-42402376D01*
X61190082Y-42418491D01*
X61090639Y-42679866D01*
X61085500Y-42696863D01*
X61023486Y-42969554D01*
X61020768Y-42987104D01*
X60997398Y-43265779D01*
X60996966Y-43274652D01*
X60833200Y-55229563D01*
X60833191Y-55230431D01*
X60833003Y-55257826D01*
X60833000Y-55258698D01*
X60833000Y-57357928D01*
X60789319Y-57322080D01*
X60465787Y-56998548D01*
X60489502Y-56954180D01*
X60525812Y-56834482D01*
X60538072Y-56710000D01*
X60538072Y-55280000D01*
X60525812Y-55155518D01*
X60489502Y-55035820D01*
X60430537Y-54925506D01*
X60351185Y-54828815D01*
X60254494Y-54749463D01*
X60144180Y-54690498D01*
X60024482Y-54654188D01*
X59900000Y-54641928D01*
X59414563Y-54641928D01*
X59351523Y-54523989D01*
X59022241Y-54122759D01*
X58621011Y-53793477D01*
X58163250Y-53548799D01*
X57827291Y-53446887D01*
X58062752Y-53321030D01*
X58078541Y-53308072D01*
X59900000Y-53308072D01*
X60024482Y-53295812D01*
X60144180Y-53259502D01*
X60254494Y-53200537D01*
X60351185Y-53121185D01*
X60430537Y-53024494D01*
X60489502Y-52914180D01*
X60525812Y-52794482D01*
X60538072Y-52670000D01*
X60538072Y-51240000D01*
X60525812Y-51115518D01*
X60489502Y-50995820D01*
X60446429Y-50915237D01*
X60572852Y-50678715D01*
X60629609Y-50491613D01*
X60666343Y-50370517D01*
X60697911Y-50050000D01*
X60690000Y-49969678D01*
X60690000Y-48924467D01*
X60674254Y-48845307D01*
X60666343Y-48764984D01*
X60642914Y-48687749D01*
X60627168Y-48608588D01*
X60596281Y-48534021D01*
X60572852Y-48456785D01*
X60534804Y-48385602D01*
X60503918Y-48311037D01*
X60459079Y-48243931D01*
X60421031Y-48172748D01*
X60369826Y-48110354D01*
X60324987Y-48043248D01*
X60267920Y-47986181D01*
X60216714Y-47923786D01*
X60154320Y-47872581D01*
X60097252Y-47815513D01*
X60030142Y-47770671D01*
X59967751Y-47719469D01*
X59896573Y-47681424D01*
X59829463Y-47636582D01*
X59754893Y-47605694D01*
X59683714Y-47567648D01*
X59606482Y-47544220D01*
X59531912Y-47513332D01*
X59452748Y-47497585D01*
X59375515Y-47474157D01*
X59295194Y-47466246D01*
X59216033Y-47450500D01*
X59135322Y-47450500D01*
X59055000Y-47442589D01*
X58974678Y-47450500D01*
X58893967Y-47450500D01*
X58814807Y-47466246D01*
X58734484Y-47474157D01*
X58657249Y-47497586D01*
X58578088Y-47513332D01*
X58503521Y-47544219D01*
X58426285Y-47567648D01*
X58355102Y-47605696D01*
X58280537Y-47636582D01*
X58213431Y-47681421D01*
X58142248Y-47719469D01*
X58079854Y-47770674D01*
X58012748Y-47815513D01*
X57955681Y-47872580D01*
X57893286Y-47923786D01*
X57842081Y-47986180D01*
X57785013Y-48043248D01*
X57740171Y-48110358D01*
X57688969Y-48172749D01*
X57650924Y-48243927D01*
X57606082Y-48311037D01*
X57575194Y-48385607D01*
X57537148Y-48456786D01*
X57513720Y-48534018D01*
X57482832Y-48608588D01*
X57467085Y-48687752D01*
X57443657Y-48764985D01*
X57435746Y-48845306D01*
X57420000Y-48924467D01*
X57420000Y-49372761D01*
X56190834Y-50601928D01*
X54400000Y-50601928D01*
X54275518Y-50614188D01*
X54155820Y-50650498D01*
X54045506Y-50709463D01*
X53948815Y-50788815D01*
X53869463Y-50885506D01*
X53810498Y-50995820D01*
X53774188Y-51115518D01*
X53761928Y-51240000D01*
X53761928Y-52670000D01*
X53774188Y-52794482D01*
X53810498Y-52914180D01*
X53869463Y-53024494D01*
X53948815Y-53121185D01*
X54045506Y-53200537D01*
X54155820Y-53259502D01*
X54275518Y-53295812D01*
X54400000Y-53308072D01*
X56221459Y-53308072D01*
X56237248Y-53321030D01*
X56310155Y-53360000D01*
X51436683Y-53360000D01*
X50980750Y-53116299D01*
X50484050Y-52965627D01*
X50096942Y-52927500D01*
X50096934Y-52927500D01*
X49967500Y-52914752D01*
X49838066Y-52927500D01*
X48555434Y-52927500D01*
X48426000Y-52914752D01*
X48296566Y-52927500D01*
X48296558Y-52927500D01*
X47909450Y-52965627D01*
X47412750Y-53116299D01*
X46954989Y-53360977D01*
X46553759Y-53690259D01*
X46471242Y-53790806D01*
X34176745Y-66085303D01*
X33929978Y-66385990D01*
X33685299Y-66843751D01*
X33534627Y-67340451D01*
X33483752Y-67857000D01*
X33513834Y-68162428D01*
X33175930Y-68500331D01*
X33184453Y-68479756D01*
X33266500Y-68067279D01*
X33266500Y-67646721D01*
X33184453Y-67234244D01*
X33023512Y-66845698D01*
X32789863Y-66496017D01*
X32492483Y-66198637D01*
X32142802Y-65964988D01*
X31754256Y-65804047D01*
X31341779Y-65722000D01*
X30921221Y-65722000D01*
X30508744Y-65804047D01*
X30120198Y-65964988D01*
X29770517Y-66198637D01*
X29473137Y-66496017D01*
X29239488Y-66845698D01*
X29078547Y-67234244D01*
X28996500Y-67646721D01*
X28996500Y-68067279D01*
X29078547Y-68479756D01*
X29239488Y-68868302D01*
X29473137Y-69217983D01*
X29770517Y-69515363D01*
X30120198Y-69749012D01*
X30508744Y-69909953D01*
X30921221Y-69992000D01*
X31341779Y-69992000D01*
X31754256Y-69909953D01*
X32120992Y-69758046D01*
X32043658Y-70012984D01*
X32012089Y-70333500D01*
X32020001Y-70413829D01*
X32020000Y-76280321D01*
X32043657Y-76520515D01*
X32137148Y-76828714D01*
X32288969Y-77112751D01*
X32493286Y-77361714D01*
X32742248Y-77566031D01*
X33026285Y-77717852D01*
X33334484Y-77811343D01*
X33655000Y-77842911D01*
X33975515Y-77811343D01*
X34283714Y-77717852D01*
X34425000Y-77642333D01*
X34425000Y-78294604D01*
X34413752Y-78331684D01*
X34396928Y-78502500D01*
X34396928Y-78977500D01*
X34413752Y-79148316D01*
X34463577Y-79312567D01*
X34544488Y-79463942D01*
X34653377Y-79596623D01*
X34786058Y-79705512D01*
X34937433Y-79786423D01*
X35101684Y-79836248D01*
X35272500Y-79853072D01*
X35319354Y-79853072D01*
X35337501Y-79858577D01*
X35560000Y-79880491D01*
X35782498Y-79858577D01*
X35800645Y-79853072D01*
X35847500Y-79853072D01*
X36018316Y-79836248D01*
X36182567Y-79786423D01*
X36333942Y-79705512D01*
X36466623Y-79596623D01*
X36575512Y-79463942D01*
X36656423Y-79312567D01*
X36706248Y-79148316D01*
X36723072Y-78977500D01*
X36723072Y-78502500D01*
X36706248Y-78331684D01*
X36695000Y-78294604D01*
X36695000Y-77232831D01*
X36768405Y-77143387D01*
X36850472Y-76989851D01*
X36901008Y-76823255D01*
X36918072Y-76650001D01*
X36918072Y-75749999D01*
X36901008Y-75576745D01*
X36850472Y-75410149D01*
X36768405Y-75256613D01*
X36657962Y-75122038D01*
X36523387Y-75011595D01*
X36369851Y-74929528D01*
X36203255Y-74878992D01*
X36030001Y-74861928D01*
X35379999Y-74861928D01*
X35290000Y-74870792D01*
X35290000Y-71010738D01*
X35826072Y-70474666D01*
X36131500Y-70504748D01*
X36436928Y-70474666D01*
X44067000Y-78104739D01*
X44067000Y-78375821D01*
X44090657Y-78616015D01*
X44184148Y-78924214D01*
X44335969Y-79208251D01*
X44540286Y-79457214D01*
X44789248Y-79661531D01*
X45073285Y-79813352D01*
X45381484Y-79906843D01*
X45702000Y-79938411D01*
X46022515Y-79906843D01*
X46330714Y-79813352D01*
X46614751Y-79661531D01*
X46863714Y-79457214D01*
X47068031Y-79208252D01*
X47219852Y-78924215D01*
X47313343Y-78616016D01*
X47337000Y-78375822D01*
X47337000Y-77507819D01*
X47344911Y-77427500D01*
X47337000Y-77347178D01*
X47313343Y-77106984D01*
X47219852Y-76798785D01*
X47068031Y-76514748D01*
X46863714Y-76265786D01*
X46801319Y-76214580D01*
X39150845Y-68564107D01*
X40896952Y-66818000D01*
X42811928Y-66818000D01*
X42811928Y-68818000D01*
X42824188Y-68942482D01*
X42860498Y-69062180D01*
X42919463Y-69172494D01*
X42998815Y-69269185D01*
X43095506Y-69348537D01*
X43205820Y-69407502D01*
X43325518Y-69443812D01*
X43450000Y-69456072D01*
X45450000Y-69456072D01*
X45574482Y-69443812D01*
X45694180Y-69407502D01*
X45804494Y-69348537D01*
X45901185Y-69269185D01*
X45980537Y-69172494D01*
X46039502Y-69062180D01*
X46075812Y-68942482D01*
X46088072Y-68818000D01*
X46088072Y-66818000D01*
X46075812Y-66693518D01*
X46039502Y-66573820D01*
X45980537Y-66463506D01*
X45901185Y-66366815D01*
X45804494Y-66287463D01*
X45694180Y-66228498D01*
X45574482Y-66192188D01*
X45450000Y-66179928D01*
X43450000Y-66179928D01*
X43325518Y-66192188D01*
X43205820Y-66228498D01*
X43095506Y-66287463D01*
X42998815Y-66366815D01*
X42919463Y-66463506D01*
X42860498Y-66573820D01*
X42824188Y-66693518D01*
X42811928Y-66818000D01*
X40896952Y-66818000D01*
X49313112Y-58401840D01*
X49386750Y-58441201D01*
X49883450Y-58591873D01*
X50270558Y-58630000D01*
X50270565Y-58630000D01*
X50399999Y-58642748D01*
X50529433Y-58630000D01*
X52975000Y-58630000D01*
X52975000Y-58990321D01*
X52998657Y-59230515D01*
X53092148Y-59538714D01*
X53243969Y-59822751D01*
X53448286Y-60071714D01*
X53466615Y-60086756D01*
X53421595Y-60141613D01*
X53339528Y-60295149D01*
X53288992Y-60461745D01*
X53271928Y-60634999D01*
X53271928Y-61285001D01*
X53288992Y-61458255D01*
X53339528Y-61624851D01*
X53421595Y-61778387D01*
X53532038Y-61912962D01*
X53666613Y-62023405D01*
X53820149Y-62105472D01*
X53865313Y-62119172D01*
X53798342Y-62123999D01*
X53780271Y-62126617D01*
X53499399Y-62188201D01*
X53481891Y-62193384D01*
X53212753Y-62294609D01*
X53196169Y-62302248D01*
X52944328Y-62441021D01*
X52929011Y-62450960D01*
X52699673Y-62624412D01*
X52685940Y-62636445D01*
X52483845Y-62840992D01*
X52471978Y-62854870D01*
X52301305Y-63086284D01*
X52291552Y-63101719D01*
X52155827Y-63355215D01*
X52148388Y-63371890D01*
X52050417Y-63642230D01*
X52045446Y-63659799D01*
X51987254Y-63941393D01*
X51984854Y-63959494D01*
X51967644Y-64246523D01*
X51967425Y-64255656D01*
X52085062Y-74007700D01*
X51280685Y-74812077D01*
X51218286Y-74863286D01*
X51013969Y-75112248D01*
X50862148Y-75396285D01*
X50768657Y-75704484D01*
X50755588Y-75837173D01*
X46439762Y-80153000D01*
X44280819Y-80153000D01*
X44200499Y-80145089D01*
X44120180Y-80153000D01*
X44120178Y-80153000D01*
X43879984Y-80176657D01*
X43571785Y-80270148D01*
X43287748Y-80421969D01*
X43038786Y-80626286D01*
X42987580Y-80688681D01*
X36436929Y-87239333D01*
X36260942Y-87222000D01*
X36260934Y-87222000D01*
X36131500Y-87209252D01*
X36002066Y-87222000D01*
X31002058Y-87222000D01*
X30614950Y-87260127D01*
X30118250Y-87410799D01*
X29660489Y-87655477D01*
X29259259Y-87984759D01*
X28929977Y-88385989D01*
X28685299Y-88843750D01*
X28534627Y-89340450D01*
X28483751Y-89857000D01*
X28534627Y-90373550D01*
X28685299Y-90870250D01*
X28929977Y-91328011D01*
X29259259Y-91729241D01*
X29660489Y-92058523D01*
X30118250Y-92303201D01*
X30614950Y-92453873D01*
X31002058Y-92492000D01*
X35040048Y-92492000D01*
X35676741Y-93128693D01*
X35759258Y-93229240D01*
X36160488Y-93558522D01*
X36618249Y-93803200D01*
X37114949Y-93953872D01*
X37502057Y-93991999D01*
X37502065Y-93991999D01*
X37631499Y-94004747D01*
X37760933Y-93991999D01*
X38053887Y-93991999D01*
X38674888Y-94613000D01*
X37702178Y-94613000D01*
X37461984Y-94636657D01*
X37153785Y-94730148D01*
X36869748Y-94881969D01*
X36620786Y-95086286D01*
X36416469Y-95335248D01*
X36264648Y-95619285D01*
X36171157Y-95927484D01*
X36139589Y-96248000D01*
X36171157Y-96568516D01*
X36264648Y-96876715D01*
X36416469Y-97160752D01*
X36565847Y-97342771D01*
X36557287Y-97349796D01*
X36405083Y-97535258D01*
X36352970Y-97598758D01*
X36201148Y-97882796D01*
X36107658Y-98190994D01*
X36076089Y-98511510D01*
X36084001Y-98591839D01*
X36084000Y-100676177D01*
X36076089Y-100756500D01*
X36107657Y-101077016D01*
X36181823Y-101321510D01*
X33267812Y-101321510D01*
X33187490Y-101313599D01*
X32866973Y-101345167D01*
X32558775Y-101438658D01*
X32274738Y-101590479D01*
X32025776Y-101794796D01*
X31974574Y-101857186D01*
X28135451Y-105696310D01*
X27930213Y-105611298D01*
X27179639Y-105462000D01*
X26414361Y-105462000D01*
X25663787Y-105611298D01*
X24956762Y-105904158D01*
X24320457Y-106329323D01*
X23779323Y-106870457D01*
X23354158Y-107506762D01*
X23061298Y-108213787D01*
X22912000Y-108964361D01*
X22912000Y-109729639D01*
X23061298Y-110480213D01*
X23354158Y-111187238D01*
X23779323Y-111823543D01*
X24320457Y-112364677D01*
X24956762Y-112789842D01*
X25663787Y-113082702D01*
X26414361Y-113232000D01*
X27179639Y-113232000D01*
X27930213Y-113082702D01*
X28637238Y-112789842D01*
X29273543Y-112364677D01*
X29814677Y-111823543D01*
X30239842Y-111187238D01*
X30294213Y-111055975D01*
X41704500Y-111055975D01*
X41704500Y-111575025D01*
X41805761Y-112084101D01*
X42004393Y-112563641D01*
X42292762Y-112995215D01*
X42659785Y-113362238D01*
X43091359Y-113650607D01*
X43570899Y-113849239D01*
X44079975Y-113950500D01*
X44599025Y-113950500D01*
X45108101Y-113849239D01*
X45587641Y-113650607D01*
X46019215Y-113362238D01*
X46386238Y-112995215D01*
X46674607Y-112563641D01*
X46873239Y-112084101D01*
X46974500Y-111575025D01*
X46974500Y-111055975D01*
X46873239Y-110546899D01*
X46674607Y-110067359D01*
X46386238Y-109635785D01*
X46019215Y-109268762D01*
X45587641Y-108980393D01*
X45108101Y-108781761D01*
X44599025Y-108680500D01*
X44079975Y-108680500D01*
X43570899Y-108781761D01*
X43091359Y-108980393D01*
X42659785Y-109268762D01*
X42292762Y-109635785D01*
X42004393Y-110067359D01*
X41805761Y-110546899D01*
X41704500Y-111055975D01*
X30294213Y-111055975D01*
X30532702Y-110480213D01*
X30682000Y-109729639D01*
X30682000Y-108964361D01*
X30532702Y-108213787D01*
X30447690Y-108008549D01*
X33864730Y-104591510D01*
X37649312Y-104591510D01*
X37889506Y-104567853D01*
X38197705Y-104474362D01*
X38481742Y-104322541D01*
X38730704Y-104118224D01*
X38935021Y-103869262D01*
X39060463Y-103634576D01*
X41744710Y-106318824D01*
X41795912Y-106381214D01*
X41856896Y-106431262D01*
X41906463Y-106523994D01*
X41985815Y-106620685D01*
X42082506Y-106700037D01*
X42192820Y-106759002D01*
X42312518Y-106795312D01*
X42437000Y-106807572D01*
X42560395Y-106807572D01*
X42637109Y-106830843D01*
X42957626Y-106862412D01*
X43037956Y-106854500D01*
X43467322Y-106854500D01*
X43707516Y-106830843D01*
X43784230Y-106807572D01*
X44337000Y-106807572D01*
X44461482Y-106795312D01*
X44581180Y-106759002D01*
X44691494Y-106700037D01*
X44788185Y-106620685D01*
X44867537Y-106523994D01*
X44898814Y-106465479D01*
X45136221Y-106624109D01*
X45424673Y-106743589D01*
X45730891Y-106804500D01*
X46043109Y-106804500D01*
X46349327Y-106743589D01*
X46637779Y-106624109D01*
X46897379Y-106450650D01*
X47108780Y-106239249D01*
X47225286Y-106381214D01*
X47474248Y-106585531D01*
X47758285Y-106737352D01*
X48066484Y-106830843D01*
X48387000Y-106862411D01*
X48707515Y-106830843D01*
X49015714Y-106737352D01*
X49299751Y-106585531D01*
X49548714Y-106381214D01*
X49753031Y-106132252D01*
X49904852Y-105848215D01*
X49998343Y-105540016D01*
X50022000Y-105299822D01*
X50022000Y-103956317D01*
X50029911Y-103875997D01*
X50012739Y-103701648D01*
X49998343Y-103555482D01*
X49904852Y-103247283D01*
X49753031Y-102963246D01*
X49548714Y-102714284D01*
X49486319Y-102663078D01*
X47629240Y-100806000D01*
X50832001Y-100806000D01*
X50832000Y-105242885D01*
X50819252Y-105372320D01*
X50832000Y-105501754D01*
X50832000Y-105501761D01*
X50870127Y-105888869D01*
X51020799Y-106385569D01*
X51265477Y-106843330D01*
X51594759Y-107244561D01*
X51695306Y-107327078D01*
X55359926Y-110991699D01*
X55442439Y-111092241D01*
X55843669Y-111421523D01*
X56301430Y-111666201D01*
X56798129Y-111816873D01*
X56849638Y-111821946D01*
X57185238Y-111855000D01*
X57185245Y-111855000D01*
X57314679Y-111867748D01*
X57444113Y-111855000D01*
X59565442Y-111855000D01*
X59952550Y-111816873D01*
X60449250Y-111666201D01*
X60907011Y-111421523D01*
X61308241Y-111092241D01*
X61637523Y-110691011D01*
X61882201Y-110233250D01*
X62032873Y-109736550D01*
X62083749Y-109220000D01*
X62032873Y-108703450D01*
X61882201Y-108206750D01*
X61637523Y-107748989D01*
X61308241Y-107347759D01*
X60907011Y-107018477D01*
X60449250Y-106773799D01*
X59952550Y-106623127D01*
X59565442Y-106585000D01*
X58406133Y-106585000D01*
X56102000Y-104280868D01*
X56102000Y-103980521D01*
X57301000Y-103980521D01*
X57301000Y-104401079D01*
X57383047Y-104813556D01*
X57543988Y-105202102D01*
X57777637Y-105551783D01*
X58075017Y-105849163D01*
X58424698Y-106082812D01*
X58813244Y-106243753D01*
X59225721Y-106325800D01*
X59646279Y-106325800D01*
X60058756Y-106243753D01*
X60447302Y-106082812D01*
X60796983Y-105849163D01*
X61094363Y-105551783D01*
X61328012Y-105202102D01*
X61488953Y-104813556D01*
X61571000Y-104401079D01*
X61571000Y-103980521D01*
X61488953Y-103568044D01*
X61328012Y-103179498D01*
X61094363Y-102829817D01*
X60796983Y-102532437D01*
X60447302Y-102298788D01*
X60058756Y-102137847D01*
X59646279Y-102055800D01*
X59225721Y-102055800D01*
X58813244Y-102137847D01*
X58424698Y-102298788D01*
X58075017Y-102532437D01*
X57777637Y-102829817D01*
X57543988Y-103179498D01*
X57383047Y-103568044D01*
X57301000Y-103980521D01*
X56102000Y-103980521D01*
X56102000Y-101060000D01*
X57528566Y-101060000D01*
X57658000Y-101072748D01*
X57787434Y-101060000D01*
X57787442Y-101060000D01*
X58174550Y-101021873D01*
X58671250Y-100871201D01*
X59129011Y-100626523D01*
X59530241Y-100297241D01*
X59612759Y-100196693D01*
X61263755Y-98545696D01*
X61510522Y-98245011D01*
X61755201Y-97787250D01*
X61905873Y-97290550D01*
X61956748Y-96774000D01*
X61905873Y-96257450D01*
X61755201Y-95760751D01*
X61510522Y-95302990D01*
X61181241Y-94901759D01*
X60780010Y-94572478D01*
X60322249Y-94327799D01*
X59825550Y-94177127D01*
X59309000Y-94126252D01*
X58792450Y-94177127D01*
X58295750Y-94327799D01*
X57837989Y-94572478D01*
X57537304Y-94819245D01*
X56566548Y-95790000D01*
X54348233Y-95790000D01*
X54226250Y-95724799D01*
X53729550Y-95574127D01*
X53342442Y-95536000D01*
X53342434Y-95536000D01*
X53213000Y-95523252D01*
X53083566Y-95536000D01*
X47050792Y-95536000D01*
X43068864Y-91554072D01*
X44815000Y-91554072D01*
X44939482Y-91541812D01*
X44963517Y-91534521D01*
X57174000Y-91534521D01*
X57174000Y-91955079D01*
X57256047Y-92367556D01*
X57416988Y-92756102D01*
X57650637Y-93105783D01*
X57948017Y-93403163D01*
X58297698Y-93636812D01*
X58686244Y-93797753D01*
X59098721Y-93879800D01*
X59519279Y-93879800D01*
X59931756Y-93797753D01*
X60320302Y-93636812D01*
X60669983Y-93403163D01*
X60967363Y-93105783D01*
X61201012Y-92756102D01*
X61361953Y-92367556D01*
X61444000Y-91955079D01*
X61444000Y-91534521D01*
X61361953Y-91122044D01*
X61201012Y-90733498D01*
X60967363Y-90383817D01*
X60669983Y-90086437D01*
X60320302Y-89852788D01*
X59931756Y-89691847D01*
X59519279Y-89609800D01*
X59098721Y-89609800D01*
X58686244Y-89691847D01*
X58297698Y-89852788D01*
X57948017Y-90086437D01*
X57650637Y-90383817D01*
X57416988Y-90733498D01*
X57256047Y-91122044D01*
X57174000Y-91534521D01*
X44963517Y-91534521D01*
X45059180Y-91505502D01*
X45169494Y-91446537D01*
X45266185Y-91367185D01*
X45345537Y-91270494D01*
X45404502Y-91160180D01*
X45440812Y-91040482D01*
X45453072Y-90916000D01*
X45453072Y-88916000D01*
X45440812Y-88791518D01*
X45404502Y-88671820D01*
X45345537Y-88561506D01*
X45266185Y-88464815D01*
X45169494Y-88385463D01*
X45059180Y-88326498D01*
X44939482Y-88290188D01*
X44815000Y-88277928D01*
X42815000Y-88277928D01*
X42690518Y-88290188D01*
X42570820Y-88326498D01*
X42460506Y-88385463D01*
X42363815Y-88464815D01*
X42284463Y-88561506D01*
X42225498Y-88671820D01*
X42189188Y-88791518D01*
X42176928Y-88916000D01*
X42176928Y-90662136D01*
X41100097Y-89585305D01*
X41017580Y-89484758D01*
X40616350Y-89155476D01*
X40158589Y-88910798D01*
X39661889Y-88760126D01*
X39551486Y-88749252D01*
X44877739Y-83423000D01*
X47036681Y-83423000D01*
X47117000Y-83430911D01*
X47197319Y-83423000D01*
X47197322Y-83423000D01*
X47437516Y-83399343D01*
X47745715Y-83305852D01*
X48029752Y-83154031D01*
X48278714Y-82949714D01*
X48329925Y-82887313D01*
X52146140Y-79071099D01*
X52236420Y-86555274D01*
X52236852Y-86564321D01*
X52260601Y-86848428D01*
X52263391Y-86866315D01*
X52327294Y-87144160D01*
X52332600Y-87161470D01*
X52435361Y-87427405D01*
X52443073Y-87443783D01*
X52582601Y-87692404D01*
X52592564Y-87707520D01*
X52766026Y-87933777D01*
X52778036Y-87947323D01*
X52981906Y-88146617D01*
X52995721Y-88158317D01*
X53225857Y-88326599D01*
X53241196Y-88336217D01*
X53492921Y-88470066D01*
X53509470Y-88477404D01*
X53777669Y-88574102D01*
X53795094Y-88579013D01*
X54074317Y-88636594D01*
X54092263Y-88638977D01*
X54376837Y-88656271D01*
X54385892Y-88656498D01*
X80226483Y-88381598D01*
X80497963Y-88398132D01*
X80759875Y-88452251D01*
X81011405Y-88543126D01*
X81247420Y-88668901D01*
X81463114Y-88827015D01*
X81654086Y-89014242D01*
X81816441Y-89226763D01*
X81946865Y-89460244D01*
X82042705Y-89709927D01*
X82101997Y-89970709D01*
X82123905Y-90241807D01*
X82361987Y-116216627D01*
X82163339Y-115919330D01*
X81629170Y-115385161D01*
X81001054Y-114965467D01*
X80303128Y-114676377D01*
X79562215Y-114529000D01*
X78806785Y-114529000D01*
X78065872Y-114676377D01*
X77367946Y-114965467D01*
X76739830Y-115385161D01*
X76205661Y-115919330D01*
X75785967Y-116547446D01*
X75496877Y-117245372D01*
X75349500Y-117986285D01*
X75349500Y-118741715D01*
X75496877Y-119482628D01*
X75785967Y-120180554D01*
X76205661Y-120808670D01*
X76739830Y-121342839D01*
X77367946Y-121762533D01*
X78065872Y-122051623D01*
X78806785Y-122199000D01*
X79562215Y-122199000D01*
X80303128Y-122051623D01*
X81001054Y-121762533D01*
X81629170Y-121342839D01*
X82163339Y-120808670D01*
X82400819Y-120453256D01*
X82404562Y-120861610D01*
X82387575Y-121133469D01*
X82332908Y-121395670D01*
X82241399Y-121647379D01*
X82114913Y-121883468D01*
X81956044Y-122099095D01*
X81768041Y-122289852D01*
X81554743Y-122451843D01*
X81320526Y-122581744D01*
X81070160Y-122676908D01*
X80808793Y-122735380D01*
X80537207Y-122756319D01*
X24742233Y-123056293D01*
X24505178Y-123041063D01*
X23995484Y-122891536D01*
X23671411Y-122724627D01*
X23535770Y-122627706D01*
X23347065Y-122448536D01*
X23185015Y-122244934D01*
X23050498Y-122017017D01*
X22551937Y-121019893D01*
X22441128Y-120747515D01*
X22374700Y-120466122D01*
X22352000Y-120172955D01*
X22352000Y-119901092D01*
X22572967Y-120434554D01*
X22992661Y-121062670D01*
X23526830Y-121596839D01*
X24154946Y-122016533D01*
X24852872Y-122305623D01*
X25593785Y-122453000D01*
X26349215Y-122453000D01*
X27090128Y-122305623D01*
X27788054Y-122016533D01*
X28416170Y-121596839D01*
X28950339Y-121062670D01*
X29370033Y-120434554D01*
X29659123Y-119736628D01*
X29806500Y-118995715D01*
X29806500Y-118485475D01*
X32370000Y-118485475D01*
X32370000Y-119004525D01*
X32471261Y-119513601D01*
X32669893Y-119993141D01*
X32958262Y-120424715D01*
X33325285Y-120791738D01*
X33756859Y-121080107D01*
X34236399Y-121278739D01*
X34745475Y-121380000D01*
X35264525Y-121380000D01*
X35773601Y-121278739D01*
X36253141Y-121080107D01*
X36684715Y-120791738D01*
X37051738Y-120424715D01*
X37340107Y-119993141D01*
X37538739Y-119513601D01*
X37640000Y-119004525D01*
X37640000Y-118485475D01*
X46975000Y-118485475D01*
X46975000Y-119004525D01*
X47076261Y-119513601D01*
X47274893Y-119993141D01*
X47563262Y-120424715D01*
X47930285Y-120791738D01*
X48361859Y-121080107D01*
X48841399Y-121278739D01*
X49350475Y-121380000D01*
X49869525Y-121380000D01*
X50378601Y-121278739D01*
X50858141Y-121080107D01*
X51289715Y-120791738D01*
X51656738Y-120424715D01*
X51945107Y-119993141D01*
X52143739Y-119513601D01*
X52245000Y-119004525D01*
X52245000Y-118485475D01*
X61580000Y-118485475D01*
X61580000Y-119004525D01*
X61681261Y-119513601D01*
X61879893Y-119993141D01*
X62168262Y-120424715D01*
X62535285Y-120791738D01*
X62966859Y-121080107D01*
X63446399Y-121278739D01*
X63955475Y-121380000D01*
X64474525Y-121380000D01*
X64983601Y-121278739D01*
X65463141Y-121080107D01*
X65894715Y-120791738D01*
X66261738Y-120424715D01*
X66550107Y-119993141D01*
X66748739Y-119513601D01*
X66850000Y-119004525D01*
X66850000Y-118485475D01*
X66748739Y-117976399D01*
X66550107Y-117496859D01*
X66261738Y-117065285D01*
X65894715Y-116698262D01*
X65463141Y-116409893D01*
X64983601Y-116211261D01*
X64474525Y-116110000D01*
X63955475Y-116110000D01*
X63446399Y-116211261D01*
X62966859Y-116409893D01*
X62535285Y-116698262D01*
X62168262Y-117065285D01*
X61879893Y-117496859D01*
X61681261Y-117976399D01*
X61580000Y-118485475D01*
X52245000Y-118485475D01*
X52143739Y-117976399D01*
X51945107Y-117496859D01*
X51656738Y-117065285D01*
X51289715Y-116698262D01*
X50858141Y-116409893D01*
X50378601Y-116211261D01*
X49869525Y-116110000D01*
X49350475Y-116110000D01*
X48841399Y-116211261D01*
X48361859Y-116409893D01*
X47930285Y-116698262D01*
X47563262Y-117065285D01*
X47274893Y-117496859D01*
X47076261Y-117976399D01*
X46975000Y-118485475D01*
X37640000Y-118485475D01*
X37538739Y-117976399D01*
X37340107Y-117496859D01*
X37051738Y-117065285D01*
X36684715Y-116698262D01*
X36253141Y-116409893D01*
X35773601Y-116211261D01*
X35264525Y-116110000D01*
X34745475Y-116110000D01*
X34236399Y-116211261D01*
X33756859Y-116409893D01*
X33325285Y-116698262D01*
X32958262Y-117065285D01*
X32669893Y-117496859D01*
X32471261Y-117976399D01*
X32370000Y-118485475D01*
X29806500Y-118485475D01*
X29806500Y-118240285D01*
X29659123Y-117499372D01*
X29370033Y-116801446D01*
X28950339Y-116173330D01*
X28416170Y-115639161D01*
X27788054Y-115219467D01*
X27090128Y-114930377D01*
X26349215Y-114783000D01*
X25593785Y-114783000D01*
X24852872Y-114930377D01*
X24154946Y-115219467D01*
X23526830Y-115639161D01*
X22992661Y-116173330D01*
X22572967Y-116801446D01*
X22363322Y-117307574D01*
X22926016Y-45845361D01*
X23166000Y-45845361D01*
X23166000Y-46610639D01*
X23315298Y-47361213D01*
X23608158Y-48068238D01*
X24033323Y-48704543D01*
X24574457Y-49245677D01*
X25210762Y-49670842D01*
X25917787Y-49963702D01*
X26668361Y-50113000D01*
X27433639Y-50113000D01*
X28184213Y-49963702D01*
X28891238Y-49670842D01*
X29527543Y-49245677D01*
X30068677Y-48704543D01*
X30493842Y-48068238D01*
X30786702Y-47361213D01*
X30936000Y-46610639D01*
X30936000Y-45926500D01*
X40589428Y-45926500D01*
X40589428Y-47926500D01*
X40601688Y-48050982D01*
X40637998Y-48170680D01*
X40696963Y-48280994D01*
X40776315Y-48377685D01*
X40873006Y-48457037D01*
X40983320Y-48516002D01*
X41103018Y-48552312D01*
X41227500Y-48564572D01*
X43227500Y-48564572D01*
X43351982Y-48552312D01*
X43471680Y-48516002D01*
X43581994Y-48457037D01*
X43678685Y-48377685D01*
X43758037Y-48280994D01*
X43817002Y-48170680D01*
X43853312Y-48050982D01*
X43865572Y-47926500D01*
X43865572Y-45926500D01*
X43853312Y-45802018D01*
X43817002Y-45682320D01*
X43758037Y-45572006D01*
X43678685Y-45475315D01*
X43581994Y-45395963D01*
X43471680Y-45336998D01*
X43351982Y-45300688D01*
X43227500Y-45288428D01*
X41227500Y-45288428D01*
X41103018Y-45300688D01*
X40983320Y-45336998D01*
X40873006Y-45395963D01*
X40776315Y-45475315D01*
X40696963Y-45572006D01*
X40637998Y-45682320D01*
X40601688Y-45802018D01*
X40589428Y-45926500D01*
X30936000Y-45926500D01*
X30936000Y-45845361D01*
X30786702Y-45094787D01*
X30493842Y-44387762D01*
X30068677Y-43751457D01*
X29527543Y-43210323D01*
X28891238Y-42785158D01*
X28184213Y-42492298D01*
X27433639Y-42343000D01*
X26668361Y-42343000D01*
X25917787Y-42492298D01*
X25210762Y-42785158D01*
X24574457Y-43210323D01*
X24033323Y-43751457D01*
X23608158Y-44387762D01*
X23315298Y-45094787D01*
X23166000Y-45845361D01*
X22926016Y-45845361D01*
X22972976Y-39881503D01*
X23373661Y-40481170D01*
X23907830Y-41015339D01*
X24535946Y-41435033D01*
X25233872Y-41724123D01*
X25974785Y-41871500D01*
X26730215Y-41871500D01*
X27471128Y-41724123D01*
X28169054Y-41435033D01*
X28797170Y-41015339D01*
X29331339Y-40481170D01*
X29751033Y-39853054D01*
X30040123Y-39155128D01*
X30187500Y-38414215D01*
X30187500Y-37713475D01*
X31735000Y-37713475D01*
X31735000Y-38232525D01*
X31836261Y-38741601D01*
X32034893Y-39221141D01*
X32323262Y-39652715D01*
X32690285Y-40019738D01*
X33121859Y-40308107D01*
X33601399Y-40506739D01*
X34110475Y-40608000D01*
X34629525Y-40608000D01*
X35138601Y-40506739D01*
X35618141Y-40308107D01*
X36049715Y-40019738D01*
X36416738Y-39652715D01*
X36705107Y-39221141D01*
X36903739Y-38741601D01*
X37005000Y-38232525D01*
X37005000Y-37840475D01*
X46323500Y-37840475D01*
X46323500Y-38359525D01*
X46424761Y-38868601D01*
X46623393Y-39348141D01*
X46911762Y-39779715D01*
X47278785Y-40146738D01*
X47710359Y-40435107D01*
X48189899Y-40633739D01*
X48698975Y-40735000D01*
X49218025Y-40735000D01*
X49727101Y-40633739D01*
X50206641Y-40435107D01*
X50638215Y-40146738D01*
X51005238Y-39779715D01*
X51293607Y-39348141D01*
X51492239Y-38868601D01*
X51593500Y-38359525D01*
X51593500Y-37840475D01*
X60801500Y-37840475D01*
X60801500Y-38359525D01*
X60902761Y-38868601D01*
X61101393Y-39348141D01*
X61389762Y-39779715D01*
X61756785Y-40146738D01*
X62188359Y-40435107D01*
X62667899Y-40633739D01*
X63176975Y-40735000D01*
X63696025Y-40735000D01*
X64205101Y-40633739D01*
X64684641Y-40435107D01*
X65116215Y-40146738D01*
X65483238Y-39779715D01*
X65771607Y-39348141D01*
X65970239Y-38868601D01*
X66071500Y-38359525D01*
X66071500Y-37840475D01*
X65970239Y-37331399D01*
X65771607Y-36851859D01*
X65483238Y-36420285D01*
X65116215Y-36053262D01*
X64684641Y-35764893D01*
X64205101Y-35566261D01*
X63696025Y-35465000D01*
X63176975Y-35465000D01*
X62667899Y-35566261D01*
X62188359Y-35764893D01*
X61756785Y-36053262D01*
X61389762Y-36420285D01*
X61101393Y-36851859D01*
X60902761Y-37331399D01*
X60801500Y-37840475D01*
X51593500Y-37840475D01*
X51492239Y-37331399D01*
X51293607Y-36851859D01*
X51005238Y-36420285D01*
X50638215Y-36053262D01*
X50206641Y-35764893D01*
X49727101Y-35566261D01*
X49218025Y-35465000D01*
X48698975Y-35465000D01*
X48189899Y-35566261D01*
X47710359Y-35764893D01*
X47278785Y-36053262D01*
X46911762Y-36420285D01*
X46623393Y-36851859D01*
X46424761Y-37331399D01*
X46323500Y-37840475D01*
X37005000Y-37840475D01*
X37005000Y-37713475D01*
X36903739Y-37204399D01*
X36705107Y-36724859D01*
X36416738Y-36293285D01*
X36049715Y-35926262D01*
X35618141Y-35637893D01*
X35138601Y-35439261D01*
X34629525Y-35338000D01*
X34110475Y-35338000D01*
X33601399Y-35439261D01*
X33121859Y-35637893D01*
X32690285Y-35926262D01*
X32323262Y-36293285D01*
X32034893Y-36724859D01*
X31836261Y-37204399D01*
X31735000Y-37713475D01*
X30187500Y-37713475D01*
X30187500Y-37658785D01*
X30040123Y-36917872D01*
X29751033Y-36219946D01*
X29331339Y-35591830D01*
X28797170Y-35057661D01*
X28754286Y-35029007D01*
X69738478Y-34869120D01*
X70005182Y-34886835D01*
X70005182Y-34886835D01*
G37*
X70005182Y-34886835D02*
X70262389Y-34940793D01*
X70509517Y-35030228D01*
X70741688Y-35153377D01*
X70954338Y-35307820D01*
X71143263Y-35490503D01*
X71304763Y-35697846D01*
X71435641Y-35925750D01*
X71533325Y-36169729D01*
X71595894Y-36424993D01*
X71622556Y-36690932D01*
X71694827Y-39124057D01*
X71683262Y-39397622D01*
X71633441Y-39662186D01*
X71546199Y-39916871D01*
X71423335Y-40156425D01*
X71267396Y-40375880D01*
X71081601Y-40570704D01*
X70869786Y-40736879D01*
X70636332Y-40870964D01*
X70386069Y-40970188D01*
X70124167Y-41032499D01*
X69851455Y-41057025D01*
X63086015Y-41177122D01*
X63077143Y-41177590D01*
X62798564Y-41202089D01*
X62781026Y-41204878D01*
X62508589Y-41267996D01*
X62491612Y-41273204D01*
X62230642Y-41373705D01*
X62214557Y-41381230D01*
X61970156Y-41517151D01*
X61955278Y-41526845D01*
X61732226Y-41695526D01*
X61718846Y-41707202D01*
X61521502Y-41905347D01*
X61509881Y-41918774D01*
X61342104Y-42142508D01*
X61332469Y-42157426D01*
X61197541Y-42402376D01*
X61190082Y-42418491D01*
X61090639Y-42679866D01*
X61085500Y-42696863D01*
X61023486Y-42969554D01*
X61020768Y-42987104D01*
X60997398Y-43265779D01*
X60996966Y-43274652D01*
X60833200Y-55229563D01*
X60833191Y-55230431D01*
X60833003Y-55257826D01*
X60833000Y-55258698D01*
X60833000Y-57357928D01*
X60789319Y-57322080D01*
X60465787Y-56998548D01*
X60489502Y-56954180D01*
X60525812Y-56834482D01*
X60538072Y-56710000D01*
X60538072Y-55280000D01*
X60525812Y-55155518D01*
X60489502Y-55035820D01*
X60430537Y-54925506D01*
X60351185Y-54828815D01*
X60254494Y-54749463D01*
X60144180Y-54690498D01*
X60024482Y-54654188D01*
X59900000Y-54641928D01*
X59414563Y-54641928D01*
X59351523Y-54523989D01*
X59022241Y-54122759D01*
X58621011Y-53793477D01*
X58163250Y-53548799D01*
X57827291Y-53446887D01*
X58062752Y-53321030D01*
X58078541Y-53308072D01*
X59900000Y-53308072D01*
X60024482Y-53295812D01*
X60144180Y-53259502D01*
X60254494Y-53200537D01*
X60351185Y-53121185D01*
X60430537Y-53024494D01*
X60489502Y-52914180D01*
X60525812Y-52794482D01*
X60538072Y-52670000D01*
X60538072Y-51240000D01*
X60525812Y-51115518D01*
X60489502Y-50995820D01*
X60446429Y-50915237D01*
X60572852Y-50678715D01*
X60629609Y-50491613D01*
X60666343Y-50370517D01*
X60697911Y-50050000D01*
X60690000Y-49969678D01*
X60690000Y-48924467D01*
X60674254Y-48845307D01*
X60666343Y-48764984D01*
X60642914Y-48687749D01*
X60627168Y-48608588D01*
X60596281Y-48534021D01*
X60572852Y-48456785D01*
X60534804Y-48385602D01*
X60503918Y-48311037D01*
X60459079Y-48243931D01*
X60421031Y-48172748D01*
X60369826Y-48110354D01*
X60324987Y-48043248D01*
X60267920Y-47986181D01*
X60216714Y-47923786D01*
X60154320Y-47872581D01*
X60097252Y-47815513D01*
X60030142Y-47770671D01*
X59967751Y-47719469D01*
X59896573Y-47681424D01*
X59829463Y-47636582D01*
X59754893Y-47605694D01*
X59683714Y-47567648D01*
X59606482Y-47544220D01*
X59531912Y-47513332D01*
X59452748Y-47497585D01*
X59375515Y-47474157D01*
X59295194Y-47466246D01*
X59216033Y-47450500D01*
X59135322Y-47450500D01*
X59055000Y-47442589D01*
X58974678Y-47450500D01*
X58893967Y-47450500D01*
X58814807Y-47466246D01*
X58734484Y-47474157D01*
X58657249Y-47497586D01*
X58578088Y-47513332D01*
X58503521Y-47544219D01*
X58426285Y-47567648D01*
X58355102Y-47605696D01*
X58280537Y-47636582D01*
X58213431Y-47681421D01*
X58142248Y-47719469D01*
X58079854Y-47770674D01*
X58012748Y-47815513D01*
X57955681Y-47872580D01*
X57893286Y-47923786D01*
X57842081Y-47986180D01*
X57785013Y-48043248D01*
X57740171Y-48110358D01*
X57688969Y-48172749D01*
X57650924Y-48243927D01*
X57606082Y-48311037D01*
X57575194Y-48385607D01*
X57537148Y-48456786D01*
X57513720Y-48534018D01*
X57482832Y-48608588D01*
X57467085Y-48687752D01*
X57443657Y-48764985D01*
X57435746Y-48845306D01*
X57420000Y-48924467D01*
X57420000Y-49372761D01*
X56190834Y-50601928D01*
X54400000Y-50601928D01*
X54275518Y-50614188D01*
X54155820Y-50650498D01*
X54045506Y-50709463D01*
X53948815Y-50788815D01*
X53869463Y-50885506D01*
X53810498Y-50995820D01*
X53774188Y-51115518D01*
X53761928Y-51240000D01*
X53761928Y-52670000D01*
X53774188Y-52794482D01*
X53810498Y-52914180D01*
X53869463Y-53024494D01*
X53948815Y-53121185D01*
X54045506Y-53200537D01*
X54155820Y-53259502D01*
X54275518Y-53295812D01*
X54400000Y-53308072D01*
X56221459Y-53308072D01*
X56237248Y-53321030D01*
X56310155Y-53360000D01*
X51436683Y-53360000D01*
X50980750Y-53116299D01*
X50484050Y-52965627D01*
X50096942Y-52927500D01*
X50096934Y-52927500D01*
X49967500Y-52914752D01*
X49838066Y-52927500D01*
X48555434Y-52927500D01*
X48426000Y-52914752D01*
X48296566Y-52927500D01*
X48296558Y-52927500D01*
X47909450Y-52965627D01*
X47412750Y-53116299D01*
X46954989Y-53360977D01*
X46553759Y-53690259D01*
X46471242Y-53790806D01*
X34176745Y-66085303D01*
X33929978Y-66385990D01*
X33685299Y-66843751D01*
X33534627Y-67340451D01*
X33483752Y-67857000D01*
X33513834Y-68162428D01*
X33175930Y-68500331D01*
X33184453Y-68479756D01*
X33266500Y-68067279D01*
X33266500Y-67646721D01*
X33184453Y-67234244D01*
X33023512Y-66845698D01*
X32789863Y-66496017D01*
X32492483Y-66198637D01*
X32142802Y-65964988D01*
X31754256Y-65804047D01*
X31341779Y-65722000D01*
X30921221Y-65722000D01*
X30508744Y-65804047D01*
X30120198Y-65964988D01*
X29770517Y-66198637D01*
X29473137Y-66496017D01*
X29239488Y-66845698D01*
X29078547Y-67234244D01*
X28996500Y-67646721D01*
X28996500Y-68067279D01*
X29078547Y-68479756D01*
X29239488Y-68868302D01*
X29473137Y-69217983D01*
X29770517Y-69515363D01*
X30120198Y-69749012D01*
X30508744Y-69909953D01*
X30921221Y-69992000D01*
X31341779Y-69992000D01*
X31754256Y-69909953D01*
X32120992Y-69758046D01*
X32043658Y-70012984D01*
X32012089Y-70333500D01*
X32020001Y-70413829D01*
X32020000Y-76280321D01*
X32043657Y-76520515D01*
X32137148Y-76828714D01*
X32288969Y-77112751D01*
X32493286Y-77361714D01*
X32742248Y-77566031D01*
X33026285Y-77717852D01*
X33334484Y-77811343D01*
X33655000Y-77842911D01*
X33975515Y-77811343D01*
X34283714Y-77717852D01*
X34425000Y-77642333D01*
X34425000Y-78294604D01*
X34413752Y-78331684D01*
X34396928Y-78502500D01*
X34396928Y-78977500D01*
X34413752Y-79148316D01*
X34463577Y-79312567D01*
X34544488Y-79463942D01*
X34653377Y-79596623D01*
X34786058Y-79705512D01*
X34937433Y-79786423D01*
X35101684Y-79836248D01*
X35272500Y-79853072D01*
X35319354Y-79853072D01*
X35337501Y-79858577D01*
X35560000Y-79880491D01*
X35782498Y-79858577D01*
X35800645Y-79853072D01*
X35847500Y-79853072D01*
X36018316Y-79836248D01*
X36182567Y-79786423D01*
X36333942Y-79705512D01*
X36466623Y-79596623D01*
X36575512Y-79463942D01*
X36656423Y-79312567D01*
X36706248Y-79148316D01*
X36723072Y-78977500D01*
X36723072Y-78502500D01*
X36706248Y-78331684D01*
X36695000Y-78294604D01*
X36695000Y-77232831D01*
X36768405Y-77143387D01*
X36850472Y-76989851D01*
X36901008Y-76823255D01*
X36918072Y-76650001D01*
X36918072Y-75749999D01*
X36901008Y-75576745D01*
X36850472Y-75410149D01*
X36768405Y-75256613D01*
X36657962Y-75122038D01*
X36523387Y-75011595D01*
X36369851Y-74929528D01*
X36203255Y-74878992D01*
X36030001Y-74861928D01*
X35379999Y-74861928D01*
X35290000Y-74870792D01*
X35290000Y-71010738D01*
X35826072Y-70474666D01*
X36131500Y-70504748D01*
X36436928Y-70474666D01*
X44067000Y-78104739D01*
X44067000Y-78375821D01*
X44090657Y-78616015D01*
X44184148Y-78924214D01*
X44335969Y-79208251D01*
X44540286Y-79457214D01*
X44789248Y-79661531D01*
X45073285Y-79813352D01*
X45381484Y-79906843D01*
X45702000Y-79938411D01*
X46022515Y-79906843D01*
X46330714Y-79813352D01*
X46614751Y-79661531D01*
X46863714Y-79457214D01*
X47068031Y-79208252D01*
X47219852Y-78924215D01*
X47313343Y-78616016D01*
X47337000Y-78375822D01*
X47337000Y-77507819D01*
X47344911Y-77427500D01*
X47337000Y-77347178D01*
X47313343Y-77106984D01*
X47219852Y-76798785D01*
X47068031Y-76514748D01*
X46863714Y-76265786D01*
X46801319Y-76214580D01*
X39150845Y-68564107D01*
X40896952Y-66818000D01*
X42811928Y-66818000D01*
X42811928Y-68818000D01*
X42824188Y-68942482D01*
X42860498Y-69062180D01*
X42919463Y-69172494D01*
X42998815Y-69269185D01*
X43095506Y-69348537D01*
X43205820Y-69407502D01*
X43325518Y-69443812D01*
X43450000Y-69456072D01*
X45450000Y-69456072D01*
X45574482Y-69443812D01*
X45694180Y-69407502D01*
X45804494Y-69348537D01*
X45901185Y-69269185D01*
X45980537Y-69172494D01*
X46039502Y-69062180D01*
X46075812Y-68942482D01*
X46088072Y-68818000D01*
X46088072Y-66818000D01*
X46075812Y-66693518D01*
X46039502Y-66573820D01*
X45980537Y-66463506D01*
X45901185Y-66366815D01*
X45804494Y-66287463D01*
X45694180Y-66228498D01*
X45574482Y-66192188D01*
X45450000Y-66179928D01*
X43450000Y-66179928D01*
X43325518Y-66192188D01*
X43205820Y-66228498D01*
X43095506Y-66287463D01*
X42998815Y-66366815D01*
X42919463Y-66463506D01*
X42860498Y-66573820D01*
X42824188Y-66693518D01*
X42811928Y-66818000D01*
X40896952Y-66818000D01*
X49313112Y-58401840D01*
X49386750Y-58441201D01*
X49883450Y-58591873D01*
X50270558Y-58630000D01*
X50270565Y-58630000D01*
X50399999Y-58642748D01*
X50529433Y-58630000D01*
X52975000Y-58630000D01*
X52975000Y-58990321D01*
X52998657Y-59230515D01*
X53092148Y-59538714D01*
X53243969Y-59822751D01*
X53448286Y-60071714D01*
X53466615Y-60086756D01*
X53421595Y-60141613D01*
X53339528Y-60295149D01*
X53288992Y-60461745D01*
X53271928Y-60634999D01*
X53271928Y-61285001D01*
X53288992Y-61458255D01*
X53339528Y-61624851D01*
X53421595Y-61778387D01*
X53532038Y-61912962D01*
X53666613Y-62023405D01*
X53820149Y-62105472D01*
X53865313Y-62119172D01*
X53798342Y-62123999D01*
X53780271Y-62126617D01*
X53499399Y-62188201D01*
X53481891Y-62193384D01*
X53212753Y-62294609D01*
X53196169Y-62302248D01*
X52944328Y-62441021D01*
X52929011Y-62450960D01*
X52699673Y-62624412D01*
X52685940Y-62636445D01*
X52483845Y-62840992D01*
X52471978Y-62854870D01*
X52301305Y-63086284D01*
X52291552Y-63101719D01*
X52155827Y-63355215D01*
X52148388Y-63371890D01*
X52050417Y-63642230D01*
X52045446Y-63659799D01*
X51987254Y-63941393D01*
X51984854Y-63959494D01*
X51967644Y-64246523D01*
X51967425Y-64255656D01*
X52085062Y-74007700D01*
X51280685Y-74812077D01*
X51218286Y-74863286D01*
X51013969Y-75112248D01*
X50862148Y-75396285D01*
X50768657Y-75704484D01*
X50755588Y-75837173D01*
X46439762Y-80153000D01*
X44280819Y-80153000D01*
X44200499Y-80145089D01*
X44120180Y-80153000D01*
X44120178Y-80153000D01*
X43879984Y-80176657D01*
X43571785Y-80270148D01*
X43287748Y-80421969D01*
X43038786Y-80626286D01*
X42987580Y-80688681D01*
X36436929Y-87239333D01*
X36260942Y-87222000D01*
X36260934Y-87222000D01*
X36131500Y-87209252D01*
X36002066Y-87222000D01*
X31002058Y-87222000D01*
X30614950Y-87260127D01*
X30118250Y-87410799D01*
X29660489Y-87655477D01*
X29259259Y-87984759D01*
X28929977Y-88385989D01*
X28685299Y-88843750D01*
X28534627Y-89340450D01*
X28483751Y-89857000D01*
X28534627Y-90373550D01*
X28685299Y-90870250D01*
X28929977Y-91328011D01*
X29259259Y-91729241D01*
X29660489Y-92058523D01*
X30118250Y-92303201D01*
X30614950Y-92453873D01*
X31002058Y-92492000D01*
X35040048Y-92492000D01*
X35676741Y-93128693D01*
X35759258Y-93229240D01*
X36160488Y-93558522D01*
X36618249Y-93803200D01*
X37114949Y-93953872D01*
X37502057Y-93991999D01*
X37502065Y-93991999D01*
X37631499Y-94004747D01*
X37760933Y-93991999D01*
X38053887Y-93991999D01*
X38674888Y-94613000D01*
X37702178Y-94613000D01*
X37461984Y-94636657D01*
X37153785Y-94730148D01*
X36869748Y-94881969D01*
X36620786Y-95086286D01*
X36416469Y-95335248D01*
X36264648Y-95619285D01*
X36171157Y-95927484D01*
X36139589Y-96248000D01*
X36171157Y-96568516D01*
X36264648Y-96876715D01*
X36416469Y-97160752D01*
X36565847Y-97342771D01*
X36557287Y-97349796D01*
X36405083Y-97535258D01*
X36352970Y-97598758D01*
X36201148Y-97882796D01*
X36107658Y-98190994D01*
X36076089Y-98511510D01*
X36084001Y-98591839D01*
X36084000Y-100676177D01*
X36076089Y-100756500D01*
X36107657Y-101077016D01*
X36181823Y-101321510D01*
X33267812Y-101321510D01*
X33187490Y-101313599D01*
X32866973Y-101345167D01*
X32558775Y-101438658D01*
X32274738Y-101590479D01*
X32025776Y-101794796D01*
X31974574Y-101857186D01*
X28135451Y-105696310D01*
X27930213Y-105611298D01*
X27179639Y-105462000D01*
X26414361Y-105462000D01*
X25663787Y-105611298D01*
X24956762Y-105904158D01*
X24320457Y-106329323D01*
X23779323Y-106870457D01*
X23354158Y-107506762D01*
X23061298Y-108213787D01*
X22912000Y-108964361D01*
X22912000Y-109729639D01*
X23061298Y-110480213D01*
X23354158Y-111187238D01*
X23779323Y-111823543D01*
X24320457Y-112364677D01*
X24956762Y-112789842D01*
X25663787Y-113082702D01*
X26414361Y-113232000D01*
X27179639Y-113232000D01*
X27930213Y-113082702D01*
X28637238Y-112789842D01*
X29273543Y-112364677D01*
X29814677Y-111823543D01*
X30239842Y-111187238D01*
X30294213Y-111055975D01*
X41704500Y-111055975D01*
X41704500Y-111575025D01*
X41805761Y-112084101D01*
X42004393Y-112563641D01*
X42292762Y-112995215D01*
X42659785Y-113362238D01*
X43091359Y-113650607D01*
X43570899Y-113849239D01*
X44079975Y-113950500D01*
X44599025Y-113950500D01*
X45108101Y-113849239D01*
X45587641Y-113650607D01*
X46019215Y-113362238D01*
X46386238Y-112995215D01*
X46674607Y-112563641D01*
X46873239Y-112084101D01*
X46974500Y-111575025D01*
X46974500Y-111055975D01*
X46873239Y-110546899D01*
X46674607Y-110067359D01*
X46386238Y-109635785D01*
X46019215Y-109268762D01*
X45587641Y-108980393D01*
X45108101Y-108781761D01*
X44599025Y-108680500D01*
X44079975Y-108680500D01*
X43570899Y-108781761D01*
X43091359Y-108980393D01*
X42659785Y-109268762D01*
X42292762Y-109635785D01*
X42004393Y-110067359D01*
X41805761Y-110546899D01*
X41704500Y-111055975D01*
X30294213Y-111055975D01*
X30532702Y-110480213D01*
X30682000Y-109729639D01*
X30682000Y-108964361D01*
X30532702Y-108213787D01*
X30447690Y-108008549D01*
X33864730Y-104591510D01*
X37649312Y-104591510D01*
X37889506Y-104567853D01*
X38197705Y-104474362D01*
X38481742Y-104322541D01*
X38730704Y-104118224D01*
X38935021Y-103869262D01*
X39060463Y-103634576D01*
X41744710Y-106318824D01*
X41795912Y-106381214D01*
X41856896Y-106431262D01*
X41906463Y-106523994D01*
X41985815Y-106620685D01*
X42082506Y-106700037D01*
X42192820Y-106759002D01*
X42312518Y-106795312D01*
X42437000Y-106807572D01*
X42560395Y-106807572D01*
X42637109Y-106830843D01*
X42957626Y-106862412D01*
X43037956Y-106854500D01*
X43467322Y-106854500D01*
X43707516Y-106830843D01*
X43784230Y-106807572D01*
X44337000Y-106807572D01*
X44461482Y-106795312D01*
X44581180Y-106759002D01*
X44691494Y-106700037D01*
X44788185Y-106620685D01*
X44867537Y-106523994D01*
X44898814Y-106465479D01*
X45136221Y-106624109D01*
X45424673Y-106743589D01*
X45730891Y-106804500D01*
X46043109Y-106804500D01*
X46349327Y-106743589D01*
X46637779Y-106624109D01*
X46897379Y-106450650D01*
X47108780Y-106239249D01*
X47225286Y-106381214D01*
X47474248Y-106585531D01*
X47758285Y-106737352D01*
X48066484Y-106830843D01*
X48387000Y-106862411D01*
X48707515Y-106830843D01*
X49015714Y-106737352D01*
X49299751Y-106585531D01*
X49548714Y-106381214D01*
X49753031Y-106132252D01*
X49904852Y-105848215D01*
X49998343Y-105540016D01*
X50022000Y-105299822D01*
X50022000Y-103956317D01*
X50029911Y-103875997D01*
X50012739Y-103701648D01*
X49998343Y-103555482D01*
X49904852Y-103247283D01*
X49753031Y-102963246D01*
X49548714Y-102714284D01*
X49486319Y-102663078D01*
X47629240Y-100806000D01*
X50832001Y-100806000D01*
X50832000Y-105242885D01*
X50819252Y-105372320D01*
X50832000Y-105501754D01*
X50832000Y-105501761D01*
X50870127Y-105888869D01*
X51020799Y-106385569D01*
X51265477Y-106843330D01*
X51594759Y-107244561D01*
X51695306Y-107327078D01*
X55359926Y-110991699D01*
X55442439Y-111092241D01*
X55843669Y-111421523D01*
X56301430Y-111666201D01*
X56798129Y-111816873D01*
X56849638Y-111821946D01*
X57185238Y-111855000D01*
X57185245Y-111855000D01*
X57314679Y-111867748D01*
X57444113Y-111855000D01*
X59565442Y-111855000D01*
X59952550Y-111816873D01*
X60449250Y-111666201D01*
X60907011Y-111421523D01*
X61308241Y-111092241D01*
X61637523Y-110691011D01*
X61882201Y-110233250D01*
X62032873Y-109736550D01*
X62083749Y-109220000D01*
X62032873Y-108703450D01*
X61882201Y-108206750D01*
X61637523Y-107748989D01*
X61308241Y-107347759D01*
X60907011Y-107018477D01*
X60449250Y-106773799D01*
X59952550Y-106623127D01*
X59565442Y-106585000D01*
X58406133Y-106585000D01*
X56102000Y-104280868D01*
X56102000Y-103980521D01*
X57301000Y-103980521D01*
X57301000Y-104401079D01*
X57383047Y-104813556D01*
X57543988Y-105202102D01*
X57777637Y-105551783D01*
X58075017Y-105849163D01*
X58424698Y-106082812D01*
X58813244Y-106243753D01*
X59225721Y-106325800D01*
X59646279Y-106325800D01*
X60058756Y-106243753D01*
X60447302Y-106082812D01*
X60796983Y-105849163D01*
X61094363Y-105551783D01*
X61328012Y-105202102D01*
X61488953Y-104813556D01*
X61571000Y-104401079D01*
X61571000Y-103980521D01*
X61488953Y-103568044D01*
X61328012Y-103179498D01*
X61094363Y-102829817D01*
X60796983Y-102532437D01*
X60447302Y-102298788D01*
X60058756Y-102137847D01*
X59646279Y-102055800D01*
X59225721Y-102055800D01*
X58813244Y-102137847D01*
X58424698Y-102298788D01*
X58075017Y-102532437D01*
X57777637Y-102829817D01*
X57543988Y-103179498D01*
X57383047Y-103568044D01*
X57301000Y-103980521D01*
X56102000Y-103980521D01*
X56102000Y-101060000D01*
X57528566Y-101060000D01*
X57658000Y-101072748D01*
X57787434Y-101060000D01*
X57787442Y-101060000D01*
X58174550Y-101021873D01*
X58671250Y-100871201D01*
X59129011Y-100626523D01*
X59530241Y-100297241D01*
X59612759Y-100196693D01*
X61263755Y-98545696D01*
X61510522Y-98245011D01*
X61755201Y-97787250D01*
X61905873Y-97290550D01*
X61956748Y-96774000D01*
X61905873Y-96257450D01*
X61755201Y-95760751D01*
X61510522Y-95302990D01*
X61181241Y-94901759D01*
X60780010Y-94572478D01*
X60322249Y-94327799D01*
X59825550Y-94177127D01*
X59309000Y-94126252D01*
X58792450Y-94177127D01*
X58295750Y-94327799D01*
X57837989Y-94572478D01*
X57537304Y-94819245D01*
X56566548Y-95790000D01*
X54348233Y-95790000D01*
X54226250Y-95724799D01*
X53729550Y-95574127D01*
X53342442Y-95536000D01*
X53342434Y-95536000D01*
X53213000Y-95523252D01*
X53083566Y-95536000D01*
X47050792Y-95536000D01*
X43068864Y-91554072D01*
X44815000Y-91554072D01*
X44939482Y-91541812D01*
X44963517Y-91534521D01*
X57174000Y-91534521D01*
X57174000Y-91955079D01*
X57256047Y-92367556D01*
X57416988Y-92756102D01*
X57650637Y-93105783D01*
X57948017Y-93403163D01*
X58297698Y-93636812D01*
X58686244Y-93797753D01*
X59098721Y-93879800D01*
X59519279Y-93879800D01*
X59931756Y-93797753D01*
X60320302Y-93636812D01*
X60669983Y-93403163D01*
X60967363Y-93105783D01*
X61201012Y-92756102D01*
X61361953Y-92367556D01*
X61444000Y-91955079D01*
X61444000Y-91534521D01*
X61361953Y-91122044D01*
X61201012Y-90733498D01*
X60967363Y-90383817D01*
X60669983Y-90086437D01*
X60320302Y-89852788D01*
X59931756Y-89691847D01*
X59519279Y-89609800D01*
X59098721Y-89609800D01*
X58686244Y-89691847D01*
X58297698Y-89852788D01*
X57948017Y-90086437D01*
X57650637Y-90383817D01*
X57416988Y-90733498D01*
X57256047Y-91122044D01*
X57174000Y-91534521D01*
X44963517Y-91534521D01*
X45059180Y-91505502D01*
X45169494Y-91446537D01*
X45266185Y-91367185D01*
X45345537Y-91270494D01*
X45404502Y-91160180D01*
X45440812Y-91040482D01*
X45453072Y-90916000D01*
X45453072Y-88916000D01*
X45440812Y-88791518D01*
X45404502Y-88671820D01*
X45345537Y-88561506D01*
X45266185Y-88464815D01*
X45169494Y-88385463D01*
X45059180Y-88326498D01*
X44939482Y-88290188D01*
X44815000Y-88277928D01*
X42815000Y-88277928D01*
X42690518Y-88290188D01*
X42570820Y-88326498D01*
X42460506Y-88385463D01*
X42363815Y-88464815D01*
X42284463Y-88561506D01*
X42225498Y-88671820D01*
X42189188Y-88791518D01*
X42176928Y-88916000D01*
X42176928Y-90662136D01*
X41100097Y-89585305D01*
X41017580Y-89484758D01*
X40616350Y-89155476D01*
X40158589Y-88910798D01*
X39661889Y-88760126D01*
X39551486Y-88749252D01*
X44877739Y-83423000D01*
X47036681Y-83423000D01*
X47117000Y-83430911D01*
X47197319Y-83423000D01*
X47197322Y-83423000D01*
X47437516Y-83399343D01*
X47745715Y-83305852D01*
X48029752Y-83154031D01*
X48278714Y-82949714D01*
X48329925Y-82887313D01*
X52146140Y-79071099D01*
X52236420Y-86555274D01*
X52236852Y-86564321D01*
X52260601Y-86848428D01*
X52263391Y-86866315D01*
X52327294Y-87144160D01*
X52332600Y-87161470D01*
X52435361Y-87427405D01*
X52443073Y-87443783D01*
X52582601Y-87692404D01*
X52592564Y-87707520D01*
X52766026Y-87933777D01*
X52778036Y-87947323D01*
X52981906Y-88146617D01*
X52995721Y-88158317D01*
X53225857Y-88326599D01*
X53241196Y-88336217D01*
X53492921Y-88470066D01*
X53509470Y-88477404D01*
X53777669Y-88574102D01*
X53795094Y-88579013D01*
X54074317Y-88636594D01*
X54092263Y-88638977D01*
X54376837Y-88656271D01*
X54385892Y-88656498D01*
X80226483Y-88381598D01*
X80497963Y-88398132D01*
X80759875Y-88452251D01*
X81011405Y-88543126D01*
X81247420Y-88668901D01*
X81463114Y-88827015D01*
X81654086Y-89014242D01*
X81816441Y-89226763D01*
X81946865Y-89460244D01*
X82042705Y-89709927D01*
X82101997Y-89970709D01*
X82123905Y-90241807D01*
X82361987Y-116216627D01*
X82163339Y-115919330D01*
X81629170Y-115385161D01*
X81001054Y-114965467D01*
X80303128Y-114676377D01*
X79562215Y-114529000D01*
X78806785Y-114529000D01*
X78065872Y-114676377D01*
X77367946Y-114965467D01*
X76739830Y-115385161D01*
X76205661Y-115919330D01*
X75785967Y-116547446D01*
X75496877Y-117245372D01*
X75349500Y-117986285D01*
X75349500Y-118741715D01*
X75496877Y-119482628D01*
X75785967Y-120180554D01*
X76205661Y-120808670D01*
X76739830Y-121342839D01*
X77367946Y-121762533D01*
X78065872Y-122051623D01*
X78806785Y-122199000D01*
X79562215Y-122199000D01*
X80303128Y-122051623D01*
X81001054Y-121762533D01*
X81629170Y-121342839D01*
X82163339Y-120808670D01*
X82400819Y-120453256D01*
X82404562Y-120861610D01*
X82387575Y-121133469D01*
X82332908Y-121395670D01*
X82241399Y-121647379D01*
X82114913Y-121883468D01*
X81956044Y-122099095D01*
X81768041Y-122289852D01*
X81554743Y-122451843D01*
X81320526Y-122581744D01*
X81070160Y-122676908D01*
X80808793Y-122735380D01*
X80537207Y-122756319D01*
X24742233Y-123056293D01*
X24505178Y-123041063D01*
X23995484Y-122891536D01*
X23671411Y-122724627D01*
X23535770Y-122627706D01*
X23347065Y-122448536D01*
X23185015Y-122244934D01*
X23050498Y-122017017D01*
X22551937Y-121019893D01*
X22441128Y-120747515D01*
X22374700Y-120466122D01*
X22352000Y-120172955D01*
X22352000Y-119901092D01*
X22572967Y-120434554D01*
X22992661Y-121062670D01*
X23526830Y-121596839D01*
X24154946Y-122016533D01*
X24852872Y-122305623D01*
X25593785Y-122453000D01*
X26349215Y-122453000D01*
X27090128Y-122305623D01*
X27788054Y-122016533D01*
X28416170Y-121596839D01*
X28950339Y-121062670D01*
X29370033Y-120434554D01*
X29659123Y-119736628D01*
X29806500Y-118995715D01*
X29806500Y-118485475D01*
X32370000Y-118485475D01*
X32370000Y-119004525D01*
X32471261Y-119513601D01*
X32669893Y-119993141D01*
X32958262Y-120424715D01*
X33325285Y-120791738D01*
X33756859Y-121080107D01*
X34236399Y-121278739D01*
X34745475Y-121380000D01*
X35264525Y-121380000D01*
X35773601Y-121278739D01*
X36253141Y-121080107D01*
X36684715Y-120791738D01*
X37051738Y-120424715D01*
X37340107Y-119993141D01*
X37538739Y-119513601D01*
X37640000Y-119004525D01*
X37640000Y-118485475D01*
X46975000Y-118485475D01*
X46975000Y-119004525D01*
X47076261Y-119513601D01*
X47274893Y-119993141D01*
X47563262Y-120424715D01*
X47930285Y-120791738D01*
X48361859Y-121080107D01*
X48841399Y-121278739D01*
X49350475Y-121380000D01*
X49869525Y-121380000D01*
X50378601Y-121278739D01*
X50858141Y-121080107D01*
X51289715Y-120791738D01*
X51656738Y-120424715D01*
X51945107Y-119993141D01*
X52143739Y-119513601D01*
X52245000Y-119004525D01*
X52245000Y-118485475D01*
X61580000Y-118485475D01*
X61580000Y-119004525D01*
X61681261Y-119513601D01*
X61879893Y-119993141D01*
X62168262Y-120424715D01*
X62535285Y-120791738D01*
X62966859Y-121080107D01*
X63446399Y-121278739D01*
X63955475Y-121380000D01*
X64474525Y-121380000D01*
X64983601Y-121278739D01*
X65463141Y-121080107D01*
X65894715Y-120791738D01*
X66261738Y-120424715D01*
X66550107Y-119993141D01*
X66748739Y-119513601D01*
X66850000Y-119004525D01*
X66850000Y-118485475D01*
X66748739Y-117976399D01*
X66550107Y-117496859D01*
X66261738Y-117065285D01*
X65894715Y-116698262D01*
X65463141Y-116409893D01*
X64983601Y-116211261D01*
X64474525Y-116110000D01*
X63955475Y-116110000D01*
X63446399Y-116211261D01*
X62966859Y-116409893D01*
X62535285Y-116698262D01*
X62168262Y-117065285D01*
X61879893Y-117496859D01*
X61681261Y-117976399D01*
X61580000Y-118485475D01*
X52245000Y-118485475D01*
X52143739Y-117976399D01*
X51945107Y-117496859D01*
X51656738Y-117065285D01*
X51289715Y-116698262D01*
X50858141Y-116409893D01*
X50378601Y-116211261D01*
X49869525Y-116110000D01*
X49350475Y-116110000D01*
X48841399Y-116211261D01*
X48361859Y-116409893D01*
X47930285Y-116698262D01*
X47563262Y-117065285D01*
X47274893Y-117496859D01*
X47076261Y-117976399D01*
X46975000Y-118485475D01*
X37640000Y-118485475D01*
X37538739Y-117976399D01*
X37340107Y-117496859D01*
X37051738Y-117065285D01*
X36684715Y-116698262D01*
X36253141Y-116409893D01*
X35773601Y-116211261D01*
X35264525Y-116110000D01*
X34745475Y-116110000D01*
X34236399Y-116211261D01*
X33756859Y-116409893D01*
X33325285Y-116698262D01*
X32958262Y-117065285D01*
X32669893Y-117496859D01*
X32471261Y-117976399D01*
X32370000Y-118485475D01*
X29806500Y-118485475D01*
X29806500Y-118240285D01*
X29659123Y-117499372D01*
X29370033Y-116801446D01*
X28950339Y-116173330D01*
X28416170Y-115639161D01*
X27788054Y-115219467D01*
X27090128Y-114930377D01*
X26349215Y-114783000D01*
X25593785Y-114783000D01*
X24852872Y-114930377D01*
X24154946Y-115219467D01*
X23526830Y-115639161D01*
X22992661Y-116173330D01*
X22572967Y-116801446D01*
X22363322Y-117307574D01*
X22926016Y-45845361D01*
X23166000Y-45845361D01*
X23166000Y-46610639D01*
X23315298Y-47361213D01*
X23608158Y-48068238D01*
X24033323Y-48704543D01*
X24574457Y-49245677D01*
X25210762Y-49670842D01*
X25917787Y-49963702D01*
X26668361Y-50113000D01*
X27433639Y-50113000D01*
X28184213Y-49963702D01*
X28891238Y-49670842D01*
X29527543Y-49245677D01*
X30068677Y-48704543D01*
X30493842Y-48068238D01*
X30786702Y-47361213D01*
X30936000Y-46610639D01*
X30936000Y-45926500D01*
X40589428Y-45926500D01*
X40589428Y-47926500D01*
X40601688Y-48050982D01*
X40637998Y-48170680D01*
X40696963Y-48280994D01*
X40776315Y-48377685D01*
X40873006Y-48457037D01*
X40983320Y-48516002D01*
X41103018Y-48552312D01*
X41227500Y-48564572D01*
X43227500Y-48564572D01*
X43351982Y-48552312D01*
X43471680Y-48516002D01*
X43581994Y-48457037D01*
X43678685Y-48377685D01*
X43758037Y-48280994D01*
X43817002Y-48170680D01*
X43853312Y-48050982D01*
X43865572Y-47926500D01*
X43865572Y-45926500D01*
X43853312Y-45802018D01*
X43817002Y-45682320D01*
X43758037Y-45572006D01*
X43678685Y-45475315D01*
X43581994Y-45395963D01*
X43471680Y-45336998D01*
X43351982Y-45300688D01*
X43227500Y-45288428D01*
X41227500Y-45288428D01*
X41103018Y-45300688D01*
X40983320Y-45336998D01*
X40873006Y-45395963D01*
X40776315Y-45475315D01*
X40696963Y-45572006D01*
X40637998Y-45682320D01*
X40601688Y-45802018D01*
X40589428Y-45926500D01*
X30936000Y-45926500D01*
X30936000Y-45845361D01*
X30786702Y-45094787D01*
X30493842Y-44387762D01*
X30068677Y-43751457D01*
X29527543Y-43210323D01*
X28891238Y-42785158D01*
X28184213Y-42492298D01*
X27433639Y-42343000D01*
X26668361Y-42343000D01*
X25917787Y-42492298D01*
X25210762Y-42785158D01*
X24574457Y-43210323D01*
X24033323Y-43751457D01*
X23608158Y-44387762D01*
X23315298Y-45094787D01*
X23166000Y-45845361D01*
X22926016Y-45845361D01*
X22972976Y-39881503D01*
X23373661Y-40481170D01*
X23907830Y-41015339D01*
X24535946Y-41435033D01*
X25233872Y-41724123D01*
X25974785Y-41871500D01*
X26730215Y-41871500D01*
X27471128Y-41724123D01*
X28169054Y-41435033D01*
X28797170Y-41015339D01*
X29331339Y-40481170D01*
X29751033Y-39853054D01*
X30040123Y-39155128D01*
X30187500Y-38414215D01*
X30187500Y-37713475D01*
X31735000Y-37713475D01*
X31735000Y-38232525D01*
X31836261Y-38741601D01*
X32034893Y-39221141D01*
X32323262Y-39652715D01*
X32690285Y-40019738D01*
X33121859Y-40308107D01*
X33601399Y-40506739D01*
X34110475Y-40608000D01*
X34629525Y-40608000D01*
X35138601Y-40506739D01*
X35618141Y-40308107D01*
X36049715Y-40019738D01*
X36416738Y-39652715D01*
X36705107Y-39221141D01*
X36903739Y-38741601D01*
X37005000Y-38232525D01*
X37005000Y-37840475D01*
X46323500Y-37840475D01*
X46323500Y-38359525D01*
X46424761Y-38868601D01*
X46623393Y-39348141D01*
X46911762Y-39779715D01*
X47278785Y-40146738D01*
X47710359Y-40435107D01*
X48189899Y-40633739D01*
X48698975Y-40735000D01*
X49218025Y-40735000D01*
X49727101Y-40633739D01*
X50206641Y-40435107D01*
X50638215Y-40146738D01*
X51005238Y-39779715D01*
X51293607Y-39348141D01*
X51492239Y-38868601D01*
X51593500Y-38359525D01*
X51593500Y-37840475D01*
X60801500Y-37840475D01*
X60801500Y-38359525D01*
X60902761Y-38868601D01*
X61101393Y-39348141D01*
X61389762Y-39779715D01*
X61756785Y-40146738D01*
X62188359Y-40435107D01*
X62667899Y-40633739D01*
X63176975Y-40735000D01*
X63696025Y-40735000D01*
X64205101Y-40633739D01*
X64684641Y-40435107D01*
X65116215Y-40146738D01*
X65483238Y-39779715D01*
X65771607Y-39348141D01*
X65970239Y-38868601D01*
X66071500Y-38359525D01*
X66071500Y-37840475D01*
X65970239Y-37331399D01*
X65771607Y-36851859D01*
X65483238Y-36420285D01*
X65116215Y-36053262D01*
X64684641Y-35764893D01*
X64205101Y-35566261D01*
X63696025Y-35465000D01*
X63176975Y-35465000D01*
X62667899Y-35566261D01*
X62188359Y-35764893D01*
X61756785Y-36053262D01*
X61389762Y-36420285D01*
X61101393Y-36851859D01*
X60902761Y-37331399D01*
X60801500Y-37840475D01*
X51593500Y-37840475D01*
X51492239Y-37331399D01*
X51293607Y-36851859D01*
X51005238Y-36420285D01*
X50638215Y-36053262D01*
X50206641Y-35764893D01*
X49727101Y-35566261D01*
X49218025Y-35465000D01*
X48698975Y-35465000D01*
X48189899Y-35566261D01*
X47710359Y-35764893D01*
X47278785Y-36053262D01*
X46911762Y-36420285D01*
X46623393Y-36851859D01*
X46424761Y-37331399D01*
X46323500Y-37840475D01*
X37005000Y-37840475D01*
X37005000Y-37713475D01*
X36903739Y-37204399D01*
X36705107Y-36724859D01*
X36416738Y-36293285D01*
X36049715Y-35926262D01*
X35618141Y-35637893D01*
X35138601Y-35439261D01*
X34629525Y-35338000D01*
X34110475Y-35338000D01*
X33601399Y-35439261D01*
X33121859Y-35637893D01*
X32690285Y-35926262D01*
X32323262Y-36293285D01*
X32034893Y-36724859D01*
X31836261Y-37204399D01*
X31735000Y-37713475D01*
X30187500Y-37713475D01*
X30187500Y-37658785D01*
X30040123Y-36917872D01*
X29751033Y-36219946D01*
X29331339Y-35591830D01*
X28797170Y-35057661D01*
X28754286Y-35029007D01*
X69738478Y-34869120D01*
X70005182Y-34886835D01*
G36*
X80181818Y-42027899D02*
G01*
X80506930Y-42047143D01*
X80824321Y-42102051D01*
X81133571Y-42192145D01*
X81430790Y-42316292D01*
X81712250Y-42472935D01*
X81974397Y-42660096D01*
X82213945Y-42875428D01*
X82427888Y-43116228D01*
X82613521Y-43379455D01*
X82768528Y-43661823D01*
X82890945Y-43959754D01*
X82979240Y-44269517D01*
X83032304Y-44587226D01*
X83049659Y-44912441D01*
X82932610Y-87049843D01*
X82916066Y-87173080D01*
X82871467Y-87280123D01*
X82800724Y-87372008D01*
X82708644Y-87442494D01*
X82601472Y-87486799D01*
X82478193Y-87503000D01*
X56343560Y-87503000D01*
X56018354Y-87484737D01*
X55700734Y-87430772D01*
X55391182Y-87341591D01*
X55093532Y-87218300D01*
X54811579Y-87062471D01*
X54548844Y-86876049D01*
X54308624Y-86661376D01*
X54093951Y-86421156D01*
X53907529Y-86158421D01*
X53751700Y-85876468D01*
X53628409Y-85578818D01*
X53539228Y-85269266D01*
X53485263Y-84951646D01*
X53467000Y-84626440D01*
X53467000Y-77750239D01*
X53479320Y-77737919D01*
X53541714Y-77686714D01*
X53741928Y-77442752D01*
X53741928Y-79105000D01*
X53754188Y-79229482D01*
X53790498Y-79349180D01*
X53849463Y-79459494D01*
X53928815Y-79556185D01*
X54025506Y-79635537D01*
X54135820Y-79694502D01*
X54255518Y-79730812D01*
X54380000Y-79743072D01*
X57380000Y-79743072D01*
X57504482Y-79730812D01*
X57624180Y-79694502D01*
X57734494Y-79635537D01*
X57831185Y-79556185D01*
X57910537Y-79459494D01*
X57969502Y-79349180D01*
X58005812Y-79229482D01*
X58018072Y-79105000D01*
X58018072Y-77105000D01*
X58005812Y-76980518D01*
X57969502Y-76860820D01*
X57910537Y-76750506D01*
X57831185Y-76653815D01*
X57734494Y-76574463D01*
X57624180Y-76515498D01*
X57504482Y-76479188D01*
X57380000Y-76466928D01*
X54380000Y-76466928D01*
X54255518Y-76479188D01*
X54230445Y-76486794D01*
X56057240Y-74660000D01*
X59299681Y-74660000D01*
X59380000Y-74667911D01*
X59460319Y-74660000D01*
X59460322Y-74660000D01*
X59700516Y-74636343D01*
X60008715Y-74542852D01*
X60292752Y-74391031D01*
X60541714Y-74186714D01*
X60592925Y-74124313D01*
X60789314Y-73927924D01*
X60851714Y-73876714D01*
X61056031Y-73627752D01*
X61207852Y-73343715D01*
X61301343Y-73035516D01*
X61325000Y-72795322D01*
X61325000Y-72795320D01*
X61332911Y-72715001D01*
X61325000Y-72634681D01*
X61325000Y-62138006D01*
X61443871Y-62030955D01*
X61453860Y-62020894D01*
X61676186Y-61770444D01*
X61684991Y-61759333D01*
X61878018Y-61485663D01*
X61885530Y-61473640D01*
X62046851Y-61180162D01*
X62052976Y-61167376D01*
X62180582Y-60857745D01*
X62185244Y-60844356D01*
X62277544Y-60522432D01*
X62280685Y-60508608D01*
X62336530Y-60178402D01*
X62338110Y-60164312D01*
X62343067Y-60075638D01*
X62587248Y-60276031D01*
X62871285Y-60427852D01*
X63179484Y-60521343D01*
X63500000Y-60552911D01*
X63580322Y-60545000D01*
X63622762Y-60545000D01*
X74565001Y-71487240D01*
X74565000Y-74381362D01*
X74538286Y-74403286D01*
X74333969Y-74652248D01*
X74182148Y-74936285D01*
X74088657Y-75244484D01*
X74057089Y-75565000D01*
X74088657Y-75885516D01*
X74182148Y-76193715D01*
X74333969Y-76477752D01*
X74538286Y-76726714D01*
X74787248Y-76931031D01*
X75071285Y-77082852D01*
X75379484Y-77176343D01*
X75619678Y-77200000D01*
X76119678Y-77200000D01*
X76200000Y-77207911D01*
X76280322Y-77200000D01*
X76780322Y-77200000D01*
X77020516Y-77176343D01*
X77328715Y-77082852D01*
X77612752Y-76931031D01*
X77861714Y-76726714D01*
X78066031Y-76477752D01*
X78217852Y-76193715D01*
X78311343Y-75885516D01*
X78342911Y-75565000D01*
X78311343Y-75244484D01*
X78217852Y-74936285D01*
X78066031Y-74652248D01*
X77861714Y-74403286D01*
X77835000Y-74381362D01*
X77835000Y-70890319D01*
X77842911Y-70809999D01*
X77835000Y-70729678D01*
X77811343Y-70489484D01*
X77717852Y-70181285D01*
X77566031Y-69897248D01*
X77361714Y-69648286D01*
X77299319Y-69597080D01*
X65512925Y-57810687D01*
X65461714Y-57748286D01*
X65212752Y-57543969D01*
X65135000Y-57502410D01*
X65135000Y-57209208D01*
X65224999Y-57218072D01*
X65875001Y-57218072D01*
X66048255Y-57201008D01*
X66214851Y-57150472D01*
X66368387Y-57068405D01*
X66433461Y-57015000D01*
X67664712Y-57015000D01*
X67760785Y-57066352D01*
X68068984Y-57159843D01*
X68309178Y-57183500D01*
X71444762Y-57183500D01*
X73295001Y-59033741D01*
X73295000Y-64054680D01*
X73287089Y-64135000D01*
X73295000Y-64215319D01*
X73295000Y-64215321D01*
X73318657Y-64455515D01*
X73412148Y-64763714D01*
X73563969Y-65047751D01*
X73768286Y-65296714D01*
X73830686Y-65347924D01*
X74075588Y-65592827D01*
X74088657Y-65725516D01*
X74182148Y-66033715D01*
X74333969Y-66317752D01*
X74538286Y-66566714D01*
X74787248Y-66771031D01*
X75071285Y-66922852D01*
X75379484Y-67016343D01*
X75619678Y-67040000D01*
X76119680Y-67040000D01*
X76199999Y-67047911D01*
X76280319Y-67040000D01*
X76780322Y-67040000D01*
X77020516Y-67016343D01*
X77328715Y-66922852D01*
X77612752Y-66771031D01*
X77861714Y-66566714D01*
X78066031Y-66317752D01*
X78217852Y-66033715D01*
X78311343Y-65725516D01*
X78342911Y-65405000D01*
X78311343Y-65084484D01*
X78217852Y-64776285D01*
X78066031Y-64492248D01*
X77861714Y-64243286D01*
X77612752Y-64038969D01*
X77328715Y-63887148D01*
X77020516Y-63793657D01*
X76887827Y-63780588D01*
X76565000Y-63457762D01*
X76565000Y-59685708D01*
X76654999Y-59694572D01*
X77305001Y-59694572D01*
X77478255Y-59677508D01*
X77644851Y-59626972D01*
X77798387Y-59544905D01*
X77932962Y-59434462D01*
X78043405Y-59299887D01*
X78125472Y-59146351D01*
X78176008Y-58979755D01*
X78193072Y-58806501D01*
X78193072Y-57906499D01*
X78176008Y-57733245D01*
X78125472Y-57566649D01*
X78120422Y-57557201D01*
X78120491Y-57556500D01*
X78098577Y-57334001D01*
X78033676Y-57120053D01*
X77928284Y-56922877D01*
X77903017Y-56892089D01*
X77786449Y-56750051D01*
X77743141Y-56714509D01*
X77644823Y-56616191D01*
X77780484Y-56657343D01*
X78020678Y-56681000D01*
X79681322Y-56681000D01*
X79921516Y-56657343D01*
X80229715Y-56563852D01*
X80513752Y-56412031D01*
X80762714Y-56207714D01*
X80967031Y-55958752D01*
X81118852Y-55674715D01*
X81212343Y-55366516D01*
X81243911Y-55046000D01*
X81212343Y-54725484D01*
X81118852Y-54417285D01*
X80967031Y-54133248D01*
X80762714Y-53884286D01*
X80513752Y-53679969D01*
X80229715Y-53528148D01*
X79921516Y-53434657D01*
X79681322Y-53411000D01*
X78020678Y-53411000D01*
X77780484Y-53434657D01*
X77472285Y-53528148D01*
X77188248Y-53679969D01*
X76939286Y-53884286D01*
X76734969Y-54133248D01*
X76583148Y-54417285D01*
X76489657Y-54725484D01*
X76458089Y-55046000D01*
X76489657Y-55366516D01*
X76530810Y-55502178D01*
X75840381Y-54811750D01*
X77816609Y-52835524D01*
X77851000Y-52838911D01*
X78171516Y-52807343D01*
X78479715Y-52713852D01*
X78763752Y-52562031D01*
X79012714Y-52357714D01*
X79217031Y-52108752D01*
X79368852Y-51824715D01*
X79462343Y-51516516D01*
X79486000Y-51276322D01*
X79486000Y-51000432D01*
X79579320Y-51225727D01*
X79736363Y-51460759D01*
X79936241Y-51660637D01*
X80171273Y-51817680D01*
X80432426Y-51925853D01*
X80709665Y-51981000D01*
X80992335Y-51981000D01*
X81269574Y-51925853D01*
X81530727Y-51817680D01*
X81765759Y-51660637D01*
X81965637Y-51460759D01*
X82122680Y-51225727D01*
X82230853Y-50964574D01*
X82286000Y-50687335D01*
X82286000Y-50404665D01*
X82230853Y-50127426D01*
X82122680Y-49866273D01*
X81965637Y-49631241D01*
X81765759Y-49431363D01*
X81530727Y-49274320D01*
X81269574Y-49166147D01*
X80992335Y-49111000D01*
X80709665Y-49111000D01*
X80432426Y-49166147D01*
X80171273Y-49274320D01*
X79936241Y-49431363D01*
X79736363Y-49631241D01*
X79579320Y-49866273D01*
X79486000Y-50091568D01*
X79486000Y-49815678D01*
X79462343Y-49575484D01*
X79368852Y-49267285D01*
X79217031Y-48983248D01*
X79012714Y-48734286D01*
X78763751Y-48529969D01*
X78479714Y-48378148D01*
X78171515Y-48284657D01*
X77851000Y-48253089D01*
X77530484Y-48284657D01*
X77222285Y-48378148D01*
X76938248Y-48529969D01*
X76689286Y-48734286D01*
X76484969Y-48983249D01*
X76333148Y-49267286D01*
X76239657Y-49575485D01*
X76216000Y-49815679D01*
X76216000Y-51225868D01*
X74086369Y-53355500D01*
X73969751Y-53355500D01*
X73914000Y-53350009D01*
X73858249Y-53355500D01*
X73858248Y-53355500D01*
X73691501Y-53371923D01*
X73477553Y-53436824D01*
X73280377Y-53542216D01*
X73107551Y-53684051D01*
X72965716Y-53856877D01*
X72860324Y-54054053D01*
X72851141Y-54084327D01*
X72750715Y-54030648D01*
X72442516Y-53937157D01*
X72202322Y-53913500D01*
X72202319Y-53913500D01*
X72122000Y-53905589D01*
X72041681Y-53913500D01*
X70808500Y-53913500D01*
X70808500Y-48258752D01*
X70813991Y-48203000D01*
X70792077Y-47980501D01*
X70727176Y-47766553D01*
X70621784Y-47569377D01*
X70575789Y-47513332D01*
X70479949Y-47396551D01*
X70436641Y-47361009D01*
X69121632Y-46046000D01*
X76458089Y-46046000D01*
X76489657Y-46366516D01*
X76583148Y-46674715D01*
X76734969Y-46958752D01*
X76939286Y-47207714D01*
X77188248Y-47412031D01*
X77472285Y-47563852D01*
X77780484Y-47657343D01*
X78020678Y-47681000D01*
X79681322Y-47681000D01*
X79921516Y-47657343D01*
X80229715Y-47563852D01*
X80513752Y-47412031D01*
X80762714Y-47207714D01*
X80967031Y-46958752D01*
X81118852Y-46674715D01*
X81212343Y-46366516D01*
X81243911Y-46046000D01*
X81212343Y-45725484D01*
X81118852Y-45417285D01*
X80967031Y-45133248D01*
X80762714Y-44884286D01*
X80513752Y-44679969D01*
X80229715Y-44528148D01*
X79921516Y-44434657D01*
X79681322Y-44411000D01*
X78020678Y-44411000D01*
X77780484Y-44434657D01*
X77472285Y-44528148D01*
X77188248Y-44679969D01*
X76939286Y-44884286D01*
X76734969Y-45133248D01*
X76583148Y-45417285D01*
X76489657Y-45725484D01*
X76458089Y-46046000D01*
X69121632Y-46046000D01*
X67235072Y-44159441D01*
X67235072Y-43301499D01*
X67218008Y-43128245D01*
X67167472Y-42961649D01*
X67085405Y-42808113D01*
X66974962Y-42673538D01*
X66840387Y-42563095D01*
X66686851Y-42481028D01*
X66520255Y-42430492D01*
X66347001Y-42413428D01*
X65696999Y-42413428D01*
X65523745Y-42430492D01*
X65357149Y-42481028D01*
X65203613Y-42563095D01*
X65069038Y-42673538D01*
X64958595Y-42808113D01*
X64876528Y-42961649D01*
X64825992Y-43128245D01*
X64808928Y-43301499D01*
X64808928Y-44201501D01*
X64825992Y-44374755D01*
X64876528Y-44541351D01*
X64881578Y-44550799D01*
X64881509Y-44551500D01*
X64887000Y-44607251D01*
X64903423Y-44773998D01*
X64968324Y-44987946D01*
X65073716Y-45185123D01*
X65215551Y-45357949D01*
X65258865Y-45393496D01*
X68538501Y-48673133D01*
X68538501Y-51303369D01*
X68278072Y-51042941D01*
X68278072Y-50984999D01*
X68261008Y-50811745D01*
X68210472Y-50645149D01*
X68128405Y-50491613D01*
X68017962Y-50357038D01*
X67883387Y-50246595D01*
X67729851Y-50164528D01*
X67563255Y-50113992D01*
X67390001Y-50096928D01*
X66739999Y-50096928D01*
X66566745Y-50113992D01*
X66400149Y-50164528D01*
X66246613Y-50246595D01*
X66112038Y-50357038D01*
X66001595Y-50491613D01*
X65919528Y-50645149D01*
X65868992Y-50811745D01*
X65851928Y-50984999D01*
X65851928Y-51885001D01*
X65868992Y-52058255D01*
X65919528Y-52224851D01*
X66001595Y-52378387D01*
X66112038Y-52512962D01*
X66246613Y-52623405D01*
X66400149Y-52705472D01*
X66566745Y-52756008D01*
X66739999Y-52773072D01*
X66797941Y-52773072D01*
X67254500Y-53229632D01*
X67254500Y-53854251D01*
X67270923Y-54020998D01*
X67276428Y-54039145D01*
X67276428Y-54086000D01*
X67293252Y-54256816D01*
X67311770Y-54317862D01*
X67227786Y-54386786D01*
X67023469Y-54635748D01*
X66965073Y-54745000D01*
X66433461Y-54745000D01*
X66368387Y-54691595D01*
X66214851Y-54609528D01*
X66048255Y-54558992D01*
X65875001Y-54541928D01*
X65224999Y-54541928D01*
X65051745Y-54558992D01*
X64885149Y-54609528D01*
X64731613Y-54691595D01*
X64676756Y-54736615D01*
X64661714Y-54718286D01*
X64412752Y-54513969D01*
X64128715Y-54362148D01*
X63820516Y-54268657D01*
X63500000Y-54237089D01*
X63179485Y-54268657D01*
X62871286Y-54362148D01*
X62587249Y-54513969D01*
X62357000Y-54702929D01*
X62357000Y-44859168D01*
X62375333Y-44533342D01*
X62429505Y-44215136D01*
X62519031Y-43905017D01*
X62642778Y-43606903D01*
X62799185Y-43324555D01*
X62986289Y-43061522D01*
X63201701Y-42821156D01*
X63442731Y-42606462D01*
X63706322Y-42420162D01*
X63989141Y-42264612D01*
X64287633Y-42141767D01*
X64598019Y-42053182D01*
X64916388Y-41999975D01*
X65242276Y-41982628D01*
X80181818Y-42027899D01*
X80181818Y-42027899D01*
G37*
X80181818Y-42027899D02*
X80506930Y-42047143D01*
X80824321Y-42102051D01*
X81133571Y-42192145D01*
X81430790Y-42316292D01*
X81712250Y-42472935D01*
X81974397Y-42660096D01*
X82213945Y-42875428D01*
X82427888Y-43116228D01*
X82613521Y-43379455D01*
X82768528Y-43661823D01*
X82890945Y-43959754D01*
X82979240Y-44269517D01*
X83032304Y-44587226D01*
X83049659Y-44912441D01*
X82932610Y-87049843D01*
X82916066Y-87173080D01*
X82871467Y-87280123D01*
X82800724Y-87372008D01*
X82708644Y-87442494D01*
X82601472Y-87486799D01*
X82478193Y-87503000D01*
X56343560Y-87503000D01*
X56018354Y-87484737D01*
X55700734Y-87430772D01*
X55391182Y-87341591D01*
X55093532Y-87218300D01*
X54811579Y-87062471D01*
X54548844Y-86876049D01*
X54308624Y-86661376D01*
X54093951Y-86421156D01*
X53907529Y-86158421D01*
X53751700Y-85876468D01*
X53628409Y-85578818D01*
X53539228Y-85269266D01*
X53485263Y-84951646D01*
X53467000Y-84626440D01*
X53467000Y-77750239D01*
X53479320Y-77737919D01*
X53541714Y-77686714D01*
X53741928Y-77442752D01*
X53741928Y-79105000D01*
X53754188Y-79229482D01*
X53790498Y-79349180D01*
X53849463Y-79459494D01*
X53928815Y-79556185D01*
X54025506Y-79635537D01*
X54135820Y-79694502D01*
X54255518Y-79730812D01*
X54380000Y-79743072D01*
X57380000Y-79743072D01*
X57504482Y-79730812D01*
X57624180Y-79694502D01*
X57734494Y-79635537D01*
X57831185Y-79556185D01*
X57910537Y-79459494D01*
X57969502Y-79349180D01*
X58005812Y-79229482D01*
X58018072Y-79105000D01*
X58018072Y-77105000D01*
X58005812Y-76980518D01*
X57969502Y-76860820D01*
X57910537Y-76750506D01*
X57831185Y-76653815D01*
X57734494Y-76574463D01*
X57624180Y-76515498D01*
X57504482Y-76479188D01*
X57380000Y-76466928D01*
X54380000Y-76466928D01*
X54255518Y-76479188D01*
X54230445Y-76486794D01*
X56057240Y-74660000D01*
X59299681Y-74660000D01*
X59380000Y-74667911D01*
X59460319Y-74660000D01*
X59460322Y-74660000D01*
X59700516Y-74636343D01*
X60008715Y-74542852D01*
X60292752Y-74391031D01*
X60541714Y-74186714D01*
X60592925Y-74124313D01*
X60789314Y-73927924D01*
X60851714Y-73876714D01*
X61056031Y-73627752D01*
X61207852Y-73343715D01*
X61301343Y-73035516D01*
X61325000Y-72795322D01*
X61325000Y-72795320D01*
X61332911Y-72715001D01*
X61325000Y-72634681D01*
X61325000Y-62138006D01*
X61443871Y-62030955D01*
X61453860Y-62020894D01*
X61676186Y-61770444D01*
X61684991Y-61759333D01*
X61878018Y-61485663D01*
X61885530Y-61473640D01*
X62046851Y-61180162D01*
X62052976Y-61167376D01*
X62180582Y-60857745D01*
X62185244Y-60844356D01*
X62277544Y-60522432D01*
X62280685Y-60508608D01*
X62336530Y-60178402D01*
X62338110Y-60164312D01*
X62343067Y-60075638D01*
X62587248Y-60276031D01*
X62871285Y-60427852D01*
X63179484Y-60521343D01*
X63500000Y-60552911D01*
X63580322Y-60545000D01*
X63622762Y-60545000D01*
X74565001Y-71487240D01*
X74565000Y-74381362D01*
X74538286Y-74403286D01*
X74333969Y-74652248D01*
X74182148Y-74936285D01*
X74088657Y-75244484D01*
X74057089Y-75565000D01*
X74088657Y-75885516D01*
X74182148Y-76193715D01*
X74333969Y-76477752D01*
X74538286Y-76726714D01*
X74787248Y-76931031D01*
X75071285Y-77082852D01*
X75379484Y-77176343D01*
X75619678Y-77200000D01*
X76119678Y-77200000D01*
X76200000Y-77207911D01*
X76280322Y-77200000D01*
X76780322Y-77200000D01*
X77020516Y-77176343D01*
X77328715Y-77082852D01*
X77612752Y-76931031D01*
X77861714Y-76726714D01*
X78066031Y-76477752D01*
X78217852Y-76193715D01*
X78311343Y-75885516D01*
X78342911Y-75565000D01*
X78311343Y-75244484D01*
X78217852Y-74936285D01*
X78066031Y-74652248D01*
X77861714Y-74403286D01*
X77835000Y-74381362D01*
X77835000Y-70890319D01*
X77842911Y-70809999D01*
X77835000Y-70729678D01*
X77811343Y-70489484D01*
X77717852Y-70181285D01*
X77566031Y-69897248D01*
X77361714Y-69648286D01*
X77299319Y-69597080D01*
X65512925Y-57810687D01*
X65461714Y-57748286D01*
X65212752Y-57543969D01*
X65135000Y-57502410D01*
X65135000Y-57209208D01*
X65224999Y-57218072D01*
X65875001Y-57218072D01*
X66048255Y-57201008D01*
X66214851Y-57150472D01*
X66368387Y-57068405D01*
X66433461Y-57015000D01*
X67664712Y-57015000D01*
X67760785Y-57066352D01*
X68068984Y-57159843D01*
X68309178Y-57183500D01*
X71444762Y-57183500D01*
X73295001Y-59033741D01*
X73295000Y-64054680D01*
X73287089Y-64135000D01*
X73295000Y-64215319D01*
X73295000Y-64215321D01*
X73318657Y-64455515D01*
X73412148Y-64763714D01*
X73563969Y-65047751D01*
X73768286Y-65296714D01*
X73830686Y-65347924D01*
X74075588Y-65592827D01*
X74088657Y-65725516D01*
X74182148Y-66033715D01*
X74333969Y-66317752D01*
X74538286Y-66566714D01*
X74787248Y-66771031D01*
X75071285Y-66922852D01*
X75379484Y-67016343D01*
X75619678Y-67040000D01*
X76119680Y-67040000D01*
X76199999Y-67047911D01*
X76280319Y-67040000D01*
X76780322Y-67040000D01*
X77020516Y-67016343D01*
X77328715Y-66922852D01*
X77612752Y-66771031D01*
X77861714Y-66566714D01*
X78066031Y-66317752D01*
X78217852Y-66033715D01*
X78311343Y-65725516D01*
X78342911Y-65405000D01*
X78311343Y-65084484D01*
X78217852Y-64776285D01*
X78066031Y-64492248D01*
X77861714Y-64243286D01*
X77612752Y-64038969D01*
X77328715Y-63887148D01*
X77020516Y-63793657D01*
X76887827Y-63780588D01*
X76565000Y-63457762D01*
X76565000Y-59685708D01*
X76654999Y-59694572D01*
X77305001Y-59694572D01*
X77478255Y-59677508D01*
X77644851Y-59626972D01*
X77798387Y-59544905D01*
X77932962Y-59434462D01*
X78043405Y-59299887D01*
X78125472Y-59146351D01*
X78176008Y-58979755D01*
X78193072Y-58806501D01*
X78193072Y-57906499D01*
X78176008Y-57733245D01*
X78125472Y-57566649D01*
X78120422Y-57557201D01*
X78120491Y-57556500D01*
X78098577Y-57334001D01*
X78033676Y-57120053D01*
X77928284Y-56922877D01*
X77903017Y-56892089D01*
X77786449Y-56750051D01*
X77743141Y-56714509D01*
X77644823Y-56616191D01*
X77780484Y-56657343D01*
X78020678Y-56681000D01*
X79681322Y-56681000D01*
X79921516Y-56657343D01*
X80229715Y-56563852D01*
X80513752Y-56412031D01*
X80762714Y-56207714D01*
X80967031Y-55958752D01*
X81118852Y-55674715D01*
X81212343Y-55366516D01*
X81243911Y-55046000D01*
X81212343Y-54725484D01*
X81118852Y-54417285D01*
X80967031Y-54133248D01*
X80762714Y-53884286D01*
X80513752Y-53679969D01*
X80229715Y-53528148D01*
X79921516Y-53434657D01*
X79681322Y-53411000D01*
X78020678Y-53411000D01*
X77780484Y-53434657D01*
X77472285Y-53528148D01*
X77188248Y-53679969D01*
X76939286Y-53884286D01*
X76734969Y-54133248D01*
X76583148Y-54417285D01*
X76489657Y-54725484D01*
X76458089Y-55046000D01*
X76489657Y-55366516D01*
X76530810Y-55502178D01*
X75840381Y-54811750D01*
X77816609Y-52835524D01*
X77851000Y-52838911D01*
X78171516Y-52807343D01*
X78479715Y-52713852D01*
X78763752Y-52562031D01*
X79012714Y-52357714D01*
X79217031Y-52108752D01*
X79368852Y-51824715D01*
X79462343Y-51516516D01*
X79486000Y-51276322D01*
X79486000Y-51000432D01*
X79579320Y-51225727D01*
X79736363Y-51460759D01*
X79936241Y-51660637D01*
X80171273Y-51817680D01*
X80432426Y-51925853D01*
X80709665Y-51981000D01*
X80992335Y-51981000D01*
X81269574Y-51925853D01*
X81530727Y-51817680D01*
X81765759Y-51660637D01*
X81965637Y-51460759D01*
X82122680Y-51225727D01*
X82230853Y-50964574D01*
X82286000Y-50687335D01*
X82286000Y-50404665D01*
X82230853Y-50127426D01*
X82122680Y-49866273D01*
X81965637Y-49631241D01*
X81765759Y-49431363D01*
X81530727Y-49274320D01*
X81269574Y-49166147D01*
X80992335Y-49111000D01*
X80709665Y-49111000D01*
X80432426Y-49166147D01*
X80171273Y-49274320D01*
X79936241Y-49431363D01*
X79736363Y-49631241D01*
X79579320Y-49866273D01*
X79486000Y-50091568D01*
X79486000Y-49815678D01*
X79462343Y-49575484D01*
X79368852Y-49267285D01*
X79217031Y-48983248D01*
X79012714Y-48734286D01*
X78763751Y-48529969D01*
X78479714Y-48378148D01*
X78171515Y-48284657D01*
X77851000Y-48253089D01*
X77530484Y-48284657D01*
X77222285Y-48378148D01*
X76938248Y-48529969D01*
X76689286Y-48734286D01*
X76484969Y-48983249D01*
X76333148Y-49267286D01*
X76239657Y-49575485D01*
X76216000Y-49815679D01*
X76216000Y-51225868D01*
X74086369Y-53355500D01*
X73969751Y-53355500D01*
X73914000Y-53350009D01*
X73858249Y-53355500D01*
X73858248Y-53355500D01*
X73691501Y-53371923D01*
X73477553Y-53436824D01*
X73280377Y-53542216D01*
X73107551Y-53684051D01*
X72965716Y-53856877D01*
X72860324Y-54054053D01*
X72851141Y-54084327D01*
X72750715Y-54030648D01*
X72442516Y-53937157D01*
X72202322Y-53913500D01*
X72202319Y-53913500D01*
X72122000Y-53905589D01*
X72041681Y-53913500D01*
X70808500Y-53913500D01*
X70808500Y-48258752D01*
X70813991Y-48203000D01*
X70792077Y-47980501D01*
X70727176Y-47766553D01*
X70621784Y-47569377D01*
X70575789Y-47513332D01*
X70479949Y-47396551D01*
X70436641Y-47361009D01*
X69121632Y-46046000D01*
X76458089Y-46046000D01*
X76489657Y-46366516D01*
X76583148Y-46674715D01*
X76734969Y-46958752D01*
X76939286Y-47207714D01*
X77188248Y-47412031D01*
X77472285Y-47563852D01*
X77780484Y-47657343D01*
X78020678Y-47681000D01*
X79681322Y-47681000D01*
X79921516Y-47657343D01*
X80229715Y-47563852D01*
X80513752Y-47412031D01*
X80762714Y-47207714D01*
X80967031Y-46958752D01*
X81118852Y-46674715D01*
X81212343Y-46366516D01*
X81243911Y-46046000D01*
X81212343Y-45725484D01*
X81118852Y-45417285D01*
X80967031Y-45133248D01*
X80762714Y-44884286D01*
X80513752Y-44679969D01*
X80229715Y-44528148D01*
X79921516Y-44434657D01*
X79681322Y-44411000D01*
X78020678Y-44411000D01*
X77780484Y-44434657D01*
X77472285Y-44528148D01*
X77188248Y-44679969D01*
X76939286Y-44884286D01*
X76734969Y-45133248D01*
X76583148Y-45417285D01*
X76489657Y-45725484D01*
X76458089Y-46046000D01*
X69121632Y-46046000D01*
X67235072Y-44159441D01*
X67235072Y-43301499D01*
X67218008Y-43128245D01*
X67167472Y-42961649D01*
X67085405Y-42808113D01*
X66974962Y-42673538D01*
X66840387Y-42563095D01*
X66686851Y-42481028D01*
X66520255Y-42430492D01*
X66347001Y-42413428D01*
X65696999Y-42413428D01*
X65523745Y-42430492D01*
X65357149Y-42481028D01*
X65203613Y-42563095D01*
X65069038Y-42673538D01*
X64958595Y-42808113D01*
X64876528Y-42961649D01*
X64825992Y-43128245D01*
X64808928Y-43301499D01*
X64808928Y-44201501D01*
X64825992Y-44374755D01*
X64876528Y-44541351D01*
X64881578Y-44550799D01*
X64881509Y-44551500D01*
X64887000Y-44607251D01*
X64903423Y-44773998D01*
X64968324Y-44987946D01*
X65073716Y-45185123D01*
X65215551Y-45357949D01*
X65258865Y-45393496D01*
X68538501Y-48673133D01*
X68538501Y-51303369D01*
X68278072Y-51042941D01*
X68278072Y-50984999D01*
X68261008Y-50811745D01*
X68210472Y-50645149D01*
X68128405Y-50491613D01*
X68017962Y-50357038D01*
X67883387Y-50246595D01*
X67729851Y-50164528D01*
X67563255Y-50113992D01*
X67390001Y-50096928D01*
X66739999Y-50096928D01*
X66566745Y-50113992D01*
X66400149Y-50164528D01*
X66246613Y-50246595D01*
X66112038Y-50357038D01*
X66001595Y-50491613D01*
X65919528Y-50645149D01*
X65868992Y-50811745D01*
X65851928Y-50984999D01*
X65851928Y-51885001D01*
X65868992Y-52058255D01*
X65919528Y-52224851D01*
X66001595Y-52378387D01*
X66112038Y-52512962D01*
X66246613Y-52623405D01*
X66400149Y-52705472D01*
X66566745Y-52756008D01*
X66739999Y-52773072D01*
X66797941Y-52773072D01*
X67254500Y-53229632D01*
X67254500Y-53854251D01*
X67270923Y-54020998D01*
X67276428Y-54039145D01*
X67276428Y-54086000D01*
X67293252Y-54256816D01*
X67311770Y-54317862D01*
X67227786Y-54386786D01*
X67023469Y-54635748D01*
X66965073Y-54745000D01*
X66433461Y-54745000D01*
X66368387Y-54691595D01*
X66214851Y-54609528D01*
X66048255Y-54558992D01*
X65875001Y-54541928D01*
X65224999Y-54541928D01*
X65051745Y-54558992D01*
X64885149Y-54609528D01*
X64731613Y-54691595D01*
X64676756Y-54736615D01*
X64661714Y-54718286D01*
X64412752Y-54513969D01*
X64128715Y-54362148D01*
X63820516Y-54268657D01*
X63500000Y-54237089D01*
X63179485Y-54268657D01*
X62871286Y-54362148D01*
X62587249Y-54513969D01*
X62357000Y-54702929D01*
X62357000Y-44859168D01*
X62375333Y-44533342D01*
X62429505Y-44215136D01*
X62519031Y-43905017D01*
X62642778Y-43606903D01*
X62799185Y-43324555D01*
X62986289Y-43061522D01*
X63201701Y-42821156D01*
X63442731Y-42606462D01*
X63706322Y-42420162D01*
X63989141Y-42264612D01*
X64287633Y-42141767D01*
X64598019Y-42053182D01*
X64916388Y-41999975D01*
X65242276Y-41982628D01*
X80181818Y-42027899D01*
M02*
